<?xml version="1.0" encoding="utf-8"?>
<svg version="1.1" id="icons" xmlns="http://www.w3.org/2000/svg" xmlns:xlink="http://www.w3.org/1999/xlink" x="0px" y="0px"
	 viewBox="0 0 50 50" style="enable-background:new 0 0 50 50;" xml:space="preserve">
<g>
	<g>
		<path d="M39.7,36.8c-0.2,1.1-0.5,2.1-0.8,3.1h1.9L39.7,36.8z"/>
		<path d="M32.5,9.4v7.1l7.2,20.3c0.7-3.5,0.8-7.5,0.8-11.8C40.6,17.2,38.1,14,32.5,9.4z"/>
	</g>
	<g>
		<path d="M25,0C11.2,0,0,11.2,0,25c0,7.8,3.6,14.8,9.2,19.4v-7.8V10.1h6.6v15c1.9-1.1,4.2-1.8,6.6-1.8
			c0.2,0,0.5,0,0.7,0c0.1,0,0.1,0,0.2,0c0.2,0,0.3,0,0.5,0c0.1,0,0.2,0,0.2,0c0.1,0,0.3,0,0.4,0.1c0.1,0,0.2,0,0.2,0
			c0.1,0,0.3,0.1,0.4,0.1c0.1,0,0.2,0,0.2,0.1c0.1,0,0.3,0.1,0.4,0.1c0.1,0,0.1,0,0.2,0.1c0.1,0,0.3,0.1,0.4,0.1
			c0.1,0,0.1,0,0.2,0.1c0.1,0,0.3,0.1,0.4,0.1c0.1,0,0.1,0.1,0.2,0.1c0.1,0.1,0.3,0.1,0.4,0.2c0.1,0,0.1,0.1,0.2,0.1
			c0.1,0.1,0.3,0.1,0.4,0.2c0,0,0.1,0,0.1,0.1c0.2,0.1,0.3,0.2,0.4,0.2c0,0,0.1,0,0.1,0.1c0.2,0.1,0.3,0.2,0.5,0.3
			c0,0,0.1,0,0.1,0.1c0.2,0.1,0.3,0.2,0.5,0.3c0,0,0.1,0,0.1,0.1c0.2,0.1,0.3,0.2,0.5,0.3c0,0,0,0,0.1,0c0.2,0.1,0.3,0.3,0.5,0.4
			c0,0,0,0,0,0c0.2,0.1,0.3,0.3,0.5,0.4c0,0,0,0,0,0c0.2,0.2,0.3,0.3,0.5,0.5l0,0c2.2,2.4,3.5,5.5,3.5,9c0,7.3-5.9,13.2-13.2,13.2
			c-0.5,0-1.1,0-1.6-0.1c1.4,0.2,2.8,0.4,4.2,0.4c13.8,0,25-11.2,25-25C50,11.2,38.8,0,25,0z"/>
		<path d="M26.9,31.7c-0.2-0.1-0.3-0.3-0.5-0.4c0,0,0,0-0.1-0.1c-0.2-0.1-0.3-0.2-0.5-0.3c0,0-0.1,0-0.1-0.1
			c-0.2-0.1-0.3-0.2-0.5-0.3c0,0-0.1,0-0.1-0.1c-0.2-0.1-0.3-0.1-0.5-0.2c-0.1,0-0.1,0-0.2-0.1c-0.2,0-0.3-0.1-0.5-0.1
			c-0.1,0-0.1,0-0.2-0.1c-0.2,0-0.3-0.1-0.5-0.1c-0.1,0-0.1,0-0.2,0c-0.2,0-0.5,0-0.7,0c-3.6,0-6.6,3-6.6,6.6c0,3.6,3,6.6,6.6,6.6
			s6.6-3,6.6-6.6c0-1.7-0.6-3.2-1.6-4.3C27.2,32,27.1,31.9,26.9,31.7C26.9,31.7,26.9,31.7,26.9,31.7z"/>
		<path style="fill:#00B5E2;" d="M20.8,49.6c-0.9-0.1-1.7-0.3-2.5-0.6C19.1,49.3,19.9,49.5,20.8,49.6z"/>
		<path style="fill:#00B1DA;" d="M35.6,36.5c0-3.5-1.3-6.6-3.5-9l0,0l-4.7,4.7c1,1.2,1.6,2.7,1.6,4.3c0,3.6-3,6.6-6.6,6.6s-6.6-3-6.6-6.6
			v11.7c1,0.4,1.8,0.6,2.5,0.8c0.8,0.2,1.7,0.4,2.5,0.6c0.5,0.1,1.1,0.1,1.6,0.1C29.7,49.7,35.6,43.8,35.6,36.5z"/>
		<path style="fill:#00B1DA;" d="M15.8,25.1v-15H9.2v26.4C9.2,31.6,11.9,27.4,15.8,25.1z"/>
	</g>
</g>
</svg>
