<?xml version="1.0" encoding="utf-8"?>
<svg version="1.1" id="icons" xmlns="http://www.w3.org/2000/svg" xmlns:xlink="http://www.w3.org/1999/xlink" x="0px" y="0px"
	 viewBox="0 0 50 50" style="enable-background:new 0 0 50 50;" xml:space="preserve">
<linearGradient id="default-gradient" gradientUnits="userSpaceOnUse" x1="49.4318" y1="0.5682" x2="0.5154" y2="49.4847">
	<stop offset="0" style="stop-color:#00ACFB"/>
	<stop offset="0.3" style="stop-color:#00B5E2"/>
	<stop offset="1" style="stop-color:#F674F7"/>
</linearGradient>
<path style="fill:url(#default-gradient);" d="M40.9,4.5c2.5,0,4.5,2,4.5,4.5v31.8c0,2.5-2,4.5-4.5,4.5H9.1c-2.5,0-4.5-2-4.5-4.5V9.1c0-2.5,2-4.5,4.5-4.5
	H40.9 M40.9,0H9.1C4.1,0,0,4.1,0,9.1v31.8c0,5,4.1,9.1,9.1,9.1h31.8c5,0,9.1-4.1,9.1-9.1V9.1C50,4.1,45.9,0,40.9,0L40.9,0z"/>
</svg>
