<svg xmlns="http://www.w3.org/2000/svg" width="76" height="76" viewBox="0 0 76 76"><title>ss-icon_</title><polygon points="65.8 13.43 75.21 13.43 75.21 62.57 0.79 62.57 0.79 13.43 65.8 13.43" fill="#fff"/><path d="M76,63.36H0V12.64H76ZM1.59,61.78H74.41V14.22H1.59Z" fill="#0c3d6d"/><rect x="0.79" y="43.53" width="74.19" height="1.59" fill="#0c3d6d"/><circle cx="38.02" cy="37.97" r="14.29" fill="#00acfb"/><path d="M38,25.27A12.7,12.7,0,1,1,25.32,38,12.71,12.71,0,0,1,38,25.27m0-1.59A14.29,14.29,0,1,0,52.3,38,14.29,14.29,0,0,0,38,23.68Z" fill="#0c3d6d"/><polygon points="33.33 30.67 33.33 45.32 46.02 37.98 33.33 30.67" fill="#fff"/></svg>