<svg xmlns="http://www.w3.org/2000/svg" width="76" height="76" viewBox="0 0 76 76"><title>ss-icon_</title><polyline points="34.38 54.55 42.67 54.55 57 54.55 67.86 65.41 67.86 54.55 75.09 54.55 75.09 15.65" fill="#fff"/><polygon points="68.76 67.59 56.63 55.45 34.38 55.45 34.38 53.65 57.38 53.65 66.95 63.22 66.95 53.65 74.19 53.65 74.19 15.65 76 15.65 76 55.45 68.76 55.45 68.76 67.59" fill="#0c3d6d"/><polygon points="45.24 48.22 18.09 48.22 7.24 59.07 7.24 48.22 0 48.22 0 8.41 45.24 8.41 45.24 48.22" fill="#00acfb"/><path d="M43.43,10.22V46.41H17.35l-.53.53L9,54.71v-8.3H1.81V10.22H43.43m1.81-1.81H0V48.22H7.24V59.07L18.1,48.22H45.24V8.41Z" fill="#0c3d6d"/><rect x="34.38" y="50.03" width="1.81" height="5.43" fill="#0c3d6d"/><rect x="47.05" y="15.65" width="28.95" height="1.81" fill="#0c3d6d"/><path d="M26.28,22.17A2.68,2.68,0,0,0,26,21a3,3,0,0,0-.72-1,3.81,3.81,0,0,0-1-.65A3.18,3.18,0,0,0,23,19.13a3.39,3.39,0,0,0-1.93.53,5.42,5.42,0,0,0-1.29,1.17,6,6,0,0,0-1,1.7l-3.61-1.66A8.64,8.64,0,0,1,16.81,18a8.45,8.45,0,0,1,1-1.05A7.11,7.11,0,0,1,19.2,16a7.81,7.81,0,0,1,1.71-.65A8.37,8.37,0,0,1,23,15.14a8,8,0,0,1,3,.54,7.41,7.41,0,0,1,2.39,1.49,7,7,0,0,1,1.59,2.23,6.63,6.63,0,0,1,.58,2.77,7,7,0,0,1-.28,2.07,6.06,6.06,0,0,1-.81,1.66,9.51,9.51,0,0,1-1.25,1.45q-.72.69-1.56,1.43l-.72.67a1.92,1.92,0,0,0-.39.48,1.48,1.48,0,0,0-.16.53,6.77,6.77,0,0,0,0,.76V33H21.09V30.41A5,5,0,0,1,21.26,29a3.45,3.45,0,0,1,.55-1.08,6.1,6.1,0,0,1,1-1q.62-.51,1.47-1.25a10,10,0,0,0,1.5-1.54A3.17,3.17,0,0,0,26.28,22.17ZM20.42,37.94a2.78,2.78,0,1,1,.81,2A2.69,2.69,0,0,1,20.42,37.94Z" fill="#fff"/><path d="M53.46,45.18a2.78,2.78,0,1,1,.81,2A2.69,2.69,0,0,1,53.46,45.18Zm4.84-4.7H54.24L54.06,22.8h4.42Z" fill="#0c3d6d"/></svg>