<?xml version="1.0" encoding="UTF-8" standalone="no"?>
<!-- Created with Inkscape (http://www.inkscape.org/) -->
<svg
   xmlns:dc="http://purl.org/dc/elements/1.1/"
   xmlns:cc="http://creativecommons.org/ns#"
   xmlns:rdf="http://www.w3.org/1999/02/22-rdf-syntax-ns#"
   xmlns:svg="http://www.w3.org/2000/svg"
   xmlns="http://www.w3.org/2000/svg"
   xmlns:xlink="http://www.w3.org/1999/xlink"
   xmlns:sodipodi="http://sodipodi.sourceforge.net/DTD/sodipodi-0.dtd"
   xmlns:inkscape="http://www.inkscape.org/namespaces/inkscape"
   width="744.09448819"
   height="1052.3622047"
   id="svg2"
   sodipodi:version="0.32"
   inkscape:version="0.46"
   sodipodi:docname="compound_templates_diagram.svg"
   inkscape:output_extension="org.inkscape.output.svg.inkscape">
  <defs
     id="defs4">
    <linearGradient
       y2="444.76208"
       x2="474.62259"
       y1="333.228"
       x1="474.62259"
       gradientUnits="userSpaceOnUse"
       id="XMLID_51_">
      <stop
         id="stop1053"
         style="stop-color:#00B2E8"
         offset="0" />
      <stop
         id="stop1055"
         style="stop-color:#00A5E3"
         offset="1" />
    </linearGradient>
    <filter
       id="AI_Shadow_1"
       filterUnits="objectBoundingBox">
      <feGaussianBlur
         result="blur"
         in="SourceAlpha"
         stdDeviation="2"
         id="feGaussianBlur626" />
      <feOffset
         result="offsetBlurredAlpha"
         in="blur"
         dy="1"
         dx="1"
         id="feOffset628" />
      <feMerge
         id="feMerge630">
        <feMergeNode
           in="offsetBlurredAlpha"
           id="feMergeNode632" />
        <feMergeNode
           in="SourceGraphic"
           id="feMergeNode634" />
      </feMerge>
    </filter>
    <inkscape:perspective
       sodipodi:type="inkscape:persp3d"
       inkscape:vp_x="0 : 526.18109 : 1"
       inkscape:vp_y="0 : 1000 : 0"
       inkscape:vp_z="744.09448 : 526.18109 : 1"
       inkscape:persp3d-origin="372.04724 : 350.78739 : 1"
       id="perspective10" />
    <linearGradient
       inkscape:collect="always"
       xlink:href="#XMLID_51_"
       id="linearGradient3354"
       gradientUnits="userSpaceOnUse"
       x1="474.62259"
       y1="333.228"
       x2="474.62259"
       y2="444.76208" />
    <linearGradient
       y2="444.76208"
       x2="474.62259"
       y1="333.228"
       x1="474.62259"
       gradientUnits="userSpaceOnUse"
       id="linearGradient3360">
      <stop
         id="stop3362"
         style="stop-color:#00B2E8"
         offset="0" />
      <stop
         id="stop3364"
         style="stop-color:#00A5E3"
         offset="1" />
    </linearGradient>
    <linearGradient
       y2="444.76208"
       x2="474.62259"
       y1="333.228"
       x1="474.62259"
       gradientUnits="userSpaceOnUse"
       id="linearGradient5281">
      <stop
         id="stop5283"
         style="stop-color:#00B2E8"
         offset="0" />
      <stop
         id="stop5285"
         style="stop-color:#00A5E3"
         offset="1" />
    </linearGradient>
    <linearGradient
       inkscape:collect="always"
       xlink:href="#XMLID_51_"
       id="linearGradient5318"
       gradientUnits="userSpaceOnUse"
       x1="474.62259"
       y1="333.228"
       x2="474.62259"
       y2="444.76208"
       gradientTransform="matrix(2.6864041,0,0,2.6912399,-165.00342,-347.80633)" />
    <linearGradient
       inkscape:collect="always"
       xlink:href="#XMLID_51_"
       id="linearGradient6814"
       gradientUnits="userSpaceOnUse"
       x1="474.62259"
       y1="333.228"
       x2="474.62259"
       y2="444.76208" />
    <linearGradient
       inkscape:collect="always"
       xlink:href="#XMLID_51_"
       id="linearGradient6823"
       gradientUnits="userSpaceOnUse"
       x1="474.62259"
       y1="333.228"
       x2="474.62259"
       y2="444.76208" />
  </defs>
  <sodipodi:namedview
     id="base"
     pagecolor="#ffffff"
     bordercolor="#666666"
     borderopacity="1.0"
     gridtolerance="10000"
     guidetolerance="10"
     objecttolerance="10"
     inkscape:pageopacity="0.0"
     inkscape:pageshadow="2"
     inkscape:zoom="1.16"
     inkscape:cx="446.27225"
     inkscape:cy="671.48724"
     inkscape:document-units="px"
     inkscape:current-layer="layer1"
     showgrid="false"
     showguides="true"
     inkscape:guide-bbox="true"
     inkscape:window-width="1600"
     inkscape:window-height="1123"
     inkscape:window-x="1600"
     inkscape:window-y="25" />
  <metadata
     id="metadata7">
    <rdf:RDF>
      <cc:Work
         rdf:about="">
        <dc:format>image/svg+xml</dc:format>
        <dc:type
           rdf:resource="http://purl.org/dc/dcmitype/StillImage" />
      </cc:Work>
    </rdf:RDF>
  </metadata>
  <g
     inkscape:label="Layer 1"
     inkscape:groupmode="layer"
     id="layer1">
    <g
       id="g1050"
       style="filter:url(#AI_Shadow_1)"
       transform="matrix(5.162583,0,0,7.3528617,-2006.492,-2484.0612)">
      <linearGradient
         id="linearGradient26687"
         gradientUnits="userSpaceOnUse"
         x1="474.62259"
         y1="333.228"
         x2="474.62259"
         y2="444.76208">
        <stop
           offset="0"
           style="stop-color:#00B2E8"
           id="stop26689" />
        <stop
           offset="1"
           style="stop-color:#00A5E3"
           id="stop26691" />
      </linearGradient>
      <path
         d="M 560.489,443.812 C 560.489,446.012 558.689,447.812 556.489,447.812 L 392.756,447.812 C 390.556,447.812 388.756,446.012 388.756,443.812 L 388.756,327.013 C 388.756,324.813 390.556,323.013 392.756,323.013 L 556.488,323.013 C 558.688,323.013 560.488,324.813 560.488,327.013 L 560.488,443.812 L 560.489,443.812 z"
         id="path1057"
         style="fill:url(#linearGradient6823)" />
      <path
         d="M 560.489,443.812 C 560.489,446.012 558.689,447.812 556.489,447.812 L 392.756,447.812 C 390.556,447.812 388.756,446.012 388.756,443.812 L 388.756,327.013 C 388.756,324.813 390.556,323.013 392.756,323.013 L 556.488,323.013 C 558.688,323.013 560.488,324.813 560.488,327.013 L 560.488,443.812 L 560.489,443.812 z"
         id="path1059"
         style="fill:none;stroke:#ffffff;stroke-width:2" />
    </g>
    <rect
       style="opacity:1;fill:#00a9e4;fill-opacity:0.51456311;stroke:#ffffff;stroke-width:8.62300014;stroke-linecap:round;stroke-linejoin:round;stroke-miterlimit:17;stroke-dasharray:none;stroke-opacity:1"
       id="rect2383"
       width="471.65265"
       height="214.8"
       x="48.572674"
       y="187.60654"
       ry="13.629971" />
    <text
       id="text1061"
       x="1535.085"
       y="817.55627"
       style="font-size:68.02325439px"
       transform="scale(0.842654,1.1867267)">
      <tspan
         x="1535.085"
         y="817.55627"
         font-size="15"
         id="tspan1063"
         style="font-size:85.02906799px;fill:#ffffff;font-family:Interstate-Bold">Running</tspan>
      <tspan
         x="1338.8431"
         y="925.25989"
         font-size="15"
         id="tspan1065"
         style="font-size:85.02906799px;fill:#ffffff;font-family:Interstate-Bold">Hippo Site Toolkit</tspan>
      <tspan
         x="1582.4517"
         y="1032.9635"
         font-size="15"
         id="tspan1067"
         style="font-size:85.02906799px;fill:#ffffff;font-family:Interstate-Bold">(HST)</tspan>
    </text>
    <text
       id="text3370"
       x="1152.605"
       y="593.21185"
       style="font-size:29.7340107px"
       transform="scale(0.92958,1.0757546)">
      <tspan
         x="1152.605"
         y="593.21185"
         font-size="15"
         id="tspan3372"
         style="font-size:37.1675148px;fill:#ffffff;font-family:Interstate-Bold">Running</tspan>
      <tspan
         x="1066.8247"
         y="640.29077"
         font-size="15"
         id="tspan3374"
         style="font-size:37.1675148px;fill:#ffffff;font-family:Interstate-Bold">Hippo Site Toolkit</tspan>
      <tspan
         x="1173.3097"
         y="687.36963"
         font-size="15"
         id="tspan3376"
         style="font-size:37.1675148px;fill:#ffffff;font-family:Interstate-Bold">(HST)</tspan>
    </text>
    <use
       x="0"
       y="0"
       xlink:href="#rect2383"
       id="use3405"
       transform="matrix(0.241485,0,0,0.7441161,65.011113,74.614573)"
       width="744.09448"
       height="1052.3622" />
    <use
       x="0"
       y="0"
       xlink:href="#use3405"
       id="use4179"
       transform="translate(147.40958,-0.5819249)"
       width="744.09448"
       height="1052.3622" />
    <use
       x="0"
       y="0"
       xlink:href="#use3405"
       id="use4181"
       transform="translate(291.88561,1.16384e-2)"
       width="744.09448"
       height="1052.3622" />
    <use
       x="0"
       y="0"
       xlink:href="#use3405"
       id="use4183"
       transform="matrix(0.7717828,0,0,0.2444848,30.510176,173.63186)"
       width="744.09448"
       height="1052.3622" />
    <use
       x="0"
       y="0"
       xlink:href="#use4183"
       id="use4185"
       transform="matrix(1,0,0,0.7104019,-3.6295022e-6,114.1711)"
       width="744.09448"
       height="1052.3622" />
    <use
       x="0"
       y="0"
       xlink:href="#use4183"
       id="use4187"
       transform="matrix(1,0,0,0.4764933,-0.7333809,204.77535)"
       width="744.09448"
       height="1052.3622" />
    <use
       x="0"
       y="0"
       xlink:href="#use4179"
       id="use4189"
       transform="matrix(0.3340508,0,0,0.8482731,158.59565,44.539724)"
       width="744.09448"
       height="1052.3622" />
    <use
       x="0"
       y="0"
       xlink:href="#use4189"
       id="use4191"
       transform="matrix(0.6214606,0,0,1,133.46719,-0.5819232)"
       width="744.09448"
       height="1052.3622" />
    <use
       x="0"
       y="0"
       xlink:href="#use4189"
       id="use4193"
       transform="matrix(0.4494978,0,0,1,205.73779,-0.5819232)"
       width="744.09448"
       height="1052.3622" />
    <use
       x="0"
       y="0"
       xlink:href="#use4181"
       id="use4195"
       transform="matrix(0.3360401,0,0,0.1759926,257.42953,187.12225)"
       width="744.09448"
       height="1052.3622" />
    <use
       x="0"
       y="0"
       xlink:href="#use4195"
       id="use4197"
       transform="translate(49.869904,1.7e-6)"
       width="744.09448"
       height="1052.3622" />
    <use
       x="0"
       y="0"
       xlink:href="#use4195"
       id="use4201"
       transform="matrix(0.7373155,0,0,1.8293825,100.65609,-147.79467)"
       width="744.09448"
       height="1052.3622" />
    <use
       x="0"
       y="0"
       xlink:href="#use4195"
       id="use4203"
       transform="matrix(0.6061948,0,0,1,199.93185,37.570771)"
       width="744.09448"
       height="1052.3622" />
    <use
       x="0"
       y="0"
       xlink:href="#use4195"
       id="use4207"
       transform="matrix(0.6622329,0,0,1,177.85865,76.813852)"
       width="744.09448"
       height="1052.3622" />
    <use
       x="0"
       y="0"
       xlink:href="#use4195"
       id="use4209"
       transform="translate(-1.0664763,100.09077)"
       width="744.09448"
       height="1052.3622" />
    <use
       x="0"
       y="0"
       xlink:href="#use4183"
       id="use4237"
       transform="matrix(1,0,0,0.551123,-0.7333809,214.67377)"
       width="744.09448"
       height="1052.3622" />
    <rect
       ry="26.038033"
       y="-74.360573"
       x="567.39325"
       height="655.87213"
       width="257.66675"
       id="use6829"
       style="fill:#00a9e4;fill-opacity:0.51456311;stroke:#ffffff;stroke-width:11.1370182;stroke-linecap:round;stroke-linejoin:round;stroke-miterlimit:17;stroke-dasharray:none;stroke-opacity:1" />
    <use
       x="0"
       y="0"
       xlink:href="#use6829"
       id="use6833"
       transform="matrix(0.7836131,0,0,8.8563367e-2,150.27723,-41.539928)"
       width="744.09448"
       height="1052.3622" />
    <use
       x="0"
       y="0"
       xlink:href="#use6833"
       id="use6845"
       transform="translate(0.5862069,74.137931)"
       width="744.09448"
       height="1052.3622" />
    <use
       x="0"
       y="0"
       xlink:href="#use6833"
       id="use6847"
       transform="matrix(1,0,0,1.2227208,-1.0000003e-7,156.7223)"
       width="744.09448"
       height="1052.3622" />
    <use
       x="0"
       y="0"
       xlink:href="#use6833"
       id="use6849"
       transform="translate(-0.2758621,231.03448)"
       width="744.09448"
       height="1052.3622" />
    <use
       x="0"
       y="0"
       xlink:href="#use6833"
       id="use6851"
       transform="matrix(1,0,0,1.4295329,1.4482759,322.13971)"
       width="744.09448"
       height="1052.3622" />
    <use
       x="0"
       y="0"
       xlink:href="#use6833"
       id="use6853"
       transform="matrix(1,0,0,0.7136447,1.1724139,380.6427)"
       width="744.09448"
       height="1052.3622" />
    <use
       x="0"
       y="0"
       xlink:href="#use6853"
       id="use6857"
       transform="translate(-0.2758621,51.724138)"
       width="744.09448"
       height="1052.3622" />
    <use
       x="0"
       y="0"
       xlink:href="#use6853"
       id="use6859"
       transform="translate(-1.1379311,103.44828)"
       width="744.09448"
       height="1052.3622" />
    <use
       x="0"
       y="0"
       xlink:href="#rect2383"
       id="use6863"
       transform="matrix(1,0,0,0.3845835,-1.82188e-2,-149.55156)"
       width="744.09448"
       height="1052.3622" />
    <use
       x="0"
       y="0"
       xlink:href="#use6853"
       id="use6865"
       transform="translate(-1.137931,160.34483)"
       width="744.09448"
       height="1052.3622" />
    <use
       x="0"
       y="0"
       xlink:href="#rect2383"
       id="use6867"
       transform="matrix(1,0,0,0.5369847,1.9817812,-64.131592)"
       width="744.09448"
       height="1052.3622" />
    <use
       x="0"
       y="0"
       xlink:href="#rect2383"
       id="use6869"
       transform="matrix(0.8819471,0,0,1.4282892,7.2292997,176.11741)"
       width="744.09448"
       height="1052.3622" />
    <use
       x="0"
       y="0"
       xlink:href="#rect2383"
       id="use6871"
       transform="matrix(0.3304851,0,0,0.5230184,56.357655,370.23053)"
       width="744.09448"
       height="1052.3622" />
    <use
       x="0"
       y="0"
       xlink:href="#use6871"
       id="use6873"
       transform="translate(192.51724,3.44828e-2)"
       width="744.09448"
       height="1052.3622" />
    <use
       x="0"
       y="0"
       xlink:href="#use6871"
       id="use6875"
       transform="translate(1.137931,140.2069)"
       width="744.09448"
       height="1052.3622" />
    <use
       x="0"
       y="0"
       xlink:href="#use6871"
       id="use6877"
       transform="translate(193.96552,140.7931)"
       width="744.09448"
       height="1052.3622" />
  </g>
</svg>
