<?xml version="1.0" encoding="utf-8"?>
<!--
  Copyright 2015 Hippo B.V. (http://www.onehippo.com)

  Licensed under the Apache License, Version 2.0 (the "License");
  you may not use this file except in compliance with the License.
  You may obtain a copy of the License at

       http://www.apache.org/licenses/LICENSE-2.0

  Unless required by applicable law or agreed to in writing, software
  distributed under the License is distributed on an "AS IS" BASIS,
  WITHOUT WARRANTIES OR CONDITIONS OF ANY KIND, either express or implied.
  See the License for the specific language governing permissions and
  limitations under the License.
-->
<!-- Generator: Adobe Illustrator 16.0.0, SVG Export Plug-In . SVG Version: 6.00 Build 0)  -->
<!DOCTYPE svg PUBLIC "-//W3C//DTD SVG 1.1//EN" "http://www.w3.org/Graphics/SVG/1.1/DTD/svg11.dtd">
<svg version="1.1" xmlns="http://www.w3.org/2000/svg" xmlns:xlink="http://www.w3.org/1999/xlink" x="0px" y="0px" width="36px"
	 height="28px" viewBox="0 0 36 28" enable-background="new 0 0 36 28" xml:space="preserve">
<g id="Vector_lines" display="none">
	<g display="inline">
		<path d="M19.207,2.036l0.42,2.761l0.093,0.614l0.592,0.19c0.501,0.161,0.946,0.344,1.361,0.56l0.562,0.292l0.505-0.38l2.177-1.64
			l0.06,0.055c0.725,0.667,1.61,1.482,2.195,2.232c-0.203,0.268-0.411,0.533-0.619,0.798c-0.333,0.424-0.678,0.863-1.007,1.318
			l-0.363,0.504l0.289,0.55c0.269,0.509,0.477,1.006,0.619,1.476l0.183,0.606l0.626,0.096l2.729,0.417v3.094l-2.745,0.416
			l-0.603,0.091l-0.196,0.577c-0.188,0.553-0.375,0.989-0.587,1.376l-0.297,0.543l0.352,0.51c0.521,0.755,1.049,1.414,1.677,2.178
			c-0.534,0.637-1.727,1.868-2.312,2.312l-2.126-1.663l-0.508-0.396L21.71,21.82c-0.438,0.227-0.916,0.427-1.385,0.58L19.714,22.6
			l-0.074,0.639l-0.045,0.396c-0.088,0.778-0.179,1.581-0.351,2.328h-3.125l-0.42-2.76l-0.093-0.611l-0.589-0.191
			c-0.504-0.163-0.951-0.348-1.367-0.562l-0.562-0.29l-0.504,0.383l-2.158,1.635c-0.761-0.687-1.675-1.518-2.277-2.279
			c0.205-0.271,0.415-0.538,0.625-0.806c0.333-0.424,0.678-0.862,1.007-1.318l0.365-0.507l-0.294-0.552
			c-0.267-0.5-0.473-0.998-0.613-1.479l-0.181-0.617l-0.636-0.094L5.699,15.51v-3.094l2.744-0.415l0.624-0.094l0.185-0.602
			c0.139-0.447,0.329-0.897,0.583-1.375l0.291-0.545L9.77,8.88C9.217,8.098,8.637,7.366,8.104,6.715
			c0.518-0.622,1.7-1.846,2.296-2.295l2.141,1.66l0.505,0.392l0.567-0.292c0.451-0.231,0.93-0.432,1.385-0.578l0.614-0.198
			l0.074-0.642l0.044-0.386c0.088-0.783,0.179-1.589,0.353-2.34H19.207 M17.663,19.036c2.746,0,4.979-2.244,4.979-5.002
			c0-2.759-2.233-5.004-4.979-5.004s-4.98,2.245-4.98,5.004C12.683,16.792,14.917,19.036,17.663,19.036 M19.538,1.033h-3.75
			c-0.303,0-0.539,0.203-0.607,0.473c-0.27,1.014-0.371,2.109-0.49,3.141c-0.521,0.168-1.045,0.389-1.535,0.641l-2.33-1.807
			c-0.135-0.1-0.287-0.168-0.439-0.168c-0.572,0-2.852,2.465-3.258,3.021C7.042,6.451,6.976,6.57,6.976,6.723
			s0.066,0.287,0.17,0.404c0.625,0.76,1.232,1.521,1.805,2.332c-0.27,0.506-0.49,1.012-0.656,1.551l-3.143,0.475
			c-0.252,0.051-0.455,0.354-0.455,0.607v3.746c0,0.289,0.203,0.559,0.49,0.609l3.09,0.457c0.168,0.574,0.404,1.131,0.691,1.67
			c-0.572,0.793-1.197,1.537-1.773,2.312c-0.082,0.119-0.135,0.236-0.135,0.391c0,0.133,0.035,0.27,0.119,0.387
			c0.709,0.979,1.891,2.025,2.785,2.834c0.119,0.121,0.27,0.188,0.422,0.188s0.305-0.051,0.424-0.152l2.381-1.805
			c0.488,0.252,0.994,0.455,1.518,0.625l0.473,3.105c0.035,0.287,0.305,0.506,0.607,0.506h3.75c0.303,0,0.539-0.201,0.607-0.473
			c0.27-1.012,0.371-2.111,0.49-3.139c0.521-0.17,1.045-0.389,1.535-0.643l2.33,1.822c0.135,0.086,0.287,0.152,0.439,0.152
			c0.572,0,2.852-2.48,3.258-3.021c0.102-0.117,0.15-0.236,0.15-0.387c0-0.154-0.064-0.307-0.168-0.426
			c-0.625-0.758-1.232-1.5-1.805-2.328c0.268-0.488,0.473-0.996,0.656-1.535l3.125-0.473c0.27-0.051,0.473-0.355,0.473-0.609v-3.748
			c0-0.285-0.203-0.557-0.49-0.607l-3.09-0.473c-0.168-0.557-0.406-1.113-0.691-1.654c0.572-0.793,1.197-1.537,1.773-2.312
			c0.082-0.119,0.135-0.236,0.135-0.389c0-0.135-0.035-0.271-0.119-0.371c-0.709-0.996-1.891-2.043-2.785-2.871
			c-0.119-0.1-0.27-0.168-0.422-0.168s-0.305,0.051-0.406,0.152l-2.398,1.807c-0.488-0.254-0.994-0.457-1.518-0.625l-0.473-3.107
			C20.11,1.252,19.841,1.033,19.538,1.033L19.538,1.033z M17.663,18.033c-2.191,0-3.978-1.797-3.978-3.999
			c0-2.204,1.786-4.001,3.978-4.001s3.977,1.797,3.977,4.001C21.64,16.236,19.854,18.033,17.663,18.033L17.663,18.033z"/>
	</g>
</g>
<g id="Outlines">
	<path d="M19.88,1.718l0.466,3.061l0.061,0.398l0.384,0.123c0.52,0.167,0.982,0.357,1.416,0.583l0.363,0.189l0.327-0.247
		l2.398-1.807l0.014-0.01l0.276,0.255c0.804,0.74,1.804,1.66,2.399,2.494c0,0-0.001,0-0.002,0c0,0-0.001,0-0.002,0.001
		c-0.254,0.341-0.518,0.677-0.781,1.013c-0.331,0.421-0.673,0.857-0.998,1.307l-0.235,0.327l0.188,0.357
		c0.279,0.529,0.496,1.047,0.645,1.539l0.118,0.393l0.405,0.062l3.028,0.463l-0.012,3.703l-3.033,0.459l-0.391,0.059l-0.127,0.374
		c-0.195,0.572-0.389,1.027-0.611,1.433l-0.192,0.352l0.228,0.33c0.567,0.821,1.144,1.53,1.857,2.386
		c0.001-0.014,0.009-0.038,0.017-0.05l0.539,0.362l-0.575-0.317c-0.471,0.627-2.212,2.434-2.773,2.743
		c-0.009-0.005-0.02-0.011-0.032-0.018l-2.302-1.8l-0.329-0.258l-0.37,0.192c-0.454,0.235-0.951,0.443-1.438,0.602l-0.396,0.129
		l-0.048,0.414l-0.045,0.395c-0.101,0.893-0.205,1.814-0.407,2.642h-3.722l-0.466-3.059l-0.061-0.396l-0.381-0.124
		c-0.522-0.17-0.987-0.36-1.421-0.584l-0.364-0.188l-0.326,0.248l-2.398,1.805l-0.15-0.136c-0.853-0.77-1.914-1.728-2.533-2.605
		c0.254-0.342,0.518-0.677,0.781-1.013c0.331-0.422,0.673-0.857,0.998-1.307l0.236-0.329l-0.19-0.357
		c-0.277-0.521-0.493-1.042-0.641-1.547l-0.117-0.399l-0.412-0.061L5.717,15.85l0.014-3.704l3.03-0.458l0.404-0.061l0.12-0.39
		C9.43,10.768,9.629,10.297,9.894,9.8l0.188-0.354l-0.23-0.327c-0.614-0.87-1.265-1.678-1.844-2.347
		c0.005-0.007,0.01-0.013,0.016-0.02c0.438-0.602,2.18-2.411,2.76-2.733c0.004,0.003,0.009,0.006,0.014,0.01l2.33,1.807l0.327,0.254
		L13.822,5.9c0.468-0.24,0.965-0.448,1.438-0.6l0.398-0.128l0.048-0.416l0.044-0.385c0.101-0.895,0.205-1.821,0.408-2.653H19.88
		 M18.033,18.719c2.551,0,4.627-2.086,4.627-4.649c0-2.564-2.076-4.651-4.627-4.651c-2.552,0-4.628,2.086-4.628,4.651
		C13.405,16.633,15.481,18.719,18.033,18.719 M19.908,1.068h-3.75c-0.303,0-0.539,0.203-0.607,0.473
		c-0.27,1.014-0.371,2.109-0.49,3.141c-0.521,0.168-1.045,0.389-1.535,0.641l-2.33-1.807c-0.135-0.1-0.287-0.168-0.439-0.168
		c-0.572,0-2.852,2.465-3.258,3.021C7.412,6.486,7.346,6.605,7.346,6.758s0.066,0.287,0.17,0.404
		c0.625,0.76,1.232,1.521,1.805,2.332C9.051,10,8.83,10.506,8.664,11.045L5.521,11.52c-0.252,0.051-0.455,0.354-0.455,0.607v3.746
		c0,0.289,0.203,0.559,0.49,0.609l3.09,0.457c0.168,0.574,0.404,1.131,0.691,1.67c-0.572,0.793-1.197,1.537-1.773,2.312
		c-0.082,0.119-0.135,0.236-0.135,0.391c0,0.133,0.035,0.27,0.119,0.387c0.709,0.979,1.891,2.025,2.785,2.834
		c0.119,0.121,0.27,0.188,0.422,0.188s0.305-0.051,0.424-0.152l2.381-1.805c0.488,0.252,0.994,0.455,1.518,0.625l0.473,3.105
		C15.586,26.781,15.855,27,16.158,27h3.75c0.303,0,0.539-0.201,0.607-0.473c0.27-1.012,0.371-2.111,0.49-3.139
		c0.521-0.17,1.045-0.389,1.535-0.643l2.33,1.822c0.135,0.086,0.287,0.152,0.439,0.152c0.572,0,2.852-2.48,3.258-3.021
		c0.102-0.117,0.15-0.236,0.15-0.387c0-0.154-0.064-0.307-0.168-0.426c-0.625-0.758-1.232-1.5-1.805-2.328
		c0.268-0.488,0.473-0.996,0.656-1.535l3.125-0.473C30.797,16.5,31,16.195,31,15.941v-3.748c0-0.285-0.203-0.557-0.49-0.607
		l-3.09-0.473c-0.168-0.557-0.406-1.113-0.691-1.654c0.572-0.793,1.197-1.537,1.773-2.312c0.082-0.119,0.135-0.236,0.135-0.389
		c0-0.135-0.035-0.271-0.119-0.371c-0.709-0.996-1.891-2.043-2.785-2.871c-0.119-0.1-0.27-0.168-0.422-0.168
		S25.006,3.398,24.904,3.5l-2.398,1.807c-0.488-0.254-0.994-0.457-1.518-0.625l-0.473-3.107C20.48,1.287,20.211,1.068,19.908,1.068
		L19.908,1.068z M18.033,18.068c-2.191,0-3.978-1.797-3.978-3.999c0-2.204,1.786-4.001,3.978-4.001s3.977,1.797,3.977,4.001
		C22.01,16.271,20.225,18.068,18.033,18.068L18.033,18.068z"/>
</g>
</svg>
