<?xml version="1.0" encoding="utf-8"?>
<!--
  Copyright 2015 Hippo B.V. (http://www.onehippo.com)

  Licensed under the Apache License, Version 2.0 (the "License");
  you may not use this file except in compliance with the License.
  You may obtain a copy of the License at

       http://www.apache.org/licenses/LICENSE-2.0

  Unless required by applicable law or agreed to in writing, software
  distributed under the License is distributed on an "AS IS" BASIS,
  WITHOUT WARRANTIES OR CONDITIONS OF ANY KIND, either express or implied.
  See the License for the specific language governing permissions and
  limitations under the License.
-->
<!-- Generator: Adobe Illustrator 16.0.0, SVG Export Plug-In . SVG Version: 6.00 Build 0)  -->
<!DOCTYPE svg PUBLIC "-//W3C//DTD SVG 1.1//EN" "http://www.w3.org/Graphics/SVG/1.1/DTD/svg11.dtd">
<svg version="1.1" xmlns="http://www.w3.org/2000/svg" xmlns:xlink="http://www.w3.org/1999/xlink" x="0px" y="0px" width="36px"
	 height="28px" viewBox="0 0 36 28" enable-background="new 0 0 36 28" xml:space="preserve">
<g id="Vector_lines" display="none">
	<g display="inline">
		<path d="M19.207,2.036l0.42,2.761l0.093,0.614l0.592,0.19c0.501,0.161,0.946,0.344,1.361,0.56l0.562,0.292l0.505-0.38l2.177-1.64
			l0.06,0.055c0.725,0.667,1.61,1.482,2.195,2.232c-0.203,0.268-0.411,0.533-0.619,0.798c-0.333,0.424-0.678,0.863-1.007,1.318
			l-0.363,0.504l0.289,0.55c0.269,0.509,0.477,1.006,0.619,1.476l0.183,0.606l0.626,0.096l2.729,0.417v3.094l-2.745,0.416
			l-0.603,0.091l-0.196,0.577c-0.188,0.553-0.375,0.989-0.587,1.376l-0.297,0.543l0.352,0.51c0.521,0.755,1.049,1.414,1.677,2.178
			c-0.534,0.637-1.727,1.868-2.312,2.312l-2.126-1.663l-0.508-0.396L21.71,21.82c-0.438,0.227-0.916,0.427-1.385,0.58L19.714,22.6
			l-0.074,0.639l-0.045,0.396c-0.088,0.778-0.179,1.581-0.351,2.328h-3.125l-0.42-2.76l-0.093-0.611l-0.589-0.191
			c-0.504-0.163-0.951-0.348-1.367-0.562l-0.562-0.29l-0.504,0.383l-2.158,1.635c-0.761-0.687-1.675-1.518-2.277-2.279
			c0.205-0.271,0.415-0.538,0.625-0.806c0.333-0.424,0.678-0.862,1.007-1.318l0.365-0.507l-0.294-0.552
			c-0.267-0.5-0.473-0.998-0.613-1.479l-0.181-0.617l-0.636-0.094L5.699,15.51v-3.094l2.744-0.415l0.624-0.094l0.185-0.602
			c0.139-0.447,0.329-0.897,0.583-1.375l0.291-0.545L9.77,8.88C9.217,8.098,8.637,7.366,8.104,6.715
			c0.518-0.622,1.7-1.846,2.296-2.295l2.141,1.66l0.505,0.392l0.567-0.292c0.451-0.231,0.93-0.432,1.385-0.578l0.614-0.198
			l0.074-0.642l0.044-0.386c0.088-0.783,0.179-1.589,0.353-2.34H19.207 M17.663,19.036c2.746,0,4.979-2.244,4.979-5.002
			c0-2.759-2.233-5.004-4.979-5.004s-4.98,2.245-4.98,5.004C12.683,16.792,14.917,19.036,17.663,19.036 M19.538,1.033h-3.75
			c-0.303,0-0.539,0.203-0.607,0.473c-0.27,1.014-0.371,2.109-0.49,3.141c-0.521,0.168-1.045,0.389-1.535,0.641l-2.33-1.807
			c-0.135-0.1-0.287-0.168-0.439-0.168c-0.572,0-2.852,2.465-3.258,3.021C7.042,6.451,6.976,6.57,6.976,6.723
			s0.066,0.287,0.17,0.404c0.625,0.76,1.232,1.521,1.805,2.332c-0.27,0.506-0.49,1.012-0.656,1.551l-3.143,0.475
			c-0.252,0.051-0.455,0.354-0.455,0.607v3.746c0,0.289,0.203,0.559,0.49,0.609l3.09,0.457c0.168,0.574,0.404,1.131,0.691,1.67
			c-0.572,0.793-1.197,1.537-1.773,2.312c-0.082,0.119-0.135,0.236-0.135,0.391c0,0.133,0.035,0.27,0.119,0.387
			c0.709,0.979,1.891,2.025,2.785,2.834c0.119,0.121,0.27,0.188,0.422,0.188s0.305-0.051,0.424-0.152l2.381-1.805
			c0.488,0.252,0.994,0.455,1.518,0.625l0.473,3.105c0.035,0.287,0.305,0.506,0.607,0.506h3.75c0.303,0,0.539-0.201,0.607-0.473
			c0.27-1.012,0.371-2.111,0.49-3.139c0.521-0.17,1.045-0.389,1.535-0.643l2.33,1.822c0.135,0.086,0.287,0.152,0.439,0.152
			c0.572,0,2.852-2.48,3.258-3.021c0.102-0.117,0.15-0.236,0.15-0.387c0-0.154-0.064-0.307-0.168-0.426
			c-0.625-0.758-1.232-1.5-1.805-2.328c0.268-0.488,0.473-0.996,0.656-1.535l3.125-0.473c0.27-0.051,0.473-0.355,0.473-0.609v-3.748
			c0-0.285-0.203-0.557-0.49-0.607l-3.09-0.473c-0.168-0.557-0.406-1.113-0.691-1.654c0.572-0.793,1.197-1.537,1.773-2.312
			c0.082-0.119,0.135-0.236,0.135-0.389c0-0.135-0.035-0.271-0.119-0.371c-0.709-0.996-1.891-2.043-2.785-2.871
			c-0.119-0.1-0.27-0.168-0.422-0.168s-0.305,0.051-0.406,0.152l-2.398,1.807c-0.488-0.254-0.994-0.457-1.518-0.625l-0.473-3.107
			C20.11,1.252,19.841,1.033,19.538,1.033L19.538,1.033z M17.663,18.033c-2.191,0-3.978-1.797-3.978-3.999
			c0-2.204,1.786-4.001,3.978-4.001s3.977,1.797,3.977,4.001C21.64,16.236,19.854,18.033,17.663,18.033L17.663,18.033z"/>
	</g>
</g>
<g id="Outlines">
	<path d="M19.908,1.068c0.303,0,0.572,0.219,0.607,0.506l0.473,3.107c0.523,0.168,1.029,0.371,1.518,0.625L24.904,3.5
		c0.102-0.102,0.254-0.152,0.406-0.152s0.303,0.068,0.422,0.168c0.895,0.828,2.076,1.875,2.785,2.871
		c0.084,0.1,0.119,0.236,0.119,0.371c0,0.152-0.053,0.27-0.135,0.389c-0.576,0.775-1.201,1.52-1.773,2.312
		c0.285,0.541,0.523,1.098,0.691,1.654l3.09,0.473c0.287,0.051,0.49,0.322,0.49,0.607v3.748c0,0.254-0.203,0.559-0.473,0.609
		l-3.125,0.473c-0.184,0.539-0.389,1.047-0.656,1.535c0.572,0.828,1.18,1.57,1.805,2.328c0.104,0.119,0.168,0.271,0.168,0.426
		c0,0.15-0.049,0.27-0.15,0.387c-0.406,0.541-2.686,3.021-3.258,3.021c-0.152,0-0.305-0.066-0.439-0.152l-2.33-1.822
		c-0.49,0.254-1.014,0.473-1.535,0.643c-0.119,1.027-0.221,2.127-0.49,3.139C20.447,26.799,20.211,27,19.908,27h-3.75
		c-0.303,0-0.572-0.219-0.607-0.506l-0.473-3.105c-0.523-0.17-1.029-0.373-1.518-0.625l-2.381,1.805
		c-0.119,0.102-0.271,0.152-0.424,0.152s-0.303-0.066-0.422-0.188c-0.895-0.809-2.076-1.855-2.785-2.834
		c-0.084-0.117-0.119-0.254-0.119-0.387c0-0.154,0.053-0.271,0.135-0.391c0.576-0.775,1.201-1.52,1.773-2.312
		c-0.287-0.539-0.523-1.096-0.691-1.67l-3.09-0.457c-0.287-0.051-0.49-0.32-0.49-0.609v-3.746c0-0.254,0.203-0.557,0.455-0.607
		l3.143-0.475C8.83,10.506,9.051,10,9.32,9.494c-0.572-0.811-1.18-1.572-1.805-2.332c-0.104-0.117-0.17-0.252-0.17-0.404
		s0.066-0.271,0.152-0.389c0.406-0.557,2.686-3.021,3.258-3.021c0.152,0,0.305,0.068,0.439,0.168l2.33,1.807
		c0.49-0.252,1.014-0.473,1.535-0.641c0.119-1.031,0.221-2.127,0.49-3.141c0.068-0.27,0.305-0.473,0.607-0.473H19.908 M19.908,0.068
		h-3.75c-0.745,0-1.394,0.504-1.577,1.227c-0.231,0.871-0.344,1.774-0.444,2.654c-0.162,0.064-0.325,0.132-0.486,0.204l-1.843-1.428
		c-0.34-0.252-0.697-0.378-1.052-0.378c-1.346,0-4.041,3.397-4.065,3.432C6.543,5.98,6.346,6.302,6.346,6.758
		c0,0.386,0.146,0.755,0.42,1.066c0.417,0.507,0.908,1.114,1.39,1.766C8.069,9.777,7.99,9.962,7.919,10.146l-2.547,0.385
		c-0.753,0.15-1.306,0.848-1.306,1.596v3.746c0,0.789,0.554,1.459,1.316,1.594l2.51,0.372c0.083,0.222,0.176,0.443,0.277,0.666
		c-0.197,0.26-0.399,0.517-0.601,0.773c-0.272,0.348-0.545,0.694-0.808,1.047c-0.23,0.334-0.332,0.646-0.332,0.987
		c0,0.354,0.105,0.689,0.307,0.97c0.734,1.014,1.867,2.036,2.777,2.857l0.133,0.12c0.305,0.298,0.697,0.461,1.109,0.461
		c0.384,0,0.753-0.131,1.045-0.368l1.879-1.425c0.163,0.071,0.329,0.14,0.5,0.204l0.383,2.513C14.655,27.405,15.343,28,16.158,28
		h3.75c0.746,0,1.395-0.505,1.577-1.229c0.231-0.868,0.344-1.771,0.444-2.652c0.163-0.063,0.324-0.131,0.484-0.203l1.841,1.44
		l0.038,0.029l0.04,0.025c0.322,0.205,0.651,0.31,0.978,0.31c1.244,0,3.687-2.961,4.02-3.374c0.258-0.3,0.389-0.648,0.389-1.034
		c0-0.391-0.146-0.775-0.413-1.082c-0.515-0.624-0.968-1.18-1.396-1.763c0.079-0.173,0.155-0.354,0.229-0.544l2.538-0.385
		C31.435,17.397,32,16.698,32,15.941v-3.748c0-0.775-0.565-1.459-1.316-1.592l-2.514-0.385c-0.082-0.215-0.174-0.433-0.274-0.652
		c0.198-0.261,0.4-0.518,0.602-0.774c0.272-0.348,0.545-0.694,0.808-1.048c0.23-0.333,0.332-0.646,0.332-0.985
		c0-0.365-0.114-0.709-0.322-0.975c-0.694-0.968-1.757-1.946-2.612-2.733l-0.29-0.268l-0.019-0.017l-0.02-0.016
		c-0.31-0.259-0.687-0.401-1.063-0.401c-0.393,0-0.769,0.139-1.047,0.383L22.39,4.143c-0.164-0.072-0.331-0.141-0.503-0.206
		l-0.383-2.513C21.411,0.664,20.724,0.068,19.908,0.068L19.908,0.068z"/>
	<path d="M17.983,19.016c-2.801,0-5.079-2.253-5.079-5.023s2.278-5.024,5.079-5.024s5.079,2.254,5.079,5.024
		S20.784,19.016,17.983,19.016z M17.983,9.969c-2.249,0-4.079,1.805-4.079,4.024c0,2.218,1.83,4.023,4.079,4.023
		s4.079-1.805,4.079-4.023C22.062,11.774,20.232,9.969,17.983,9.969z"/>
</g>
</svg>