<svg xmlns="http://www.w3.org/2000/svg" width="76" height="76" viewBox="0 0 76 76"><title>ss-icon_</title><polygon points="40.47 0.82 3.84 0.82 3.84 64.89 54.87 64.89 54.87 15.09 40.47 0.82" fill="#fff"/><path d="M55.7,65.71H3V0H40.81L55.7,14.75Zm-51-1.65H54.05V15.43L40.13,1.65H4.66Z" fill="#0c3d6d"/><rect x="14.54" y="52.54" width="18.11" height="1.65" fill="#0c3d6d"/><rect x="14.54" y="36.08" width="8.23" height="1.65" fill="#0c3d6d"/><rect x="26.07" y="36.08" width="19.75" height="1.65" fill="#0c3d6d"/><rect x="14.54" y="27.85" width="13.17" height="1.65" fill="#0c3d6d"/><rect x="31" y="27.85" width="14.82" height="1.65" fill="#0c3d6d"/><rect x="14.54" y="44.31" width="31.28" height="1.65" fill="#0c3d6d"/><polygon points="54.05 16.32 39.23 16.32 39.23 1.1 40.88 1.1 40.88 14.68 54.05 14.68 54.05 16.32" fill="#0c3d6d"/><circle cx="58.17" cy="61.18" r="13.99" fill="#00acfb"/><path d="M58.17,76A14.82,14.82,0,1,1,73,61.18,14.83,14.83,0,0,1,58.17,76Zm0-28A13.17,13.17,0,1,0,71.34,61.18,13.18,13.18,0,0,0,58.17,48Z" fill="#0c3d6d"/><rect x="57.34" y="56.25" width="1.65" height="9.88" fill="#0c3d6d"/><rect x="53.23" y="60.36" width="9.88" height="1.65" fill="#0c3d6d"/></svg>