<?xml version="1.0" encoding="utf-8"?>
<!--
Copyright 2018 Hippo B.V. (http://www.onehippo.com)

Licensed under the Apache License, Version 2.0 (the "License");
you may not use this file except in compliance with the License.
You may obtain a copy of the License at

http://www.apache.org/licenses/LICENSE-2.0

Unless required by applicable law or agreed to in writing, software
distributed under the License is distributed on an "AS IS" BASIS,
WITHOUT WARRANTIES OR CONDITIONS OF ANY KIND, either express or implied.
See the License for the specific language governing permissions and
limitations under the License.
-->
<svg width="12px" height="15px" viewBox="0 0 12 15" version="1.1" xmlns="http://www.w3.org/2000/svg">
  <g stroke="none" stroke-width="1" fill="none" fill-rule="evenodd">
    <g transform="translate(-157.000000, -328.000000)" fill="#888888" fill-rule="nonzero">
      <path d="M159.236038,333.137207 L159.236038,331.674831 C159.236038,329.741835 160.803041,328.174831 162.736038,328.174831 C164.669035,328.174831 166.236038,329.741835 166.236038,331.674831 L166.236038,333.137207 L166.314717,333.137207 C167.419287,333.137207 168.314717,334.032638 168.314717,335.137207 L168.314717,340.137207 C168.314717,341.241777 167.419287,342.137207 166.314717,342.137207 L159.157359,342.137207 C158.052789,342.137207 157.157359,341.241777 157.157359,340.137207 L157.157359,335.137207 C157.157359,334.032638 158.052789,333.137207 159.157359,333.137207 L159.236038,333.137207 Z M160.236038,333.137207 L165.236038,333.137207 L165.236038,331.674831 C165.236038,330.294119 164.11675,329.174831 162.736038,329.174831 C161.355326,329.174831 160.236038,330.294119 160.236038,331.674831 L160.236038,333.137207 Z M161.736038,336 L163.736038,336 L163.736038,339 L161.736038,339 L161.736038,336 Z M159.157359,334.137207 C158.605074,334.137207 158.157359,334.584922 158.157359,335.137207 L158.157359,340.137207 C158.157359,340.689492 158.605074,341.137207 159.157359,341.137207 L166.314717,341.137207 C166.867002,341.137207 167.314717,340.689492 167.314717,340.137207 L167.314717,335.137207 C167.314717,334.584922 166.867002,334.137207 166.314717,334.137207 L159.157359,334.137207 Z"></path>
    </g>
  </g>
</svg>
