<?xml version="1.0" encoding="utf-8"?>
<!--
Copyright 2015-2018 Hippo B.V. (http://www.onehippo.com)

Licensed under the Apache License, Version 2.0 (the "License");
you may not use this file except in compliance with the License.
You may obtain a copy of the License at

http://www.apache.org/licenses/LICENSE-2.0

Unless required by applicable law or agreed to in writing, software
distributed under the License is distributed on an "AS IS" BASIS,
WITHOUT WARRANTIES OR CONDITIONS OF ANY KIND, either express or implied.
See the License for the specific language governing permissions and
limitations under the License.
-->
<svg width="703px" height="493px" viewBox="0 0 703 493" version="1.1" xmlns="http://www.w3.org/2000/svg" xmlns:xlink="http://www.w3.org/1999/xlink">
  <defs>
    <polygon id="path-1" points="56.8007835 59.6806653 56.8007835 0.0385828128 0.105139744 50.1025294 0.0164182182 108.176483"></polygon>
    <linearGradient x1="76.8462766%" y1="5.79580007%" x2="29.6415257%" y2="95.9687101%" id="linearGradient-3">
      <stop stop-color="#0CCBF0" offset="0%"></stop>
      <stop stop-color="#D52981" offset="100%"></stop>
    </linearGradient>
    <path d="M0.443988458,142.018313 C0.868771308,146.679125 1.52201302,151.373076 2.46396648,156.098283 L6.96385289,155.114152 C5.73632585,147.383331 5.06927619,135.78465 5.68197273,124.583136 L2.57530879,121.077297 C4.01723568,107.586425 8.19200756,95.2787682 15.0728872,84.3200234 C23.3786221,71.0921298 35.6743533,59.705715 51.6285645,50.4586543 C53.7017659,56.3305492 57.987378,61.914862 64.2181541,66.7945927 L62.4989384,69.0424019 L68.0386892,73.4539174 L72.7023882,67.3564508 L67.1625119,62.9449353 L65.4335051,65.2056738 C56.8686828,58.4926236 52.1968246,50.4528801 52.1968246,42.2856013 C52.1968246,20.0792744 85.4280489,2.01294852 126.274736,2.01294852 C143.141276,2.01294852 159.654459,5.19404988 172.772516,10.9702933 C174.342606,11.6615696 175.856209,12.3869893 177.311944,13.1426609 C158.632419,12.715242 139.489198,19.464444 129.984556,23.4036019 C128.951973,22.9740491 127.669841,22.7163424 126.275113,22.7163424 C122.873335,22.7163424 120.115636,24.2323302 120.115636,26.1024291 C120.115636,27.9725281 122.873335,29.4885158 126.275113,29.4885158 C129.677016,29.4885158 132.434715,27.9725281 132.434715,26.1024291 C132.434715,25.6275611 132.255588,25.176041 131.934616,24.7659448 C135.087097,23.4912197 139.120902,21.9864038 143.734893,20.5488704 C145.181715,21.8023815 146.718791,23.698339 146.718791,26.1023036 C146.718791,28.8696685 144.672327,31.5189126 140.956356,33.561611 C137.051341,35.7083711 131.837333,36.890583 126.275113,36.890583 C120.712892,36.890583 115.499009,35.7083711 111.593995,33.561611 C107.877898,31.5187871 105.831559,28.8696685 105.831559,26.1023036 C105.831559,21.0897656 112.581389,16.6595466 121.881296,15.5684672 L123.233597,15.4099268 L122.677639,14.1670855 C121.352703,11.2056561 120.027265,8.62946862 118.738104,6.51044992 L117.777573,6.03583291 C109.874528,6.88062859 102.427146,8.81575047 96.2406804,11.6319453 C89.7963832,14.5653822 84.8643078,18.4051229 81.977818,22.7357991 C78.7910679,27.5169912 78.2036023,32.6456416 80.2793142,37.5674237 C82.9180141,43.8248115 89.587381,49.1480285 98.8813887,52.689643 C78.8736646,73.4443774 55.4067971,106.909082 53.7536085,150.748078 L27.7135662,163.768601 C27.8648261,180.058345 31.2472725,193.925547 38.0509531,206.751504 C38.232465,207.09256 38.3695403,207.352401 38.5105069,207.611363 C44.3437395,218.326962 52.3731898,228.048012 63.7796889,238.203887 L65.1093947,236.709992 C57.3684051,229.817815 51.2126941,223.138155 46.2614131,216.211333 C48.119336,217.265382 50.05019,218.282777 52.0374055,219.255233 C51.3844148,218.203946 50.7505042,217.135336 50.1368035,216.04865 C47.8602486,214.852002 45.6754538,213.598366 43.611918,212.301924 C42.915244,211.216368 42.2461859,210.122527 41.6019821,209.019397 C43.7461062,210.292993 45.994041,211.517131 48.3312253,212.681016 C47.8313774,211.697638 47.3463417,210.700955 46.8800094,209.687702 C44.32717,208.336406 41.8972213,206.913559 39.6145155,205.433221 C39.1114039,204.473568 38.6300085,203.507011 38.1659357,202.534681 C40.4943332,203.937443 42.9525255,205.279827 45.515156,206.552669 C45.1346842,205.630173 44.766765,204.696378 44.4147877,203.748902 C41.690102,202.323795 39.1022405,200.818226 36.6803255,199.247509 C36.3011089,198.3579 35.9385874,197.462266 35.5907525,196.561486 C38.0509531,198.030401 40.6518694,199.433791 43.3687725,200.759982 C43.0811905,199.888324 42.8059101,199.005995 42.5429314,198.113499 C39.7061501,196.667305 37.0108377,195.135877 34.4881246,193.534908 C31.4493707,184.661917 29.8794064,175.223428 29.7266403,164.997885 L55.7115763,152.004978 C56.2773258,134.931193 60.0040924,118.719903 66.8228362,103.090053 C70.831285,104.615455 75.0772306,105.993363 79.4711724,107.189007 L86.9732844,129.824008 C85.5396423,138.422094 84.4524542,147.19253 83.7417212,155.896687 L83.6684135,156.795585 L84.5547586,156.960903 C96.0484988,159.107287 107.986604,160.364187 120.037684,160.697085 L121.095498,160.726332 L120.806033,150.765651 L119.862448,150.738789 C108.571559,150.415808 97.3768239,149.274016 86.5705943,147.343664 C87.2135428,141.502147 88.0219357,135.666153 88.9864839,129.909742 L81.0305924,105.537575 C76.0333686,104.197702 71.7100985,102.805735 67.6362502,101.25962 C68.7320995,98.8408435 69.900629,96.4360002 71.1451021,94.0469733 C74.2359497,88.1135703 77.7814555,82.2883714 81.7473507,76.5929673 C98.4008719,83.259196 119.438669,85.9098209 139.762721,83.8982532 C140.730784,89.1135171 141.638218,94.4450189 142.470335,99.7737591 C137.416624,100.875006 133.619939,105.381796 133.619939,110.760873 C133.619939,116.96215 138.664989,122.0072 144.866392,122.0072 C145.807843,124.600082 146.097308,127.218823 146.36945,129.843841 L144.807018,130.005896 C146.47301,146.053499 147.508481,162.426217 147.88481,178.66914 L149.453645,178.632737 C149.512768,181.171266 149.557581,183.709294 149.584946,186.245815 C127.677247,188.50693 104.982245,187.622719 83.8893408,183.680925 L82.6943252,183.457612 L82.7057482,184.673214 C82.8784731,203.275038 85.1238973,217.317977 88.5529142,228.432877 C94.1800317,246.535481 102.819542,256.810983 110.804054,266.30257 C113.64322,269.677861 116.329118,272.870511 118.826475,276.316097 L118.917356,286.102673 C117.573089,284.986488 115.645499,283.21681 114.566596,281.454288 L114.48061,274.3034 L112.481093,274.327125 L112.57323,282.004472 C114.343535,285.101094 117.883015,287.880635 118.941207,288.673462 L119.011376,296.23043 L121.011144,296.211977 L120.820343,275.662228 C118.041053,271.799139 115.26917,268.503934 112.334352,265.015418 C105.81499,257.26539 99.0738214,249.251756 93.8478877,237.121344 C92.6076824,234.242762 91.497523,231.217565 90.5130159,228.039853 C90.0774378,226.256995 91.0867992,223.734031 92.1579197,221.063573 C93.3484164,218.095491 94.5793326,215.026359 94.1540477,212.208658 C93.0131341,204.651942 92.3757088,196.204613 92.254952,187.091238 C111.288462,189.847933 131.314764,190.218488 150.700503,188.139136 L151.602288,188.042481 L151.593878,187.135675 C151.567391,184.287345 151.520319,181.437258 151.454041,178.586418 L153.025888,178.550015 C152.646546,162.170142 151.602288,145.658968 149.922111,129.475043 L148.3588,129.637224 C148.08377,126.983837 147.790916,124.336978 147.481493,121.697023 C152.425367,120.514811 156.11297,116.061746 156.11297,110.760873 C168.995288,108.335318 180.802594,104.8822 191.226971,100.238962 C197.162131,112.157987 201.606535,124.627824 204.477083,137.383862 C202.680417,138.247236 201.498331,140.232945 201.666035,142.444226 C201.879932,145.264061 204.206573,147.373916 206.864353,147.155625 C209.519747,146.937459 211.499557,144.473995 211.285659,141.654285 C211.080799,138.951316 208.937428,136.90799 206.424381,136.93071 C203.448893,123.714114 198.805529,110.802171 192.583289,98.4825899 L192.150347,97.6254926 L191.276429,98.0234127 C180.827574,102.780127 168.924491,106.309691 155.889406,108.527248 C154.850546,103.392321 150.303211,99.5142951 144.866392,99.5142951 C143.569574,93.8476366 142.598122,88.1670447 141.559638,82.625411 L141.389549,81.7179774 L140.47132,81.8152607 C120.356773,83.9483384 99.4717415,81.4319017 82.9295625,74.9115352 C86.092588,70.4844543 89.5165838,66.1400957 93.1900015,61.8898822 C97.3436848,63.2877491 101.727459,64.5348584 106.237136,65.5959368 L107.067371,65.7913821 C108.631184,61.9807636 109.931266,58.9695001 111.258085,56.0333016 C118.222816,57.2629626 125.495842,57.5879516 132.60267,57.0200681 L132.727444,58.5848858 C143.380405,57.7350691 153.38728,54.931678 160.904831,50.69113 L160.134975,49.3264022 C162.354918,48.0736442 164.340501,46.700255 166.061725,45.2217998 C175.693149,49.4204218 184.626518,54.2268447 192.620947,59.5175503 L193.172763,58.6836754 L192.902503,59.6463408 L209.105132,64.196689 C238.886753,89.0399584 246.55318,118.583204 246.833481,141.749435 C235.980807,157.833817 214.496008,171.145186 186.288243,179.252714 L185.568974,180.119351 C182.364023,213.947079 175.056603,229.670447 169.020268,239.570624 L150.188856,255.672705 C147.656979,256.145188 145.06008,256.537209 142.446987,256.851528 C145.919939,247.717944 149.126396,236.02926 150.639497,217.246553 L155.719568,208.867887 L144.043689,210.010557 L148.648892,217.063032 C146.567029,243.1091 141.37775,254.84586 136.351906,266.210057 C134.88161,269.534635 133.492906,272.674689 132.201361,276.134084 L132.32626,296.725633 L134.326028,296.70693 L134.139621,276.660418 C135.39263,273.323663 136.747692,270.259804 138.180957,267.018952 C139.311578,264.462221 140.475965,261.828793 141.623782,258.96063 C144.729191,258.613799 147.820917,258.155501 150.821385,257.588747 L170.561235,240.884388 C172.742515,237.318546 174.995346,233.203651 177.182776,227.911313 C203.106957,220.817666 222.796722,208.785918 232.653467,193.998353 L230.989357,192.888947 C226.216199,200.050128 219.037821,206.554427 209.894947,212.142631 L209.198399,209.298318 C202.072616,213.721257 197.110038,215.834124 189.673576,218.096997 L188.5653,222.214529 C185.215867,223.428122 181.729359,224.551462 178.112805,225.57664 C181.954931,215.567631 185.492026,201.625239 187.494932,180.985487 C195.503294,178.652445 202.975656,175.899264 209.824652,172.780926 C227.348326,164.800055 240.780577,154.438065 248.668684,142.603394 C248.596757,116.239492 239.845025,93.573737 222.824212,74.6716534 C209.776701,60.1823405 192.083064,48.0577023 170.234363,38.6341509 L169.468775,38.3040153 C166.806351,42.2984051 163.40269,45.1929286 159.156494,47.5917467 L158.378227,46.2120811 C151.497473,50.0933712 142.24263,52.6670481 132.318477,53.4586204 L132.443878,55.0288358 C125.392282,55.5876813 118.007538,55.2714792 110.847612,53.933614 C96.2359104,51.2032796 85.4974652,44.7946319 82.1220483,36.790287 C80.8401682,33.7507799 80.7423827,30.608843 81.7953019,27.5379542 C85.6620309,27.3204161 89.6805219,27.2483637 93.7634081,27.3216714 C93.8162549,26.6468391 93.9360075,25.9816723 94.1211596,25.3283051 C90.2251829,25.2512316 86.3838103,25.304455 82.6713538,25.4888539 C82.866297,25.1125244 83.0832074,24.7384544 83.3136747,24.3657652 C86.9501874,24.166052 90.7147376,24.089104 94.5337664,24.1375574 C94.8121849,23.4607167 95.1617772,22.7988136 95.5755137,22.1534801 C91.9200464,22.0866998 88.306254,22.1326426 84.7972765,22.2895512 C90.6685437,15.1077837 102.858832,9.75933577 117.355802,8.09472426 C118.319472,9.73059013 119.305109,11.6311921 120.296645,13.7651485 C110.53392,15.2630604 103.831665,20.2286514 103.831665,26.1023036 C103.831665,29.6324951 106.246174,32.9039758 110.630576,35.3140913 C114.825809,37.6202705 120.381878,38.8904767 126.275113,38.8904767 C132.168598,38.8904767 137.724416,37.6202705 141.919775,35.3140913 C146.304051,32.9039758 148.718685,29.6324951 148.718685,26.1023036 C148.718685,23.8881356 147.764305,21.7640958 145.94065,19.8811931 C156.256572,16.8449497 169.038218,14.3410657 181.252106,15.3513058 C189.604662,20.3978616 195.5761,26.5400157 198.416898,33.1375813 L199.015284,33.6893973 C222.626131,41.6677582 238.602812,55.5329516 246.501588,74.8998612 L248.353235,74.1445661 C240.27257,54.3314086 224.028768,40.1319372 200.07335,31.936917 C196.041553,22.9803254 186.653903,14.8975262 173.578399,9.13998631 C160.018235,3.16905078 143.660957,0.0130547921 126.274736,0.0130547921 L248.839275,0.0130547921 L248.839275,296.725633 L154.038599,286.102673 L150.188856,290.522912 L140.956356,295.109826 L122.121626,296.713065 L110.630576,293.102014 L104.786645,288.673462 L0.00334810071,296.725633 L0.00334810071,131.978669 C0.00334674192,135.265477 0.149880175,138.612583 0.443988458,142.018313 Z M205.112249,60.9981395 L193.591144,57.7625594 C185.757013,52.5898491 177.041559,47.8769437 167.662569,43.7392022 C168.609042,42.7934829 169.45572,41.8114864 170.191684,40.7954721 C184.125792,46.8702183 195.633717,53.7031467 205.112249,60.9981395 Z M109.235094,55.6545871 C108.084013,58.2143306 106.953769,60.8264187 105.867083,63.4519383 C101.991693,62.5173909 98.216222,61.4453916 94.611593,60.2575311 C96.6493959,57.9534858 98.7652764,55.6795669 100.94982,53.4348959 C103.539439,54.3127051 106.310193,55.0578325 109.235094,55.6545871 Z M135.619708,110.760873 C135.619708,105.662223 139.767742,101.514189 144.866392,101.514189 C149.965041,101.514189 154.113076,105.662223 154.113076,110.760873 C154.113076,115.859397 149.965041,120.007306 144.866392,120.007306 C139.767742,120.007306 135.619708,115.859397 135.619708,110.760873 Z M90.2510414,186.791605 C90.3620071,196.120384 91.0085959,204.770188 92.1764977,212.507161 C92.5206923,214.786854 91.3927081,217.599283 90.3020053,220.318948 C89.8939175,221.336468 89.4952443,222.33403 89.1683723,223.303725 C86.3905888,212.569924 84.9245607,200.190843 84.7198264,185.866975 C86.5521418,186.198491 88.3968843,186.505655 90.2510414,186.791605 Z M86.3577007,149.337156 C96.916517,151.216042 107.840616,152.349298 118.861748,152.708933 L119.034975,158.666311 C107.757643,158.303539 96.5902727,157.124842 85.809776,155.158966 C85.9738396,153.220454 86.1566067,151.27868 86.3577007,149.337156 Z M50.1277656,94.746911 L46.4711685,92.5121565 C45.8672588,93.5001783 45.2688724,94.5067781 44.692202,95.5034613 L48.4017714,97.6492172 C48.961119,96.6821584 49.5418062,95.7058105 50.1277656,94.746911 Z M32.2137037,124.202915 L36.3169253,125.439104 C36.6397803,124.367732 36.9814644,123.285816 37.3326885,122.223859 L33.2637358,120.878839 C32.9008377,121.976697 32.5476051,123.095141 32.2137037,124.202915 Z M34.6997629,116.763692 L38.7221452,118.241896 C39.1076381,117.19312 39.5129643,116.133171 39.9272029,115.0918 L35.9451147,113.508279 C35.5170682,114.584295 35.0981851,115.679768 34.6997629,116.763692 Z M40.9589081,102.392877 L44.7825814,104.327999 C45.2869482,103.331441 45.8125291,102.324465 46.3445119,101.335313 L42.5705473,99.3052929 C42.0216184,100.325575 41.4793424,101.364561 40.9589081,102.392877 Z M28.5942626,139.459574 L32.8156049,140.198927 C33.0087907,139.095923 33.2190482,137.98137 33.4407286,136.885771 L29.2404748,136.035829 C29.0113883,137.16783 28.7939758,138.319916 28.5942626,139.459574 Z M30.1760264,131.777958 L34.3459027,132.766733 C34.6033583,131.680299 34.8798939,130.580056 35.1673504,129.496759 L31.025341,128.39752 C30.7280935,129.517345 30.4423944,130.65487 30.1760264,131.777958 Z M37.6207726,109.486273 L41.5492608,111.198208 C41.994379,110.176671 42.4613389,109.141828 42.9370857,108.122675 L39.0536616,106.310319 C38.5626006,107.36261 38.0804519,108.43122 37.6207726,109.486273 Z M146.048729,280.959461 L145.866088,273.414419 L143.866821,273.462872 L144.04645,280.884898 C142.839384,281.273278 141.949775,282.416702 141.92216,283.779422 C141.888016,285.474913 143.202533,286.865123 144.859111,286.884203 C146.514308,286.903157 147.884183,285.543953 147.918451,283.848587 L147.918451,283.848336 C147.944812,282.538338 147.166044,281.414119 146.048729,280.959461 Z M208.921486,158.016333 C208.370047,158.050853 207.95016,158.524968 207.984554,159.076407 C208.018697,159.607637 208.458669,160.01334 208.981488,160.01334 L209.047139,160.01334 C209.595691,159.979071 210.015704,159.502069 209.981435,158.95063 C209.947041,158.39919 209.470039,157.98219 208.921486,158.016333 Z M208.361511,167.601438 C208.375821,168.144341 208.821442,168.575526 209.361458,168.575526 L209.387066,168.575526 C209.941392,168.561341 210.375589,168.101286 210.361405,167.549972 C210.347095,166.998532 209.887039,166.561448 209.335851,166.575758 C208.784411,166.590068 208.347327,167.049998 208.361511,167.601438 Z M208.592983,153.742395 C208.041543,153.788338 207.633079,154.270989 207.678771,154.822303 C207.721575,155.345122 208.15866,155.739527 208.672818,155.739527 C208.701438,155.739527 208.727171,155.739527 208.755791,155.736515 C209.30723,155.690823 209.715695,155.208047 209.67289,154.659494 L209.670003,154.659494 C209.627198,154.107929 209.144297,153.69959 208.592983,153.742395 Z M209.167143,162.293158 C208.615829,162.319017 208.18728,162.787483 208.213013,163.338923 C208.235859,163.873039 208.678592,164.293052 209.209947,164.293052 L209.255764,164.293052 C209.807204,164.267319 210.235753,163.80174 210.209894,163.250301 C210.187174,162.698987 209.718582,162.270438 209.167143,162.293158 Z M208.18728,149.476993 C207.635841,149.53122 207.235912,150.022784 207.29014,150.57121 C207.341606,151.088381 207.77869,151.471238 208.284438,151.471238 C208.318707,151.471238 208.35285,151.471238 208.387244,151.468351 C208.935671,151.41111 209.335851,150.92256 209.281372,150.371372 C209.224383,149.822694 208.735832,149.422765 208.18728,149.476993 Z M178.82517,77.7682752 L177.840537,76.0275944 C175.305397,77.4616131 172.4351,78.7895616 169.308979,79.9749116 L170.017829,81.8447595 C173.238723,80.6235088 176.20191,79.2520025 178.82517,77.7682752 Z M174.875593,72.0157563 C172.340578,73.4499006 169.470156,74.7778491 166.344035,75.9630736 L167.052885,77.8329215 C170.273904,76.6117963 173.237091,75.24029 175.860226,73.7564371 L174.875593,72.0157563 Z" id="path-4"></path>
  </defs>
  <g id="V1.2" stroke="none" stroke-width="1" fill="none" fill-rule="evenodd">
    <g transform="translate(-515.000000, -82.000000)">
      <g id="Group-4" transform="translate(515.000000, 82.000000)">
        <g id="Group-3" transform="translate(0.449219, 166.132812)" fill="#C4E6F1">
          <path d="M86.8938279,25.1925871 C72.1251807,22.1150981 59.5440516,29.541813 68.979245,51.6866977 C62.7543501,45.9874867 56.5965951,42.8654012 50.9483516,41.6884115 C34.1624046,38.1906041 21.8911644,51.8864837 25.8434319,66.2431437 C23.3216846,62.3772922 19.6329125,60.1427271 15.8404084,59.3524043 C6.0541601,57.313378 -4.42178291,64.8921785 2.69014235,78.8796509 L173.047837,114.378018 C189.918893,107.001944 177.236809,100.444454 160.168581,96.888001 C146.26148,93.9898784 129.441881,93.0850421 123.328886,95.3542389 C133.035089,89.2133097 132.87892,75.5976386 124.436939,73.8386067 C121.897222,73.3093289 118.606879,73.8537989 114.610668,75.9977007 C126.358185,48.4773793 104.983693,28.9618944 86.8938279,25.1925871" id="Fill-430"></path>
          <path d="M546.072753,1.23048262 C539.880779,-0.0598786815 533.34768,-0.0640051967 527.03425,1.34850095 C504.535388,6.38353722 500.552063,28.0082649 508.437146,40.7626356 C503.498808,37.9759999 499.158126,36.2900433 495.357881,35.4981651 C470.131531,30.2416725 468.778584,64.4123819 475.388574,77.8611075 C468.001011,70.2379209 461.816465,66.1810063 456.700687,65.1149898 C447.800206,63.2606715 442.134776,70.4600649 439,83.6870592 L702.681294,138.631609 C684.588863,134.100833 668.670831,123.870101 661.535949,122.383318 C659.074757,121.870529 657.6584,122.398036 657.558538,124.558817 C652.786498,122.435724 634.008379,102.114976 620.314813,99.2614903 C617.6583,98.7078495 615.191057,98.8121128 613.056961,99.8342506 C625.371445,87.5848278 602.077404,60.2320844 593.576095,54.3369448 C592.24942,53.4170071 590.805415,52.810822 589.290296,52.4951436 C584.536688,51.5046424 579.086662,53.3753292 574.392751,57.4007448 C585.630077,26.4444532 567.97492,5.79440841 546.072753,1.23048262" id="Fill-397"></path>
          <path d="M190.98646,179.460425 C184.368027,178.081193 177.384975,178.076782 170.63672,179.586572 C146.588297,184.968386 142.330628,208.082471 150.75878,221.715272 C145.480324,218.736713 140.840687,216.93464 136.778708,216.088222 C109.814946,210.4697 108.368817,246.993845 115.434056,261.368824 C107.537691,253.220606 100.927197,248.88428 95.4590803,247.744844 C85.9455977,245.762813 79.8899728,253.45805 76.5392957,267.596026 L358.381086,326.324766 C339.042577,321.481942 322.028224,310.54659 314.401942,308.957408 C311.771241,308.409302 310.257335,308.973139 310.150595,311.28274 C305.049891,309.013424 284.978468,287.293126 270.341787,284.243113 C267.502312,283.651341 264.865142,283.762786 262.584065,284.855321 C275.746683,271.762245 250.848314,242.525639 241.761495,236.224484 C240.343449,235.241187 238.799991,234.593252 237.180521,234.255832 C232.099519,233.197112 226.274133,235.196639 221.256939,239.499296 C233.268212,206.410955 214.397093,184.338682 190.98646,179.460425" id="Fill-397-Copy"></path>
        </g>
        <g id="Group" transform="translate(232.833703, 283.483879)">
          <g id="Group-281" transform="translate(0.061174, 72.290480)">
            <polygon id="Fill-142" points="95.1044866 84.8120951 95.1947868 25.3105778 0.138039327 0.0410455456 0.00258902672 58.3709966"></polygon>
            <g id="Group-280" transform="translate(0.631470, 8.082815)" fill="#FEFEFE">
              <path d="M56.988589,30.960895 C57.3847101,30.960895 57.7058757,31.2820606 57.7058757,31.6781817 C57.7058757,32.0743659 57.3847101,32.3954684 56.988589,32.3954684 C56.5924679,32.3954684 56.2713023,32.0743659 56.2713023,31.6781817 C56.2713023,31.2820606 56.5924679,30.960895 56.988589,30.960895" id="Fill-144"></path>
              <path d="M62.1776805,51.4406899 C62.5738647,51.4406899 62.8949672,51.7617924 62.8949672,52.1579135 C62.8949672,52.5540977 62.5738647,52.8752633 62.1776805,52.8752633 C61.7815594,52.8752633 61.4603938,52.5540977 61.4603938,52.1579135 C61.4603938,51.7617924 61.7815594,51.4406899 62.1776805,51.4406899" id="Fill-146"></path>
              <path d="M17.3300292,9.87893031 C17.7261503,9.87893031 18.0473159,10.2000959 18.0473159,10.596217 C18.0473159,10.9924012 17.7261503,11.3135668 17.3300292,11.3135668 C16.9339081,11.3135668 16.6127425,10.9924012 16.6127425,10.596217 C16.6127425,10.2000959 16.9339081,9.87893031 17.3300292,9.87893031" id="Fill-148"></path>
              <path d="M52.3552415,14.8265288 C52.7513626,14.8265288 53.0725282,15.1476944 53.0725282,15.5438155 C53.0725282,15.9399997 52.7513626,16.2611022 52.3552415,16.2611022 C51.9590573,16.2611022 51.6379548,15.9399997 51.6379548,15.5438155 C51.6379548,15.1476944 51.9590573,14.8265288 52.3552415,14.8265288" id="Fill-150"></path>
              <path d="M55.9219668,22.4434517 C56.3180879,22.4434517 56.6392535,22.7646173 56.6392535,23.1607384 C56.6392535,23.5569227 56.3180879,23.8780251 55.9219668,23.8780251 C55.5258457,23.8780251 55.2046801,23.5569227 55.2046801,23.1607384 C55.2046801,22.7646173 55.5258457,22.4434517 55.9219668,22.4434517" id="Fill-152"></path>
              <path d="M83.5719007,30.9579965 C83.9680218,30.9579965 84.2891874,31.2791621 84.2891874,31.6752832 C84.2891874,32.0714675 83.9680218,32.3925699 83.5719007,32.3925699 C83.1757797,32.3925699 82.854614,32.0714675 82.854614,31.6752832 C82.854614,31.2791621 83.1757797,30.9579965 83.5719007,30.9579965" id="Fill-154"></path>
              <path d="M72.5454128,36.1648513 C72.9415338,36.1648513 73.2626994,36.4859538 73.2626994,36.8820749 C73.2626994,37.2782591 72.9415338,37.5994247 72.5454128,37.5994247 C72.1492917,37.5994247 71.8281261,37.2782591 71.8281261,36.8820749 C71.8281261,36.4859538 72.1492917,36.1648513 72.5454128,36.1648513" id="Fill-156"></path>
              <path d="M4.29831479,11.1888579 C4.69449903,11.1888579 5.01560149,11.5099603 5.01560149,11.9060814 C5.01560149,12.3022656 4.69449903,12.6234312 4.29831479,12.6234312 C3.9021937,12.6234312 3.58102809,12.3022656 3.58102809,11.9060814 C3.58102809,11.5099603 3.9021937,11.1888579 4.29831479,11.1888579" id="Fill-158"></path>
              <path d="M87.2339969,36.8907955 C87.630118,36.8907955 87.9512836,37.2118979 87.9512836,37.608019 C87.9512836,38.0042032 87.630118,38.3253689 87.2339969,38.3253689 C86.8378759,38.3253689 86.5167103,38.0042032 86.5167103,37.608019 C86.5167103,37.2118979 86.8378759,36.8907955 87.2339969,36.8907955" id="Fill-160"></path>
              <path d="M19.0862418,16.6436719 C19.4823629,16.6436719 19.8035285,16.9647744 19.8035285,17.3609586 C19.8035285,17.7570797 19.4823629,18.0782453 19.0862418,18.0782453 C18.6901207,18.0782453 18.3689551,17.7570797 18.3689551,17.3609586 C18.3689551,16.9647744 18.6901207,16.6436719 19.0862418,16.6436719" id="Fill-162"></path>
              <path d="M87.9267637,47.2328395 C88.3228848,47.2328395 88.6440504,47.5540051 88.6440504,47.9501262 C88.6440504,48.3463104 88.3228848,48.6674129 87.9267637,48.6674129 C87.5306426,48.6674129 87.209477,48.3463104 87.209477,47.9501262 C87.209477,47.5540051 87.5306426,47.2328395 87.9267637,47.2328395" id="Fill-164"></path>
              <path d="M16.7961151,0.0419359182 C17.1922362,0.0419359182 17.5134018,0.363101525 17.5134018,0.759222614 C17.5134018,1.15540685 17.1922362,1.47657246 16.7961151,1.47657246 C16.399994,1.47657246 16.0788284,1.15540685 16.0788284,0.759222614 C16.0788284,0.363101525 16.399994,0.0419359182 16.7961151,0.0419359182" id="Fill-166"></path>
              <path d="M23.1629549,11.5877827 C23.559076,11.5877827 23.8802416,11.9089483 23.8802416,12.3050694 C23.8802416,12.7012536 23.559076,13.0223561 23.1629549,13.0223561 C22.7668338,13.0223561 22.4456682,12.7012536 22.4456682,12.3050694 C22.4456682,11.9089483 22.7668338,11.5877827 23.1629549,11.5877827" id="Fill-168"></path>
              <path d="M6.88083106,40.150879 C7.27695214,40.150879 7.59811775,40.4720446 7.59811775,40.8681657 C7.59811775,41.2643499 7.27695214,41.5855155 6.88083106,41.5855155 C6.48470997,41.5855155 6.16354436,41.2643499 6.16354436,40.8681657 C6.16354436,40.4720446 6.48470997,40.150879 6.88083106,40.150879" id="Fill-170"></path>
              <path d="M40.5580066,20.6342651 C40.9541277,20.6342651 41.2752933,20.9553676 41.2752933,21.3514887 C41.2752933,21.7476729 40.9541277,22.0688385 40.5580066,22.0688385 C40.1618855,22.0688385 39.8407199,21.7476729 39.8407199,21.3514887 C39.8407199,20.9553676 40.1618855,20.6342651 40.5580066,20.6342651" id="Fill-172"></path>
              <path d="M52.8828346,18.9183213 C53.2789557,18.9183213 53.6001213,19.239487 53.6001213,19.635608 C53.6001213,20.0317923 53.2789557,20.3529579 52.8828346,20.3529579 C52.4867135,20.3529579 52.1655479,20.0317923 52.1655479,19.635608 C52.1655479,19.239487 52.4867135,18.9183213 52.8828346,18.9183213" id="Fill-174"></path>
              <path d="M50.4705437,32.0200911 C50.8666648,32.0200911 51.1878304,32.3412567 51.1878304,32.7373778 C51.1878304,33.133562 50.8666648,33.4546645 50.4705437,33.4546645 C50.0743595,33.4546645 49.753257,33.133562 49.753257,32.7373778 C49.753257,32.3412567 50.0743595,32.0200911 50.4705437,32.0200911" id="Fill-176"></path>
              <path d="M51.8175007,25.4292436 C52.2136217,25.4292436 52.5347873,25.7504092 52.5347873,26.1465303 C52.5347873,26.5427146 52.2136217,26.863817 51.8175007,26.863817 C51.4213796,26.863817 51.100214,26.5427146 51.100214,26.1465303 C51.100214,25.7504092 51.4213796,25.4292436 51.8175007,25.4292436" id="Fill-178"></path>
              <path d="M65.1911939,30.0543946 C65.587315,30.0543946 65.9084806,30.3755602 65.9084806,30.7716813 C65.9084806,31.1678656 65.587315,31.4890312 65.1911939,31.4890312 C64.7950729,31.4890312 64.4739073,31.1678656 64.4739073,30.7716813 C64.4739073,30.3755602 64.7950729,30.0543946 65.1911939,30.0543946" id="Fill-180"></path>
              <path d="M43.9707795,28.1692296 C44.3669006,28.1692296 44.6880662,28.4903952 44.6880662,28.8865163 C44.6880662,29.2827005 44.3669006,29.6038661 43.9707795,29.6038661 C43.5746584,29.6038661 43.2534928,29.2827005 43.2534928,28.8865163 C43.2534928,28.4903952 43.5746584,28.1692296 43.9707795,28.1692296" id="Fill-182"></path>
              <path d="M16.1888494,32.3237965 C16.5849705,32.3237965 16.9061361,32.644899 16.9061361,33.0410832 C16.9061361,33.4372043 16.5849705,33.7583699 16.1888494,33.7583699 C15.7927283,33.7583699 15.4715627,33.4372043 15.4715627,33.0410832 C15.4715627,32.644899 15.7927283,32.3237965 16.1888494,32.3237965" id="Fill-184"></path>
              <path d="M36.1559728,46.9734695 C36.5521571,46.9734695 36.8732595,47.2946352 36.8732595,47.6907562 C36.8732595,48.0869405 36.5521571,48.4081061 36.1559728,48.4081061 C35.7598518,48.4081061 35.4386861,48.0869405 35.4386861,47.6907562 C35.4386861,47.2946352 35.7598518,46.9734695 36.1559728,46.9734695" id="Fill-186"></path>
              <path d="M8.91655119,30.5119009 C9.31267228,30.5119009 9.63383789,30.8330034 9.63383789,31.2291245 C9.63383789,31.6253087 9.31267228,31.9464743 8.91655119,31.9464743 C8.52036696,31.9464743 8.1992645,31.6253087 8.1992645,31.2291245 C8.1992645,30.8330034 8.52036696,30.5119009 8.91655119,30.5119009" id="Fill-188"></path>
              <path d="M87.98448,24.0061567 C88.3806011,24.0061567 88.7017667,24.3272591 88.7017667,24.7233802 C88.7017667,25.1195645 88.3806011,25.4407301 87.98448,25.4407301 C87.5883589,25.4407301 87.2671933,25.1195645 87.2671933,24.7233802 C87.2671933,24.3272591 87.5883589,24.0061567 87.98448,24.0061567" id="Fill-190"></path>
              <path d="M78.2977376,32.048021 C78.6938587,32.048021 79.0150243,32.3691866 79.0150243,32.7653077 C79.0150243,33.1614919 78.6938587,33.4825944 78.2977376,33.4825944 C77.9016165,33.4825944 77.5804509,33.1614919 77.5804509,32.7653077 C77.5804509,32.3691866 77.9016165,32.048021 78.2977376,32.048021" id="Fill-192"></path>
              <path d="M23.5033551,4.64808599 C23.8994761,4.64808599 24.2206418,4.96925159 24.2206418,5.36537268 C24.2206418,5.76155692 23.8994761,6.08265938 23.5033551,6.08265938 C23.107234,6.08265938 22.7860684,5.76155692 22.7860684,5.36537268 C22.7860684,4.96925159 23.107234,4.64808599 23.5033551,4.64808599" id="Fill-194"></path>
              <path d="M57.3965186,37.1872895 C57.7926396,37.1872895 58.1138052,37.5084551 58.1138052,37.9045762 C58.1138052,38.3007605 57.7926396,38.6219261 57.3965186,38.6219261 C57.0003975,38.6219261 56.6792319,38.3007605 56.6792319,37.9045762 C56.6792319,37.5084551 57.0003975,37.1872895 57.3965186,37.1872895" id="Fill-196"></path>
              <path d="M37.835967,14.1745235 C38.2320881,14.1745235 38.5532537,14.4956891 38.5532537,14.8918102 C38.5532537,15.2879944 38.2320881,15.60916 37.835967,15.60916 C37.4398459,15.60916 37.1186803,15.2879944 37.1186803,14.8918102 C37.1186803,14.4956891 37.4398459,14.1745235 37.835967,14.1745235" id="Fill-198"></path>
              <path d="M4.04319462,16.0207142 C4.43931571,16.0207142 4.76048132,16.3418798 4.76048132,16.7380009 C4.76048132,17.1341851 4.43931571,17.4552876 4.04319462,17.4552876 C3.64707353,17.4552876 3.32590793,17.1341851 3.32590793,16.7380009 C3.32590793,16.3418798 3.64707353,16.0207142 4.04319462,16.0207142" id="Fill-200"></path>
              <path d="M29.763167,30.2581384 C30.1592881,30.2581384 30.4804537,30.579304 30.4804537,30.9754251 C30.4804537,31.3716093 30.1592881,31.6927749 29.763167,31.6927749 C29.3670459,31.6927749 29.0458803,31.3716093 29.0458803,30.9754251 C29.0458803,30.579304 29.3670459,30.2581384 29.763167,30.2581384" id="Fill-202"></path>
              <path d="M80.4890772,62.3952724 C80.8851983,62.3952724 81.2063639,62.716438 81.2063639,63.112496 C81.2063639,63.5086802 80.8851983,63.8298458 80.4890772,63.8298458 C80.0929561,63.8298458 79.7717905,63.5086802 79.7717905,63.112496 C79.7717905,62.716438 80.0929561,62.3952724 80.4890772,62.3952724" id="Fill-204"></path>
              <path d="M48.5516518,41.6456883 C48.9477729,41.6456883 49.2689385,41.9668539 49.2689385,42.3629118 C49.2689385,42.7591592 48.9477729,43.0802617 48.5516518,43.0802617 C48.1555307,43.0802617 47.8343651,42.7591592 47.8343651,42.3629118 C47.8343651,41.9668539 48.1555307,41.6456883 48.5516518,41.6456883" id="Fill-206"></path>
              <path d="M45.9323777,52.7773223 C46.3284988,52.7773223 46.6496644,53.0984879 46.6496644,53.494609 C46.6496644,53.8907932 46.3284988,54.2119589 45.9323777,54.2119589 C45.5362566,54.2119589 45.215091,53.8907932 45.215091,53.494609 C45.215091,53.0984879 45.5362566,52.7773223 45.9323777,52.7773223" id="Fill-208"></path>
              <path d="M37.6556824,35.7917662 C38.0518666,35.7917662 38.3729691,36.1129319 38.3729691,36.5090529 C38.3729691,36.9052372 38.0518666,37.2264028 37.6556824,37.2264028 C37.2595613,37.2264028 36.9383957,36.9052372 36.9383957,36.5090529 C36.9383957,36.1129319 37.2595613,35.7917662 37.6556824,35.7917662" id="Fill-210"></path>
              <path d="M46.4459396,20.5381301 C46.8420607,20.5381301 47.1632263,20.8592326 47.1632263,21.2553537 C47.1632263,21.6515379 46.8420607,21.9727035 46.4459396,21.9727035 C46.0498185,21.9727035 45.7286529,21.6515379 45.7286529,21.2553537 C45.7286529,20.8592326 46.0498185,20.5381301 46.4459396,20.5381301" id="Fill-212"></path>
              <path d="M1.94238888,22.5164686 C2.33850997,22.5164686 2.65967558,22.8376342 2.65967558,23.2337553 C2.65967558,23.6299395 2.33850997,23.951042 1.94238888,23.951042 C1.54626779,23.951042 1.22510219,23.6299395 1.22510219,23.2337553 C1.22510219,22.8376342 1.54626779,22.5164686 1.94238888,22.5164686" id="Fill-214"></path>
              <path d="M5.32651834,0.606678422 C5.72263942,0.606678422 6.04380503,0.927844029 6.04380503,1.32390197 C6.04380503,1.72014935 5.72263942,2.04125181 5.32651834,2.04125181 C4.93039725,2.04125181 4.60923164,1.72014935 4.60923164,1.32390197 C4.60923164,0.927844029 4.93039725,0.606678422 5.32651834,0.606678422" id="Fill-216"></path>
              <path d="M36.7768657,28.3852491 C37.1729867,28.3852491 37.4941524,28.7063516 37.4941524,29.1024727 C37.4941524,29.4986569 37.1729867,29.8198225 36.7768657,29.8198225 C36.3807446,29.8198225 36.059579,29.4986569 36.059579,29.1024727 C36.059579,28.7063516 36.3807446,28.3852491 36.7768657,28.3852491" id="Fill-218"></path>
              <path d="M13.2977148,24.181598 C13.6938359,24.181598 14.0150015,24.5027636 14.0150015,24.8988847 C14.0150015,25.2950689 13.6938359,25.6162345 13.2977148,25.6162345 C12.9015937,25.6162345 12.5804281,25.2950689 12.5804281,24.8988847 C12.5804281,24.5027636 12.9015937,24.181598 13.2977148,24.181598" id="Fill-220"></path>
              <path d="M25.4165385,23.1887567 C25.8126595,23.1887567 26.1338252,23.5099223 26.1338252,23.9060434 C26.1338252,24.3022277 25.8126595,24.6233933 25.4165385,24.6233933 C25.0204174,24.6233933 24.6992518,24.3022277 24.6992518,23.9060434 C24.6992518,23.5099223 25.0204174,23.1887567 25.4165385,23.1887567" id="Fill-222"></path>
              <path d="M78.1205976,50.4503746 C78.5167819,50.4503746 78.8378843,50.7715402 78.8378843,51.1676613 C78.8378843,51.5638455 78.5167819,51.884948 78.1205976,51.884948 C77.7244765,51.884948 77.4033109,51.5638455 77.4033109,51.1676613 C77.4033109,50.7715402 77.7244765,50.4503746 78.1205976,50.4503746" id="Fill-224"></path>
              <path d="M62.2887119,24.3003712 C62.684833,24.3003712 63.0059986,24.6214736 63.0059986,25.0176578 C63.0059986,25.4137789 62.684833,25.7349445 62.2887119,25.7349445 C61.8925908,25.7349445 61.5714252,25.4137789 61.5714252,25.0176578 C61.5714252,24.6214736 61.8925908,24.3003712 62.2887119,24.3003712" id="Fill-226"></path>
              <path d="M75.9165908,22.5704845 C76.3127118,22.5704845 76.6338775,22.891587 76.6338775,23.2877081 C76.6338775,23.6838923 76.3127118,24.0049948 75.9165908,24.0049948 C75.5204697,24.0049948 75.1993041,23.6838923 75.1993041,23.2877081 C75.1993041,22.891587 75.5204697,22.5704845 75.9165908,22.5704845" id="Fill-228"></path>
              <path d="M91.9702677,34.8997518 C92.3663888,34.8997518 92.6875544,35.2208543 92.6875544,35.6170385 C92.6875544,36.0131596 92.3663888,36.3343252 91.9702677,36.3343252 C91.5741466,36.3343252 91.252981,36.0131596 91.252981,35.6170385 C91.252981,35.2208543 91.5741466,34.8997518 91.9702677,34.8997518" id="Fill-230"></path>
              <path d="M80.1203998,42.1214503 C80.5165208,42.1214503 80.8376865,42.4425528 80.8376865,42.838737 C80.8376865,43.2348581 80.5165208,43.5560237 80.1203998,43.5560237 C79.7242155,43.5560237 79.4031131,43.2348581 79.4031131,42.838737 C79.4031131,42.4425528 79.7242155,42.1214503 80.1203998,42.1214503" id="Fill-232"></path>
              <path d="M32.2274153,21.0492861 C32.6235364,21.0492861 32.944702,21.3704517 32.944702,21.7665728 C32.944702,22.162757 32.6235364,22.4839226 32.2274153,22.4839226 C31.8312942,22.4839226 31.5101286,22.162757 31.5101286,21.7665728 C31.5101286,21.3704517 31.8312942,21.0492861 32.2274153,21.0492861" id="Fill-234"></path>
              <path d="M65.3935232,40.6514957 C65.7896443,40.6514957 66.1108099,40.9726613 66.1108099,41.3687824 C66.1108099,41.7649666 65.7896443,42.0861322 65.3935232,42.0861322 C64.9974021,42.0861322 64.6762365,41.7649666 64.6762365,41.3687824 C64.6762365,40.9726613 64.9974021,40.6514957 65.3935232,40.6514957" id="Fill-236"></path>
              <path d="M28.4319968,18.8250217 C28.8281179,18.8250217 29.1492835,19.1461873 29.1492835,19.5423084 C29.1492835,19.9384926 28.8281179,20.2595951 28.4319968,20.2595951 C28.0358757,20.2595951 27.7147101,19.9384926 27.7147101,19.5423084 C27.7147101,19.1461873 28.0358757,18.8250217 28.4319968,18.8250217" id="Fill-238"></path>
              <path d="M79.5133488,27.2027901 C79.9094699,27.2027901 80.2306355,27.5239557 80.2306355,27.9200768 C80.2306355,28.316261 79.9094699,28.6374266 79.5133488,28.6374266 C79.1172277,28.6374266 78.7960621,28.316261 78.7960621,27.9200768 C78.7960621,27.5239557 79.1172277,27.2027901 79.5133488,27.2027901" id="Fill-240"></path>
              <path d="M34.4560558,6.19068494 C34.8521769,6.19068494 35.1733425,6.51185054 35.1733425,6.90797163 C35.1733425,7.30415587 34.8521769,7.62525833 34.4560558,7.62525833 C34.0599347,7.62525833 33.7387691,7.30415587 33.7387691,6.90797163 C33.7387691,6.51185054 34.0599347,6.19068494 34.4560558,6.19068494" id="Fill-242"></path>
              <path d="M45.8934665,13.4199674 C46.2896508,13.4199674 46.6107532,13.741133 46.6107532,14.1372541 C46.6107532,14.5334383 46.2896508,14.854604 45.8934665,14.854604 C45.4973454,14.854604 45.1761798,14.5334383 45.1761798,14.1372541 C45.1761798,13.741133 45.4973454,13.4199674 45.8934665,13.4199674" id="Fill-244"></path>
              <path d="M90.8103711,40.3322434 C91.2064922,40.3322434 91.5276578,40.6533459 91.5276578,41.049467 C91.5276578,41.4456512 91.2064922,41.7668168 90.8103711,41.7668168 C90.41425,41.7668168 90.0930844,41.4456512 90.0930844,41.049467 C90.0930844,40.6533459 90.41425,40.3322434 90.8103711,40.3322434" id="Fill-246"></path>
              <path d="M53.6769775,41.9338596 C54.0730986,41.9338596 54.3942642,42.2550252 54.3942642,42.6511463 C54.3942642,43.0473305 54.0730986,43.368433 53.6769775,43.368433 C53.2808564,43.368433 52.9596908,43.0473305 52.9596908,42.6511463 C52.9596908,42.2550252 53.2808564,41.9338596 53.6769775,41.9338596" id="Fill-248"></path>
              <path d="M0.7784193,29.5746227 C1.17454039,29.5746227 1.49570599,29.8957883 1.49570599,30.2919094 C1.49570599,30.6880937 1.17454039,31.0092593 0.7784193,31.0092593 C0.382298211,31.0092593 0.0611326041,30.6880937 0.0611326041,30.2919094 C0.0611326041,29.8957883 0.382298211,29.5746227 0.7784193,29.5746227" id="Fill-250"></path>
              <path d="M69.5923626,16.4370865 C69.9884837,16.4370865 70.3096493,16.7582522 70.3096493,17.1543101 C70.3096493,17.5504943 69.9884837,17.8716599 69.5923626,17.8716599 C69.1962415,17.8716599 68.8750759,17.5504943 68.8750759,17.1543101 C68.8750759,16.7582522 69.1962415,16.4370865 69.5923626,16.4370865" id="Fill-252"></path>
              <path d="M61.7771833,16.6331895 C62.1733044,16.6331895 62.49447,16.9543551 62.49447,17.3504762 C62.49447,17.7466605 62.1733044,18.0678261 61.7771833,18.0678261 C61.3810622,18.0678261 61.0598966,17.7466605 61.0598966,17.3504762 C61.0598966,16.9543551 61.3810622,16.6331895 61.7771833,16.6331895" id="Fill-254"></path>
              <path d="M91.2676943,58.4019639 C91.6638154,58.4019639 91.984981,58.7230664 91.984981,59.1191875 C91.984981,59.5153717 91.6638154,59.8365373 91.2676943,59.8365373 C90.8715732,59.8365373 90.5504076,59.5153717 90.5504076,59.1191875 C90.5504076,58.7230664 90.8715732,58.4019639 91.2676943,58.4019639" id="Fill-256"></path>
              <path d="M71.4931881,30.3113587 C71.8893092,30.3113587 72.2104748,30.6324611 72.2104748,31.0285822 C72.2104748,31.4247665 71.8893092,31.7459321 71.4931881,31.7459321 C71.097067,31.7459321 70.7759014,31.4247665 70.7759014,31.0285822 C70.7759014,30.6324611 71.097067,30.3113587 71.4931881,30.3113587" id="Fill-258"></path>
              <path d="M83.1263545,38.1108143 C83.5224756,38.1108143 83.8436412,38.4319799 83.8436412,38.828101 C83.8436412,39.2242852 83.5224756,39.5454509 83.1263545,39.5454509 C82.7302334,39.5454509 82.4090678,39.2242852 82.4090678,38.828101 C82.4090678,38.4319799 82.7302334,38.1108143 83.1263545,38.1108143" id="Fill-260"></path>
              <path d="M20.3863058,38.4108825 C20.7824269,38.4108825 21.1035925,38.731985 21.1035925,39.1281692 C21.1035925,39.5242903 20.7824269,39.8454559 20.3863058,39.8454559 C19.9901847,39.8454559 19.6690191,39.5242903 19.6690191,39.1281692 C19.6690191,38.731985 19.9901847,38.4108825 20.3863058,38.4108825" id="Fill-262"></path>
              <path d="M31.7157036,11.8176125 C32.1118247,11.8176125 32.4329903,12.1387781 32.4329903,12.5348992 C32.4329903,12.9310834 32.1118247,13.2521859 31.7157036,13.2521859 C31.3195825,13.2521859 30.9984169,12.9310834 30.9984169,12.5348992 C30.9984169,12.1387781 31.3195825,11.8176125 31.7157036,11.8176125" id="Fill-264"></path>
              <path d="M21.4635051,26.7571175 C21.8596262,26.7571175 22.1807918,27.0782832 22.1807918,27.4744042 C22.1807918,27.8705885 21.8596262,28.1916909 21.4635051,28.1916909 C21.067384,28.1916909 20.7462184,27.8705885 20.7462184,27.4744042 C20.7462184,27.0782832 21.067384,26.7571175 21.4635051,26.7571175" id="Fill-266"></path>
              <path d="M11.3049789,15.034535 C11.7010999,15.034535 12.0222656,15.3557006 12.0222656,15.7517585 C12.0222656,16.1479428 11.7010999,16.4691084 11.3049789,16.4691084 C10.9088578,16.4691084 10.5876922,16.1479428 10.5876922,15.7517585 C10.5876922,15.3557006 10.9088578,15.034535 11.3049789,15.034535" id="Fill-268"></path>
              <path d="M60.0296977,44.5289926 C60.4258187,44.5289926 60.7469843,44.8501582 60.7469843,45.2462793 C60.7469843,45.6424635 60.4258187,45.9636291 60.0296977,45.9636291 C59.6335766,45.9636291 59.312411,45.6424635 59.312411,45.2462793 C59.312411,44.8501582 59.6335766,44.5289926 60.0296977,44.5289926" id="Fill-270"></path>
              <path d="M70.9699142,54.1954143 C71.3660353,54.1954143 71.6872009,54.51658 71.6872009,54.912701 C71.6872009,55.3088853 71.3660353,55.6300509 70.9699142,55.6300509 C70.5737931,55.6300509 70.2526275,55.3088853 70.2526275,54.912701 C70.2526275,54.51658 70.5737931,54.1954143 70.9699142,54.1954143" id="Fill-272"></path>
              <path d="M3.0732947,6.35379362 C3.46941578,6.35379362 3.79058139,6.67489608 3.79058139,7.07101717 C3.79058139,7.4672014 3.46941578,7.78830386 3.0732947,7.78830386 C2.67717361,7.78830386 2.356008,7.4672014 2.356008,7.07101717 C2.356008,6.67489608 2.67717361,6.35379362 3.0732947,6.35379362" id="Fill-274"></path>
              <path d="M72.6462964,42.8611479 C73.0424175,42.8611479 73.3635831,43.1823135 73.3635831,43.5784346 C73.3635831,43.9746188 73.0424175,44.2957844 72.6462964,44.2957844 C72.2501753,44.2957844 71.9290097,43.9746188 71.9290097,43.5784346 C71.9290097,43.1823135 72.2501753,42.8611479 72.6462964,42.8611479" id="Fill-276"></path>
              <path d="M88.4265721,51.700123 C88.8226932,51.700123 89.1438588,52.0212886 89.1438588,52.4174097 C89.1438588,52.813594 88.8226932,53.1347596 88.4265721,53.1347596 C88.030451,53.1347596 87.7092854,52.813594 87.7092854,52.4174097 C87.7092854,52.0212886 88.030451,51.700123 88.4265721,51.700123" id="Fill-278"></path>
            </g>
          </g>
          <g id="Group-350" transform="translate(95.286839, 41.348454)">
            <g id="Group-284">
              <mask id="mask-2" fill="white">
                <use xlink:href="#path-1"></use>
              </mask>
              <g id="Clip-283"></g>
              <polygon id="Fill-282" mask="url(#mask-2)" points="56.8007835 59.6806653 56.8007835 0.0385828128 0.105139744 50.1025294 0.0164182182 108.176483"></polygon>
            </g>
            <g id="Group-349" transform="translate(4.672877, 33.531053)" fill="#FEFEFE">
              <path d="M28.6526703,24.7414087 C29.0285844,24.7414087 29.3332686,25.0460298 29.3332686,25.4219438 C29.3332686,25.7978579 29.0285844,26.1025421 28.6526703,26.1025421 C28.2767563,26.1025421 27.972072,25.7978579 27.972072,25.4219438 C27.972072,25.0460298 28.2767563,24.7414087 28.6526703,24.7414087" id="Fill-285"></path>
              <path d="M18.2303664,8.78100617 C18.6062805,8.78100617 18.9109647,9.08575356 18.9109647,9.46166761 C18.9109647,9.83745537 18.6062805,10.1422659 18.2303664,10.1422659 C17.8544524,10.1422659 17.5497681,9.83745537 17.5497681,9.46166761 C17.5497681,9.08575356 17.8544524,8.78100617 18.2303664,8.78100617" id="Fill-287"></path>
              <path d="M48.1492729,20.0811732 C48.5251869,20.0811732 48.8298712,20.3858575 48.8298712,20.7617715 C48.8298712,21.1376224 48.5251869,21.4423698 48.1492729,21.4423698 C47.773422,21.4423698 47.4686746,21.1376224 47.4686746,20.7617715 C47.4686746,20.3858575 47.773422,20.0811732 48.1492729,20.0811732" id="Fill-289"></path>
              <path d="M16.0615956,28.6170554 C16.4375096,28.6170554 16.7421939,28.9218028 16.7421939,29.2976537 C16.7421939,29.6735046 16.4375096,29.9783151 16.0615956,29.9783151 C15.6856815,29.9783151 15.3809973,29.6735046 15.3809973,29.2976537 C15.3809973,28.9218028 15.6856815,28.6170554 16.0615956,28.6170554" id="Fill-291"></path>
              <path d="M1.37119907,13.9524608 C1.74711312,13.9524608 2.05179736,14.257145 2.05179736,14.633059 C2.05179736,15.0089099 1.74711312,15.3136573 1.37119907,15.3136573 C0.995285018,15.3136573 0.690600776,15.0089099 0.690600776,14.633059 C0.690600776,14.257145 0.995285018,13.9524608 1.37119907,13.9524608" id="Fill-293"></path>
              <path d="M19.126075,16.6202381 C19.501989,16.6202381 19.8066732,16.9249223 19.8066732,17.3007732 C19.8066732,17.6766873 19.501989,17.9814347 19.126075,17.9814347 C18.7501609,17.9814347 18.4454767,17.6766873 18.4454767,17.3007732 C18.4454767,16.9249223 18.7501609,16.6202381 19.126075,16.6202381" id="Fill-295"></path>
              <path d="M8.21145187,32.591003 C8.58736592,32.591003 8.89205016,32.8957504 8.89205016,33.2716645 C8.89205016,33.6474522 8.58736592,33.9522628 8.21145187,33.9522628 C7.83553782,33.9522628 7.53085357,33.6474522 7.53085357,33.2716645 C7.53085357,32.8957504 7.83553782,32.591003 8.21145187,32.591003" id="Fill-297"></path>
              <path d="M47.0169463,5.59874502 C47.3927972,5.59874502 47.6975445,5.90336612 47.6975445,6.27928017 C47.6975445,6.65519422 47.3927972,6.95987846 47.0169463,6.95987846 C46.6410322,6.95987846 46.336348,6.65519422 46.336348,6.27928017 C46.336348,5.90336612 46.6410322,5.59874502 47.0169463,5.59874502" id="Fill-299"></path>
              <path d="M39.7197681,11.5403593 C40.0956822,11.5403593 40.4003664,11.8451067 40.4003664,12.2208944 C40.4003664,12.5968085 40.0956822,12.901619 39.7197681,12.901619 C39.3439172,12.901619 39.0391698,12.5968085 39.0391698,12.2208944 C39.0391698,11.8451067 39.3439172,11.5403593 39.7197681,11.5403593" id="Fill-301"></path>
              <path d="M31.4552475,13.3556522 C31.8311616,13.3556522 32.1358458,13.6603364 32.1358458,14.0362505 C32.1358458,14.4121014 31.8311616,14.7168488 31.4552475,14.7168488 C31.0793335,14.7168488 30.7746492,14.4121014 30.7746492,14.0362505 C30.7746492,13.6603364 31.0793335,13.3556522 31.4552475,13.3556522" id="Fill-303"></path>
              <path d="M21.9055909,22.5839285 C22.2815049,22.5839285 22.5861892,22.8886128 22.5861892,23.2644637 C22.5861892,23.6403777 22.2815049,23.9451251 21.9055909,23.9451251 C21.5296768,23.9451251 21.2249926,23.6403777 21.2249926,23.2644637 C21.2249926,22.8886128 21.5296768,22.5839285 21.9055909,22.5839285" id="Fill-305"></path>
              <path d="M18.7133083,13.19476 C19.0891592,13.19476 19.3939066,13.4994442 19.3939066,13.8752951 C19.3939066,14.2512092 19.0891592,14.5559566 18.7133083,14.5559566 C18.3373943,14.5559566 18.03271,14.2512092 18.03271,13.8752951 C18.03271,13.4994442 18.3373943,13.19476 18.7133083,13.19476" id="Fill-307"></path>
              <path d="M26.8373774,9.47242154 C27.2132914,9.47242154 27.5179757,9.77710579 27.5179757,10.1529567 C27.5179757,10.5288707 27.2132914,10.8336181 26.8373774,10.8336181 C26.4615265,10.8336181 26.1567791,10.5288707 26.1567791,10.1529567 C26.1567791,9.77710579 26.4615265,9.47242154 26.8373774,9.47242154" id="Fill-309"></path>
              <path d="M11.0228191,9.24499133 C11.3987332,9.24499133 11.7034174,9.54973872 11.7034174,9.92565277 C11.7034174,10.3014405 11.3987332,10.6062511 11.0228191,10.6062511 C10.6469051,10.6062511 10.3422209,10.3014405 10.3422209,9.92565277 C10.3422209,9.54973872 10.6469051,9.24499133 11.0228191,9.24499133" id="Fill-311"></path>
              <path d="M47.5565941,0.0606779457 C47.9325082,0.0606779457 48.2371924,0.365425335 48.2371924,0.741339385 C48.2371924,1.11712714 47.9325082,1.42193768 47.5565941,1.42193768 C47.1806801,1.42193768 46.8759958,1.11712714 46.8759958,0.741339385 C46.8759958,0.365425335 47.1806801,0.0606779457 47.5565941,0.0606779457" id="Fill-313"></path>
              <path d="M35.4951143,2.97555578 C35.8709652,2.97555578 36.1757126,3.28030317 36.1757126,3.65615407 C36.1757126,4.03200498 35.8709652,4.33681551 35.4951143,4.33681551 C35.1192003,4.33681551 34.814516,4.03200498 34.814516,3.65615407 C34.814516,3.28030317 35.1192003,2.97555578 35.4951143,2.97555578" id="Fill-315"></path>
              <path d="M31.3014846,9.03156081 C31.6773986,9.03156081 31.9820829,9.33624505 31.9820829,9.7121591 C31.9820829,10.0880732 31.6773986,10.3927574 31.3014846,10.3927574 C30.9256337,10.3927574 30.6208863,10.0880732 30.6208863,9.7121591 C30.6208863,9.33624505 30.9256337,9.03156081 31.3014846,9.03156081" id="Fill-317"></path>
              <path d="M13.4523429,37.0460108 C13.8282569,37.0460108 14.1329412,37.350695 14.1329412,37.7266091 C14.1329412,38.10246 13.8282569,38.4072074 13.4523429,38.4072074 C13.0764288,38.4072074 12.7717446,38.10246 12.7717446,37.7266091 C12.7717446,37.350695 13.0764288,37.0460108 13.4523429,37.0460108" id="Fill-319"></path>
              <path d="M24.6318297,17.5440091 C25.0076806,17.5440091 25.312428,17.8486934 25.312428,18.2245443 C25.312428,18.6004583 25.0076806,18.9052689 24.6318297,18.9052689 C24.2559157,18.9052689 23.9512314,18.6004583 23.9512314,18.2245443 C23.9512314,17.8486934 24.2559157,17.5440091 24.6318297,17.5440091" id="Fill-321"></path>
              <path d="M12.1017739,22.5839285 C12.4776248,22.5839285 12.7823722,22.8886759 12.7823722,23.2645268 C12.7823722,23.6403777 12.4776248,23.9451883 12.1017739,23.9451883 C11.7258599,23.9451883 11.4211756,23.6403777 11.4211756,23.2645268 C11.4211756,22.8886759 11.7258599,22.5839285 12.1017739,22.5839285" id="Fill-323"></path>
              <path d="M31.7098751,19.283513 C32.0857892,19.283513 32.3904734,19.5881973 32.3904734,19.9640482 C32.3904734,20.3399622 32.0857892,20.6447096 31.7098751,20.6447096 C31.3339611,20.6447096 31.0292769,20.3399622 31.0292769,19.9640482 C31.0292769,19.5881973 31.3339611,19.283513 31.7098751,19.283513" id="Fill-325"></path>
              <path d="M0.722395287,24.7480707 C1.09830934,24.7480707 1.40299358,25.0528181 1.40299358,25.428669 C1.40299358,25.8045199 1.09830934,26.1093304 0.722395287,26.1093304 C0.346544384,26.1093304 0.0417969948,25.8045199 0.0417969948,25.428669 C0.0417969948,25.0528181 0.346544384,24.7480707 0.722395287,24.7480707" id="Fill-327"></path>
              <path d="M45.6710628,13.6946316 C46.0469769,13.6946316 46.3516611,13.9993158 46.3516611,14.3751667 C46.3516611,14.7510808 46.0469769,15.0558913 45.6710628,15.0558913 C45.2952119,15.0558913 44.9904645,14.7510808 44.9904645,14.3751667 C44.9904645,13.9993158 45.2952119,13.6946316 45.6710628,13.6946316" id="Fill-329"></path>
              <path d="M3.33778588,19.8300061 C3.71369993,19.8300061 4.01838417,20.1347535 4.01838417,20.5106044 C4.01838417,20.8864553 3.71369993,21.1912658 3.33778588,21.1912658 C2.96193497,21.1912658 2.65718758,20.8864553 2.65718758,20.5106044 C2.65718758,20.1347535 2.96193497,19.8300061 3.33778588,19.8300061" id="Fill-331"></path>
              <path d="M34.7573617,25.9209188 C35.1332757,25.9209188 35.43796,26.225603 35.43796,26.601517 C35.43796,26.9773679 35.1332757,27.2821153 34.7573617,27.2821153 C34.3815108,27.2821153 34.0767634,26.9773679 34.0767634,26.601517 C34.0767634,26.225603 34.3815108,25.9209188 34.7573617,25.9209188" id="Fill-333"></path>
              <path d="M40.8204897,26.3745983 C41.1964037,26.3745983 41.501088,26.6792826 41.501088,27.0551966 C41.501088,27.4310475 41.1964037,27.7358581 40.8204897,27.7358581 C40.4445756,27.7358581 40.1398914,27.4310475 40.1398914,27.0551966 C40.1398914,26.6792826 40.4445756,26.3745983 40.8204897,26.3745983" id="Fill-335"></path>
              <path d="M1.50334678,38.0789945 C1.87926083,38.0789945 2.18394507,38.3836788 2.18394507,38.7595297 C2.18394507,39.1354437 1.87926083,39.4401911 1.50334678,39.4401911 C1.12743273,39.4401911 0.822748489,39.1354437 0.822748489,38.7595297 C0.822748489,38.3836788 1.12743273,38.0789945 1.50334678,38.0789945" id="Fill-337"></path>
              <path d="M12.0212678,15.9959227 C12.3971819,15.9959227 12.7018661,16.3005438 12.7018661,16.6764579 C12.7018661,17.0523719 12.3971819,17.3570561 12.0212678,17.3570561 C11.6453538,17.3570561 11.3406695,17.0523719 11.3406695,16.6764579 C11.3406695,16.3005438 11.6453538,15.9959227 12.0212678,15.9959227" id="Fill-339"></path>
              <path d="M29.7541686,3.20791777 C30.1300826,3.20791777 30.4347669,3.51266516 30.4347669,3.88851606 C30.4347669,4.26436697 30.1300826,4.5691775 29.7541686,4.5691775 C29.3782545,4.5691775 29.0735703,4.26436697 29.0735703,3.88851606 C29.0735703,3.51266516 29.3782545,3.20791777 29.7541686,3.20791777" id="Fill-341"></path>
              <path d="M24.9756209,34.4490275 C25.3515349,34.4490275 25.6562192,34.7537749 25.6562192,35.1296258 C25.6562192,35.5054767 25.3515349,35.8102873 24.9756209,35.8102873 C24.5997068,35.8102873 24.2950226,35.5054767 24.2950226,35.1296258 C24.2950226,34.7537749 24.5997068,34.4490275 24.9756209,34.4490275" id="Fill-343"></path>
              <path d="M40.7222898,3.60887592 C41.0982038,3.60887592 41.4028881,3.91362331 41.4028881,4.28947421 C41.4028881,4.66532511 41.0982038,4.97013565 40.7222898,4.97013565 C40.3463757,4.97013565 40.0416915,4.66532511 40.0416915,4.28947421 C40.0416915,3.91362331 40.3463757,3.60887592 40.7222898,3.60887592" id="Fill-345"></path>
              <path d="M5.80973807,27.3488175 C6.18565212,27.3488175 6.49033636,27.6535649 6.49033636,28.0294158 C6.49033636,28.4052667 6.18565212,28.7100772 5.80973807,28.7100772 C5.43382402,28.7100772 5.12913978,28.4052667 5.12913978,28.0294158 C5.12913978,27.6535649 5.43382402,27.3488175 5.80973807,27.3488175" id="Fill-347"></path>
            </g>
          </g>
          <polygon id="Fill-351" fill="#FEFEFE" points="153.469595 48.8308042 58.2851641 23.3515607 0.187467636 74.096295 0.323233671 78.1980711 95.5528776 103.534792 153.605298 52.861161"></polygon>
          <polygon id="Stroke-353" stroke="#0E1831" stroke-width="0.862335339" points="153.469595 48.8308042 58.2851641 23.3515607 0.187467636 74.096295 0.323233671 78.1980711 95.5528776 103.534792 153.605298 52.861161"></polygon>
          <path d="M60.1808905,25.4196185 C59.7690458,25.3094901 59.2307808,25.3978959 58.978698,25.6179632 C58.7276887,25.8370833 58.8582135,26.1045108 59.2700582,26.2147654 C59.6834816,26.3253358 60.2217466,26.2368037 60.4728822,26.0176837 C60.7248387,25.7976796 60.5943138,25.530252 60.1808905,25.4196185" id="Fill-355" fill="#0E1831"></path>
          <path d="M62.3910633,26.0510884 C61.9792186,25.9409601 61.4409536,26.0293659 61.1888708,26.2494331 C60.9377984,26.4685532 61.0683863,26.7359807 61.480231,26.8462354 C61.8920757,26.9563637 62.4304038,26.8679579 62.6814763,26.6487747 C62.9334328,26.4287075 62.8029079,26.1613431 62.3910633,26.0510884" id="Fill-357" fill="#0E1831"></path>
          <path d="M64.6026616,26.6196835 C64.1893014,26.5091131 63.6509733,26.597582 63.3989537,26.8176493 C63.1478812,27.0367062 63.2784692,27.3041969 63.6918294,27.4148304 C64.1036741,27.5249588 64.6420022,27.436553 64.8930747,27.2173698 C65.1450943,26.9973025 65.0145063,26.7299381 64.6026616,26.6196835" id="Fill-359" fill="#0E1831"></path>
          <path d="M54.9359107,26.4457634 L150.165555,51.9250068" id="Stroke-361" stroke="#0E1831" stroke-width="0.862335339"></path>
          <polyline id="Stroke-363" stroke="#0E1831" stroke-width="0.862335339" points="153.659036 48.799799 95.6065526 99.4734297 0.376908615 74.1365828"></polyline>
          <path d="M95.6572596,103.537254 L95.4762803,99.5068345" id="Stroke-365" stroke="#0E1831" stroke-width="0.862335339"></path>
          <polygon id="Fill-367" fill="#0E1831" points="95.6970422 103.552852 0.376908615 78.2161311 0.376908615 74.1217433 95.6065526 99.4585271"></polygon>
          <polygon id="Fill-369" fill="#0E1831" points="153.655058 52.8941237 95.693064 103.567754 95.6025743 99.4734297 153.655058 48.799799"></polygon>
          <polygon id="Fill-371" fill="#FEFEFE" points="94.5593228 98.3577487 3.72369925 73.8007039 55.384507 27.4561153 147.580885 51.6596"></polygon>
          <polygon id="Fill-373" fill="#C4E6F1" points="70.4917936 41.3592519 48.8737994 35.6657296 56.1310939 29.1610841 77.793733 34.8431137"></polygon>
          <polygon id="Fill-375" fill="#C4E6F1" points="131.851664 63.6299966 43.6957459 40.3055181 47.2518057 37.1176053 135.497519 60.4188457"></polygon>
          <path d="M127.75807,52.6098775 L130.033383,51.9834593 L131.49713,50.691535 L126.318824,49.3277494 L126.746266,48.6042111 L125.874395,48.3746718 C125.65837,48.3178395 125.328174,48.4090238 125.137028,48.5778157 C124.946135,48.7465444 124.966468,48.9294181 125.182241,48.9863136 L125.508017,49.0720672 L124.015979,51.5969366 L121.918047,52.8082222 L126.98894,54.1466227 C127.204524,54.2035813 127.534467,54.1127759 127.725865,53.9438577 C127.91739,53.7747501 127.898004,53.5914343 127.682294,53.5346652 L123.682879,52.4794158 L124.805317,51.8314013 L127.75807,52.6098775 Z M122.09871,53.2621859 C121.807161,53.1850834 121.36109,53.3079675 121.102567,53.5363702 C120.843601,53.7651517 120.870312,54.0128774 121.161925,54.0898536 C121.453474,54.1668929 121.899797,54.0440088 122.1587,53.8152273 C122.41735,53.5866983 122.390513,53.339099 122.09871,53.2621859 Z M126.252393,54.3584177 C125.960717,54.2815678 125.5149,54.4042624 125.255808,54.6329177 C124.996652,54.8617624 125.022858,55.1096143 125.314471,55.1864642 C125.605894,55.2636299 126.052407,55.1406827 126.311752,54.9116485 C126.570654,54.6831827 126.543817,54.4355833 126.252393,54.3584177 Z" id="Fill-377" fill="#93B8C0"></path>
          <polygon id="Fill-379" fill="#C4E6F1" points="49.0886254 83.4830324 7.8914008 72.4078707 41.7755722 41.9799237 83.3770007 52.9501983"></polygon>
          <polygon id="Fill-381" fill="#C4E6F1" points="113.682064 79.6260141 69.6491601 67.8452479 85.678456 53.5989705 129.912293 65.3275772"></polygon>
          <polygon id="Fill-383" fill="#C4E6F1" points="95.1397069 95.9750863 51.3365321 84.1347094 67.356356 69.8908947 111.360464 81.6790491"></polygon>
          <polygon id="Fill-385" fill="#C4E6F1" points="140.591144 55.0439 132.22783 52.8383649 133.870915 51.3888257 142.238271 53.5932872"></polygon>
          <polygon id="Fill-387" fill="#C4E6F1" points="137.932845 57.3818542 129.575657 55.1747405 131.218678 53.7252645 139.579845 55.9312415"></polygon>
          <path d="M39.5911282,61.2653312 C37.9398975,60.8243126 37.7753996,59.4162609 39.2226655,58.1213687 C40.6707524,56.825845 43.1847605,56.1331225 44.8386434,56.5735096 C46.4934735,57.0141493 46.6582871,58.4213169 45.2080533,59.7172826 C43.7581352,61.0128064 41.2436219,61.7064129 39.5911282,61.2653312 Z M50.7050622,62.2261758 L52.5831169,60.5501915 L52.3679751,60.3923871 L50.7362568,59.1963199 L51.4204545,57.8776844 L54.7764646,56.2430614 L54.5903072,54.6552934 L54.1798518,54.6926764 L51.0744721,54.9759538 L50.1337713,54.1047147 L51.4740663,51.830981 L49.3324991,51.2625317 L48.9688356,51.4730007 L46.2147426,53.0675254 L44.2045844,53.1530896 L42.7423526,51.5733412 L39.9071789,52.3545327 L39.8038073,52.6144457 L39.0159854,54.5860211 L37.117029,55.5774289 L33.7185842,55.6137384 L31.8500015,57.2876389 L32.0652064,57.4456959 L33.6997664,58.641321 L33.0211888,59.9576832 L29.6771134,61.5899067 L29.8618184,63.1778642 L30.2712004,63.1406706 L33.3676763,62.8597296 L34.3043988,63.7317264 L32.9642933,66.0048919 L35.0968936,66.5762459 L35.4594836,66.3660927 L38.210735,64.7725152 L40.2172307,64.687393 L41.6652544,66.2716248 L44.502133,65.4895493 L44.6073991,65.2290048 L45.4024197,63.255977 L47.3068067,62.2634326 L50.7050622,62.2261758 Z" id="Fill-389" fill="#93B8C0"></path>
          <path d="M84.10357,87.1718272 L73.3996495,84.2865779 L79.5165724,78.8654085 L90.201612,81.7358814 L90.2398791,81.7462375 L84.10357,87.1718272 Z M79.3863002,77.5948279 L71.164688,84.8815489 L84.2231704,88.403825 L92.4754721,81.108958 L79.3863002,77.5948279 Z M85.2549923,83.141786 C85.7378142,83.2716163 86.4789705,83.0675252 86.9106433,82.6858016 C87.3417478,82.3044569 87.301018,81.889076 86.8179435,81.7590563 C86.3358162,81.6295419 85.5939022,81.8344538 85.1628608,82.2157985 C84.7313774,82.5975221 84.7731176,83.012019 85.2549923,83.141786 Z M80.3899585,83.9581504 L80.2594968,81.1003701 L75.6200241,83.1888937 L74.8238668,83.8942456 L83.5136508,86.2358624 C83.2612523,85.1820654 82.7527927,82.9375055 82.7527927,82.9375055 L80.3899585,83.9581504 Z" id="Fill-391" fill="#93B8C0"></path>
          <path d="M48.0927974,68.9054859 C47.5082456,68.2012706 48.2245851,67.0726444 49.691995,66.3851631 C51.1602888,65.6973029 52.8249067,65.7105006 53.4100268,66.4147159 C53.9951468,67.1193732 53.2784284,68.2477468 51.8094399,68.9358596 C50.3413355,69.623404 48.6771596,69.6104589 48.0927974,68.9054859 Z M53.1588912,72.0891678 L55.058037,71.1997424 L55.039156,71.0301296 L54.8960018,69.7434465 L55.9908444,68.8697447 L58.6134022,68.3362789 L59.4235149,67.062604 L59.1950491,67.0018566 L57.4672211,66.5411993 L57.4884385,65.6588464 L59.4601402,64.1874583 L58.7028814,63.2771944 L58.3996496,63.360801 L56.1003413,63.9951125 L55.0358093,63.6214718 L55.1963289,62.0755702 L53.318211,62.0606676 L53.1179088,62.2397524 L51.5973923,63.5969076 L50.0730871,63.9500256 L48.3328822,63.2337492 L46.4353782,64.1229221 L46.4547644,64.2924717 L46.6029704,65.5782077 L45.512106,66.4506465 L42.8929582,66.9837966 L42.0861291,68.2560191 L42.3144686,68.3169559 L44.0409705,68.7780552 L44.0203215,69.659903 L42.0539241,71.1298387 L42.8087833,72.0412393 L43.1113205,71.9575695 L45.4050087,71.3248366 L46.4675832,71.69873 L46.3008751,73.2464628 L48.1766566,73.2618706 L48.3777797,73.0826595 L49.898233,71.725378 L51.4231066,71.3725758 L53.1588912,72.0891678 Z" id="Fill-393" fill="#93B8C0"></path>
          <polygon id="Fill-395" fill="#93B8C0" points="104.62388 67.7729446 92.1294897 69.3503564 100.647451 61.8080796"></polygon>
          <path d="M47.4579806,22.7832378 L44.3903629,26.1277551" id="Stroke-399" stroke="#0E1831" stroke-width="1.43716242" stroke-linecap="round" stroke-dasharray="0,4.311613488711089"></path>
          <path d="M41.7196239,28.9716431 L21.6574453,50.8447512" id="Stroke-401" stroke="#0E1831" stroke-width="0.862335339" stroke-linecap="round"></path>
          <path d="M18.5762509,54.2935874 L9.7858106,63.8774697" id="Stroke-403" stroke="#0E1831" stroke-width="1.43716242" stroke-linecap="round" stroke-dasharray="0,4.311613488711089"></path>
          <path d="M7.01864621,66.859839 L0.376908615,74.1010942" id="Stroke-405" stroke="#0E1831" stroke-width="0.862335339" stroke-linecap="round"></path>
          <path d="M64.8026284,3.90228684 L50.2630332,19.754266" id="Stroke-407" stroke="#0E1831" stroke-width="0.862335339" stroke-linecap="round"></path>
          <path d="M64.7552682,3.90228684 L56.8934675,12.4737334" id="Stroke-409" stroke="#0E1831" stroke-width="1.58094812" stroke-linecap="round"></path>
          <polyline id="Stroke-411" stroke="#0E1831" stroke-width="0.862335339" stroke-linecap="round" points="35.9286658 39.2958608 40.3968839 34.4243228 41.7537865 28.9716431"></polyline>
          <path d="M34.16055,41.2469766 L36.4421771,38.7594271" id="Stroke-413" stroke="#0E1831" stroke-width="1.43716242" stroke-linecap="round" stroke-dasharray="0,4.311613488711089"></path>
          <path d="M64.9762826,12.8666971 L73.132664,0.0503202602" id="Stroke-415" stroke="#0E1831" stroke-width="1.43716242" stroke-linecap="round" stroke-dasharray="0,4.311613488711089"></path>
          <path d="M58.2827014,23.3996787 L62.8142559,16.2790975" id="Stroke-417" stroke="#0E1831" stroke-width="0.862335339" stroke-linecap="round"></path>
          <path d="M85.0570265,26.8877924 L86.6309021,37.7419396" id="Stroke-438" stroke="#0E1831" stroke-width="1.43716242" stroke-linecap="round" stroke-dasharray="0,4.387010834705848"></path>
          <path d="M82.5942937,9.96439819 L83.807158,18.32847" id="Stroke-442" stroke="#0E1831" stroke-width="0.862335339" stroke-linecap="round"></path>
          <path d="M87.5829062,44.3795095 L91.1793169,69.1816908" id="Stroke-444" stroke="#0E1831" stroke-width="0.862335339" stroke-linecap="round"></path>
          <path d="M92.5083717,78.1631508 L92.8197495,80.3104643" id="Stroke-448" stroke="#0E1831" stroke-width="1.43716242" stroke-linecap="round" stroke-dasharray="0,4.339587425805519"></path>
          <path d="M93.7081645,86.5617009 L95.5833776,99.4940157" id="Stroke-452" stroke="#0E1831" stroke-width="0.862335339" stroke-linecap="round"></path>
          <path d="M88.5301111,50.6942088 L89.9504133,60.4888757" id="Stroke-454" stroke="#0E1831" stroke-width="1.58094812" stroke-linecap="round"></path>
          <polyline id="Stroke-456" stroke="#0E1831" stroke-width="0.862335339" stroke-linecap="round" points="89.1421949 99.9391388 88.2143761 93.9790099 91.8102816 85.488202"></polyline>
          <path d="M111.982967,18.8871946 L109.494913,17.1000084" id="Stroke-458" stroke="#0E1831" stroke-width="1.43716242" stroke-linecap="round" stroke-dasharray="0,4.311613488711089"></path>
          <path d="M123.291899,26.9970998 L115.051848,21.078269" id="Stroke-460" stroke="#0E1831" stroke-width="0.862335339" stroke-linecap="round"></path>
          <path d="M108.835658,16.63973 L90.4876679,3.46025789" id="Stroke-462" stroke="#0E1831" stroke-width="0.862335339" stroke-linecap="round"></path>
          <path d="M144.151372,41.9787871 L124.46075,27.8349973" id="Stroke-464" stroke="#0E1831" stroke-width="1.43716242" stroke-linecap="round" stroke-dasharray="0,4.311613488711089"></path>
          <path d="M153.377021,48.6138311 L147.130521,44.1269215" id="Stroke-466" stroke="#0E1831" stroke-width="0.862335339" stroke-linecap="round"></path>
          <polyline id="Stroke-468" stroke="#0E1831" stroke-width="0.862335339" points="89.477316 5.79669664 96.056096 10.5223019 100.01396 10.2793122"></polyline>
        </g>
        <g id="Group-2" transform="translate(181.449219, 0.585325)">
          <g id="Group" transform="translate(0.547030, 0.489996)">
            <path d="M251.015617,81.5846707 C248.871869,75.6417276 246.018644,67.6432825 242.877837,62.1601443 C240.492325,57.99554 237.246577,52.4395963 234.266193,48.6764269 C222.037242,33.235244 210.449608,23.1969875 189.375659,13.1515761 C145.88387,-7.58031246 77.9705819,-5.0327451 34.6237766,35.3310402 C26.852033,42.567914 19.9869697,51.4366368 16.4969468,57.9315214 C10.3369678,68.2529664 7.75864638,73.7993701 3.96284005,87.0448375 C2.98385617,90.4607995 1.84846584,96.146287 1.44715651,99.6766041 C-0.481940077,116.64683 -0.673619572,125.182781 2.04642168,142.002248 C4.65612482,158.138223 13.5839708,179.84671 26.749352,197.75324 C53.5837282,234.251426 84.7152649,250.82574 109.439911,270.621575 C109.410538,270.598227 109.382922,270.574 109.353926,270.550527 C112.209034,272.873024 116.432259,274.730696 121.702253,275.739053 C134.590973,278.205154 148.963169,274.683122 154.28011,267.852578 C154.498275,267.572402 154.758995,267.331893 155.05348,267.133058 C159.426334,264.183428 196.821535,235.80708 211.251724,220.218906 C224.342543,206.077804 233.026239,195.41819 242.397822,177.238764 C252.034016,158.545683 256.526371,136.954939 256.570556,121.27287 C256.624658,102.145968 253.064341,87.2643839 251.015617,81.5846707 Z" id="Stroke-434" fill="#CC1313"></path>
            <path d="M251.015647,81.5846707 C248.871899,75.6417276 246.018674,67.6432825 242.877867,62.1601443 C240.492355,57.99554 237.246607,52.4395963 234.266223,48.6764269 C222.037272,33.235244 210.449638,23.1969875 189.375689,13.1515761 C145.8839,-7.58031246 77.9706118,-5.0327451 34.6238066,35.3310402 C26.8520629,42.567914 19.9869996,51.4366368 16.4969767,57.9315214 C10.3858277,68.1712484 7.79972357,73.7112502 4.05274718,86.731648 C3.08016517,90.1112073 2.02272701,94.7046112 1.6172753,98.1973957 C-0.468604317,116.164681 -0.751541831,124.701009 2.04645159,142.002248 C4.65615474,158.138223 13.5840007,179.84671 26.7493819,197.75324 C53.5837581,234.251426 84.7152949,250.82574 109.439941,270.621575 C109.410568,270.598227 109.382952,270.574 109.353955,270.550527 C112.209064,272.873024 116.432289,274.730696 121.702282,275.739053 C134.895154,278.263398 149.642425,274.513409 154.641406,267.3634 C154.004608,268.274097 195.797768,236.912846 211.251754,220.218906 C224.342573,206.077804 233.026269,195.41819 242.397852,177.238764 C252.034046,158.545683 256.526401,136.954939 256.570586,121.27287 C256.624688,102.145968 253.06437,87.2643839 251.015647,81.5846707 Z" id="Stroke-425" fill="url(#linearGradient-3)"></path>
            <path d="M155.069716,267.19243 L155.33508,282.541978 C155.363825,284.198681 154.830587,285.893043 153.671975,287.550123 C148.673119,294.700257 133.925848,298.450121 120.732851,295.92565 C110.597563,293.986261 104.32825,288.908072 104.233226,283.416398 L103.936229,266.242442" id="Stroke-432" fill="#BA4392"></path>
            <g id="Group-429" transform="translate(1.004215, 0.000000)">
              <mask id="mask-5" fill="white">
                <use xlink:href="#path-4"></use>
              </mask>
              <use id="Clip-428" fill="#F2F2F2" xlink:href="#path-4"></use>
            </g>
            <path d="M1.20478702,124.922651 C4.1602251,103.403459 10.3527194,86.9065675 19.78227,75.4319754 C29.2118206,63.9573832 40.0022261,55.0304304 52.1534864,48.6511168 C50.2664975,40.5464628 51.8623883,33.0704238 56.9411588,26.2229996 C62.0199293,19.3755755 68.7583346,14.0834258 77.1563749,10.3465504 C62.9244417,14.1517464 48.0825265,23.3103845 32.6306293,37.8224649 C15.1419798,54.2474179 11.8916496,68.2780796 9.08061599,73.368873 C2.23611097,85.7642995 -0.389165351,102.948892 1.20478702,124.922651 Z" id="Path" fill="#F2F2F2"></path>
            <path d="M155.069716,267.19243 L155.33508,282.541978 C155.363825,284.198681 154.830587,285.893043 153.671975,287.550123 C148.673119,294.700257 133.925848,298.450121 120.732851,295.92565 C110.597563,293.986261 104.32825,288.908072 104.233226,283.416398 L103.936229,266.242442" id="Stroke-432" stroke="#0E1831"></path>
            <path d="M251.018262,81.5846707 C248.874515,75.6417276 246.021289,67.6432825 242.880482,62.1601443 C240.49497,57.99554 237.249222,52.4395963 234.268838,48.6764269 C222.039887,33.235244 210.452253,23.1969875 189.378304,13.1515761 C145.886515,-7.58031246 77.9732273,-5.0327451 34.626422,35.3310402 C26.8546783,42.567914 19.9896151,51.4366368 16.4995921,57.9315214 C10.3396132,68.2529664 7.76129174,73.7993701 3.96548541,87.0448375 C2.98650153,90.4607995 1.8511112,96.146287 1.44980187,99.6766041 C-0.479294714,116.64683 -0.67097421,125.182781 2.04906704,142.002248 C4.65877019,158.138223 13.5866161,179.84671 26.7519974,197.75324 C53.5863736,234.251426 84.7179103,250.82574 109.442557,270.621575 C109.413183,270.598227 109.385568,270.574 109.356571,270.550527 C112.211679,272.873024 116.434904,274.730696 121.704898,275.739053 C134.593618,278.205154 148.965814,274.683122 154.282755,267.852578 C154.500921,267.572402 154.76164,267.331893 155.056126,267.133058 C159.428979,264.183428 196.82418,235.80708 211.25437,220.218906 C224.345188,206.077804 233.028884,195.41819 242.400468,177.238764 C252.036662,158.545683 256.529016,136.954939 256.573202,121.27287 C256.627304,102.145968 253.066986,87.2643839 251.018262,81.5846707 Z" id="Stroke-434" stroke="#0E1831"></path>
          </g>
        </g>
      </g>
    </g>
  </g>
</svg>
