<?xml version="1.0" encoding="utf-8"?>
<!--
Copyright 2017 Hippo B.V. (http://www.onehippo.com)

Licensed under the Apache License, Version 2.0 (the "License");
you may not use this file except in compliance with the License.
You may obtain a copy of the License at

http://www.apache.org/licenses/LICENSE-2.0

Unless required by applicable law or agreed to in writing, software
distributed under the License is distributed on an "AS IS" BASIS,
WITHOUT WARRANTIES OR CONDITIONS OF ANY KIND, either express or implied.
See the License for the specific language governing permissions and
limitations under the License.
-->
<!-- Generator: Adobe Illustrator 19.2.0, SVG Export Plug-In . SVG Version: 6.00 Build 0)  -->
<svg version="1.1" id="Layer_1" xmlns="http://www.w3.org/2000/svg" xmlns:xlink="http://www.w3.org/1999/xlink" x="0px" y="0px"
	 viewBox="0 0 305 84" style="enable-background:new 0 0 305 84;" xml:space="preserve">
<style type="text/css">
	.st0{fill:none;}
	.st1{enable-background:new    ;}
	.st2{fill:#EE3E42;}
	.st3{fill:none;stroke:#143393;stroke-miterlimit:10;}
	.st4{fill:#0086F8;}
</style>
<rect x="21.4" y="57" class="st0" width="274" height="52"/>
<g class="st1">
	<path class="st2" d="M207.5,57v4.5h5.5V57h2v10.6h-2v-4.5h-5.5v4.5h-2V57H207.5z"/>
	<path class="st2" d="M218.1,57.2c0.3,0,0.5,0.1,0.7,0.3s0.3,0.5,0.3,0.7c0,0.3-0.1,0.5-0.3,0.7s-0.5,0.3-0.7,0.3
		c-0.3,0-0.5-0.1-0.7-0.3s-0.3-0.5-0.3-0.7c0-0.3,0.1-0.5,0.3-0.7S217.8,57.2,218.1,57.2z M219.1,60.5v7.1h-1.9v-7.1H219.1z"/>
	<path class="st2" d="M224.6,60.3c1,0,1.8,0.3,2.4,1c0.6,0.7,0.9,1.6,0.9,2.6c0,0.7-0.1,1.4-0.4,1.9c-0.3,0.6-0.7,1-1.2,1.3
		s-1.1,0.5-1.8,0.5c-0.6,0-1.1-0.1-1.7-0.4v3.9H221V60.5h1.9V61C223.4,60.5,224,60.3,224.6,60.3z M222.9,65.9
		c0.5,0.3,0.9,0.4,1.3,0.4c0.6,0,1.1-0.2,1.4-0.6c0.4-0.4,0.5-1,0.5-1.6c0-0.7-0.2-1.3-0.5-1.7s-0.8-0.6-1.3-0.6
		c-0.2,0-0.4,0-0.6,0.1s-0.5,0.2-0.8,0.5L222.9,65.9L222.9,65.9z"/>
	<path class="st2" d="M233.2,60.3c1,0,1.8,0.3,2.4,1c0.6,0.7,0.9,1.6,0.9,2.6c0,0.7-0.1,1.4-0.4,1.9c-0.3,0.6-0.7,1-1.2,1.3
		s-1.1,0.5-1.8,0.5c-0.6,0-1.1-0.1-1.7-0.4v3.9h-1.9V60.5h1.9V61C231.9,60.5,232.5,60.3,233.2,60.3z M231.4,65.9
		c0.5,0.3,0.9,0.4,1.3,0.4c0.6,0,1.1-0.2,1.4-0.6c0.4-0.4,0.5-1,0.5-1.6c0-0.7-0.2-1.3-0.5-1.7s-0.8-0.6-1.3-0.6
		c-0.2,0-0.4,0-0.6,0.1s-0.5,0.2-0.8,0.5L231.4,65.9L231.4,65.9z"/>
	<path class="st2" d="M241.5,60.3c0.7,0,1.4,0.2,2,0.5s1.1,0.7,1.4,1.3s0.5,1.2,0.5,1.9c0,0.7-0.2,1.4-0.5,1.9
		c-0.3,0.6-0.8,1-1.4,1.3c-0.6,0.3-1.3,0.5-2,0.5s-1.4-0.2-2-0.5s-1.1-0.8-1.4-1.3c-0.3-0.6-0.5-1.2-0.5-1.9c0-0.7,0.2-1.3,0.5-1.9
		c0.3-0.6,0.8-1,1.4-1.3C240.1,60.5,240.8,60.3,241.5,60.3z M239.6,64c0,0.7,0.2,1.3,0.5,1.7c0.3,0.4,0.8,0.6,1.4,0.6
		c0.6,0,1.1-0.2,1.4-0.6c0.3-0.4,0.5-1,0.5-1.7s-0.2-1.3-0.5-1.7c-0.4-0.4-0.8-0.6-1.4-0.6c-0.6,0-1,0.2-1.4,0.6
		C239.8,62.8,239.6,63.3,239.6,64z"/>
	<path class="st2" d="M257,56.8c0.6,0,1.2,0.1,1.8,0.2c0.6,0.1,1.2,0.4,1.9,0.7v1.9c-0.7-0.4-1.3-0.6-1.8-0.8
		c-0.6-0.2-1.1-0.2-1.7-0.2c-0.8,0-1.4,0.2-2,0.5s-1.1,0.8-1.4,1.3c-0.3,0.6-0.5,1.2-0.5,1.9s0.2,1.3,0.5,1.9c0.3,0.6,0.8,1,1.4,1.3
		c0.6,0.3,1.3,0.5,2,0.5c0.6,0,1.1-0.1,1.7-0.3c0.5-0.2,1.2-0.5,2-0.9v1.9c-0.7,0.4-1.3,0.6-1.9,0.8c-0.6,0.2-1.2,0.2-2,0.2
		c-1.1,0-2.1-0.2-3-0.7c-0.9-0.4-1.6-1.1-2.1-1.9s-0.8-1.8-0.8-2.8c0-1.1,0.3-2,0.8-2.9c0.5-0.8,1.2-1.5,2.1-2
		C254.9,57.1,255.9,56.8,257,56.8z"/>
	<path class="st2" d="M264.6,57l3.5,4.2l3.5-4.2h1.8v10.6h-2v-7.4h-0.1l-3.1,3.7h-0.3l-3.1-3.7h-0.1v7.4h-2V57H264.6z"/>
	<path class="st2" d="M278.8,56.8c1,0,2,0.3,3,0.8v1.8c-1.1-0.7-2.1-1-2.9-1c-0.5,0-0.9,0.1-1.2,0.3s-0.4,0.5-0.4,0.8
		c0,0.4,0.3,0.8,0.8,1.1c0.2,0.1,0.7,0.4,1.8,0.8c0.9,0.4,1.5,0.9,1.9,1.4s0.6,1.1,0.6,1.8c0,0.9-0.3,1.6-1,2.2s-1.5,0.8-2.5,0.8
		c-0.7,0-1.3-0.1-1.8-0.2s-1-0.4-1.6-0.8v-2c1.1,0.9,2.2,1.4,3.2,1.4c0.5,0,0.9-0.1,1.2-0.3s0.5-0.5,0.5-0.9c0-0.5-0.3-0.9-0.8-1.2
		c-0.4-0.2-1-0.5-1.7-0.9c-0.8-0.4-1.5-0.8-1.9-1.3s-0.6-1.1-0.6-1.8c0-0.9,0.3-1.6,1-2.1C276.8,57.1,277.7,56.8,278.8,56.8z"/>
</g>
<line class="st3" x1="9.6" y1="76.3" x2="295.4" y2="76.3"/>
<g id="g3444">
	<path id="path3446" class="st4" d="M96.6,43.5c-0.2-0.6-0.5-1.2-0.8-1.7c-0.4-0.5-0.8-1-1.3-1.5l0,0c-1-0.9-2.3-1.3-3.6-1.5
		c-0.4-0.1-0.8-0.1-1.2-0.1c-0.4,0-0.8,0-1.1-0.3c-1.7-2.3-2.9-3-3.2-3.1c0,0,0,0,0,0l-0.1,0c0,0,0,0,0,0c-2.5-1.5-5.1-0.7-6.4-0.1
		c-0.4-0.5-0.9-1-1.4-1.4c-0.4-0.3-0.9-0.6-1.5-0.6c-1.1-0.1-2.2,0.2-3,1c0,0-0.3,0.4-0.3,0.5c-0.7-0.3-1.5-0.5-2.3-0.6
		c-1.5-0.2-3.1-0.2-4.6-0.2c-1.3,0-2.5-0.1-3.7-0.4C61,33.2,60,32.6,59,31.9c-1.3-1-2.6-2.1-3.8-3.2c-1.1-1.1-2.3-2.1-3.6-3
		c-2.4-1.6-5.1-2.8-7.9-3.3c-1.5-0.3-3.1-0.5-4.7-0.5c-1.5-0.1-3,0-4.5,0.1c-2.7,0.3-5.4,1.1-7.8,2.3c-2.5,1.2-4.7,2.9-6.4,5.1
		c-0.8,1.1-1.5,2.3-2,3.7c-0.3,0.8-0.5,1.6-0.8,2.4c-0.3,0.7-0.6,1.5-0.9,2.2c-0.5,0.9-1,1.8-1.8,2.6c-0.3,0.4-0.7,0.7-1.1,1
		c-0.1,0-0.1,0.1-0.2,0.1l-0.5,0.1c0,0,0.2,0.5,0.2,0.5l0.1,0.3l0.1,0.4l0.4-0.1c0.2-0.1,1-0.6,1.8-1.4c0.5,8.7,6.2,15.1,6.7,15.6
		c0,0,0,0,0,0l0,0.1c0,0,0,0,0,0c2,2.8,3,7.9,3.1,8.5l0,0c0,0,0,0,0,0l0.1,0.3c0.2,0.6,0.3,1.1,0.8,1.5c0.5,0.5,1.1,0.6,1.8,0.7
		c0.2,0,7.3,0,10.7,0l1.8,0c1.1,0,2.1-0.8,2.1-2.3v-0.2c0-2,0-3.3,0-4c4.8,0.3,8-1.6,9.4-2.6c1.4,1.1,3.1,2.2,3.4,2.3c0,0,0,0,0,0
		l0,0c0,0,0,0,0,0c0.9,0.7,1,1.9,1,3l0,1.4c0,0.7,0.3,1.4,0.8,1.9c0.4,0.3,0.9,0.5,1.3,0.5c0.4,0,0.8,0,1.2,0c1.9,0,3.7,0,5.6,0
		c1.9,0,3.7,0,5.6,0c0.4,0,0.8,0,1.2,0c0.7,0,1.3-0.4,1.8-0.9c0.5-0.7,0.4-1.5,0.4-2.3c0-1,0-2,0-2.9c0-0.6,0-1.3,0-1.9v0
		c0,0,0,0,0,0c-0.2-1.2,0.6-2.2,1.4-2.9c1.2-1,2.2-2.3,2.5-3.9c2.5,1.4,5.2,2.4,8,3.1c0.5,0.1,1,0.2,1.5,0.4
		c2.3,0.6,3.3-0.5,3.5-0.8c0.4-0.5,0.4-1.1,0.6-1.6l0.1,0l0.1,0l0.1,0c1.3-0.1,2.1-0.9,2.4-1.4c0,0,0,0,0,0l0-0.1c0,0,0,0,0,0
		c1.7-2.4,2.1-4.9,2.2-5.2C97,46,97,44.7,96.6,43.5z M95.8,47.1c0,0.3-0.5,2.6-2,4.8l0,0l0,0c-0.1,0.1-0.6,0.7-1.6,0.9l-1.9-0.7
		L89.9,52l-0.2,0.3l-0.1,0.2L89.4,53l0.4,0.2l1.1,0.5L90.8,54c-0.1,0.3-0.2,0.7-0.3,0.8l0,0c-0.3,0.5-0.8,0.6-1.3,0.7
		c-0.7,0-1.4-0.2-2.1-0.4c-1.7-0.4-4.5-1.1-8.8-3.5l-0.6-0.3L77.5,52c-0.2,1.4-0.9,2.7-1.9,3.6c-0.3,0.3-0.6,0.5-0.9,0.8
		c-0.3,0.3-0.5,0.6-0.7,1c-0.4,0.7-0.6,1.5-0.5,2.3v0l0,0.1c0,0,0,0,0-0.1c0,0.8,0,1.5,0,2.3c0,0.4,0,0.8,0,1.2c0,0.5,0,1,0,1.5
		c0,0.4,0.1,0.9-0.1,1.3c-0.1,0.4-0.5,0.6-0.8,0.7c-0.4,0.1-1,0.1-1.4,0.1c-1,0-2.1,0-3.1,0c-2.1,0-4.2,0-6.3,0c-0.5,0-1,0-1.6,0
		c-0.5,0-1,0-1.5,0c-0.3,0-0.7-0.2-0.9-0.5c-0.2-0.3-0.3-0.7-0.3-1.1c-0.1-1,0-2-0.2-3c-0.2-0.8-0.6-1.6-1.3-2.1l0,0l0,0
		c0,0-2.1-1.2-3.6-2.5L52,57.4l-0.3,0.3c-0.9,0.8-4.2,3.2-9.5,2.6l-0.5-0.1l0,0.5c0,0.2,0,1.1,0,4.5l0,0.2c0,0.9-0.6,1.3-1.2,1.3
		l-1.8,0c-2.1,0-4.2,0-6.4,0c-1.2,0-2.5,0-3.7,0c-0.2,0-0.4,0-0.7,0c-0.4,0-0.8-0.1-1.1-0.4c-0.3-0.3-0.4-0.7-0.5-1.1l-0.1-0.3
		c-0.1-0.6-1.2-5.8-3.3-8.8l0,0l0,0c-0.6-0.6-1.1-1.3-1.6-2c-1.4-2-2.6-4.1-3.4-6.3c-0.5-1.4-1-2.9-1.2-4.4
		c-0.1-0.8-0.2-1.6-0.3-2.4c0-0.4,0-0.8,0-1.3c0-0.2,0.2-0.4,0.3-0.6c0.1-0.2,0.2-0.4,0.3-0.6c0.5-0.8,0.8-1.7,1.2-2.6
		c0.3-0.9,0.6-1.9,1-2.8c0.7-1.7,1.7-3.2,2.9-4.5c2.5-2.6,5.9-4.2,9.4-5.1c1.9-0.5,3.9-0.7,5.9-0.7c2,0,4.1,0.1,6.1,0.5
		c1.8,0.4,3.5,1,5.2,1.8c1.7,0.8,3.1,1.9,4.5,3.1c2.7,2.4,5.3,5.4,8.9,6.4c2,0.5,4,0.4,6,0.4c1,0,2,0.1,3,0.3c0.2,0,0.5,0.1,0.7,0.2
		c0.1,0,0.2,0.1,0.3,0.1c0.1,0,0.1,0,0.2,0.1c0.1,0,0.1,0,0.1,0.1c0,0.2-0.1,0.5-0.1,0.7c0,0.2,0,0.4,0,0.7c0,0,0,0,0,0
		c0,0,0,0,0,0.1c0,0,0,0,0,0c0.1,0.8,0.5,1.6,1.1,2.1c0.7,0.6,1.7,0.8,2.6,0.9c0.2,0,0.5,0,0.7,0c0.1,0,0.2,0,0.3-0.1
		c0.2-0.2,0.2-0.4,0.1-0.6c-0.2-0.3-0.6-0.2-0.8-0.2c-0.5,0-0.9-0.1-1.3-0.2c-0.7-0.2-1.5-0.8-1.7-1.6c-0.2-0.8,0-1.6,0.5-2.2
		c0.2-0.3,0.7-0.5,1.1-0.6c0.4-0.1,1-0.2,1.4-0.1c0.5,0.1,0.9,0.5,1.3,0.8c0.4,0.3,0.7,0.7,1,1.1l0.2,0.4l0.4-0.2
		c1-0.5,3.5-1.5,5.9-0.1l0,0c0.1,0.1,0.2,0.1,0.4,0.2c0.8,0.5,1.5,1.3,2,2c0.3,0.3,0.5,0.7,0.9,1c0.3,0.2,0.7,0.3,1.1,0.3
		c0.8,0.1,1.6,0.1,2.3,0.3c0.8,0.2,1.6,0.5,2.2,1.1l0,0c0.8,0.7,1.4,1.6,1.8,2.6C96,44.8,96,46,95.8,47.1z"/>
	<path id="path3448" class="st4" d="M93.6,45.1L93.6,45.1c-0.2-0.2-0.3-0.5-0.4-0.8c0-0.5,0.4-0.8,0.7-1c0.5-0.3,0.1-1.1-0.4-0.8
		c-0.6,0.3-1.2,0.9-1.2,1.6c0,0.6,0.2,1.2,0.6,1.6C93.4,46.2,94,45.5,93.6,45.1L93.6,45.1"/>
	<path id="path3450" class="st4" d="M85.6,39.9c0,0.6-0.5,1.1-1.1,1.1c-0.6,0-1.1-0.5-1.1-1.1c0-0.6,0.5-1.1,1.1-1.1
		C85.1,38.8,85.6,39.3,85.6,39.9"/>
</g>
</svg>
