<?xml version="1.0" encoding="utf-8"?>
<!--
Copyright 2015 Hippo B.V. (http://www.onehippo.com)

Licensed under the Apache License, Version 2.0 (the "License");
you may not use this file except in compliance with the License.
You may obtain a copy of the License at

http://www.apache.org/licenses/LICENSE-2.0

Unless required by applicable law or agreed to in writing, software
distributed under the License is distributed on an "AS IS" BASIS,
WITHOUT WARRANTIES OR CONDITIONS OF ANY KIND, either express or implied.
See the License for the specific language governing permissions and
limitations under the License.
-->
<!DOCTYPE svg PUBLIC "-//W3C//DTD SVG 1.1//EN" "http://www.w3.org/Graphics/SVG/1.1/DTD/svg11.dtd">
<svg version="1.1" id="Layer_1" xmlns="http://www.w3.org/2000/svg" xmlns:xlink="http://www.w3.org/1999/xlink" x="0px" y="0px"
	 width="1150px" height="950px" viewBox="0 0 1150 950" enable-background="new 0 0 1150 950" xml:space="preserve">
<g>
	<path fill="none" stroke="#4C4C4C" stroke-miterlimit="10" d="M234.267,564.457"/>
</g>
<g opacity="0.1">
	<path fill="#FFFFFF" d="M1058.803,37.281L954.448,52.222c-6.785,0.971-11.76,7.187-10.738,14.324l29.901,208.841
		c1.02,7.135,7.401,11.727,14.193,10.754l104.552-14.967c6.786-0.972,11.759-7.174,10.735-14.325l-29.9-208.841
		C1072.171,40.879,1065.596,36.308,1058.803,37.281z M1053.727,268.429l-29.38,4.082l-1.213-8.477l29.22-4.309L1053.727,268.429z
		 M1093.385,245.451l-113.792,16.334L951.443,65.172c-0.213-3.808,1.829-4.259,3.747-4.532l105.315-15.078
		c1.83-0.262,4.44,1.246,4.774,3.579L1093.385,245.451z"/>
</g>
<g opacity="0.05">
	<path fill="#FFFFFF" d="M1093.395,245.452l-28.147-196.613c-0.864-3.715-2.951-3.574-4.87-3.299L955.02,60.624
		c-1.831,0.262-3.915,2.441-3.581,4.774L1093.395,245.452z"/>
</g>
<g opacity="0.1">
	<g>
		<path fill="none" stroke="#FFFFFF" stroke-width="7" d="M1040.164,278.01c0,0,3.959,31.514,24.109,68.202
			c20.151,36.688,37.424,55.964,31.666,99.517c-5.758,43.559-45.846,89.5-45.846,89.5"/>
	</g>
	<polygon opacity="0.8" fill="#FFFFFF" points="1076.961,373.736 1049.174,359.961 1058.731,388.576 	"/>
	<polygon opacity="0.8" fill="#FFFFFF" points="1103.418,380.58 1073.297,372.727 1100.077,357.686 	"/>
	<polygon opacity="0.8" fill="#FFFFFF" points="1053.871,329.611 1026.088,315.833 1035.645,344.451 	"/>
	<polygon opacity="0.8" fill="#FFFFFF" points="1080.331,336.455 1050.211,328.603 1076.992,313.557 	"/>
	<polygon opacity="0.8" fill="#FFFFFF" points="1096.816,413.844 1069.033,400.064 1078.589,428.684 	"/>
	<polygon opacity="0.8" fill="#FFFFFF" points="1093.156,412.834 1123.275,420.688 1119.938,397.789 	"/>
	<polygon opacity="0.8" fill="#FFFFFF" points="1093.211,459.256 1068.636,440.582 1072.406,470.441 	"/>
	<polygon opacity="0.8" fill="#FFFFFF" points="1117.838,470.891 1089.812,457.596 1119.051,447.795 	"/>
</g>
<path fill="none" stroke="#B5D8E5" stroke-width="0.9667" stroke-miterlimit="10" d="M982.02,352.892
	c0,27.229-22.075,49.87-49.305,49.87s-49.305-22.64-49.305-49.87c0-27.23,22.075-49.304,49.305-49.304
	S982.02,322.996,982.02,352.892z"/>
<path fill="none" stroke="#B5D8E5" stroke-width="0.9667" stroke-miterlimit="10" d="M856.342,352.892
	c0,27.229-22.075,49.87-49.305,49.87c-27.229,0-49.304-22.64-49.304-49.87c0-27.23,22.075-49.304,49.304-49.304
	C834.267,303.588,856.342,325.662,856.342,352.892z"/>
<path fill="none" stroke="#B5D8E5" stroke-width="0.9667" stroke-miterlimit="10" d="M604.987,352.892
	c0,27.229-22.075,49.87-49.305,49.87s-49.304-22.64-49.304-49.87c0-27.23,22.074-49.304,49.304-49.304
	S604.987,325.662,604.987,352.892z"/>
<path fill="none" stroke="#B5D8E5" stroke-width="0.9667" stroke-miterlimit="10" d="M479.31,353.889
	c0,27.229-22.075,48.823-49.304,48.823c-27.23,0-49.305-21.593-49.305-48.823c0-27.23,22.074-50.07,49.305-50.07
	C457.234,303.819,479.31,326.659,479.31,353.889z"/>
<g>
	<path fill="#FFFFFF" d="M306.609,272.453c-0.24-0.004-0.488-0.022-0.744-0.054C306.122,272.43,306.369,272.449,306.609,272.453z"/>
	<path opacity="0.08" fill="#FFFFFF" d="M465.467,268.109c-10.829,2.656-21.646,5.364-32.532,8.073
		c4.46,8.401,9.455,21.691,12.281,30.316c20.498,5.979,33.925,26.574,33.925,49.003c0,21.889-15.621,38.795-35.361,45.233
		c-11.32,39.38-35.488,69.184-70.079,90.34c-64.918,39.705-150.664,28.842-202.461-25.004
		c-56.289-58.523-59.647-144.689-18.557-205.344c43.676-64.474,130.785-93.672,211.226-53.617c2.995-12.174,5.771-24.12,8.967-35.96
		c0.238-0.884,0.367-1.643,0.374-2.305c0.02-1.818-0.875-2.908-2.91-3.871c-0.185-0.088-0.379-0.174-0.583-0.26
		c-1.148-0.483-2.298-0.957-3.449-1.42c-35.685-14.365-72.65-19.007-110.749-12.783c-47.135,7.709-86.883,29.426-119.011,64.947
		c-1.949,2.154-3.843,4.332-5.681,6.533c-1.839,2.202-3.623,4.427-5.351,6.676c-1.729,2.249-3.403,4.521-5.023,6.817
		c-21.055,29.846-32.888,63.65-35.961,101.101c-0.534,6.492-0.76,12.941-0.679,19.343c0.352,27.748,6.469,54.61,18.25,80.221
		c30.778,66.896,92.798,111.289,164.017,118.748c4.189,0.439,8.411,0.75,12.659,0.93c14.162,0.602,28.627-0.252,43.23-2.664
		c45.021-7.436,83.027-28.201,114.371-61.139c1.011-1.062,2.016-2.137,3.013-3.225c52.681-57.471,67.621-142.346,37.184-215.004
		C473.388,266.189,473.436,266.143,465.467,268.109z"/>
	<path opacity="0.09" fill="#FFFFFF" d="M402.495,394.631c-14.099-8.677-22.078-22.797-22.078-40.566
		c0-16.979,10.451-33.853,23.514-42.721c-1.055-2.645-3.785-8.832-5.032-11.35c-0.489,0.368-0.996,0.672-1.398,1.069
		c-9.548,9.536-19.137,19.024-28.55,28.689c-0.116,0.118-0.223,0.255-0.322,0.405c-0.692,1.053-0.966,2.804-0.731,4.012
		c1.442,7.499,2.107,14.998,1.624,22.595c-0.069,1.085-0.162,2.172-0.279,3.262c-0.245,2.286-0.581,4.538-1.003,6.754
		c-6.685,35.083-35.071,61.002-69.206,65.526c-3.234,0.429-6.518,0.672-9.841,0.707c-6.647,0.068-13.446-0.674-20.289-2.31
		c-27.299-6.531-48.736-26.556-57.784-51.789c-2.534-7.065-4.096-14.539-4.544-22.239c-3.146-54.137,45.349-95.995,98.491-84.967
		c0.276,0.057,0.542,0.102,0.799,0.134c0.256,0.032,0.504,0.05,0.744,0.054c1.441,0.023,2.613-0.475,3.862-1.755
		c8.936-9.127,18.019-18.101,27.04-27.139c0.738-0.743,1.395-1.562,2.142-2.404c-4.817-2.356-9.881-4.371-15.133-6.025
		c-1.5-0.473-3.016-0.916-4.546-1.329c-1.53-0.413-3.073-0.796-4.629-1.149c-0.778-0.176-1.56-0.345-2.344-0.507
		c-7.841-1.612-15.978-2.461-24.234-2.489c-34.676-0.116-71.469,14.246-97.415,47.266c-27.843,35.43-34.038,86.1-13.33,128.715
		c1.656,3.409,3.485,6.767,5.489,10.062c5.009,8.235,11.111,16.074,18.348,23.33c42.754,42.883,112.581,47.445,161.037,9.863
		c0.793-0.615,1.576-1.236,2.348-1.864C384.62,430.722,395.598,415.211,402.495,394.631z"/>
	<path opacity="0.1" fill="#FFFFFF" d="M458.126,181.862V119.05c-1.634,1.556-2.592,2.422-3.506,3.334
		c-16.953,16.942-33.942,33.861-50.79,50.908c-1.657,1.679-2.961,4.083-3.553,6.383c-3.843,14.899-7.398,29.882-11.173,44.806
		c-0.415,1.638-1.381,3.358-2.579,4.563c-27.456,27.566-54.993,55.05-82.464,82.604c-1.438,1.438-2.669,1.557-4.682,1.31
		c-5.92-0.713-12.067-1.919-17.843-1.059c-20.93,3.129-35.508,21.757-34.352,42.853c1.094,20,17.739,36.434,38.349,37.861
		c27.911,1.941,49.386-24.39,41.804-51.369c-0.677-2.411-0.274-3.855,1.482-5.605c27.312-27.197,54.533-54.493,81.852-81.68
		c1.441-1.428,3.508-2.568,5.479-3.072c14.911-3.802,29.887-7.359,44.8-11.161c1.972-0.503,4.037-1.638,5.475-3.066
		c17.376-17.21,34.636-34.533,51.915-51.833c0.728-0.719,1.374-1.515,2.68-2.966H458.126z"/>
</g>
<path fill="none" stroke="#B5D8E5" stroke-width="0.9667" stroke-miterlimit="10" d="M409.303,369.366
	c-5.444-0.64-10.351-1.968-10.351-5.012c0-4.6,5.249-8.608,13.102-10.047c0.181-0.627,0.277-1.318,0.277-2.023
	c0-0.527-0.056-1.057-0.167-1.576c-2.445-2.231-3.899-5.723-3.899-9.384c0-6.356,4.387-11.335,9.985-11.335
	c3.182,0,5.522,1.102,7.312,3.601"/>
<path fill="none" stroke="#B5D8E5" stroke-width="0.9667" stroke-miterlimit="10" d="M436.029,333.921
	c1.777-2.613,4.346-3.932,7.608-3.932c5.618,0,10.019,4.949,10.019,11.268c0,3.515-1.293,6.809-3.554,9.067
	c-0.156,0.584-0.238,1.235-0.238,1.894c0,0.725,0.104,1.438,0.3,2.084c7.675,1.486,12.805,5.473,12.805,9.986
	c0,1.93-4.205,4.07-10.76,5.031"/>
<g>
	<path fill="none" stroke="#B5D8E5" stroke-width="0.9667" stroke-miterlimit="10" d="M431.942,377.665
		c-10.942,0-23.42-0.871-23.42-5.569c0-5.248,6.671-9.981,15.709-11.62c0.298-0.811,0.426-1.506,0.426-2.344
		c0-0.625-0.044-1.494-0.214-2.26c-2.942-2.43-6.029-5.797-6.053-9.932c-0.044-7.886,5.242-13.768,12.242-13.85
		c6.273-0.072,11.376,6.065,11.376,13.521c0,4.028-1.488,7.8-4.088,10.378c-0.188,0.699-0.265,1.4-0.265,2.184
		c0,0.868,0.102,1.536,0.341,2.303c8.835,1.685,14.747,6.463,14.747,11.62C452.744,374.659,443.836,377.665,431.942,377.665z"/>
</g>
<path fill="none" stroke="#B5D8E5" stroke-width="0.9667" stroke-miterlimit="10" d="M951.101,344.971
	c-0.444,0.004-0.876,0.041-1.309,0.088c0.017-0.235,0.021-0.475,0.021-0.716c-0.061-6.895-5.688-12.421-12.569-12.358
	c-6.548,0.053-11.871,5.146-12.322,11.564c-1.59-1.688-3.847-2.739-6.345-2.719c-4.752,0.041-8.57,3.92-8.528,8.676
	c0.003,0.545,0.069,1.07,0.171,1.584c-1.101,0.176-1.944,0.285-2.444,0.29c-4.511,0.036-8.135,3.721-8.097,8.227
	c0.039,4.507,3.892,7.934,8.402,7.894h41.725c6.177-0.053,12.623-5.27,12.576-11.445
	C962.322,349.885,957.278,344.918,951.101,344.971z"/>
<path fill="none" stroke="#B5D8E5" stroke-width="0.9667" stroke-miterlimit="10" d="M730.664,352.892
	c0,27.229-22.074,49.87-49.304,49.87s-49.305-22.64-49.305-49.87c0-27.23,22.075-49.304,49.305-49.304
	S730.664,325.662,730.664,352.892z"/>
<g>
	<g>
		<path fill="#B5D8E5" d="M704.512,366.099c1.561,0,2.83,1.254,2.83,2.796s-1.27,2.796-2.83,2.796c-1.56,0-2.829-1.254-2.829-2.796
			S702.952,366.099,704.512,366.099 M704.512,365.132c-2.091,0-3.796,1.681-3.796,3.763c0,2.08,1.705,3.763,3.796,3.763
			c2.092,0,3.797-1.683,3.797-3.763C708.309,366.813,706.604,365.132,704.512,365.132L704.512,365.132z"/>
	</g>
</g>
<g>
	<g>
		<path fill="#B5D8E5" d="M673.118,327.788c0.132,0,0.23,0.088,0.241,0.172l0.927,6.1l0.091,0.595l0.573,0.182
			c1.056,0.335,1.979,0.713,2.822,1.155l0.542,0.284l0.488-0.368l4.708-3.544l0.044-0.033l0.044-0.042
			c0.013-0.008,0.06-0.026,0.129-0.026c0.033,0,0.113,0.026,0.173,0.077l0.43,0.395c1.64,1.503,3.681,3.375,4.937,5.124
			c0.005,0.01,0.017,0.053,0.017,0.129c0,0.041,0,0.083-0.069,0.187c-0.507,0.686-1.049,1.375-1.573,2.042
			c-0.636,0.809-1.293,1.645-1.915,2.507l-0.35,0.485l0.278,0.53c0.55,1.048,0.983,2.084,1.288,3.082l0.178,0.582l0.602,0.091
			l6.047,0.922c0.071,0.012,0.159,0.126,0.159,0.241v7.363c-0.004,0.071-0.089,0.208-0.149,0.244l-6.087,0.916l-0.579,0.087
			l-0.191,0.553c-0.412,1.192-0.789,2.075-1.224,2.859l-0.291,0.525l0.342,0.493c1.188,1.719,2.467,3.271,3.594,4.64
			c0.087,0.106,0.11,0.19,0.11,0.219c0,0.043,0,0.058-0.099,0.177c-0.93,1.221-4.657,5.129-5.677,5.536
			c-0.049-0.012-0.133-0.041-0.258-0.115l-4.531-3.548l-0.489-0.383l-0.552,0.287c-0.915,0.475-1.905,0.89-2.864,1.201l-0.59,0.191
			l-0.072,0.616l-0.094,0.817c-0.199,1.75-0.405,3.559-0.85,5.229c-0.011,0.044-0.062,0.188-0.259,0.188h-7.35
			c-0.131,0-0.228-0.083-0.238-0.17l-0.931-6.098l-0.091-0.59l-0.568-0.184c-1.056-0.341-1.98-0.723-2.826-1.167l-0.544-0.286
			l-0.49,0.372l-4.707,3.575c-0.056,0.045-0.132,0.072-0.211,0.072c-0.041,0-0.09-0.025-0.132-0.069l-0.023-0.024l-0.024-0.022
			l-0.32-0.289c-1.677-1.513-3.765-3.395-4.999-5.094c-0.014-0.021-0.057-0.084-0.057-0.223c0-0.049,0-0.092,0.069-0.192
			c0.51-0.689,1.055-1.383,1.582-2.054c0.632-0.803,1.284-1.633,1.902-2.489l0.353-0.487l-0.281-0.532
			c-0.546-1.031-0.979-2.077-1.284-3.107l-0.176-0.592l-0.61-0.09l-6.024-0.884c-0.093-0.018-0.175-0.133-0.175-0.248v-7.354
			c0.002-0.067,0.076-0.198,0.136-0.245l6.1-0.92l0.601-0.091l0.179-0.581c0.286-0.928,0.687-1.87,1.224-2.878l0.28-0.526
			l-0.345-0.487c-1.186-1.671-2.426-3.211-3.601-4.638c-0.072-0.086-0.099-0.147-0.099-0.173c0-0.004,0.003-0.042,0.11-0.195
			c0.941-1.288,4.648-5.115,5.661-5.521c0.05,0.015,0.128,0.05,0.224,0.121l4.574,3.545l0.489,0.379l0.549-0.286
			c0.917-0.477,1.905-0.89,2.856-1.194l0.593-0.189l0.073-0.617l0.104-0.894c0.198-1.723,0.402-3.504,0.844-5.155
			c0.014-0.058,0.067-0.192,0.255-0.192H673.118 M673.118,326.821h-7.35c-0.604,0-1.064,0.398-1.194,0.93
			c-0.531,1.988-0.727,4.139-0.968,6.164c-1.021,0.326-2.048,0.758-3.009,1.258l-4.574-3.545c-0.27-0.2-0.565-0.332-0.861-0.332
			c-1.127,0-5.598,4.834-6.396,5.926c-0.167,0.237-0.297,0.469-0.297,0.766c0,0.299,0.13,0.564,0.329,0.799
			c1.225,1.488,2.421,2.981,3.548,4.571c-0.529,0.994-0.968,1.99-1.294,3.048l-6.168,0.931c-0.491,0.097-0.89,0.694-0.89,1.189
			v7.354c0,0.566,0.398,1.09,0.96,1.197l6.065,0.891c0.335,1.129,0.797,2.229,1.356,3.285c-1.125,1.557-2.354,3.012-3.479,4.534
			c-0.163,0.233-0.259,0.466-0.259,0.767c0,0.257,0.061,0.523,0.222,0.763c1.396,1.923,3.715,3.972,5.473,5.56
			c0.23,0.239,0.528,0.365,0.828,0.365c0.296,0,0.592-0.1,0.826-0.293l4.677-3.551c0.953,0.5,1.951,0.898,2.979,1.23l0.931,6.098
			c0.066,0.564,0.591,0.991,1.194,0.991h7.35c0.602,0,1.067-0.398,1.197-0.923c0.528-1.988,0.728-4.145,0.965-6.166
			c1.023-0.332,2.05-0.764,3.012-1.263l4.575,3.583c0.268,0.167,0.563,0.293,0.86,0.293c1.128,0,5.595-4.873,6.396-5.925
			c0.2-0.239,0.296-0.464,0.296-0.763c0-0.301-0.134-0.593-0.33-0.832c-1.226-1.488-2.419-2.946-3.546-4.576
			c0.525-0.949,0.924-1.946,1.292-3.012l6.133-0.923c0.528-0.101,0.927-0.7,0.927-1.191v-7.364c0-0.561-0.398-1.096-0.961-1.193
			l-6.066-0.925c-0.334-1.093-0.799-2.186-1.357-3.249c1.123-1.557,2.354-3.014,3.481-4.539c0.158-0.232,0.259-0.463,0.259-0.762
			c0-0.266-0.062-0.528-0.227-0.728c-1.396-1.95-3.713-4.017-5.469-5.632c-0.232-0.2-0.528-0.332-0.827-0.332
			c-0.297,0-0.593,0.097-0.798,0.296l-4.708,3.544c-0.953-0.5-1.951-0.895-2.979-1.221l-0.927-6.1
			C674.245,327.252,673.72,326.821,673.118,326.821L673.118,326.821z"/>
	</g>
</g>
<polygon fill="none" stroke="#B5D8E5" stroke-width="0.9667" stroke-miterlimit="10" points="706.994,355.823 707.87,360.131
	710.661,361.743 714.832,360.346 717.13,364.327 713.835,367.241 713.835,370.463 717.13,373.377 714.832,377.358 710.661,375.961
	707.87,377.573 706.994,381.882 702.398,381.882 701.522,377.573 698.731,375.961 694.561,377.358 692.263,373.377 695.558,370.463
	695.558,367.241 692.263,364.327 694.561,360.346 698.731,361.743 701.522,360.131 702.398,355.823 "/>
<g>
	<g>
		<path fill="#B5D8E5" d="M669.568,346.766c3.062,0,5.555,2.466,5.555,5.498c0,3.031-2.492,5.496-5.555,5.496
			c-3.062,0-5.553-2.465-5.553-5.496C664.016,349.232,666.507,346.766,669.568,346.766 M669.568,345.799
			c-3.592,0-6.52,2.887-6.52,6.465c0,3.572,2.928,6.463,6.52,6.463c3.594,0,6.521-2.891,6.521-6.463
			C676.09,348.686,673.162,345.799,669.568,345.799L669.568,345.799z"/>
	</g>
</g>
<g>
	<g>

			<line fill="none" stroke="#B5D8E5" stroke-width="0.9667" stroke-miterlimit="10" x1="808.339" y1="353.215" x2="814.399" y2="334.825"/>
	</g>
</g>
<g>
	<path fill="none" stroke="#B5D8E5" stroke-width="0.9667" stroke-miterlimit="10" d="M807.192,360.141
		c-1.993,0-3.614-1.621-3.614-3.615c0-1.992,1.621-3.614,3.614-3.614c1.994,0,3.616,1.622,3.616,3.614
		C810.809,358.52,809.187,360.141,807.192,360.141z"/>
</g>
<g>
	<g>
		<path fill="#B5D8E5" d="M807.268,326.815c14.457,0,26.219,12.522,26.219,27.913c0,5.391-0.85,7.644-3.566,12.092
			c-0.311,0.482-2.173,1.136-2.766,1.213H787.27c-0.564-0.078-2.337-0.725-2.633-1.185c-2.573-4.186-3.701-6.597-3.701-12.12
			C780.936,339.337,792.748,326.815,807.268,326.815 M807.268,325.848c-15.349,0-27.299,13.199-27.299,28.88
			c0,5.771,1.197,8.321,3.845,12.626c0.612,0.954,3.083,1.646,3.42,1.646h39.955c0.337,0,2.923-0.691,3.544-1.656
			c2.717-4.447,3.721-6.866,3.721-12.616C834.453,339.047,822.613,325.848,807.268,325.848L807.268,325.848z"/>
	</g>
</g>
<path opacity="0.04" fill="#FFFFFF" d="M1020.916,881.971c-14.071-24.551-34.102-44.889-49.807-50.693
	c-2.928,16.484,4.49,44.045,18.563,68.598c14.071,24.557,32.632,42.318,48.332,48.125
	C1040.932,931.514,1034.988,906.527,1020.916,881.971z"/>
<path opacity="0.1" fill="#FFFFFF" d="M918.998,601.314c-0.113-0.016-0.226-0.029-0.344-0.049
	c-4.599-12.289-10.063-24.75-16.562-37.066c-18.235-34.564-38.455-63.379-60.365-84.68c-29.285-28.465-67.662-55.33-96.272-40.883
	c-28.149,19.332-23.149,64.078-13.395,103.732c7.302,29.674,21.944,61.688,42.548,94.891c7.075,11.408,14.756,22.051,22.714,31.922
	c-0.33,0.797-0.663,1.609-0.997,2.439c-36.546,90.822,61.595,179.33,61.595,179.33c-44.588-113.928-14.601-125.953-6.284-127.172
	c25.226,20.848,45.619,32.695,49.486,34.879c0.436,0.246,0.673,0.375,0.673,0.375l41.07-23.537c0,0,0.008-0.273,0.015-0.771
	c0.072-4.473,0.159-28.381-5.196-61.055c7.96-7.229,35.126-17.041,104.906,71.445
	C1042.589,745.115,1015.837,615.695,918.998,601.314z M804.98,755.881c-2.526-4.41-1-10.033,3.407-12.561
	c4.411-2.525,10.033-0.998,12.562,3.41c2.525,4.408,0.998,10.031-3.41,12.559C813.13,761.816,807.508,760.293,804.98,755.881z
	 M824.148,781.707c-3.372,1.93-7.672,0.768-9.605-2.609c-1.932-3.369-0.766-7.67,2.607-9.602c3.371-1.932,7.671-0.766,9.604,2.605
	C828.687,775.475,827.523,779.775,824.148,781.707z M816.432,731.227c-5.447,3.121-12.396,1.234-15.517-4.213
	c-3.121-5.445-1.236-12.395,4.209-15.516c5.448-3.121,12.396-1.236,15.517,4.211C823.764,721.154,821.877,728.104,816.432,731.227z
	 M838.479,601.904c-19.194,11-43.675,4.357-54.674-14.836c-11.003-19.195-4.358-43.676,14.835-54.674
	c19.195-11,43.674-4.357,54.674,14.836C864.316,566.426,857.672,590.904,838.479,601.904z M960.263,648.795
	c-5.446,3.119-12.394,1.234-15.517-4.211c-3.119-5.445-1.235-12.393,4.213-15.514c5.446-3.125,12.393-1.238,15.514,4.207
	C967.596,638.725,965.71,645.674,960.263,648.795z M983.916,663.938c-4.409,2.529-10.032,1.002-12.559-3.408
	c-2.529-4.408-1.002-10.031,3.407-12.559c4.411-2.529,10.034-0.998,12.561,3.408C989.852,655.787,988.326,661.412,983.916,663.938z
	 M999.918,680.975c-3.371,1.932-7.674,0.762-9.604-2.609c-1.932-3.369-0.766-7.672,2.606-9.605c3.37-1.93,7.672-0.764,9.604,2.607
	C1004.455,674.738,1003.29,679.041,999.918,680.975z"/>
<g opacity="0.5">
	<path opacity="0.1" fill="#FFFFFF" d="M1046.081,907.412c0,0-6.094-38.936-32.335-82.547
		c-18.479-30.715-50.154-65.006-76.422-85.639l-30.173,17.289c4.526,33.098,18.101,77.762,35.259,109.232
		c24.363,44.691,54.875,69.625,54.875,69.625c-50.221-77.633-50.303-116.504-46.123-137.031
		C970.988,805.111,1004.484,824.832,1046.081,907.412z"/>
</g>
<polygon opacity="0.1" fill="#FFFFFF" points="684.103,624.594 688.906,614.002 694.394,624.258 705.953,625.549 697.895,633.941
	700.236,645.33 689.767,640.26 679.656,646.008 681.244,634.486 672.654,626.646 "/>
<polygon opacity="0.1" fill="#FFFFFF" points="724.479,614.727 727.494,608.08 730.937,614.518 738.192,615.328 733.135,620.594
	734.605,627.744 728.034,624.561 721.691,628.168 722.687,620.936 717.291,616.016 "/>
<polygon opacity="0.08" fill="#FFFFFF" points="731.167,661.086 737.387,647.361 744.496,660.646 759.471,662.32 749.031,673.189
	752.063,687.947 738.505,681.377 725.406,688.822 727.464,673.898 716.334,663.74 "/>
<polygon opacity="0.1" fill="#FFFFFF" points="1023.974,610.242 1030.195,596.518 1037.303,609.807 1052.277,611.48
	1041.84,622.348 1044.871,637.105 1031.312,630.537 1018.214,637.984 1020.271,623.057 1009.14,612.898 "/>
<polygon opacity="0.08" fill="#FFFFFF" points="977.38,573.523 982.742,561.691 988.869,573.143 1001.776,574.588 992.778,583.953
	995.395,596.676 983.704,591.014 972.416,597.432 974.188,584.564 964.595,575.811 "/>
<polygon opacity="0.1" fill="#FFFFFF" points="1018.199,564.561 1020.964,558.467 1024.12,564.367 1030.774,565.109
	1026.137,569.938 1027.481,576.492 1021.461,573.576 1015.644,576.883 1016.557,570.252 1011.611,565.742 "/>
<g opacity="0.3">
	<ellipse fill="#FFFFFF" cx="289.227" cy="352.668" rx="4.822" ry="4.701"/>
	<ellipse fill="#FFFFFF" cx="313.45" cy="352.582" rx="4.737" ry="4.617"/>
	<ellipse fill="#FFFFFF" cx="337.301" cy="352.498" rx="4.65" ry="4.533"/>
	<ellipse fill="#FFFFFF" cx="361.525" cy="352.413" rx="4.564" ry="4.449"/>
	<ellipse fill="#FFFFFF" cx="494.247" cy="351.989" rx="4.131" ry="4.027"/>
	<ellipse fill="#FFFFFF" cx="618.767" cy="351.479" rx="3.611" ry="3.519"/>
	<ellipse fill="#FFFFFF" cx="744.555" cy="351.056" rx="3.178" ry="3.097"/>
	<ellipse fill="#FFFFFF" cx="870.245" cy="350.63" rx="2.744" ry="2.675"/>
	<ellipse fill="#FFFFFF" cx="998.688" cy="350.205" rx="2.311" ry="2.252"/>
	<ellipse fill="#FFFFFF" cx="1022.914" cy="350.121" rx="2.225" ry="2.168"/>
	<ellipse fill="#FFFFFF" cx="1047.139" cy="350.037" rx="2.137" ry="2.083"/>
</g>
<path fill="#B5D8E5" d="M556.439,375.15h-15.496c-1.224,0-1.223-1,0-1h15.496C557.439,374.15,557.663,375.15,556.439,375.15z"/>
<rect x="548.275" y="367.15" fill="#B5D8E5" width="1" height="7"/>
<g>
	<path fill="#B5D8E5" d="M582.955,338.117c1.188,0,2.354,1.217,2.354,2.457v37.002c0,1.34-1.025,2.608-2.11,2.608h-17.791
		c-1.076,0-2.165-0.698-2.165-2.033v-37.785c0-1.198,1.067-2.249,2.284-2.249H582.955 M582.955,337.15h-17.429
		c-1.699,0-3.251,1.428-3.251,3.215v37.785c0,1.785,1.431,3,3.132,3h17.791c1.698,0,3.077-1.785,3.077-3.575v-37.002
		C586.275,338.788,584.656,337.15,582.955,337.15L582.955,337.15z"/>
</g>
<path fill="#B5D8E5" d="M571.275,329.117c1.067,0,2.431,1.701,2.431,3.033v6h0.967v-6c0-1.786-1.696-4-3.397-4l0,0h-44.749
	c-1.699,0-3.251,1.428-3.251,3.215v33.053c0,1.785,1.431,2.732,3.132,2.732h35.868v-0.967h-35.868c-0.361,0-2.165-0.085-2.165-1.765
	v-33.053c0-1.198,1.067-2.249,2.284-2.249H571.275"/>
<rect x="563.275" y="374.15" fill="#B5D8E5" width="23" height="1"/>
<rect x="571.275" y="377.15" fill="#B5D8E5" width="7" height="1"/>
<g>
	<ellipse opacity="0.3" fill="#FFFFFF" cx="71.139" cy="352.234" rx="2.137" ry="2.083"/>
	<ellipse opacity="0.3" fill="#FFFFFF" cx="98.767" cy="352.31" rx="2.508" ry="2.446"/>
	<ellipse opacity="0.3" fill="#FFFFFF" cx="126.396" cy="352.387" rx="2.88" ry="2.808"/>
	<ellipse opacity="0.3" fill="#FFFFFF" cx="154.024" cy="352.462" rx="3.251" ry="3.169"/>
	<ellipse opacity="0.3" fill="#FFFFFF" cx="181.653" cy="352.539" rx="3.623" ry="3.531"/>
	<ellipse opacity="0.3" fill="#FFFFFF" cx="209.281" cy="352.615" rx="3.994" ry="3.894"/>
	<ellipse opacity="0.3" fill="#FFFFFF" cx="236.91" cy="352.692" rx="4.366" ry="4.255"/>
	<ellipse opacity="0.3" fill="#FFFFFF" cx="264.538" cy="352.768" rx="4.737" ry="4.617"/>
</g>
<g>
</g>
<g>
</g>
<g>
</g>
<g>
</g>
<g>
</g>
<g>
</g>
</svg>
