<?xml version="1.0" encoding="UTF-8"?>
<!--
Copyright 2019 Hippo B.V. (http://www.onehippo.com)

Licensed under the Apache License, Version 2.0 (the "License");
you may not use this file except in compliance with the License.
You may obtain a copy of the License at

http://www.apache.org/licenses/LICENSE-2.0

Unless required by applicable law or agreed to in writing, software
distributed under the License is distributed on an "AS IS" BASIS,
WITHOUT WARRANTIES OR CONDITIONS OF ANY KIND, either express or implied.
See the License for the specific language governing permissions and
limitations under the License.
-->
<svg width="501px" height="159px" viewBox="0 0 501 159" version="1.1" xmlns="http://www.w3.org/2000/svg" xmlns:xlink="http://www.w3.org/1999/xlink">
    <!-- Generator: Sketch 55.2 (78181) - https://sketchapp.com -->
    <title>brXM</title>
    <desc>Created with Sketch.</desc>
    <defs>
        <path d="M218.923378,212.2979 L193.376503,212.2979 L249.366737,132.14458 L196.889198,55.9297359 L223.394081,55.9297359 L263.311073,115.752002 L302.90873,55.9297359 L328.136269,55.9297359 L275.65873,132.14458 L330.690956,212.2979 L304.398964,212.2979 L262.24662,148.004931 L218.923378,212.2979 Z M350.383339,55.9297359 L380.720253,55.9297359 L425.640175,188.134814 L470.240761,55.9297359 L500.258339,55.9297359 L500.258339,212.2979 L480.140175,212.2979 L480.140175,120.009814 C480.140175,116.816439 480.211138,111.529708 480.353066,104.149462 C480.494993,96.7692173 480.565956,88.8568615 480.565956,80.4121578 L435.96537,212.2979 L414.995644,212.2979 L370.075722,80.4121578 L370.075722,85.2021969 C370.075722,89.0342473 370.164425,94.8709402 370.341835,102.712451 C370.519245,110.553961 370.607948,116.319691 370.607948,120.009814 L370.607948,212.2979 L350.383339,212.2979 L350.383339,55.9297359 Z" id="path-1"></path>
    </defs>
    <g id="Page-1" stroke="none" stroke-width="1" fill="none" fill-rule="evenodd">
        <g id="brXM" transform="translate(0.000000, -55.000000)" fill-rule="nonzero">
            <path d="M206.28,203.57 C206.5,203.71 206.74,203.85 206.98,203.97 L206.98,204 C206.74,203.86 206.5,203.72 206.28,203.57 Z" id="Path" fill="#00BBDB"></path>
            <path d="M177.16,147.27 C176.6,146.63 175.99,146.02 175.38,145.42 C175.34,145.38 175.3,145.36 175.27,145.32 C174.69,144.78 174.07,144.26 173.43,143.79 C173.36,143.72 173.26,143.65 173.17,143.58 C172.59,143.15 171.99,142.75 171.35,142.36 C171.22,142.28 171.09,142.19 170.95,142.1 C170.37,141.77 169.77,141.46 169.16,141.15 C168.97,141.05 168.78,140.97 168.59,140.87 C168.01,140.62 167.42,140.38 166.82,140.16 C166.58,140.08 166.36,139.98 166.12,139.91 C165.54,139.72 164.95,139.56 164.35,139.41 L163.56,139.2 C162.93,139.07 162.32,138.98 161.68,138.89 C161.43,138.85 161.18,138.79 160.92,138.76 C160.04,138.66 159.14,138.62 158.22,138.62 C144.43,138.62 133.22,149.73 133.08,163.49 L133.08,210.68 L107.94,210.68 L107.94,163.49 C108.02,144.97 118.1,128.83 133.08,120.17 L133.08,120.2 C132.61,120.46 132.15,120.74 131.69,121.05 C132.15,120.77 132.61,120.49 133.08,120.22 L133.08,120.21 C140.46,115.93 149.06,113.48 158.22,113.48 C172.75,113.48 185.8,119.64 194.95,129.48" id="Path" fill="#000000"></path>
            <path d="M50.97,111.1 C41.68,111.1 32.97,113.58 25.48,117.92 L25.48,117.93 C25,118.21 24.54,118.49 24.07,118.78 C24.54,118.47 25,118.19 25.48,117.92 L25.48,60.13 L0,60.13 L0,162.09 C0,190.24 22.82,213.07 50.97,213.07 C79.13,213.07 101.950003,190.23 101.950003,162.09 C101.96,133.92 79.13,111.1 50.97,111.1 Z M50.97,187.58 C36.9,187.58 25.48,176.16 25.48,162.08 C25.48,148 36.9,136.6 50.97,136.6 C51.9,136.6 52.82,136.64 53.7,136.74 C53.97,136.77 54.22,136.82 54.48,136.87 C55.13,136.95 55.75,137.05 56.38,137.18 L57.18,137.39 C57.79,137.55 58.38,137.7 58.97,137.9 C59.21,137.97 59.44,138.07 59.67,138.15 C60.28,138.38 60.87,138.62 61.46,138.87 C61.66,138.97 61.84,139.05 62.04,139.15 C62.66,139.46 63.27,139.77 63.86,140.11 C64,140.21 64.14,140.29 64.27,140.38 C64.92,140.77 65.52,141.18 66.12,141.62 C66.22,141.69 66.32,141.76 66.39,141.83 C67.04,142.31 67.66,142.83 68.25,143.38 C68.28,143.42 68.32,143.44 68.36,143.48 C68.98,144.09 69.6,144.71 70.16,145.35 C74.08,149.83 76.4600066,155.67 76.4600066,162.08 C76.47,176.16 65.05,187.58 50.97,187.58 Z" id="Shape" fill="#000000"></path>
            <path d="M207.94,203.5 C208.16,203.64 208.4,203.78 208.64,203.9 L208.64,203.93 C208.4,203.79 208.16,203.65 207.94,203.5 Z" id="Path" fill="#00BBDB"></path>
            <g id="XM">
                <use fill="#000000" xlink:href="#path-1"></use>
                <use fill="#00B2DB" xlink:href="#path-1"></use>
            </g>
        </g>
    </g>
</svg>