<?xml version="1.0" encoding="UTF-8"?>
<!--
Copyright 2019-2021 Hippo B.V. (http://www.onehippo.com)

Licensed under the Apache License, Version 2.0 (the "License");
you may not use this file except in compliance with the License.
You may obtain a copy of the License at

http://www.apache.org/licenses/LICENSE-2.0

Unless required by applicable law or agreed to in writing, software
distributed under the License is distributed on an "AS IS" BASIS,
WITHOUT WARRANTIES OR CONDITIONS OF ANY KIND, either express or implied.
See the License for the specific language governing permissions and
limitations under the License.
-->
<svg xmlns="http://www.w3.org/2000/svg" width="511.798" height="74.955" viewBox="0 0 511.798 74.955">
  <g id="Group_3031" data-name="Group 3031" transform="translate(-257 -644)">
    <ellipse id="Ellipse_7" fill="#ffd500" data-name="Ellipse 7" cx="37.226" cy="37.477" rx="37.226" ry="37.477" transform="translate(257 644)"/>
    <g id="Group_2496" data-name="Group 2496" transform="translate(284.653 662.016)">
      <path id="Path_818" fill="#002840" data-name="Path 818" d="M119.541,141.565l-1.824,4.669a6.876,6.876,0,0,1,3.14,5.881,6.613,6.613,0,1,1-6.9-6.855l1.714-4.788a11.448,11.448,0,0,0-13.231,11.334l-.015-.007v12.047h5.217v-1.89a12.075,12.075,0,0,0,6.608,1.89,11.753,11.753,0,0,0,5.293-22.281Z" transform="translate(-102.424 -129.887)"/>
      <path id="Path_819" fill="#002840" data-name="Path 819" d="M102.424,141.424a16.015,16.015,0,0,1,5.21-3.563v-7.544h-5.21Z" transform="translate(-102.424 -130.318)"/>
    </g>
    <path id="Path_1829" fill="#002740" data-name="Path 1829" d="M12.771-22.618A11.275,11.275,0,0,0,1.29-11.094C1.29-4.687,6.149.43,13.2.43A11.238,11.238,0,0,0,23.435-5.934l-4.3-1.806a6.714,6.714,0,0,1-6.192,3.569A6.483,6.483,0,0,1,6.321-9.245H23.779C25.069-17.329,19.135-22.618,12.771-22.618Zm-6.407,9.46A6.574,6.574,0,0,1,12.9-18.017a6.425,6.425,0,0,1,6.235,4.859ZM41.538,0h5.977L38.786-11.266l8.428-10.922H41.28L35.9-15.136,30.96-22.188H24.252l8.471,10.836L23.951,0h5.891l5.805-7.568Zm20.9-22.618a9.488,9.488,0,0,0-7.482,3.4v-2.967h-5.16V10.75h5.16V-3.01A9.524,9.524,0,0,0,62.436.43c6.149,0,10.793-4.73,10.793-11.524S68.585-22.618,62.436-22.618ZM54.954-11.094a6.612,6.612,0,0,1,6.579-6.837,6.534,6.534,0,0,1,6.45,6.837,6.534,6.534,0,0,1-6.45,6.837A6.612,6.612,0,0,1,54.954-11.094ZM87.29-22.618A11.275,11.275,0,0,0,75.809-11.094C75.809-4.687,80.668.43,87.72.43A11.238,11.238,0,0,0,97.954-5.934l-4.3-1.806a6.714,6.714,0,0,1-6.192,3.569A6.483,6.483,0,0,1,80.84-9.245H98.3C99.588-17.329,93.654-22.618,87.29-22.618Zm-6.407,9.46a6.574,6.574,0,0,1,6.536-4.859,6.425,6.425,0,0,1,6.235,4.859ZM107.2-19.049v-3.139h-5.16V0h5.16V-11.524c0-3.4,2.494-5.977,7.482-5.633v-5.461A9.494,9.494,0,0,0,107.2-19.049Zm13.072-6.192a3.324,3.324,0,0,0,3.4-3.4,3.324,3.324,0,0,0-3.4-3.4,3.324,3.324,0,0,0-3.4,3.4A3.324,3.324,0,0,0,120.271-25.241ZM117.691,0h5.16V-22.188h-5.16Zm20.468-22.618a11.275,11.275,0,0,0-11.481,11.524c0,6.407,4.859,11.524,11.911,11.524a11.238,11.238,0,0,0,10.234-6.364l-4.3-1.806a6.714,6.714,0,0,1-6.192,3.569,6.483,6.483,0,0,1-6.622-5.074h17.458C150.457-17.329,144.523-22.618,138.159-22.618Zm-6.407,9.46a6.574,6.574,0,0,1,6.536-4.859,6.425,6.425,0,0,1,6.235,4.859Zm33.411-9.46a9.206,9.206,0,0,0-7.1,3.311v-2.881h-5.16V0h5.16V-11.954a5.628,5.628,0,0,1,5.719-5.891,5.473,5.473,0,0,1,5.676,5.8V0h5.16V-12.857C174.623-19.006,170.28-22.618,165.163-22.618ZM189.415.43a11.354,11.354,0,0,0,10.793-7.181l-4.644-1.806a6.643,6.643,0,0,1-6.02,4.214,6.621,6.621,0,0,1-6.45-6.751c0-3.741,2.537-6.751,6.407-6.751a6.585,6.585,0,0,1,5.891,3.956l4.773-1.634a11.367,11.367,0,0,0-10.793-7.1,11.265,11.265,0,0,0-11.438,11.524A11.224,11.224,0,0,0,189.415.43Zm24.209-23.048a11.275,11.275,0,0,0-11.481,11.524C202.143-4.687,207,.43,214.054.43a11.238,11.238,0,0,0,10.234-6.364l-4.3-1.806A6.714,6.714,0,0,1,213.8-4.171a6.483,6.483,0,0,1-6.622-5.074h17.458C225.922-17.329,219.988-22.618,213.624-22.618Zm-6.407,9.46a6.574,6.574,0,0,1,6.536-4.859,6.425,6.425,0,0,1,6.235,4.859Zm54.427-9.46a9.514,9.514,0,0,0-7.74,3.784,8.717,8.717,0,0,0-7.4-3.784,8.559,8.559,0,0,0-6.579,3.01v-2.58h-5.16V0h5.16V-12.427a5.209,5.209,0,0,1,5.16-5.418,5.012,5.012,0,0,1,5.2,5.375V0h5.16V-12.6a5.114,5.114,0,0,1,5.16-5.246,5.105,5.105,0,0,1,5.2,5.375V0h5.16V-13.33A8.97,8.97,0,0,0,261.644-22.618Zm36.034.43h-5.16v2.967a9.4,9.4,0,0,0-7.439-3.4c-6.192,0-10.793,4.73-10.793,11.524S278.887.43,285.079.43a9.4,9.4,0,0,0,7.439-3.4V0h5.16ZM279.532-11.094a6.508,6.508,0,0,1,6.45-6.837,6.577,6.577,0,0,1,6.536,6.837,6.577,6.577,0,0,1-6.536,6.837A6.508,6.508,0,0,1,279.532-11.094Zm35-11.524a9.206,9.206,0,0,0-7.1,3.311v-2.881h-5.16V0h5.16V-11.954a5.628,5.628,0,0,1,5.719-5.891,5.473,5.473,0,0,1,5.676,5.8V0h5.16V-12.857C323.994-19.006,319.651-22.618,314.534-22.618Zm36.163.43h-5.16v2.967a9.4,9.4,0,0,0-7.439-3.4c-6.192,0-10.793,4.73-10.793,11.524S331.906.43,338.1.43a9.4,9.4,0,0,0,7.439-3.4V0h5.16ZM332.551-11.094A6.508,6.508,0,0,1,339-17.931a6.577,6.577,0,0,1,6.536,6.837A6.577,6.577,0,0,1,339-4.257,6.508,6.508,0,0,1,332.551-11.094ZM377.7,0V-22.188h-5.16v2.967a9.4,9.4,0,0,0-7.439-3.4c-6.192,0-10.793,4.73-10.793,11.524S358.91.43,365.1.43a9.4,9.4,0,0,0,7.439-3.4V0a6.122,6.122,0,0,1-6.45,6.192,6.464,6.464,0,0,1-6.364-4.429l-4.6,2.365c1.462,4.472,5.891,6.837,10.965,6.837C372.8,10.965,377.7,6.708,377.7,0ZM359.555-11.094A6.508,6.508,0,0,1,366-17.931a6.577,6.577,0,0,1,6.536,6.837A6.577,6.577,0,0,1,366-4.257,6.508,6.508,0,0,1,359.555-11.094Zm33.239-11.524a11.275,11.275,0,0,0-11.481,11.524c0,6.407,4.859,11.524,11.911,11.524a11.238,11.238,0,0,0,10.234-6.364l-4.3-1.806a6.714,6.714,0,0,1-6.192,3.569,6.483,6.483,0,0,1-6.622-5.074H403.8C405.092-17.329,399.158-22.618,392.794-22.618Zm-6.407,9.46a6.574,6.574,0,0,1,6.536-4.859,6.425,6.425,0,0,1,6.235,4.859ZM412.7-19.049v-3.139h-5.16V0h5.16V-11.524c0-3.4,2.494-5.977,7.482-5.633v-5.461A9.494,9.494,0,0,0,412.7-19.049Z" transform="translate(348.613 696)"/>
  </g>
</svg>
