<?xml version="1.0" encoding="UTF-8"?>
<!--
Copyright 2019 Hippo B.V. (http://www.onehippo.com)

Licensed under the Apache License, Version 2.0 (the "License");
you may not use this file except in compliance with the License.
You may obtain a copy of the License at

http://www.apache.org/licenses/LICENSE-2.0

Unless required by applicable law or agreed to in writing, software
distributed under the License is distributed on an "AS IS" BASIS,
WITHOUT WARRANTIES OR CONDITIONS OF ANY KIND, either express or implied.
See the License for the specific language governing permissions and
limitations under the License.
-->
<svg width="501px" height="159px" viewBox="0 0 501 159" version="1.1" xmlns="http://www.w3.org/2000/svg" xmlns:xlink="http://www.w3.org/1999/xlink">
    <!-- Generator: Sketch 58 (84663) - https://sketch.com -->
    <title>brXM-logo-01</title>
    <desc>Created with Sketch.</desc>
    <g id="Page-1" stroke="none" stroke-width="1" fill="none" fill-rule="evenodd">
        <g id="brXM-logo-01" transform="translate(0.000000, -55.000000)" fill-rule="nonzero">
            <g id="Group" transform="translate(0.000000, 60.000000)" fill="#000000">
                <path d="M177.16,87.27 C176.6,86.63 175.99,86.02 175.38,85.42 C175.34,85.38 175.3,85.36 175.27,85.32 C174.69,84.78 174.07,84.26 173.43,83.79 C173.36,83.72 173.26,83.65 173.17,83.58 C172.59,83.15 171.99,82.75 171.35,82.36 C171.22,82.28 171.09,82.19 170.95,82.1 C170.37,81.77 169.77,81.46 169.16,81.15 C168.97,81.05 168.78,80.97 168.59,80.87 C168.01,80.62 167.42,80.38 166.82,80.16 C166.58,80.08 166.36,79.98 166.12,79.91 C165.54,79.72 164.95,79.56 164.35,79.41 L163.56,79.2 C162.93,79.07 162.32,78.98 161.68,78.89 C161.43,78.85 161.18,78.79 160.92,78.76 C160.04,78.66 159.14,78.62 158.22,78.62 C144.43,78.62 133.22,89.73 133.08,103.49 L133.08,150.68 L107.94,150.68 L107.94,103.49 C108.02,84.97 118.1,68.83 133.08,60.17 L133.08,60.2 C132.61,60.46 132.15,60.74 131.69,61.05 C132.15,60.77 132.61,60.49 133.08,60.22 L133.08,60.21 C140.46,55.93 149.06,53.48 158.22,53.48 C172.75,53.48 185.8,59.64 194.95,69.48" id="Path"></path>
                <path d="M50.97,51.1 C41.68,51.1 32.97,53.58 25.48,57.92 L25.48,57.93 C25,58.21 24.54,58.49 24.07,58.78 C24.54,58.47 25,58.19 25.48,57.92 L25.48,0.13 L0,0.13 L0,102.09 C0,130.24 22.82,153.07 50.97,153.07 C79.13,153.07 101.950003,130.23 101.950003,102.09 C101.96,73.92 79.13,51.1 50.97,51.1 Z M50.97,127.58 C36.9,127.58 25.48,116.16 25.48,102.08 C25.48,88 36.9,76.6 50.97,76.6 C51.9,76.6 52.82,76.64 53.7,76.74 C53.97,76.77 54.22,76.82 54.48,76.87 C55.13,76.95 55.75,77.05 56.38,77.18 L57.18,77.39 C57.79,77.55 58.38,77.7 58.97,77.9 C59.21,77.97 59.44,78.07 59.67,78.15 C60.28,78.38 60.87,78.62 61.46,78.87 C61.66,78.97 61.84,79.05 62.04,79.15 C62.66,79.46 63.27,79.77 63.86,80.11 C64,80.21 64.14,80.29 64.27,80.38 C64.92,80.77 65.52,81.18 66.12,81.62 C66.22,81.69 66.32,81.76 66.39,81.83 C67.04,82.31 67.66,82.83 68.25,83.38 C68.28,83.42 68.32,83.44 68.36,83.48 C68.98,84.09 69.6,84.71 70.16,85.35 C74.08,89.83 76.4600066,95.67 76.4600066,102.08 C76.47,116.16 65.05,127.58 50.97,127.58 Z" id="Shape"></path>
            </g>
            <path d="M218.923378,212.2979 L193.376503,212.2979 L249.366737,132.14458 L196.889198,55.9297359 L223.394081,55.9297359 L263.311073,115.752002 L302.90873,55.9297359 L328.136269,55.9297359 L275.65873,132.14458 L330.690956,212.2979 L304.398964,212.2979 L262.24662,148.004931 L218.923378,212.2979 Z M350.383339,55.9297359 L380.720253,55.9297359 L425.640175,188.134814 L470.240761,55.9297359 L500.258339,55.9297359 L500.258339,212.2979 L480.140175,212.2979 L480.142956,118.832917 C480.153615,116.419981 480.194918,113.10305 480.266866,108.882078 L480.406052,101.168985 C480.512655,94.6497918 480.565956,87.730901 480.565956,80.4121578 L435.96537,212.2979 L414.995644,212.2979 L370.075722,80.4121578 L370.077794,86.2633845 C370.090685,89.710524 370.163735,94.5172239 370.296946,100.683582 L370.464073,108.503191 C370.552317,113.064348 370.599968,116.675623 370.607028,119.33707 L370.607948,212.2979 L350.383339,212.2979 L350.383339,55.9297359 Z" id="XM" fill="#00B2DB"></path>
        </g>
    </g>
</svg>