<?xml version="1.0" encoding="utf-8"?>
<!--
Copyright 2018 Hippo B.V. (http://www.onehippo.com)

Licensed under the Apache License, Version 2.0 (the "License");
you may not use this file except in compliance with the License.
You may obtain a copy of the License at

http://www.apache.org/licenses/LICENSE-2.0

Unless required by applicable law or agreed to in writing, software
distributed under the License is distributed on an "AS IS" BASIS,
WITHOUT WARRANTIES OR CONDITIONS OF ANY KIND, either express or implied.
See the License for the specific language governing permissions and
limitations under the License.
-->
<svg width="12px" height="14px" viewBox="0 0 12 14" version="1.1" xmlns="http://www.w3.org/2000/svg">
  <g stroke="none" stroke-width="1" fill="none" fill-rule="evenodd">
    <g transform="translate(-158.000000, -272.000000)" fill="#888888">
      <path d="M159.005324,285.067662 L168.152034,285.067662 C167.998967,284.311659 167.660165,283.606989 167.158963,283.006852 C166.553227,282.282582 165.755223,281.765513 164.853619,281.509779 C164.652018,281.452845 164.51295,281.269911 164.51295,281.060843 L164.51295,280.019238 C164.51295,279.852171 164.601618,279.69817 164.746285,279.615103 C165.738423,279.042967 166.379626,277.794161 166.379626,276.434288 C166.379626,274.504145 165.123353,272.934271 163.579613,272.934271 C162.035872,272.934271 160.779599,274.504145 160.779599,276.434288 C160.779599,277.794161 161.420802,279.042967 162.41294,279.615103 C162.557608,279.69817 162.646275,279.852171 162.646275,280.019238 L162.646275,281.060843 C162.646275,281.269911 162.507208,281.452845 162.30654,281.509779 C161.404002,281.765513 160.605999,282.282582 160.000262,283.006852 C159.498127,283.606055 159.160258,284.310725 159.007191,285.067662 L159.005324,285.067662 Z M168.69057,286.001 L158.466788,286.001 C158.336121,286.001 158.211054,285.945933 158.122387,285.848866 C158.03372,285.751799 157.989853,285.622998 158.001986,285.492331 C158.104653,284.353659 158.547989,283.286854 159.283459,282.40765 C159.933995,281.631113 160.767466,281.052443 161.712004,280.719242 L161.712004,280.275906 C161.187468,279.916571 160.744133,279.411635 160.420264,278.799366 C160.044129,278.091896 159.845328,277.274292 159.845328,276.433354 C159.845328,275.265749 160.22333,274.16441 160.9084,273.331873 C161.61587,272.473202 162.564141,272 163.578679,272 C164.593218,272 165.541489,272.473202 166.248959,273.331873 C166.934962,274.16441 167.31203,275.265749 167.31203,276.433354 C167.31203,277.274292 167.114163,278.091896 166.738028,278.799366 C166.413226,279.410702 165.969891,279.916571 165.445355,280.275906 L165.445355,280.719242 C166.389893,281.052443 167.223363,281.631113 167.8739,282.40765 C168.60937,283.286854 169.053639,284.352725 169.155373,285.492331 C169.167506,285.622998 169.123639,285.752732 169.034972,285.848866 C168.946305,285.945 168.822171,286.001 168.69057,286.001 L168.69057,286.001 Z"></path>
    </g>
  </g>
</svg>
