<?xml version="1.0" encoding="utf-8"?>

<!--
  ~ Copyright 2014 Hippo B.V. (http://www.onehippo.com)
  ~
  ~ Licensed under the Apache License, Version 2.0 (the "License");
  ~ you may not use this file except in compliance with the License.
  ~ You may obtain a copy of the License at
  ~
  ~ http://www.apache.org/licenses/LICENSE-2.0
  ~
  ~ Unless required by applicable law or agreed to in writing, software
  ~ distributed under the License is distributed on an "AS IS" BASIS,
  ~ WITHOUT WARRANTIES OR CONDITIONS OF ANY KIND, either express or implied.
  ~ See the License for the specific language governing permissions and
  ~ limitations under the License.
  -->

<!-- Generator: Adobe Illustrator 16.0.0, SVG Export Plug-In . SVG Version: 6.00 Build 0)  -->
<!DOCTYPE svg PUBLIC "-//W3C//DTD SVG 1.1//EN" "http://www.w3.org/Graphics/SVG/1.1/DTD/svg11.dtd">
<svg version="1.1" id="Layer_1" xmlns="http://www.w3.org/2000/svg" xmlns:xlink="http://www.w3.org/1999/xlink" x="0px" y="0px"
	 width="16px" height="16px" viewBox="0 0 16 16" enable-background="new 0 0 16 16" xml:space="preserve">
<g>
	<path fill="#00A8E7" d="M14,4.75v9.5c0,0.414-0.336,0.75-0.75,0.75h-6.5C6.336,15,6,14.664,6,14.25V12H2.75
		C2.336,12,2,11.664,2,11.25V6c0-0.414,0.242-0.992,0.531-1.281l3.188-3.188C6.008,1.242,6.586,1,7,1h2.25C9.664,1,10,1.336,10,1.75
		v2.562C10.305,4.133,10.695,4,11,4h2.25C13.664,4,14,4.336,14,4.75z M9,5.25V2H7v3.25C7,5.664,6.664,6,6.25,6H3v5h3V9
		c0-0.414,0.242-0.992,0.531-1.281L9,5.25z M3.664,5H6V2.664L3.664,5z M13,5h-2v3.25C11,8.664,10.664,9,10.25,9H7v5h6V5z M7.664,8
		H10V5.664L7.664,8z"/>
</g>
</svg>
