<svg xmlns="http://www.w3.org/2000/svg" width="76" height="76" viewBox="0 0 76 76"><title>ss-icon_</title><path d="M14.27,8.67H5.33v20S5.66,35.38,1,35.38v5.24c4.71,0,4.38,6.68,4.38,6.68v20h8.94l.44,0V61.16H11.25V44a7.07,7.07,0,0,0-3.3-6,7.07,7.07,0,0,0,3.3-6V14.84h3.47V8.67Z" fill="#00acfb" fill-rule="evenodd"/><path d="M14.27,68.28H4.38v-21c0-.08.13-3.33-1.37-4.91A2.69,2.69,0,0,0,1,41.57H0V34.43H1A2.69,2.69,0,0,0,3,33.6C4.52,32,4.38,28.78,4.38,28.74v-21H15.66v8.07H12.2V32a8,8,0,0,1-2.68,6,8,8,0,0,1,2.68,6V60.21h3.47V68l.14.29Zm-8-1.9h7.48V62.11H10.3V44A6.1,6.1,0,0,0,7.44,38.8L6.17,38l1.27-.8A6.1,6.1,0,0,0,10.3,32V13.89h3.47V9.62H6.28V28.7c0,.12.17,4-1.89,6.21A4.43,4.43,0,0,1,1.9,36.25v3.51a4.43,4.43,0,0,1,2.49,1.34c2.07,2.17,1.9,6.09,1.89,6.26Z" fill="#0c3d6d"/><polygon points="42.78 10.31 19.95 10.31 19.95 65.43 56.24 65.43 56.24 23.64 42.78 10.31" fill="#fff"/><path d="M57.19,66.38H19v-57H43.17l14,13.88Zm-36.28-1.9H55.29V24L42.39,11.26H20.91Z" fill="#0c3d6d"/><rect x="28.53" y="37.76" width="18.98" height="1.9" fill="#0c3d6d"/><rect x="28.53" y="45.36" width="18.98" height="1.9" fill="#0c3d6d"/><rect x="28.53" y="52.97" width="11.38" height="1.9" fill="#0c3d6d"/><polygon points="55.47 24.98 41.44 24.98 41.44 10.57 43.34 10.57 43.34 23.08 55.47 23.08 55.47 24.98" fill="#0c3d6d"/><rect x="28.53" y="30.16" width="18.98" height="1.9" fill="#0c3d6d"/><path d="M61.29,8.67v6.17h3.47V32a7.07,7.07,0,0,0,3.3,6,7.07,7.07,0,0,0-3.3,6V61.16H61.29v6.13l.44,0h8.94v-20s-.33-6.68,4.38-6.68V35.38c-4.71,0-4.38-6.68-4.38-6.68v-20H61.29Z" fill="#00acfb" fill-rule="evenodd"/><path d="M71.62,68.28H60.19l.15-.3V60.21H63.8V44a8,8,0,0,1,2.68-6,8,8,0,0,1-2.68-6V15.79H60.34V7.72H71.62v21c0,.08-.13,3.33,1.37,4.91a2.69,2.69,0,0,0,2.06.82h1v7.14H75A2.69,2.69,0,0,0,73,42.4c-1.51,1.58-1.38,4.83-1.37,4.86Zm-9.38-1.9h7.48V47.3c0-.12-.17-4,1.89-6.21a4.43,4.43,0,0,1,2.49-1.34V36.25a4.43,4.43,0,0,1-2.49-1.34c-2.07-2.17-1.9-6.09-1.89-6.26v-19H62.24v4.27H65.7V32a6.1,6.1,0,0,0,2.86,5.18l1.27.8-1.27.8A6.11,6.11,0,0,0,65.7,44V62.11H62.24Z" fill="#0c3d6d"/></svg>