<?xml version="1.0" encoding="UTF-8" standalone="no"?>
<!--
  Copyright 2018 Hippo B.V. (http://www.onehippo.com)

  Licensed under the Apache License, Version 2.0 (the "License");
  you may not use this file except in compliance with the License.
  You may obtain a copy of the License at

   http://www.apache.org/licenses/LICENSE-2.0

  Unless required by applicable law or agreed to in writing, software
  distributed under the License is distributed on an "AS IS" BASIS,
  WITHOUT WARRANTIES OR CONDITIONS OF ANY KIND, either express or implied.
  See the License for the specific language governing permissions and
  limitations under the License.
-->
<!DOCTYPE svg PUBLIC "-//W3C//DTD SVG 1.1//EN" "http://www.w3.org/Graphics/SVG/1.1/DTD/svg11.dtd">
<svg xmlns:xlink="http://www.w3.org/1999/xlink" version="1.1" xmlns="http://www.w3.org/2000/svg" preserveAspectRatio="xMidYMid meet" viewBox="0 0 16 16" width="16" height="16">
  <defs>
    <path d="M3 8.98L7.52 4.47L12.03 8.98" id="d2EjJM0qJj"></path>
    <path d="M8 5.19C8 5.19 8 5.19 8 5.19C8 10.48 8 13.41 8 14C8 14 8 14 8 14C7.4 14 7.07 14 7 14C7 14 7 14 7 14C7 8.71 7 5.78 7 5.19C7 5.19 7 5.19 7 5.19C7.6 5.19 7.93 5.19 8 5.19Z" id="a1tT2dlsqO"></path>
    <path d="M12.39 3.47L2.62 3.47" id="adkt5sUMB"></path>
  </defs>
  <g>
    <g>
      <g>
        <use xlink:href="#d2EjJM0qJj" opacity="1" fill="currentColor" fill-opacity="0"></use>
        <g>
          <use xlink:href="#d2EjJM0qJj" opacity="1" fill-opacity="0" stroke="currentColor" stroke-width="1" stroke-opacity="1"></use>
        </g>
      </g>
      <g>
        <use xlink:href="#a1tT2dlsqO" opacity="1" fill="currentColor" fill-opacity="1"></use>
        <g>
          <use xlink:href="#a1tT2dlsqO" opacity="1" fill-opacity="0" stroke="currentColor" stroke-width="1" stroke-opacity="0"></use>
        </g>
      </g>
      <g>
        <use xlink:href="#adkt5sUMB" opacity="1" fill="currentColor" fill-opacity="1"></use>
        <g>
          <use xlink:href="#adkt5sUMB" opacity="1" fill-opacity="0" stroke="currentColor" stroke-width="1" stroke-opacity="1"></use>
        </g>
      </g>
    </g>
  </g>
</svg>