<?xml version="1.0" encoding="utf-8"?>
<!--
  Copyright 2015 Hippo B.V. (http://www.onehippo.com)

  Licensed under the Apache License, Version 2.0 (the "License");
  you may not use this file except in compliance with the License.
  You may obtain a copy of the License at

   http://www.apache.org/licenses/LICENSE-2.0

  Unless required by applicable law or agreed to in writing, software
  distributed under the License is distributed on an "AS IS" BASIS,
  WITHOUT WARRANTIES OR CONDITIONS OF ANY KIND, either express or implied.
  See the License for the specific language governing permissions and
  limitations under the License.
-->

<!DOCTYPE svg PUBLIC "-//W3C//DTD SVG 1.1//EN" "http://www.w3.org/Graphics/SVG/1.1/DTD/svg11.dtd">
<svg version="1.1" id="Layer_1" xmlns="http://www.w3.org/2000/svg" xmlns:xlink="http://www.w3.org/1999/xlink" x="0px" y="0px" width="16px" height="16px" viewBox="0 0 16 16" enable-background="new 0 0 16 16" xml:space="preserve">
  <g>
   <path fill="currentColor" d="M7.704,4.206c1.585,0,2.575,1.429,2.733,2.83c0,0,0.311,3.036,0.415,4.044 c0.071,0.692,0.286,1.349,0.602,1.92H3.767c0.315-0.57,0.53-1.228,0.601-1.919c0.104-1.008,0.414-4.035,0.414-4.035 c0.16-1.412,1.15-2.841,2.736-2.841H7.704 M7.704,3.206H7.518c-2.06,0-3.506,1.747-3.729,3.729c0,0-0.311,3.035-0.415,4.043 C3.209,12.569,2.104,13.888,1,14h13.221c-1.104-0.112-2.209-1.431-2.373-3.022c-0.104-1.009-0.415-4.043-0.415-4.043 C11.209,4.953,9.763,3.206,7.704,3.206L7.704,3.206z"/>
 </g>
 <path fill="currentColor" d="M9,13.961c0,0.824-0.672,1.492-1.5,1.492S6,14.785,6,13.961"/>
 <rect x="7.002" y="2" fill="currentColor" width="0.969" height="2"/>
</svg>
