<?xml version="1.0" encoding="utf-8"?>
<!--
  Copyright 2015-2017 Hippo B.V. (http://www.onehippo.com)

  Licensed under the Apache License, Version 2.0 (the "License");
  you may not use this file except in compliance with the License.
  You may obtain a copy of the License at

   http://www.apache.org/licenses/LICENSE-2.0

  Unless required by applicable law or agreed to in writing, software
  distributed under the License is distributed on an "AS IS" BASIS,
  WITHOUT WARRANTIES OR CONDITIONS OF ANY KIND, either express or implied.
  See the License for the specific language governing permissions and
  limitations under the License.
-->

<!DOCTYPE svg PUBLIC "-//W3C//DTD SVG 1.1//EN" "http://www.w3.org/Graphics/SVG/1.1/DTD/svg11.dtd">
<svg version="1.1" id="Layer_1" xmlns="http://www.w3.org/2000/svg" xmlns:xlink="http://www.w3.org/1999/xlink" x="0px" y="0px" width="16px" height="16px" viewBox="0 0 16 16" enable-background="new 0 0 16 16" xml:space="preserve">
  <g>
   <path fill="currentColor" d="M14,14c0,0.301-0.336,1-1,1H2c-0.664,0-1-0.699-1-1V4c0-1,1-1,1-1h1V2c0,0,0-1,1-1h1c1,0,1,1,1,1v1h3V2 c0,0,0-1,1-1h1c1,0,1,1,1,1v1h1c1,0,1,1,1,1V14z M4,8V6H2v2H4z M4,11V9H2v2H4z M4,14v-2H2v2H4z M5,2H4v2h1V2z M7,8V6H5v2H7z M7,11 V9H5v2H7z M7,14v-2H5v2H7z M10,8V6H8v2H10z M10,11V9H8v2H10z M10,14v-2H8v2H10z M11,2h-1v2h1V2z M13,8V6h-2v2H13z M13,11V9h-2v2H13 z M13,14v-2h-2v2H13z"/>
 </g>
</svg>
