<?xml version="1.0" encoding="utf-8"?>
<!--
- Copyright 2015 Hippo B.V. (http://www.onehippo.com)
-
- Licensed under the Apache License, Version 2.0 (the "License");
- you may not use this file except in compliance with the License.
- You may obtain a copy of the License at
-
- http://www.apache.org/licenses/LICENSE-2.0
-
- Unless required by applicable law or agreed to in writing, software
- distributed under the License is distributed on an "AS IS" BASIS,
- WITHOUT WARRANTIES OR CONDITIONS OF ANY KIND, either express or implied.
- See the License for the specific language governing permissions and
- limitations under the License.
-->

<!DOCTYPE svg PUBLIC "-//W3C//DTD SVG 1.1//EN" "http://www.w3.org/Graphics/SVG/1.1/DTD/svg11.dtd">
<svg version="1.1" id="Layer_1" xmlns="http://www.w3.org/2000/svg" xmlns:xlink="http://www.w3.org/1999/xlink" x="0px" y="0px" width="32px" height="32px" viewBox="0 0 32 32" enable-background="new 0 0 32 32" xml:space="preserve">
	<g>
		<rect fill="currentColor" x="6" y="12" width="19.973" height="1"/>
	</g>
	<g>
		<rect fill="currentColor" x="6.001" y="16" width="11" height="1"/>
	</g>
	<g>
		<rect fill="currentColor" x="6.001" y="8" width="20" height="1"/>
	</g>
	<path fill="currentColor" d="M28.5,5C28.707,5,29,5.283,29,5.547v14.876C29,20.736,28.76,21,28.609,21H14l-1.016,1h15.625C29.377,22,30,21.231,30,20.423 V5.547C30,4.74,29.269,4,28.5,4l0,0H3.469C2.701,4,2,4.646,2,5.453v15.312C2,21.572,2.646,22,3.415,22H8v-1H3.415 C3,21,3,20.824,3,20.766V5.453C3,5.197,3.252,5,3.469,5H28.5"/>
	<polyline fill="none" stroke="currentColor" stroke-linejoin="bevel" stroke-miterlimit="10" points="13.521,21.521 7.453,27.594 7.453,21.267 "/>
</svg>
