<?xml version="1.0" encoding="utf-8"?>
<!--
- Copyright 2015-2017 Hippo B.V. (http://www.onehippo.com)
-
- Licensed under the Apache License, Version 2.0 (the "License");
- you may not use this file except in compliance with the License.
- You may obtain a copy of the License at
-
- http://www.apache.org/licenses/LICENSE-2.0
-
- Unless required by applicable law or agreed to in writing, software
- distributed under the License is distributed on an "AS IS" BASIS,
- WITHOUT WARRANTIES OR CONDITIONS OF ANY KIND, either express or implied.
- See the License for the specific language governing permissions and
- limitations under the License.
-->

<!DOCTYPE svg PUBLIC "-//W3C//DTD SVG 1.1//EN" "http://www.w3.org/Graphics/SVG/1.1/DTD/svg11.dtd">
<svg version="1.1" id="Layer_1" xmlns="http://www.w3.org/2000/svg" xmlns:xlink="http://www.w3.org/1999/xlink" x="0px" y="0px" width="32px" height="32px" viewBox="0 0 32 32" enable-background="new 0 0 32 32" xml:space="preserve">
  <line fill="none" stroke="currentColor" stroke-width="0.75" stroke-miterlimit="10" x1="29.008" y1="2.992" x2="13.008" y2="18.992"/>
  <g>
    <path fill="currentColor" d="M24,29c0,1,0,1-1,1H3c-1,0-1,0-1-1V9c0-1,1-1,1-1h16l0.531,0.5c0,0-0.469,0.438-0.531,0.5l0,0H3v20h20V13l0.5-0.516L24,13 V29z"/>
  </g>
  <g>
    <path fill="currentColor" d="M27.002,2.004H29c1,0,1,0,1,1v14c-0.025-0.025-0.484,0.418-0.484,0.418L29,16.969V3H15l-0.5-0.469c0,0,0.5-0.531,0.5-0.527 H27.002"/>
  </g>
</svg>
