<?xml version="1.0" encoding="utf-8"?>
<!--
  Copyright 2015 Hippo B.V. (http://www.onehippo.com)

  Licensed under the Apache License, Version 2.0 (the "License");
  you may not use this file except in compliance with the License.
  You may obtain a copy of the License at

   http://www.apache.org/licenses/LICENSE-2.0

  Unless required by applicable law or agreed to in writing, software
  distributed under the License is distributed on an "AS IS" BASIS,
  WITHOUT WARRANTIES OR CONDITIONS OF ANY KIND, either express or implied.
  See the License for the specific language governing permissions and
  limitations under the License.
-->

<!DOCTYPE svg PUBLIC "-//W3C//DTD SVG 1.1//EN" "http://www.w3.org/Graphics/SVG/1.1/DTD/svg11.dtd">
<svg version="1.1" id="Layer_1" xmlns="http://www.w3.org/2000/svg" xmlns:xlink="http://www.w3.org/1999/xlink" x="0px" y="0px" width="16px" height="16px" viewBox="0 0 16 16" enable-background="new 0 0 16 16" xml:space="preserve">
  <g>
    <path fill="currentColor" d="M13.032,1C13.532,1,14,1.438,14,2s0,10.146,0,10.146C14,12.617,12.97,13,13.001,13S0.854,13,0.854,13 C0.383,13,0,12.617,0,12.146V1.912C0,1.441,0.383,1,0.854,1H13.032 M13.032,2H1L0.998,12l12.034,0.047V2z M14,12.146 C14,12.617,13.204,13,13.235,13S0.854,13,0.854,13"/>
  </g>
  <polygon fill="currentColor" points="4,5 2,11 9,11 "/>
  <polygon fill="currentColor" points="9,7 6,11 12,11 "/>
  <circle fill="currentColor" cx="10.5" cy="4.5" r="1.5"/>
  <g>
    <g>
      <path fill="#22272F" d="M15,13.75c0,1.242-1.008,2.25-2.25,2.25h-4.5C7.008,16,6,14.992,6,13.75v-4.5C6,8.008,7.008,7,8.25,7h4.5 C13.992,7,15,8.008,15,9.25V13.75z"/>
    </g>
  </g>
  <polygon fill="#FFFFFF" points="11,9 10,9 10,11 8,11 8,12 10,12 10,14 11,14 11,12 13,12 13,11 11,11 "/>
</svg>
