<?xml version="1.0" encoding="utf-8"?>
<!--
  Copyright 2015-2017 Hippo B.V. (http://www.onehippo.com)

  Licensed under the Apache License, Version 2.0 (the "License");
  you may not use this file except in compliance with the License.
  You may obtain a copy of the License at

   http://www.apache.org/licenses/LICENSE-2.0

  Unless required by applicable law or agreed to in writing, software
  distributed under the License is distributed on an "AS IS" BASIS,
  WITHOUT WARRANTIES OR CONDITIONS OF ANY KIND, either express or implied.
  See the License for the specific language governing permissions and
  limitations under the License.
-->

<!DOCTYPE svg PUBLIC "-//W3C//DTD SVG 1.1//EN" "http://www.w3.org/Graphics/SVG/1.1/DTD/svg11.dtd">
<svg width="32px" height="32px" viewBox="0 0 32 32" version="1.1" xmlns="http://www.w3.org/2000/svg">
  <g stroke="none" stroke-width="1" fill="none" fill-rule="evenodd">
    <path fill="currentColor" d="M27.5,5.5 C28.5,5.5 29.5,6.5 29.5,7.5 C29.5,17.5967112 29.5,23.2633778 29.5,24.5 C29.5,25.5 28.5,26.5 27.5,26.5 C12.2339699,26.5 4.56730324,26.5 4.5,26.5 C3.5,26.5 2.5,25.5 2.5,24.5 L2.5,7.5 C2.5,6.5 3.5,5.5 4.5,5.5 C18,5.5 14,5.5 27.5,5.5 Z M27.5,10.5 L4.5,10.5 L4.5,24.5 L27.5,24.5 L27.5,10.5 Z M22.3,18 C22.65,18 23,18.304878 23,18.6097561 C23,20.9268293 23,22.1869919 23,22.3902439 C23,22.695122 22.65,23 22.3,23 C13.9314082,23 9.73140818,23 9.7,23 C9.35,23 9,22.695122 9,22.3902439 L9,18.6097561 C9,18.304878 9.35,18 9.7,18 C16,18 16,18 22.3,18 Z M21.5,19.5853659 L10.5,19.5853659 L10.5,21.5365854 L21.5,21.5365854 L21.5,19.5853659 Z M22.3,12 C22.65,12 23,12.304878 23,12.6097561 C23,14.9268293 23,16.1869919 23,16.3902439 C23,16.695122 22.65,17 22.3,17 C13.9314082,17 9.73140818,17 9.7,17 C9.35,17 9,16.695122 9,16.3902439 L9,12.6097561 C9,12.304878 9.35,12 9.7,12 C16,12 16,12 22.3,12 Z M21.5,13.5853659 L10.5,13.5853659 L10.5,15.5365854 L21.5,15.5365854 L21.5,13.5853659 Z"/>
  </g>
</svg>
