<?xml version="1.0" encoding="utf-8"?>
<!--
  Copyright 2015-2017 Hippo B.V. (http://www.onehippo.com)

  Licensed under the Apache License, Version 2.0 (the "License");
  you may not use this file except in compliance with the License.
  You may obtain a copy of the License at

   http://www.apache.org/licenses/LICENSE-2.0

  Unless required by applicable law or agreed to in writing, software
  distributed under the License is distributed on an "AS IS" BASIS,
  WITHOUT WARRANTIES OR CONDITIONS OF ANY KIND, either express or implied.
  See the License for the specific language governing permissions and
  limitations under the License.
-->

<!DOCTYPE svg PUBLIC "-//W3C//DTD SVG 1.1//EN" "http://www.w3.org/Graphics/SVG/1.1/DTD/svg11.dtd">
<svg version="1.1" id="Layer_1" xmlns="http://www.w3.org/2000/svg" xmlns:xlink="http://www.w3.org/1999/xlink" x="0px" y="0px" width="16px" height="16px" viewBox="0 0 16 16" enable-background="new 0 0 16 16" xml:space="preserve">
  <g>
    <path fill="currentColor" d="M15,4.75v10.5c0,0.414-0.336,0.75-0.75,0.75h-7.5C6.336,16,6,15.664,6,15.25V14H1.75 C1.336,14,1,13.664,1,13.25V6c0-0.414,0.242-0.992,0.531-1.281l3.188-3.188C5.008,1.242,5.586,1,6,1h3.25C9.664,1,10,1.336,10,1.75 v2.562C10.305,4.133,10.695,4,11,4h3.25C14.664,4,15,4.336,15,4.75z M9,5.25V2H6v3.25C6,5.664,5.664,6,5.25,6H2v7h4V9 c0-0.414,0.242-0.992,0.531-1.281L9,5.25z M2.664,5H5V2.664L2.664,5z M14,5h-3v3.25C11,8.664,10.664,9,10.25,9H7v6h7V5z M7.664,8 H10V5.664L7.664,8z"/>
  </g>
</svg>
