<?xml version="1.0" encoding="utf-8"?>
<!--
  Copyright 2015-2021 Hippo B.V. (http://www.onehippo.com)

  Licensed under the Apache License, Version 2.0 (the "License");
  you may not use this file except in compliance with the License.
  You may obtain a copy of the License at

   http://www.apache.org/licenses/LICENSE-2.0

  Unless required by applicable law or agreed to in writing, software
  distributed under the License is distributed on an "AS IS" BASIS,
  WITHOUT WARRANTIES OR CONDITIONS OF ANY KIND, either express or implied.
  See the License for the specific language governing permissions and
  limitations under the License.
-->
<!DOCTYPE svg PUBLIC "-//W3C//DTD SVG 1.1//EN" "http://www.w3.org/Graphics/SVG/1.1/DTD/svg11.dtd">
<svg width="32px" height="32px" viewBox="0 0 32 32" version="1.1" xmlns="http://www.w3.org/2000/svg">
  <g stroke="none" stroke-width="1" fill="none" fill-rule="evenodd">
    <path fill="currentColor" d="M16.0192308,9 L27.5,9 L27.5,24.5 C12.1666667,24.5 4.5,24.5 4.5,24.5 C4.5,24.5 4.5,18.3333333 4.5,6 L13.1346154,6 L16.0192308,9 Z M14.2,4 L5,4 C4,4 2.5,5 2.5,6 L2.5,24.5 C2.5,25.5 3.5,26.5 4.5,26.5 L27.5,26.5 C28.5,26.5 29.5,25.5 29.5,24.5 L29.5,9 C29.5,8 28.5,7 27.5,7 L17,7 L14.2,4 Z"/>
  </g>
</svg>