<?xml version="1.0" encoding="utf-8"?>
<!--
  Copyright 2015-2017 Hippo B.V. (http://www.onehippo.com)

  Licensed under the Apache License, Version 2.0 (the "License");
  you may not use this file except in compliance with the License.
  You may obtain a copy of the License at

   http://www.apache.org/licenses/LICENSE-2.0

  Unless required by applicable law or agreed to in writing, software
  distributed under the License is distributed on an "AS IS" BASIS,
  WITHOUT WARRANTIES OR CONDITIONS OF ANY KIND, either express or implied.
  See the License for the specific language governing permissions and
  limitations under the License.
-->

<!DOCTYPE svg PUBLIC "-//W3C//DTD SVG 1.1//EN" "http://www.w3.org/Graphics/SVG/1.1/DTD/svg11.dtd">
<svg version="1.1" id="Layer_1" xmlns="http://www.w3.org/2000/svg" xmlns:xlink="http://www.w3.org/1999/xlink" x="0px" y="0px" width="16px" height="16px" viewBox="0 0 16 16" enable-background="new 0 0 16 16" xml:space="preserve">
  <g>
    <path fill="currentColor" d="M13,9c0,1.028-0.973,1.969-2,1.969l-9.031,0.016C0.94,10.984,0,10.158,0,9.131V1.873 C0,0.844,0.845,0,1.873,0h2.674c1.029,0,1.812,0.971,1.812,2H7h4c1.027,0,2,0.896,2,1.923V9z M12,3.923C12,3.48,11.711,3,11.268,3 H5.881C5.438,3,5.359,2.583,5.359,2.14L5.351,1.873c0-0.444-0.352-0.912-0.795-0.912H1.79c-0.443,0-0.812,0.468-0.812,0.912v7.258 c0,0.441,0.359,0.885,0.803,0.885h9.562c0.443,0,0.656-0.701,0.656-1.144V3.923z M4.547,0c1.029,0,1.828,0.971,1.828,2"/>
 </g>
 <g>
   <g>
    <path fill="#22272F" d="M15,13.75c0,1.242-1.008,2.25-2.25,2.25h-4.5C7.008,16,6,14.992,6,13.75v-4.5C6,8.008,7.008,7,8.25,7h4.5 C13.992,7,15,8.008,15,9.25V13.75z"/>
  </g>
</g>
<polygon fill="#FFFFFF" points="11,9 10,9 10,11 8,11 8,12 10,12 10,14 11,14 11,12 13,12 13,11 11,11 "/>
</svg>
