<?xml version="1.0" encoding="utf-8"?>
<!--
  Copyright 2015-2017 Hippo B.V. (http://www.onehippo.com)

  Licensed under the Apache License, Version 2.0 (the "License");
  you may not use this file except in compliance with the License.
  You may obtain a copy of the License at

   http://www.apache.org/licenses/LICENSE-2.0

  Unless required by applicable law or agreed to in writing, software
  distributed under the License is distributed on an "AS IS" BASIS,
  WITHOUT WARRANTIES OR CONDITIONS OF ANY KIND, either express or implied.
  See the License for the specific language governing permissions and
  limitations under the License.
-->

<!DOCTYPE svg PUBLIC "-//W3C//DTD SVG 1.1//EN" "http://www.w3.org/Graphics/SVG/1.1/DTD/svg11.dtd">
<svg version="1.1" id="Layer_1" xmlns="http://www.w3.org/2000/svg" xmlns:xlink="http://www.w3.org/1999/xlink" x="0px" y="0px" width="16px" height="16px" viewBox="0 0 16 16" enable-background="new 0 0 16 16" xml:space="preserve">
  <g>
    <path fill="currentColor" d="M14,12.128C14,13.155,13.154,14,12.127,14H1.873C0.845,14,0,13.155,0,12.128V3.899 C0,2.87,0.845,2.026,1.873,2.026h2.674c1.029,0,1.874,0.844,1.874,1.873v0.127h5.706C13.154,4.026,14,4.87,14,5.897V12.128z M13.069,5.897c0-0.443-0.359-0.923-0.803-0.923H6.151c-0.442,0-0.801-0.238-0.801-0.681V3.899c0-0.444-0.352-0.912-0.795-0.912 H1.79c-0.443,0-0.812,0.468-0.812,0.912v8.229c0,0.442,0.359,0.924,0.803,0.924h10.485c0.443,0,0.803-0.481,0.803-0.924V5.897z"/>
  </g>
</svg>
