<?xml version="1.0" encoding="utf-8"?>
<!--
  Copyright 2015 Hippo B.V. (http://www.onehippo.com)

  Licensed under the Apache License, Version 2.0 (the "License");
  you may not use this file except in compliance with the License.
  You may obtain a copy of the License at

   http://www.apache.org/licenses/LICENSE-2.0

  Unless required by applicable law or agreed to in writing, software
  distributed under the License is distributed on an "AS IS" BASIS,
  WITHOUT WARRANTIES OR CONDITIONS OF ANY KIND, either express or implied.
  See the License for the specific language governing permissions and
  limitations under the License.
-->

<!DOCTYPE svg PUBLIC "-//W3C//DTD SVG 1.1//EN" "http://www.w3.org/Graphics/SVG/1.1/DTD/svg11.dtd">
<svg version="1.1" id="Layer_1" xmlns="http://www.w3.org/2000/svg" xmlns:xlink="http://www.w3.org/1999/xlink" x="0px" y="0px" width="16px" height="16px" viewBox="0 0 16 16" enable-background="new 0 0 16 16" xml:space="preserve">
  <g>
    <path fill="currentColor" d="M13,9.31c0,0.107-0.086,0.236-0.2,0.258l-1.325,0.2c-0.079,0.229-0.165,0.444-0.279,0.651 c0.243,0.352,0.501,0.666,0.767,0.988c0.043,0.051,0.071,0.115,0.071,0.18s-0.021,0.114-0.064,0.164 c-0.172,0.229-1.139,1.282-1.382,1.282c-0.064,0-0.129-0.028-0.187-0.064l-0.988-0.773c-0.208,0.107-0.43,0.2-0.651,0.272 C8.71,12.904,8.667,13.37,8.553,13.8C8.524,13.914,8.424,14,8.295,14h-1.59c-0.129,0-0.243-0.093-0.258-0.215l-0.2-1.317 c-0.223-0.072-0.438-0.158-0.645-0.266l-1.01,0.767c-0.051,0.043-0.115,0.064-0.18,0.064s-0.129-0.028-0.179-0.079 c-0.38-0.344-0.881-0.787-1.182-1.203c-0.036-0.05-0.05-0.107-0.05-0.164c0-0.064,0.021-0.115,0.057-0.165 c0.244-0.329,0.509-0.645,0.752-0.981C3.69,10.212,3.59,9.976,3.519,9.731L2.208,9.538C2.086,9.517,2,9.402,2,9.28V7.691 c0-0.107,0.086-0.236,0.193-0.258l1.332-0.201C3.597,7.003,3.69,6.789,3.805,6.574C3.562,6.23,3.304,5.908,3.038,5.585 c-0.043-0.05-0.071-0.107-0.071-0.172s0.028-0.115,0.064-0.165C3.203,5.012,4.17,3.967,4.413,3.967 c0.064,0,0.129,0.029,0.187,0.072l0.988,0.766c0.208-0.107,0.43-0.201,0.651-0.272C6.29,4.096,6.333,3.63,6.447,3.201 C6.476,3.086,6.576,3,6.705,3h1.59c0.129,0,0.243,0.093,0.258,0.215l0.2,1.318C8.976,4.604,9.19,4.69,9.397,4.797l1.018-0.766 c0.043-0.043,0.107-0.064,0.172-0.064s0.129,0.029,0.179,0.072c0.38,0.351,0.881,0.795,1.182,1.217 c0.036,0.043,0.05,0.1,0.05,0.158c0,0.064-0.021,0.114-0.057,0.165c-0.244,0.33-0.509,0.645-0.752,0.981 c0.121,0.229,0.222,0.466,0.293,0.702l1.311,0.2C12.914,7.483,13,7.598,13,7.719V9.31z M7.5,6.667c-1.01,0-1.833,0.824-1.833,1.833 S6.49,10.333,7.5,10.333S9.333,9.51,9.333,8.5S8.51,6.667,7.5,6.667z"/>
  </g>
</svg>
