<?xml version="1.0" encoding="utf-8"?>
<!--
  Copyright 2015 Hippo B.V. (http://www.onehippo.com)

  Licensed under the Apache License, Version 2.0 (the "License");
  you may not use this file except in compliance with the License.
  You may obtain a copy of the License at

   http://www.apache.org/licenses/LICENSE-2.0

  Unless required by applicable law or agreed to in writing, software
  distributed under the License is distributed on an "AS IS" BASIS,
  WITHOUT WARRANTIES OR CONDITIONS OF ANY KIND, either express or implied.
  See the License for the specific language governing permissions and
  limitations under the License.
-->

<!DOCTYPE svg PUBLIC "-//W3C//DTD SVG 1.1//EN" "http://www.w3.org/Graphics/SVG/1.1/DTD/svg11.dtd">
<svg version="1.1" id="Layer_1" xmlns="http://www.w3.org/2000/svg" xmlns:xlink="http://www.w3.org/1999/xlink" x="0px" y="0px" width="16px" height="16px" viewBox="0 0 16 16" enable-background="new 0 0 16 16" xml:space="preserve">
<g>
	<path fill="currentColor" d="M7.467,15.5c-3.779,0-6.904-3.075-6.966-6.856c-0.03-1.861,0.666-3.623,1.96-4.96c1.295-1.337,3.033-2.09,4.895-2.12 l0.115-0.001c3.779,0,6.904,3.075,6.966,6.855c0.03,1.861-0.666,3.623-1.962,4.96c-1.295,1.337-3.032,2.09-4.893,2.12L7.467,15.5z"/>
	<path fill="currentColor" d="M7.472,2.063c3.508,0,6.407,2.854,6.465,6.363c0.028,1.728-0.618,3.363-1.82,4.605 c-1.202,1.241-2.815,1.94-4.543,1.968L7.467,15c-3.508,0-6.408-2.854-6.466-6.364C0.973,6.908,1.619,5.273,2.82,4.032 c1.202-1.241,2.815-1.94,4.544-1.968L7.472,2.063 M7.471,1.063c-0.04,0-0.082,0-0.123,0.001C3.223,1.131-0.066,4.527,0.001,8.652 C0.067,12.736,3.397,16,7.467,16c0.041,0,0.082,0,0.123-0.001c4.122-0.066,7.414-3.464,7.347-7.589 C14.87,4.326,11.538,1.062,7.471,1.063L7.471,1.063z"/>
</g>
<path fill="#FFFFFF" d="M6.148,2.449C6.2,2.599,6.341,2.53,6.095,2.886C5.849,3.241,5.52,3.35,5.82,3.459 c0.302,0.11,0.413-0.3,0.767-0.328C6.943,3.105,7.162,3.105,7.19,2.803c0.025-0.301,0.219-0.41-0.057-0.463 c-0.271-0.056-0.355,0-0.52,0C6.452,2.34,6.122,2.365,6.148,2.449z"/>
<path fill="#FFFFFF" d="M12.951,11.782l0.377-0.54l0.285-0.838l0.073-0.924l0.258-0.629l0.14-0.657l-0.012-0.16l0.053-0.357 c0,0-0.346,0.543-0.376,0.544c-0.03,0-0.395-0.441-0.427-0.471c-0.025-0.029-1.066-1.588-1.036-1.589 c0.029,0,0.297,0.023,0.297,0.023s0.729,0.82,0.759,0.882c0.031,0.059,0.311,0.798,0.311,0.798s0.231-0.391,0.26-0.45 c0.03-0.061,0.023-0.507,0.021-0.596c-0.002-0.091-0.185-0.473-0.215-0.503c-0.031-0.03-0.206,0.153-0.206,0.153l-0.486-0.706 l0.537,0.287l0.155-0.542C12.84,3.723,11.244,2.36,9.316,1.786c0.307,0.145,0.643,0.343,0.503,0.468 C9.586,2.465,9.611,2.169,9.435,2.172c-0.181,0.002-0.599-0.17-0.622,0.216C8.787,2.778,8.764,2.955,8.911,3.014 C9.06,3.069,9.178,2.949,9.269,3.036c0.089,0.09,0.305,0.324,0.33,0.174c0.026-0.149-0.245-0.353-0.274-0.472 C9.292,2.62,9.199,2.352,9.318,2.44C9.44,2.528,9.502,2.705,9.59,2.765C9.681,2.821,9.945,2.58,9.978,2.758 c0.034,0.177-0.085,0.24,0.007,0.386c0.089,0.147,0.152,0.208-0.054,0.239C9.722,3.416,9.664,3.505,9.575,3.449 c-0.091-0.06-0.219-0.384-0.272-0.234c-0.058,0.15,0.001,0.059-0.026,0.239C9.249,3.63,9.31,3.721,9.16,3.752 C9.014,3.785,8.954,3.954,8.925,3.966C8.781,4.027,8.541,3.972,8.661,4.059c0.12,0.087,0.179-0.003,0.3,0.173 C9.083,4.409,9.2,4.435,9.084,4.528c-0.115,0.09-0.713,0.04-0.713,0.04l0.128,0.535l0.303,0.172L9.01,5.362 c0,0,0.321-0.304,0.353-0.304c0.025,0,0.113-0.329,0.113-0.329s0.203-0.302,0.232-0.302c0.031,0,0.229,0.028,0.229,0.028 s0.473,0.428,0.502,0.458c0.032,0.03-0.113,0.239-0.054,0.238c0.058,0,0.231-0.391,0.231-0.391l-0.616-0.546l0.238-0.004 l0.935,0.699l-0.005-0.296l0.106-0.715l0.45-0.007l-0.009-0.357c0,0,0.329,0.114,0.357,0.114c0.029,0,0.728,0.91,0.728,0.91 l-0.748-0.553l-0.085,0.329l-0.388,0.006l-0.177,0.299l0.483,0.291c0,0,0.387-0.006,0.387,0.023 c0.001,0.028,0.098,1.029,0.098,1.029l-0.621,0.04l-0.329,0.094l-0.025,0.239L10.618,6.04l-0.242-0.294l-0.122-0.088l-0.65,0.073 L9.188,5.943L8.863,5.979c0,0-0.284,0.311-0.285,0.282c0-0.031-0.584,0.663-0.584,0.663S8.008,7.848,8.01,7.876 c0,0.031,0.186,0.534,0.186,0.534l0.877,0.758l0.947-0.134c0,0,0.806,0.077,0.835,0.076c0.03,0,0.435,1.035,0.435,1.035l0.048,1.129 l-0.017,0.773l-0.017,0.861c0,0-0.024,0.389,0.006,0.389c0.029-0.002,0.711-0.191,0.711-0.191l0.498-0.572L12.951,11.782z"/>
<path fill="#FFFFFF" d="M4.961,2.547c0.371-0.104,0.44-0.384,0.453-0.535C3.295,2.718,1.635,4.427,1,6.578 c0.001,0.033,0.004,0.064,0.004,0.095c0,0.371,0.283,0.655,0.344,1.025c0.055,0.368,0.341,0.511,0.426,0.655 C1.857,8.495,1.942,8.522,1.66,9.178c-0.288,0.654,0.168,1.309,0.567,1.82c0.397,0.514,0.57,0.969,0.883,1.879 c0.312,0.912,1.054,1.564,1.422,1.68c0.37,0.114,0.201-0.028,0.201-0.028c-0.173-0.057-0.43-0.312-0.599-0.685 c-0.172-0.369,0.312-0.625,0.397-0.683c0.085-0.057,0.286-0.455,0.257-0.683s0.541-0.284,0.682-0.397 c0.146-0.114,0.146-0.4,0.116-0.654c-0.03-0.256,0.228-0.542,0.396-0.683c0.172-0.145-0.084-0.6-0.312-0.628 C5.442,10.09,4.277,9.292,4.164,9.091C4.05,8.893,3.14,8.095,2.854,7.897C2.57,7.698,1.773,7.584,1.574,7.272 C1.372,6.957,1.432,6.303,1.432,6.303C1.402,5.905,1.715,5.677,2,5.591c0.284-0.085,0.796,0.771,0.906,0.657 c0.119-0.114,0.119-0.4,0.144-0.456c0.028-0.059,0.369,0,1.04,0c1.04,0,0.699-1.88,1.097-1.965c0.4-0.086,0-0.427-0.226-0.654 c-0.228-0.228-0.143-0.599-0.4-0.258C4.304,3.258,4.135,3.628,3.963,3.144C3.793,2.662,4.447,2.688,4.961,2.547z"/>
</svg>
