<?xml version="1.0" encoding="utf-8"?>
<!--
  Copyright 2015 Hippo B.V. (http://www.onehippo.com)

  Licensed under the Apache License, Version 2.0 (the "License");
  you may not use this file except in compliance with the License.
  You may obtain a copy of the License at

   http://www.apache.org/licenses/LICENSE-2.0

  Unless required by applicable law or agreed to in writing, software
  distributed under the License is distributed on an "AS IS" BASIS,
  WITHOUT WARRANTIES OR CONDITIONS OF ANY KIND, either express or implied.
  See the License for the specific language governing permissions and
  limitations under the License.
-->

<!DOCTYPE svg PUBLIC "-//W3C//DTD SVG 1.1//EN" "http://www.w3.org/Graphics/SVG/1.1/DTD/svg11.dtd">
<svg version="1.1" id="Layer_1" xmlns="http://www.w3.org/2000/svg" xmlns:xlink="http://www.w3.org/1999/xlink" x="0px" y="0px"
	 width="32px" height="32px" viewBox="0 0 32 32" enable-background="new 0 0 32 32" xml:space="preserve">
<g>
	<path fill="currentColor" d="M18,22h1h4h1V10V9H14h-1H8v1v3v1v3v1v3v1h1H18z M19,10h4v3h-4V10z M19,14h4v3h-4V14z M19,18h4v3h-4V18z
		 M14,10h4v3h-4V10z M14,14h4v3h-4V14z M14,18h4v3h-4V18z M9,10h4v3H9V10z M9,14h4v3H9V14z M9,18h4v3H9V18z"/>
	<path fill="currentColor" d="M26,2H5.854C5.383,2,5,2.383,5,2.854v26.292C5,29.617,5.383,30,5.854,30h20.114C26.439,30,27,29.472,27,29
		c0,0,0-25,0-26S26,2,26,2z M26,29L5.998,29.049L6,2.941L26,3V29z"/>
</g>
</svg>
