<?xml version="1.0" encoding="utf-8"?>
<!--
  Copyright 2015-2017 Hippo B.V. (http://www.onehippo.com)

  Licensed under the Apache License, Version 2.0 (the "License");
  you may not use this file except in compliance with the License.
  You may obtain a copy of the License at

   http://www.apache.org/licenses/LICENSE-2.0

  Unless required by applicable law or agreed to in writing, software
  distributed under the License is distributed on an "AS IS" BASIS,
  WITHOUT WARRANTIES OR CONDITIONS OF ANY KIND, either express or implied.
  See the License for the specific language governing permissions and
  limitations under the License.
-->

<!DOCTYPE svg PUBLIC "-//W3C//DTD SVG 1.1//EN" "http://www.w3.org/Graphics/SVG/1.1/DTD/svg11.dtd">
<svg version="1.1" id="Layer_1" xmlns="http://www.w3.org/2000/svg" xmlns:xlink="http://www.w3.org/1999/xlink" x="0px" y="0px"
	 width="16px" height="16px" viewBox="0 0 16 16" enable-background="new 0 0 16 16" xml:space="preserve">
<path fill="currentColor" d="M14,3h1c0-0.562-0.468-1-0.968-1H1.854C1.383,2,1,2.441,1,2.912v10.233C1,13.617,1.383,14,1.854,14
	c0,0,10.463,0,12.146,0c0.149,0,0.237,0,0.234,0C14.204,14,15,13.617,15,13.146c0,0,0-0.061,0-0.146h-1v-1h1c0-1.998,0-6.094,0-8h-1
	V3z M3,13H2v-1h1V13z M3,4H2V3h1V4z M5,13H4v-1h1V13z M5,4H4V3h1V4z M7,13H6v-1h1V13z M7,4H6V3h1V4z M9,13H8v-1h1V13z M9,4H8V3h1V4z
	 M11,13h-1v-1h1V13z M11,4h-1V3h1V4z M13,13h-1v-1h1V13z M13,4h-1V3h1V4z"/>
<polygon points="6,11 6,5 10,8 "/>
</svg>
