<?xml version="1.0" encoding="utf-8"?>
<!--
  Copyright 2015 Hippo B.V. (http://www.onehippo.com)

  Licensed under the Apache License, Version 2.0 (the "License");
  you may not use this file except in compliance with the License.
  You may obtain a copy of the License at

   http://www.apache.org/licenses/LICENSE-2.0

  Unless required by applicable law or agreed to in writing, software
  distributed under the License is distributed on an "AS IS" BASIS,
  WITHOUT WARRANTIES OR CONDITIONS OF ANY KIND, either express or implied.
  See the License for the specific language governing permissions and
  limitations under the License.
-->

<!DOCTYPE svg PUBLIC "-//W3C//DTD SVG 1.1//EN" "http://www.w3.org/Graphics/SVG/1.1/DTD/svg11.dtd">
<svg version="1.1" id="Layer_1" xmlns="http://www.w3.org/2000/svg" xmlns:xlink="http://www.w3.org/1999/xlink" x="0px" y="0px"
	 width="32px" height="32px" viewBox="0 0 32 32" enable-background="new 0 0 32 32" xml:space="preserve">
<circle fill="currentColor" cx="15.073" cy="15.04" r="7.073"/>
<path d="M24.038,14.997C24.038,14.895,15,15,15,15V5.96C19.992,5.96,24.038,10.005,24.038,14.997z"/>
<path fill="currentColor" d="M24,14c0-0.093-8,0-8,0V6C20.466,6,24,9.533,24,14z"/>
<g>
	<path fill="currentColor" d="M27,3c0,1,0,26,0,26c0,0.472-0.561,1-1.031,1H5.854C5.383,30,5,29.617,5,29.146V2.854
		C5,2.383,5.383,2,5.854,2H26C26,2,27,2,27,3z M26,3L6,2.941L5.998,29.049L26,29V3z"/>
</g>
<rect x="12" y="19.125" fill="currentColor" width="14" height="10.875"/>
<g>
	<polygon points="22.509,22 21.509,22 20.509,23.666 19.509,22 18.509,22 20.009,24.5 18.509,27 19.509,27
		20.509,25.334 21.509,27 22.509,27 21.009,24.5 	"/>
	<rect x="24" y="22" width="1" height="5"/>
</g>
<path d="M18,23v-1h-3c0,0-1,0-1,1s0,1,0,1s0,1,1,1s2,0,2,0v1h-3v1c0,0,2,0,3,0s1-1,1-1v-1c0,0,0-1-1-1s-2,0-2,0v-1
	H18z"/>
</svg>
