<?xml version="1.0" encoding="utf-8"?>
<!--
  Copyright 2015-2017 Hippo B.V. (http://www.onehippo.com)

  Licensed under the Apache License, Version 2.0 (the "License");
  you may not use this file except in compliance with the License.
  You may obtain a copy of the License at

   http://www.apache.org/licenses/LICENSE-2.0

  Unless required by applicable law or agreed to in writing, software
  distributed under the License is distributed on an "AS IS" BASIS,
  WITHOUT WARRANTIES OR CONDITIONS OF ANY KIND, either express or implied.
  See the License for the specific language governing permissions and
  limitations under the License.
-->

<!DOCTYPE svg PUBLIC "-//W3C//DTD SVG 1.1//EN" "http://www.w3.org/Graphics/SVG/1.1/DTD/svg11.dtd">
<svg version="1.1" id="Layer_1" xmlns="http://www.w3.org/2000/svg" xmlns:xlink="http://www.w3.org/1999/xlink" x="0px" y="0px"
	 width="16px" height="16px" viewBox="0 0 16 16" enable-background="new 0 0 16 16" xml:space="preserve">
<g>
	<path fill="currentColor" d="M14,7.125C14,4.182,14,1.438,14,1c0-1-1-1-1-1H1.854C1.383,0,1,0.383,1,0.854v6.271H0V16h1.854h11.114H16
		V7.125H14z M2,1h11v6.125H1.999L2,1z"/>
	<rect x="3" y="5" fill="currentColor" width="7" height="1"/>
	<rect x="3" y="3" fill="currentColor" width="9" height="1"/>
</g>
<g>
	<polygon points="9.509,9 8.509,9 7.509,10.666 6.509,9 5.509,9 7.009,11.5 5.509,14 6.509,14 7.509,12.334
		8.509,14 9.509,14 8.009,11.5 	"/>
	<polygon points="14,9 13.375,12.125 13,11 12,11 11.625,12.125 11,9 10,9 11,14 12,14 12.5,12.5 13,14 14,14 15,9
		"/>
	<path d="M5,10V9H2c0,0-1,0-1,1s0,1,0,1s0,1,1,1s2,0,2,0v1H1v1c0,0,2,0,3,0s1-1,1-1v-1c0,0,0-1-1-1s-2,0-2,0v-1H5z"
		/>
</g>
</svg>
