<?xml version="1.0" encoding="utf-8"?>
<!--
  Copyright 2015-2017 Hippo B.V. (http://www.onehippo.com)

  Licensed under the Apache License, Version 2.0 (the "License");
  you may not use this file except in compliance with the License.
  You may obtain a copy of the License at

   http://www.apache.org/licenses/LICENSE-2.0

  Unless required by applicable law or agreed to in writing, software
  distributed under the License is distributed on an "AS IS" BASIS,
  WITHOUT WARRANTIES OR CONDITIONS OF ANY KIND, either express or implied.
  See the License for the specific language governing permissions and
  limitations under the License.
-->

<!DOCTYPE svg PUBLIC "-//W3C//DTD SVG 1.1//EN" "http://www.w3.org/Graphics/SVG/1.1/DTD/svg11.dtd">
<svg version="1.1" id="Layer_1" xmlns="http://www.w3.org/2000/svg" xmlns:xlink="http://www.w3.org/1999/xlink" x="0px" y="0px"
	 width="32px" height="32px" viewBox="0 0 32 32" enable-background="new 0 0 32 32" xml:space="preserve">
<path fill="currentColor" d="M29,5C29,5,4,5,3,5S2,6,2,6v20.146C2,26.617,2.383,27,2.854,27h26.292C29.617,27,30,26.617,30,26.146V6.031
	C30,5.561,29.472,5,29,5z M5,26H3v-2h2V26z M5,8H3V6h2V8z M9,26H7v-2h2V26z M9,8H7V6h2V8z M13,26h-2v-2h2V26z M13,8h-2V6h2V8z
	 M17,26h-2v-2h2V26z M17,8h-2V6h2V8z M21,26h-2v-2h2V26z M21,8h-2V6h2V8z M25,26h-2v-2h2V26z M25,8h-2V6h2V8z M29,26h-2v-2h2V26z
	 M29,8h-2V6h2V8z"/>
<polygon points="13,21 13,11 20,16 "/>
</svg>
