<?xml version="1.0" encoding="utf-8"?>
<!--
  Copyright 2015 Hippo B.V. (http://www.onehippo.com)

  Licensed under the Apache License, Version 2.0 (the "License");
  you may not use this file except in compliance with the License.
  You may obtain a copy of the License at

   http://www.apache.org/licenses/LICENSE-2.0

  Unless required by applicable law or agreed to in writing, software
  distributed under the License is distributed on an "AS IS" BASIS,
  WITHOUT WARRANTIES OR CONDITIONS OF ANY KIND, either express or implied.
  See the License for the specific language governing permissions and
  limitations under the License.
-->

<!DOCTYPE svg PUBLIC "-//W3C//DTD SVG 1.1//EN" "http://www.w3.org/Graphics/SVG/1.1/DTD/svg11.dtd">
<svg version="1.1" id="Layer_1" xmlns="http://www.w3.org/2000/svg" xmlns:xlink="http://www.w3.org/1999/xlink" x="0px" y="0px"
	 width="32px" height="32px" viewBox="0 0 32 32" enable-background="new 0 0 32 32" xml:space="preserve">
<g>
	<path fill="currentColor" d="M27,3c0,1,0,26,0,26c0,0.472-0.561,1-1.031,1H5.854C5.383,30,5,29.617,5,29.146V2.854
		C5,2.383,5.383,2,5.854,2H26C26,2,27,2,27,3z M26,3L6,2.941L5.998,29.049L26,29V3z"/>
</g>
<g>
	<path fill="currentColor" d="M10.39,11.061l1.438,5.421c0.287,1.195,0.575,2.323,0.774,3.43h0.065c0.244-1.084,0.598-2.234,0.952-3.407
		l1.748-5.443h1.637l1.659,5.354c0.398,1.262,0.708,2.412,0.952,3.496h0.066c0.177-1.084,0.464-2.213,0.818-3.474l1.526-5.377h1.925
		L20.501,21.77H18.73l-1.637-5.111c-0.376-1.217-0.687-2.278-0.952-3.54h-0.044c-0.266,1.283-0.598,2.412-0.974,3.562l-1.726,5.089
		h-1.77l-3.23-10.709H10.39z"/>
</g>
<rect x="16" y="19" fill="currentColor" width="11" height="10"/>
<polygon points="24,21.018 23,21.018 21.503,23.631 20,21 19,21 21.003,24.504 19,28 20,28 21.502,25.378 23,28
	24,28 22.003,24.504 "/>
</svg>
