<?xml version="1.0" encoding="utf-8"?>
<!--
  Copyright 2015 Hippo B.V. (http://www.onehippo.com)

  Licensed under the Apache License, Version 2.0 (the "License");
  you may not use this file except in compliance with the License.
  You may obtain a copy of the License at

   http://www.apache.org/licenses/LICENSE-2.0

  Unless required by applicable law or agreed to in writing, software
  distributed under the License is distributed on an "AS IS" BASIS,
  WITHOUT WARRANTIES OR CONDITIONS OF ANY KIND, either express or implied.
  See the License for the specific language governing permissions and
  limitations under the License.
-->

<!DOCTYPE svg PUBLIC "-//W3C//DTD SVG 1.1//EN" "http://www.w3.org/Graphics/SVG/1.1/DTD/svg11.dtd">
<svg version="1.1" id="Layer_1" xmlns="http://www.w3.org/2000/svg" xmlns:xlink="http://www.w3.org/1999/xlink" x="0px" y="0px"
	 width="16px" height="16px" viewBox="0 0 16 16" enable-background="new 0 0 16 16" xml:space="preserve">
<text transform="matrix(1 0 0 1 3 11.4414)" fill="currentColor" font-family="'Myriad-Roman'" font-size="12">w</text>
<g>
	<path fill="currentColor" d="M14,1c0,1,0,14,0,14c0,0.472-0.561,1-1.031,1H1.854C1.383,16,1,15.617,1,15.146V0.854
		C1,0.383,1.383,0,1.854,0H13C13,0,14,0,14,1z M13,1H2L1.998,15.049L7,15.026l0.034-5.992L13,9.047V1z"/>
</g>
<polygon points="12.494,10.018 11.494,10.018 10.481,11.661 9.5,10.029 8.441,10.029 9.96,12.507 8.441,14.971
	9.5,15 10.484,13.362 11.471,14.971 12.471,14.971 10.994,12.514 "/>
</svg>
