<?xml version="1.0" encoding="UTF-8"?>
<!--
Copyright 2019 Hippo B.V. (http://www.onehippo.com)

Licensed under the Apache License, Version 2.0 (the "License");
you may not use this file except in compliance with the License.
You may obtain a copy of the License at

 http://www.apache.org/licenses/LICENSE-2.0

Unless required by applicable law or agreed to in writing, software
distributed under the License is distributed on an "AS IS" BASIS,
WITHOUT WARRANTIES OR CONDITIONS OF ANY KIND, either express or implied.
See the License for the specific language governing permissions and
limitations under the License.
-->
<svg width="8px" height="32px" viewBox="0 0 8 32" version="1.1" xmlns="http://www.w3.org/2000/svg" xmlns:xlink="http://www.w3.org/1999/xlink">
  <g stroke="none" stroke-width="1" fill="none" fill-rule="evenodd">
    <g transform="translate(-20.000000, -8.000000)">
      <polygon points="0 0 48 0 48 48 0 48"></polygon>
      <path  fill="currentColor" d="M24,16 C26.2,16 28,14.2 28,12 C28,9.8 26.2,8 24,8 C21.8,8 20,9.8 20,12 C20,14.2 21.8,16 24,16 Z M24,20 C21.8,20 20,21.8 20,24 C20,26.2 21.8,28 24,28 C26.2,28 28,26.2 28,24 C28,21.8 26.2,20 24,20 Z M24,32 C21.8,32 20,33.8 20,36 C20,38.2 21.8,40 24,40 C26.2,40 28,38.2 28,36 C28,33.8 26.2,32 24,32 Z"></path>
    </g>
  </g>
</svg>
