<?xml version="1.0" encoding="utf-8"?>
<!--
  Copyright 2015-2017 Hippo B.V. (http://www.onehippo.com)

  Licensed under the Apache License, Version 2.0 (the "License");
  you may not use this file except in compliance with the License.
  You may obtain a copy of the License at

   http://www.apache.org/licenses/LICENSE-2.0

  Unless required by applicable law or agreed to in writing, software
  distributed under the License is distributed on an "AS IS" BASIS,
  WITHOUT WARRANTIES OR CONDITIONS OF ANY KIND, either express or implied.
  See the License for the specific language governing permissions and
  limitations under the License.
-->

<!DOCTYPE svg PUBLIC "-//W3C//DTD SVG 1.1//EN" "http://www.w3.org/Graphics/SVG/1.1/DTD/svg11.dtd">
<svg version="1.1" id="Layer_1" xmlns="http://www.w3.org/2000/svg" xmlns:xlink="http://www.w3.org/1999/xlink" x="0px" y="0px" width="16px" height="16px" viewBox="0 0 16 16" enable-background="new 0 0 16 16" xml:space="preserve">
  <g>
    <path fill="currentColor" d="M12,13c0,1,0,1-1,1H2c-1,0-1,0-1-1V4c0-1,1-1,1-1h7.75c0.312,0,0.625,0.062,0.914,0.195c0.07,0.031,0.125,0.102,0.141,0.18 c0.016,0.086-0.008,0.164-0.07,0.227l-0.383,0.383C10,4,9.117,4,9,4H2v9h9v-2.234c0-0.062,0.023-0.125,0.07-0.172l0.5-0.5 c0.078-0.078,0.18-0.094,0.273-0.055S12,10.164,12,10.266V13z M13.5,6.75L8.25,12H6V9.75l5.25-5.25L13.5,6.75z M8.844,10.344 L7.656,9.156L6.75,10.062V10.5H7.5v0.75h0.438L8.844,10.344z M11.117,5.633L8.383,8.367c-0.07,0.07-0.078,0.188-0.008,0.258 s0.188,0.062,0.258-0.008l2.734-2.734c0.07-0.07,0.078-0.188,0.008-0.258S11.188,5.562,11.117,5.633z M14,6.25L11.75,4l0.719-0.719 c0.289-0.289,0.773-0.289,1.062,0l1.188,1.188c0.289,0.289,0.289,0.773,0,1.062L14,6.25z"/>
  </g>
</svg>
