<?xml version="1.0" encoding="utf-8"?>
<!--
- Copyright 2015-2017 Hippo B.V. (http://www.onehippo.com)
-
- Licensed under the Apache License, Version 2.0 (the "License");
- you may not use this file except in compliance with the License.
- You may obtain a copy of the License at
-
- http://www.apache.org/licenses/LICENSE-2.0
-
- Unless required by applicable law or agreed to in writing, software
- distributed under the License is distributed on an "AS IS" BASIS,
- WITHOUT WARRANTIES OR CONDITIONS OF ANY KIND, either express or implied.
- See the License for the specific language governing permissions and
- limitations under the License.
-->

<!DOCTYPE svg PUBLIC "-//W3C//DTD SVG 1.1//EN" "http://www.w3.org/Graphics/SVG/1.1/DTD/svg11.dtd">
<svg version="1.1" id="Layer_1" xmlns="http://www.w3.org/2000/svg" xmlns:xlink="http://www.w3.org/1999/xlink" x="0px" y="0px" width="32px" height="32px" viewBox="0 0 32 32" enable-background="new 0 0 32 32" xml:space="preserve">
<g>
	<path fill="currentColor" d="M9.5,21.785c1.522,0,2.715,1.192,2.715,2.715s-1.192,2.715-2.715,2.715S6.785,26.022,6.785,24.5S7.978,21.785,9.5,21.785 M9.5,21C7.549,21,6,22.55,6,24.5C6,26.451,7.549,28,9.5,28c1.95,0,3.5-1.549,3.5-3.5C13,22.55,11.45,21,9.5,21L9.5,21z"/>
</g>
<g>
	<path fill="currentColor" d="M22.5,21.785c1.522,0,2.715,1.192,2.715,2.715s-1.192,2.715-2.715,2.715s-2.715-1.192-2.715-2.715 S20.978,21.785,22.5,21.785 M22.5,21c-1.951,0-3.5,1.55-3.5,3.5c0,1.951,1.549,3.5,3.5,3.5c1.95,0,3.5-1.549,3.5-3.5 C26,22.55,24.45,21,22.5,21L22.5,21z"/>
</g>
<polyline fill="none" stroke="currentColor" stroke-miterlimit="10" points="3,4.553 7.4,4.553 7.4,21.479 23,21.479 "/>
<polyline fill="none" stroke="currentColor" stroke-miterlimit="10" points="8.147,7.422 29,7.422 25,17.422 7.247,17.422 "/>
</svg>
