<?xml version="1.0" encoding="utf-8"?>
<!--
- Copyright 2015 Hippo B.V. (http://www.onehippo.com)
-
- Licensed under the Apache License, Version 2.0 (the "License");
- you may not use this file except in compliance with the License.
- You may obtain a copy of the License at
-
- http://www.apache.org/licenses/LICENSE-2.0
-
- Unless required by applicable law or agreed to in writing, software
- distributed under the License is distributed on an "AS IS" BASIS,
- WITHOUT WARRANTIES OR CONDITIONS OF ANY KIND, either express or implied.
- See the License for the specific language governing permissions and
- limitations under the License.
-->

<!DOCTYPE svg PUBLIC "-//W3C//DTD SVG 1.1//EN" "http://www.w3.org/Graphics/SVG/1.1/DTD/svg11.dtd">
<svg version="1.1" id="Layer_1" xmlns="http://www.w3.org/2000/svg" xmlns:xlink="http://www.w3.org/1999/xlink" x="0px" y="0px" width="16px" height="16px" viewBox="0 0 16 16" enable-background="new 0 0 16 16" xml:space="preserve">
<g>
  <path fill="currentColor" d="M4,4v10h7V4h1v10c0,1,0,1-1,1H4c-1,0-1,0-1-1V4L4,4z"/>
</g>
<g>
  <path fill="currentColor" d="M9,3V2H6v1H5V2c0-1,0-1,1-1h3c1,0,1,0,1,1v1H9z"/>
</g>
<rect fill="currentColor" x="7" y="5" width="1" height="8"/>
<rect fill="currentColor" x="5" y="5" width="1" height="8"/>
<rect fill="currentColor" x="9" y="5" width="1" height="8"/>
<polygon fill="currentColor" points="13,4 2,4 1.444,3.472 2,3 13,3 13.527,3.556 "/>
</svg>
