<?xml version="1.0" encoding="utf-8"?>
<!--
  Copyright 2021 Hippo B.V. (http://www.onehippo.com)

  Licensed under the Apache License, Version 2.0 (the "License");
  you may not use this file except in compliance with the License.
  You may obtain a copy of the License at

   http://www.apache.org/licenses/LICENSE-2.0

  Unless required by applicable law or agreed to in writing, software
  distributed under the License is distributed on an "AS IS" BASIS,
  WITHOUT WARRANTIES OR CONDITIONS OF ANY KIND, either express or implied.
  See the License for the specific language governing permissions and
  limitations under the License.
-->
<!DOCTYPE svg PUBLIC "-//W3C//DTD SVG 1.1//EN" "http://www.w3.org/Graphics/SVG/1.1/DTD/svg11.dtd"><svg xmlns="http://www.w3.org/2000/svg" version="1.1" width="16" height="16" viewBox="0 0 24 24">
  <path d="M10.78 12.05L13.81 11.79L15 9L16.19 11.79L19.22 12.05L16.92 14.04L17.61 17L15 15.47L12.39 17L13.08 14.04L10.78 12.05M22 8V18C22 19.11 21.11 20 20 20H4C2.9 20 2 19.11 2 18V6C2 4.89 2.9 4 4 4H10L12 6H20C21.11 6 22 6.9 22 8M20 8H4V18H20V8Z"/>
</svg>