<svg xmlns="http://www.w3.org/2000/svg" width="76" height="76" viewBox="0 0 76 76"><title>ss-icon_</title><polygon points="74.88 1.04 27.49 1.04 27.49 59.8 75.05 59.8 74.88 1.04" fill="#00acfb"/><path d="M76,60.75H26.54V.09H75.82Zm-47.57-1.9H74.1L73.93,2H28.43Z" fill="#0c3d6d"/><rect x="36.04" y="22.73" width="30.31" height="1.9" fill="#0c3d6d"/><rect x="36.04" y="15.14" width="30.31" height="1.9" fill="#0c3d6d"/><rect x="36.04" y="30.31" width="30.31" height="1.9" fill="#0c3d6d"/><rect x="36.04" y="37.89" width="30.31" height="1.9" fill="#0c3d6d"/><rect x="36.04" y="45.47" width="30.31" height="1.9" fill="#0c3d6d"/><polygon points="35.09 16.2 0.95 16.2 0.95 74.96 48.51 74.96 48.51 29.5 35.09 16.2" fill="#fff"/><path d="M49.46,75.91H0V15.25H35.48l14,13.85ZM1.9,74H47.56V29.89L34.7,17.15H1.9Z" fill="#0c3d6d"/><rect x="9.5" y="39.79" width="30.31" height="1.9" fill="#0c3d6d"/><rect x="9.5" y="47.37" width="30.31" height="1.9" fill="#0c3d6d"/><rect x="9.5" y="54.95" width="30.31" height="1.9" fill="#0c3d6d"/><rect x="9.5" y="62.53" width="22.73" height="1.9" fill="#0c3d6d"/><polygon points="47.74 30.83 33.76 30.83 33.76 16.46 35.65 16.46 35.65 28.93 47.74 28.93 47.74 30.83" fill="#0c3d6d"/><path d="M20.85,7.67a.48.48,0,0,1-.19.38l-7.11,5.21a.47.47,0,0,1-.76-.38V10a11,11,0,0,0-5.7,1.43l-.69.4a.47.47,0,0,1-.67-.59L6.27,10A7.56,7.56,0,0,1,12.8,5.32V2.46a.47.47,0,0,1,.75-.38l7.11,5.21a.47.47,0,0,1,.19.38Z" fill="#0c3d6d"/><path d="M55,68.33a.48.48,0,0,1,.19-.38l7.11-5.21a.47.47,0,0,1,.76.38V66a11,11,0,0,0,5.7-1.43l.69-.4a.47.47,0,0,1,.67.59L69.55,66A7.56,7.56,0,0,1,63,70.69v2.86a.47.47,0,0,1-.75.38l-7.11-5.21a.47.47,0,0,1-.19-.38Z" fill="#0c3d6d"/></svg>