<?xml version="1.0" encoding="utf-8"?>

<!--
  ~ Copyright 2015 Hippo B.V. (http://www.onehippo.com)
  ~ Licensed under the Apache License, Version 2.0 (the  "License");
  ~ you may not use this file except in compliance with the License.
  ~ You may obtain a copy of the License at
  ~
  ~ http://www.apache.org/licenses/LICENSE-2.0
  ~
  ~ Unless required by applicable law or agreed to in writing, software
  ~ distributed under the License is distributed on an "AS IS" BASIS,
  ~ WITHOUT WARRANTIES OR CONDITIONS OF ANY KIND, either express or implied.
  ~ See the License for the specific language governing permissions and
  ~ limitations under the License.
  -->

<!-- Generator: Adobe Illustrator 16.0.0, SVG Export Plug-In . SVG Version: 6.00 Build 0)  -->
<!DOCTYPE svg PUBLIC "-//W3C//DTD SVG 1.1//EN" "http://www.w3.org/Graphics/SVG/1.1/DTD/svg11.dtd">
<svg version="1.1" id="Layer_1" xmlns="http://www.w3.org/2000/svg" xmlns:xlink="http://www.w3.org/1999/xlink" x="0px" y="0px"
	 width="16px" height="16px" viewBox="0 0 16 16" enable-background="new 0 0 16 16" xml:space="preserve">
<g>
	<path fill="#0086f8" d="M14,11.75c0,1.242-1.008,2.25-2.25,2.25h-7.5C3.008,14,2,12.992,2,11.75v-7.5C2,3.008,3.008,2,4.25,2h7.5
		C12.992,2,14,3.008,14,4.25V11.75z M12,7.5C12,7.227,11.773,7,11.5,7H9V4.5C9,4.227,8.773,4,8.5,4h-1C7.227,4,7,4.227,7,4.5V7H4.5
		C4.227,7,4,7.227,4,7.5v1C4,8.773,4.227,9,4.5,9H7v2.5C7,11.773,7.227,12,7.5,12h1C8.773,12,9,11.773,9,11.5V9h2.5
		C11.773,9,12,8.773,12,8.5V7.5z"/>
</g>
</svg>
