<?xml version="1.0" encoding="utf-8"?>
<!--
  Copyright 2015 Hippo B.V. (http://www.onehippo.com)

  Licensed under the Apache License, Version 2.0 (the "License");
  you may not use this file except in compliance with the License.
  You may obtain a copy of the License at

  http://www.apache.org/licenses/LICENSE-2.0

  Unless required by applicable law or agreed to in writing, software
  distributed under the License is distributed on an "AS IS" BASIS,
  WITHOUT WARRANTIES OR CONDITIONS OF ANY KIND, either express or implied.
  See the License for the specific language governing permissions and
  limitations under the License.
 -->
<!-- Generator: Adobe Illustrator 16.0.0, SVG Export Plug-In . SVG Version: 6.00 Build 0)  -->
<!DOCTYPE svg PUBLIC "-//W3C//DTD SVG 1.1//EN" "http://www.w3.org/Graphics/SVG/1.1/DTD/svg11.dtd">
<svg version="1.1" xmlns="http://www.w3.org/2000/svg" xmlns:xlink="http://www.w3.org/1999/xlink" x="0px" y="0px" width="36px"
	 height="28px" viewBox="0 0 36 28" enable-background="new 0 0 36 28" xml:space="preserve">
<g id="Vector_lines" display="none">
	<g display="inline">
		<path d="M26.163,3.033c0.206,0,0.5,0.283,0.5,0.547v15.876c0,0.313-0.24,0.577-0.391,0.577H4.078
			c-0.415,0-0.415-0.177-0.415-0.234V3.486c0-0.255,0.252-0.453,0.469-0.453H26.163 M26.163,2.033H4.132
			c-0.768,0-1.469,0.646-1.469,1.453v16.312c0,0.807,0.646,1.234,1.415,1.234h22.194c0.768,0,1.391-0.769,1.391-1.577V3.58
			C27.663,2.773,26.932,2.033,26.163,2.033L26.163,2.033z"/>
	</g>
	<g display="inline">
		<path d="M31.163,10.033c0.206,0,0.5,0.283,0.5,0.547v15.838c0,0.33-0.262,0.615-0.391,0.615h-9.194
			c-0.415,0-0.415-0.177-0.415-0.234V10.486c0-0.255,0.252-0.453,0.469-0.453H31.163 M31.163,9.033h-9.031
			c-0.768,0-1.469,0.646-1.469,1.453v16.312c0,0.807,0.646,1.234,1.415,1.234h9.194c0.768,0,1.391-0.807,1.391-1.615V10.58
			C32.663,9.773,31.932,9.033,31.163,9.033L31.163,9.033z"/>
	</g>
	<path display="inline" d="M19.663,24.601c0,0.433-0.447,0.433-1,0.433l-7-0.026c-0.553,0-1,0.053-1-0.5l0,0
		c0-0.553,0.463-0.469,1.016-0.469l6.984-0.005C19.663,24.033,19.663,24.601,19.663,24.601z"/>
	<rect x="14.663" y="21.033" display="inline" width="1" height="3"/>
	<rect x="21.663" y="25.033" display="inline" width="10" height="2"/>
	<rect x="25.663" y="26.033" display="inline" width="2" height="1"/>
	<rect x="21.663" y="10.033" display="inline" width="10" height="13"/>
</g>
<g id="Outlines">
	<path d="M26.5,3C26.707,3,27,3.283,27,3.547v4.867h1V3.547C28,2.74,27.269,2,26.5,2l0,0H4.469C3.701,2,3,2.646,3,3.453v16.312
		C3,20.572,3.646,21,4.415,21h16.977l0.113-1H4.415C4,20,4,19.823,4,19.766V3.453C4,3.198,4.252,3,4.469,3H26.5"/>
	<path d="M20,24.567C20,25,19.553,25,19,25h-7c-0.553,0-1,0.026-1-0.526l0,0c0-0.553,0.463-0.469,1.016-0.469L19,24
		C20,24,20,24.567,20,24.567z"/>
	<rect x="15" y="21" width="1" height="3"/>
	<path d="M31.5,8h-9.031C21.701,8,21,8.646,21,9.453v17.312C21,27.572,21.646,28,22.415,28h9.194C32.377,28,33,27.193,33,26.385
		V9.547C33,8.74,32.269,8,31.5,8z M28,27h-2v-1h2V27z M32,25H22V9.453C22,9.198,22.252,9,22.469,9H31.5C31.707,9,32,9.283,32,9.547
		V25z"/>
</g>
</svg>
