<svg xmlns="http://www.w3.org/2000/svg" width="76" height="76" viewBox="0 0 76 76"><title>ss-icon_</title><polygon points="0 41.8 34.2 76 74.1 36.1 76 0 39.9 1.9 0 41.8" fill="#00acfb" fill-rule="evenodd"/><path d="M74,2,72.24,35.27l-38,38L2.69,41.8l38-38L74,2m2-2L39.9,1.9,0,41.8,34.2,76,74.1,36.1,76,0Z" fill="#0c3d6d"/><circle cx="59.85" cy="16.15" r="5.7" fill="#fff"/><path d="M59.85,12.35a3.8,3.8,0,1,1-3.8,3.8,3.8,3.8,0,0,1,3.8-3.8m0-1.9a5.7,5.7,0,1,0,5.7,5.7,5.7,5.7,0,0,0-5.7-5.7Z" fill="#0c3d6d"/><circle cx="29.14" cy="29.83" r="4.8" transform="translate(-12.56 29.34) rotate(-45)" fill="#fff"/><path d="M29.14,26.93a2.9,2.9,0,1,1-2.05.85,2.88,2.88,0,0,1,2.05-.85m0-1.9a4.8,4.8,0,1,0,3.39,1.41A4.79,4.79,0,0,0,29.14,25Z" fill="#fff"/><path d="M43.84,41.64a2.9,2.9,0,1,1-2.05.85,2.88,2.88,0,0,1,2.05-.85m0-1.9a4.8,4.8,0,1,0,3.39,1.41,4.79,4.79,0,0,0-3.39-1.41Z" fill="#fff"/><path d="M34.34,51.14a2.9,2.9,0,1,1-2.05.85,2.88,2.88,0,0,1,2.05-.85m0-1.9a4.8,4.8,0,1,0,3.39,1.41,4.79,4.79,0,0,0-3.39-1.41Z" fill="#fff"/><path d="M52.67,32.81a2.9,2.9,0,1,1-2.05.85,2.88,2.88,0,0,1,2.05-.85m0-1.9a4.8,4.8,0,1,0,3.39,1.41,4.79,4.79,0,0,0-3.39-1.41Z" fill="#fff"/><rect x="35.65" y="31.54" width="1.9" height="11.52" transform="translate(-15.65 36.81) rotate(-45)" fill="#fff"/><polygon points="30.28 51.33 25.19 46.24 44.87 26.57 49.95 31.65 48.61 32.99 44.87 29.25 27.88 46.24 31.62 49.98 30.28 51.33" fill="#fff"/></svg>