<svg xmlns="http://www.w3.org/2000/svg" width="76" height="76" viewBox="0 0 76 76"><title>ss-icon_</title><rect y="9.44" width="58.58" height="44.33" fill="#fff"/><path d="M57,11V52.19H1.58V11H57m1.58-1.58H0V53.78H58.58V9.44Z" fill="#0c3d6d"/><circle cx="35.8" cy="20.98" r="4.41" fill="#00acfb"/><path d="M35.8,18.15A2.83,2.83,0,1,1,33,21a2.83,2.83,0,0,1,2.83-2.83m0-1.58A4.41,4.41,0,1,0,40.21,21a4.41,4.41,0,0,0-4.41-4.41Z" fill="#0c3d6d"/><polygon points="7.13 43.09 24.77 25.45 32.12 32.8 36.53 28.39 51.23 43.09 7.13 43.09" fill="#00acfb"/><path d="M24.77,27.68,31,33.92,32.12,35l1.12-1.12,3.29-3.29L47.41,41.51H10.95L24.77,27.68m0-2.24L7.13,43.09H51.23l-14.7-14.7L32.12,32.8l-7.35-7.35Z" fill="#0c3d6d"/><path d="M72.83,48.75a14.41,14.41,0,0,0-.08-1.47L76,45.05a17.66,17.66,0,0,0-1.15-3.55l-3.94.11a14.28,14.28,0,0,0-1.73-2.38l1.32-3.71a17.85,17.85,0,0,0-3-2.19l-3.12,2.4a14.12,14.12,0,0,0-2.8-.91L60.45,31a17.86,17.86,0,0,0-3.73,0l-1.11,3.78a14.12,14.12,0,0,0-2.8.91l-3.12-2.4a17.85,17.85,0,0,0-3,2.19L48,39.24a14.28,14.28,0,0,0-1.73,2.38l-3.94-.11a17.66,17.66,0,0,0-1.15,3.55l3.25,2.23a14.38,14.38,0,0,0,0,2.95l-3.25,2.23A17.66,17.66,0,0,0,42.32,56l3.94-.11A14.28,14.28,0,0,0,48,58.27L46.67,62a17.85,17.85,0,0,0,3,2.19l3.12-2.4a14.12,14.12,0,0,0,2.8.91l1.11,3.78a17.86,17.86,0,0,0,3.73,0l1.11-3.78a14.12,14.12,0,0,0,2.8-.91l3.12,2.4a17.85,17.85,0,0,0,3-2.19l-1.32-3.71a14.28,14.28,0,0,0,1.73-2.38l3.94.11A17.66,17.66,0,0,0,76,52.45l-3.25-2.23A14.41,14.41,0,0,0,72.83,48.75Z" fill="#00acfb"/><path d="M58.58,32.53h.66l.8,2.73.27.9.92.2a12.58,12.58,0,0,1,2.49.81l.86.38.75-.58,2.25-1.73q.55.37,1.06.77l-1,2.68-.32.89.63.7a12.72,12.72,0,0,1,1.54,2.12l.47.81.94,0,2.84-.08q.23.62.41,1.25L71.86,46l-.78.53.1.94a12.78,12.78,0,0,1,0,2.62l-.1.94.78.53,2.35,1.61q-.18.63-.41,1.25L71,54.31l-.94,0-.47.81A12.75,12.75,0,0,1,68,57.21l-.63.7.32.89,1,2.68q-.51.41-1.06.77l-2.25-1.73-.75-.58-.86.38a12.57,12.57,0,0,1-2.49.81l-.92.2-.27.91L59.24,65H57.93l-.8-2.73-.27-.91-.92-.2a12.57,12.57,0,0,1-2.49-.81l-.86-.38-.75.58-2.25,1.73q-.55-.37-1.06-.77l1-2.68.32-.89-.63-.7a12.75,12.75,0,0,1-1.54-2.12l-.47-.81-.94,0-2.84.08q-.23-.62-.41-1.25l2.35-1.61.78-.53-.1-.94a12.78,12.78,0,0,1,0-2.62l.1-.94L45.31,46,43,44.37q.18-.63.41-1.25l2.84.08.94,0,.47-.81a12.72,12.72,0,0,1,1.54-2.12l.63-.7-.32-.89-1-2.68q.51-.41,1.06-.77L51.84,37l.75.58.86-.38a12.58,12.58,0,0,1,2.49-.81l.92-.2.27-.9.8-2.73h.66m0-1.58a18,18,0,0,0-1.86.1l-1.11,3.78a14.13,14.13,0,0,0-2.8.91l-3.12-2.4a17.86,17.86,0,0,0-3,2.19L48,39.24a14.28,14.28,0,0,0-1.73,2.38l-3.94-.11a17.67,17.67,0,0,0-1.15,3.55l3.25,2.23a14.35,14.35,0,0,0,0,2.95l-3.25,2.23A17.67,17.67,0,0,0,42.32,56l3.94-.11A14.28,14.28,0,0,0,48,58.27L46.67,62a17.86,17.86,0,0,0,3,2.19l3.12-2.4a14.12,14.12,0,0,0,2.8.91l1.11,3.78a17.86,17.86,0,0,0,3.73,0l1.11-3.78a14.12,14.12,0,0,0,2.8-.91l3.12,2.4a17.85,17.85,0,0,0,3-2.19l-1.32-3.71a14.28,14.28,0,0,0,1.73-2.38l3.94.11A17.67,17.67,0,0,0,76,52.45l-3.25-2.23a14.35,14.35,0,0,0,0-2.95L76,45.05a17.67,17.67,0,0,0-1.15-3.55l-3.94.11a14.28,14.28,0,0,0-1.73-2.38l1.32-3.71a17.85,17.85,0,0,0-3-2.19l-3.12,2.4a14.13,14.13,0,0,0-2.8-.91L60.45,31a18,18,0,0,0-1.86-.1Z" fill="#0c3d6d"/><circle cx="58.58" cy="48.75" r="8.19" fill="#fff"/><path d="M58.58,42.15A6.61,6.61,0,1,1,52,48.75a6.61,6.61,0,0,1,6.61-6.61m0-1.58a8.19,8.19,0,1,0,8.19,8.19,8.19,8.19,0,0,0-8.19-8.19Z" fill="#0c3d6d"/></svg>