<?xml version="1.0" encoding="utf-8"?>
<!--
  Copyright 2014 Hippo B.V. (http://www.onehippo.com)

  Licensed under the Apache License, Version 2.0 (the "License");
  you may not use this file except in compliance with the License.
  You may obtain a copy of the License at

       http://www.apache.org/licenses/LICENSE-2.0

  Unless required by applicable law or agreed to in writing, software
  distributed under the License is distributed on an "AS IS" BASIS,
  WITHOUT WARRANTIES OR CONDITIONS OF ANY KIND, either express or implied.
  See the License for the specific language governing permissions and
  limitations under the License.
-->
<!-- Generator: Adobe Illustrator 16.0.0, SVG Export Plug-In . SVG Version: 6.00 Build 0)  -->
<!DOCTYPE svg PUBLIC "-//W3C//DTD SVG 1.1//EN" "http://www.w3.org/Graphics/SVG/1.1/DTD/svg11.dtd">
<svg version="1.1" id="Layer_1" xmlns="http://www.w3.org/2000/svg" xmlns:xlink="http://www.w3.org/1999/xlink" x="0px" y="0px"
	 width="16px" height="16px" viewBox="0 0 16 16" enable-background="new 0 0 16 16" xml:space="preserve">
<g>
	<path fill="#4C4C4C" d="M8,12c0,0.273-0.227,0.5-0.5,0.5c-0.133,0-0.258-0.055-0.352-0.148l-1.125-1.125L3.43,13.82
		c-0.047,0.047-0.117,0.078-0.18,0.078s-0.133-0.031-0.18-0.078L2.18,12.93c-0.047-0.047-0.078-0.117-0.078-0.18
		s0.031-0.133,0.078-0.18l2.594-2.594L3.648,8.852C3.555,8.758,3.5,8.633,3.5,8.5C3.5,8.227,3.727,8,4,8h3.5C7.773,8,8,8.227,8,8.5
		V12z M13.82,3.43l-2.594,2.594l1.125,1.125C12.445,7.242,12.5,7.367,12.5,7.5C12.5,7.773,12.273,8,12,8H8.5C8.227,8,8,7.773,8,7.5
		V4c0-0.273,0.227-0.5,0.5-0.5c0.133,0,0.258,0.055,0.352,0.148l1.125,1.125L12.57,2.18c0.047-0.047,0.117-0.078,0.18-0.078
		s0.133,0.031,0.18,0.078L13.82,3.07c0.047,0.047,0.078,0.117,0.078,0.18S13.867,3.383,13.82,3.43z"/>
</g>
</svg>
