<?xml version="1.0" encoding="utf-8"?>
<!--
  Copyright 2014 Hippo B.V. (http://www.onehippo.com)

  Licensed under the Apache License, Version 2.0 (the "License");
  you may not use this file except in compliance with the License.
  You may obtain a copy of the License at

       http://www.apache.org/licenses/LICENSE-2.0

  Unless required by applicable law or agreed to in writing, software
  distributed under the License is distributed on an "AS IS" BASIS,
  WITHOUT WARRANTIES OR CONDITIONS OF ANY KIND, either express or implied.
  See the License for the specific language governing permissions and
  limitations under the License.
-->
<!-- Generator: Adobe Illustrator 16.0.0, SVG Export Plug-In . SVG Version: 6.00 Build 0)  -->
<!DOCTYPE svg PUBLIC "-//W3C//DTD SVG 1.1//EN" "http://www.w3.org/Graphics/SVG/1.1/DTD/svg11.dtd">
<svg version="1.1" id="Layer_1" xmlns="http://www.w3.org/2000/svg" xmlns:xlink="http://www.w3.org/1999/xlink" x="0px" y="0px"
	 width="32px" height="32px" viewBox="0 0 32 32" enable-background="new 0 0 32 32" xml:space="preserve">
<g>
	<g>
		<path d="M27,11v17c0,0.807-0.912,2-1.678,2H6.415c-0.769,0-1.392-0.656-1.392-1.463L5,3.462
			C5,2.654,5.623,2,6.391,2H18c0.77,0,1.841,0.471,2.378,1.036L26,9C26.534,9.565,27,10.192,27,11z M25,12l-6.585-0.116
			C17.648,11.884,17,10.805,17,10V4H7v24h18V12z M10.462,23h11.074C21.797,23,22,23.212,22,23.484v1.027
			C22,24.786,21.797,25,21.536,25H10.462C10.203,25,10,24.786,10,24.514v-1.027C10,23.212,10.203,23,10.462,23z M10.462,19h11.074
			C21.797,19,22,19.212,22,19.484v1.027C22,20.786,21.797,21,21.536,21H10.462C10.203,21,10,20.786,10,20.514v-1.027
			C10,19.212,10.203,19,10.462,19z M10.462,15h11.074C21.797,15,22,15.212,22,15.484v1.027C22,16.786,21.797,17,21.536,17H10.462
			C10.203,17,10,16.786,10,16.514v-1.027C10,15.212,10.203,15,10.462,15z M19,10l5.925,0.173c-0.086-0.257-0.22-0.519-0.321-0.625
			l-5.008-5.211C19.493,4.231,19.248,4.092,19,4V10z"/>
	</g>
</g>
</svg>
