<?xml version="1.0" encoding="utf-8"?>
<!--
  Copyright 2014 Hippo B.V. (http://www.onehippo.com)

  Licensed under the Apache License, Version 2.0 (the "License");
  you may not use this file except in compliance with the License.
  You may obtain a copy of the License at

       http://www.apache.org/licenses/LICENSE-2.0

  Unless required by applicable law or agreed to in writing, software
  distributed under the License is distributed on an "AS IS" BASIS,
  WITHOUT WARRANTIES OR CONDITIONS OF ANY KIND, either express or implied.
  See the License for the specific language governing permissions and
  limitations under the License.
-->
<!-- Generator: Adobe Illustrator 16.0.0, SVG Export Plug-In . SVG Version: 6.00 Build 0)  -->
<!DOCTYPE svg PUBLIC "-//W3C//DTD SVG 1.1//EN" "http://www.w3.org/Graphics/SVG/1.1/DTD/svg11.dtd">
<svg version="1.1" id="Layer_1" xmlns="http://www.w3.org/2000/svg" xmlns:xlink="http://www.w3.org/1999/xlink" x="0px" y="0px"
	 width="32px" height="32px" viewBox="0 0 32 32" enable-background="new 0 0 32 32" xml:space="preserve">
<g>
	<g>
		<path d="M32,13v17c0,0.807-0.912,2-1.678,2H11.415c-0.768,0-1.391-0.656-1.391-1.463L10,5.462
			C10,4.654,10.623,4,11.391,4H23c0.77,0,1.841,0.471,2.378,1.036L31,11C31.534,11.565,32,12.192,32,13z M30,14l-6.585-0.116
			C22.649,13.884,22,12.805,22,12V6H12v24h18V14z M15.462,25h11.074C26.797,25,27,25.212,27,25.485v1.027
			C27,26.786,26.797,27,26.536,27H15.462C15.203,27,15,26.786,15,26.513v-1.027C15,25.212,15.203,25,15.462,25z M15.462,21h11.074
			C26.797,21,27,21.212,27,21.485v1.027C27,22.786,26.797,23,26.536,23H15.462C15.203,23,15,22.786,15,22.513v-1.027
			C15,21.212,15.203,21,15.462,21z M15.462,17h11.074C26.797,17,27,17.212,27,17.485v1.027C27,18.786,26.797,19,26.536,19H15.462
			C15.203,19,15,18.786,15,18.513v-1.027C15,17.212,15.203,17,15.462,17z M24,12l5.925,0.173c-0.086-0.257-0.22-0.519-0.321-0.625
			l-5.009-5.211C24.493,6.231,24.248,6.092,24,6V12z"/>
	</g>
</g>
</svg>
