<?xml version="1.0" encoding="utf-8"?>
<!-- Generator: Adobe Illustrator 16.0.0, SVG Export Plug-In . SVG Version: 6.00 Build 0)  -->
<!DOCTYPE svg PUBLIC "-//W3C//DTD SVG 1.1//EN" "http://www.w3.org/Graphics/SVG/1.1/DTD/svg11.dtd">
<svg version="1.1" id="Layer_1" xmlns="http://www.w3.org/2000/svg" xmlns:xlink="http://www.w3.org/1999/xlink" x="0px" y="0px"
	 width="16px" height="16px" viewBox="0 0 16 16" enable-background="new 0 0 16 16" xml:space="preserve">
<g>
	<g>
		<path fill="#00A8E7" d="M15,4.839v10.248c0,0.472-0.383,0.854-0.854,0.854H2.19c-0.472,0-0.854-0.383-0.854-0.854V0.854
			C1.336,0.382,1.719,0,2.19,0h7.97c0.473,0,1.131,0.275,1.461,0.605l2.775,2.775C14.725,3.71,15,4.368,15,4.839z M13.861,5.693
			H10.16c-0.471,0-0.854-0.383-0.854-0.854V1.139H2.475v13.664h11.387V5.693z M5.037,6.832h6.262c0.16,0,0.285,0.125,0.285,0.285
			v0.569c0,0.16-0.125,0.285-0.285,0.285H5.037c-0.16,0-0.284-0.125-0.284-0.285V7.117C4.752,6.957,4.877,6.832,5.037,6.832z
			 M11.584,9.395v0.569c0,0.159-0.125,0.284-0.285,0.284H5.037c-0.16,0-0.284-0.125-0.284-0.284V9.395
			c0-0.16,0.125-0.285,0.284-0.285h6.262C11.459,9.109,11.584,9.234,11.584,9.395z M11.584,11.671v0.57
			c0,0.159-0.125,0.284-0.285,0.284H5.037c-0.16,0-0.284-0.125-0.284-0.284v-0.57c0-0.159,0.125-0.284,0.284-0.284h6.262
			C11.459,11.387,11.584,11.512,11.584,11.671z M10.445,4.555h3.346c-0.053-0.151-0.135-0.302-0.197-0.365l-2.783-2.784
			c-0.062-0.062-0.213-0.143-0.365-0.196V4.555z"/>
	</g>
</g>
</svg>
