<?xml version="1.0" encoding="utf-8"?>
<!--
  Copyright 2014 Hippo B.V. (http://www.onehippo.com)

  Licensed under the Apache License, Version 2.0 (the "License");
  you may not use this file except in compliance with the License.
  You may obtain a copy of the License at

       http://www.apache.org/licenses/LICENSE-2.0

  Unless required by applicable law or agreed to in writing, software
  distributed under the License is distributed on an "AS IS" BASIS,
  WITHOUT WARRANTIES OR CONDITIONS OF ANY KIND, either express or implied.
  See the License for the specific language governing permissions and
  limitations under the License.
-->
<!-- Generator: Adobe Illustrator 16.0.0, SVG Export Plug-In . SVG Version: 6.00 Build 0)  -->
<!DOCTYPE svg PUBLIC "-//W3C//DTD SVG 1.1//EN" "http://www.w3.org/Graphics/SVG/1.1/DTD/svg11.dtd">
<svg version="1.1" id="Layer_1" xmlns="http://www.w3.org/2000/svg" xmlns:xlink="http://www.w3.org/1999/xlink" x="0px" y="0px"
	 width="32px" height="32px" viewBox="0 0 32 32" enable-background="new 0 0 32 32" xml:space="preserve">
<g>
	<path d="M29.947,24.201c0,2.055-1.691,3.744-3.746,3.744H5.875c-2.057,0-3.746-1.689-3.746-3.744V7.743
		c0-2.059,1.656-3.713,3.713-3.713l5.381,0.033c1.497,0,3.748,1.622,3.748,3.681v0.304h11.23c2.055,0,3.746,1.639,3.746,3.693
		V24.201z M28.086,11.74c0-0.886-0.719-1.847-1.605-1.847H14.673c-0.885,0-1.602-0.477-1.602-1.361V7.743
		c0-0.888-0.703-1.743-1.59-1.743H5.709C4.822,6,3.984,6.855,3.984,7.743v16.458c0,0.885,0.82,1.848,1.707,1.848H26.48
		c0.887,0,1.605-0.963,1.605-1.848V11.74z"/>
</g>
</svg>
