<?xml version="1.0" encoding="utf-8"?>
<!--
  Copyright 2015 Hippo B.V. (http://www.onehippo.com)

    Licensed under the Apache License, Version 2.0 (the "License");
    you may not use this file except in compliance with the License.
    You may obtain a copy of the License at

    http://www.apache.org/licenses/LICENSE-2.0

    Unless required by applicable law or agreed to in writing, software
    distributed under the License is distributed on an "AS IS" BASIS,
    WITHOUT WARRANTIES OR CONDITIONS OF ANY KIND, either express or implied.
    See the License for the specific language governing permissions and
    limitations under the License.
  -->

<!-- Generator: Adobe Illustrator 16.0.0, SVG Export Plug-In . SVG Version: 6.00 Build 0)  -->
<!DOCTYPE svg PUBLIC "-//W3C//DTD SVG 1.1//EN" "http://www.w3.org/Graphics/SVG/1.1/DTD/svg11.dtd">
<svg version="1.1" id="Layer_1" xmlns="http://www.w3.org/2000/svg" xmlns:xlink="http://www.w3.org/1999/xlink" x="0px" y="0px"
	 width="16px" height="16px" viewBox="0 0 16 16" enable-background="new 0 0 16 16" xml:space="preserve">
<g>
	<path d="M12.396,12.928l-2.42,2.467C9.646,15.725,8.988,16,8.516,16H2.854C2.383,16,2,15.617,2,15.146V2.854
		C2,2.383,2.383,2,2.854,2h9.114C12.439,2,13,2.528,13,3v8.469C13,11.94,12.725,12.598,12.396,12.928z M12,3L2.998,2.951L3,15.059h5
		v-3c0-0.471,0.529-1,1-1h3V3z M4,8.715v-0.43C4,8.125,4.125,8,4.284,8h6.431C10.875,8,11,8.125,11,8.285v0.43
		C11,8.875,10.875,9,10.715,9H4.284C4.125,9,4,8.875,4,8.715z M4,6.716V6.285C4,6.125,4.125,6,4.284,6h6.431
		C10.875,6,11,6.125,11,6.285v0.431C11,6.876,10.875,7,10.715,7H4.284C4.125,7,4,6.876,4,6.716z M4,4.716V4.285
		C4,4.125,4.125,4,4.284,4h6.431C10.875,4,11,4.125,11,4.285v0.431C11,4.876,10.875,5,10.715,5H4.284C4.125,5,4,4.876,4,4.716z
		 M9,15.059c0.152-0.054,0.303-0.135,0.365-0.196l2.438-2.438c0.062-0.062,0.129-0.273,0.182-0.424l-3-0.031L9,15.059z"/>
</g>
</svg>
