<?xml version="1.0" encoding="utf-8"?>
<!--
  Copyright 2014 Hippo B.V. (http://www.onehippo.com)

  Licensed under the Apache License, Version 2.0 (the "License");
  you may not use this file except in compliance with the License.
  You may obtain a copy of the License at

       http://www.apache.org/licenses/LICENSE-2.0

  Unless required by applicable law or agreed to in writing, software
  distributed under the License is distributed on an "AS IS" BASIS,
  WITHOUT WARRANTIES OR CONDITIONS OF ANY KIND, either express or implied.
  See the License for the specific language governing permissions and
  limitations under the License.
-->
<!-- Generator: Adobe Illustrator 16.0.0, SVG Export Plug-In . SVG Version: 6.00 Build 0)  -->
<!DOCTYPE svg PUBLIC "-//W3C//DTD SVG 1.1//EN" "http://www.w3.org/Graphics/SVG/1.1/DTD/svg11.dtd">
<svg version="1.1" id="Layer_1" xmlns="http://www.w3.org/2000/svg" xmlns:xlink="http://www.w3.org/1999/xlink" x="0px" y="0px"
	 width="16px" height="16px" viewBox="0 0 16 16" enable-background="new 0 0 16 16" xml:space="preserve">
<g>
	<path class="hi-shape-circle" d="M5.936,11.872C2.66,11.872,0,9.212,0,5.936C0,2.659,2.66,0,5.936,0c3.277,0,5.938,2.659,5.938,5.936
		C11.873,9.212,9.213,11.872,5.936,11.872z"/>
</g>
<g>
	<path class="hi-shape-checkmark" d="M9.4,4.118L8.856,3.583C8.763,3.49,8.64,3.436,8.508,3.436c-0.131,0-0.255,0.054-0.348,0.146L4.982,6.717
		L3.26,4.981C3.167,4.889,3.042,4.835,2.911,4.835c-0.132,0-0.254,0.054-0.348,0.146L2.018,5.519
		C1.926,5.611,1.879,5.744,1.879,5.874c0,0.131,0.047,0.255,0.139,0.348L4.655,8.86c0.094,0.092,0.226,0.146,0.348,0.146
		c0.133,0,0.263-0.054,0.356-0.146L9.4,4.821c0.092-0.093,0.138-0.216,0.138-0.348C9.538,4.342,9.492,4.211,9.4,4.118z"/>
</g>
<path class="hi-shape-triangle" d="M15.608,13.454C16.312,14.875,15.75,16,14.646,16H6.312c-1.104,0-1.854-0.874-0.901-2.452l3.17-5.604
	c0.527-1.056,0.896-1.926,2-1.926l0,0c1.104,0,1.473,0.87,2,1.926L15.608,13.454z"/>
<path class="hi-shape-exclamation-mark" d="M11.342,13.548c0,0.466-0.376,0.842-0.842,0.842l0,0c-0.466,0-0.842-0.376-0.842-0.842l0,0
	c0-0.466,0.376-0.842,0.842-0.842l0,0C10.966,12.706,11.342,13.082,11.342,13.548L11.342,13.548z"/>
<polygon class="hi-shape-exclamation-mark" points="10.883,11.84 10.117,11.84 9.875,8.973 11.109,8.973 "/>
</svg>
