<?xml version="1.0" encoding="utf-8"?>
<!-- Generator: Adobe Illustrator 16.0.0, SVG Export Plug-In . SVG Version: 6.00 Build 0)  -->
<!DOCTYPE svg PUBLIC "-//W3C//DTD SVG 1.1//EN" "http://www.w3.org/Graphics/SVG/1.1/DTD/svg11.dtd">
<svg version="1.1" id="Layer_1" xmlns="http://www.w3.org/2000/svg" xmlns:xlink="http://www.w3.org/1999/xlink" x="0px" y="0px"
	 width="16px" height="16px" viewBox="0 0 16 16" enable-background="new 0 0 16 16" xml:space="preserve">
<g>
	<path fill="#F45151" d="M8,15.951c-4.416,0-8-3.584-8-8c0-4.417,3.584-8,8-8c4.417,0,8.001,3.583,8.001,8
		C16.001,12.367,12.417,15.951,8,15.951z"/>
</g>
<g>
	<path fill="#FFFFFF" d="M13.354,8.615l-0.008-1.334c0-0.177-0.066-0.346-0.191-0.471s-0.295-0.192-0.471-0.192H3.316
		c-0.177,0-0.348,0.081-0.472,0.205C2.719,6.949,2.646,7.111,2.646,7.287v1.327C2.647,8.79,2.72,8.966,2.838,9.084
		c0.125,0.125,0.303,0.197,0.479,0.199l9.367,0.002c0.176-0.002,0.338-0.074,0.463-0.199C13.271,8.96,13.354,8.791,13.354,8.615z"/>
</g>
</svg>
