<?xml version="1.0" encoding="utf-8"?>
<!--
  Copyright 2014 Hippo B.V. (http://www.onehippo.com)

  Licensed under the Apache License, Version 2.0 (the "License");
  you may not use this file except in compliance with the License.
  You may obtain a copy of the License at

       http://www.apache.org/licenses/LICENSE-2.0

  Unless required by applicable law or agreed to in writing, software
  distributed under the License is distributed on an "AS IS" BASIS,
  WITHOUT WARRANTIES OR CONDITIONS OF ANY KIND, either express or implied.
  See the License for the specific language governing permissions and
  limitations under the License.
-->
<!-- Generator: Adobe Illustrator 16.0.0, SVG Export Plug-In . SVG Version: 6.00 Build 0)  -->
<!DOCTYPE svg PUBLIC "-//W3C//DTD SVG 1.1//EN" "http://www.w3.org/Graphics/SVG/1.1/DTD/svg11.dtd">
<svg version="1.1" id="Layer_1" xmlns="http://www.w3.org/2000/svg" xmlns:xlink="http://www.w3.org/1999/xlink" x="0px" y="0px"
	 width="32px" height="32px" viewBox="0 0 32 32" enable-background="new 0 0 32 32" xml:space="preserve">
<g>
	<path class="hi-shape-circle" d="M8,16c-4.416,0-8-3.584-8-8c0-4.417,3.584-8,8-8c4.417,0,8.001,3.583,8.001,8C16.001,12.416,12.417,16,8,16z"/>
</g>
<g>
	<path class="hi-shape-checkmark" d="M12.797,5.358l-0.563-0.583c-0.125-0.125-0.291-0.197-0.469-0.197c-0.176,0-0.344,0.072-0.469,0.197
		L7.032,9L4.689,6.661C4.564,6.535,4.398,6.463,4.221,6.463S3.877,6.535,3.754,6.661l-0.595,0.63
		C3.035,7.416,2.972,7.594,2.972,7.77c0,0.178,0.063,0.345,0.188,0.469l3.404,3.215c0.125,0.124,0.302,0.197,0.468,0.197
		c0.178,0,0.355-0.073,0.48-0.197l5.285-5.146c0.123-0.126,0.186-0.292,0.186-0.469C12.982,5.66,12.92,5.483,12.797,5.358z"/>
</g>
<g>
	<path class="hi-shape-triangle" d="M1.948,31.5c-0.616,0-1.094-0.219-1.31-0.602c-0.284-0.504-0.134-1.289,0.424-2.212l4.626-8.176
		c0.125-0.25,0.234-0.481,0.342-0.711c0.669-1.426,1.13-2.3,2.137-2.3c0.985,0,1.464,0.868,2.136,2.299
		c0.107,0.229,0.217,0.462,0.33,0.689l4.419,8.044c0.455,0.918,0.521,1.819,0.165,2.393c-0.234,0.376-0.624,0.575-1.129,0.575H1.948
		z"/>
	<path class="hi-shape-triangle-border" fill="#B7A137" d="M8.167,18c0.669,0,1.026,0.613,1.683,2.012c0.109,0.233,0.221,0.469,0.354,0.734l4.391,7.989
		c0.455,0.919,0.4,1.598,0.196,1.926C14.651,30.886,14.415,31,14.088,31H1.948c-0.425,0-0.751-0.13-0.874-0.347
		c-0.144-0.255-0.109-0.838,0.431-1.733l4.618-8.163l0.013-0.022l0.012-0.022c0.115-0.231,0.226-0.467,0.336-0.7
		C7.14,18.613,7.497,18,8.167,18 M8.167,17c-1.609,0-2.146,1.727-2.914,3.265l-4.618,8.163C-0.754,30.727,0.339,32,1.948,32h12.14
		c1.609,0,2.429-1.639,1.402-3.709l-4.41-8.026C10.312,18.727,9.775,17,8.167,17L8.167,17z"/>
</g>
<path class="hi-shape-exclamation-mark" d="M9.233,28.505c0,0.68-0.547,1.227-1.226,1.227l0,0c-0.679,0-1.227-0.547-1.227-1.227l0,0
	c0-0.678,0.548-1.227,1.227-1.227l0,0C8.687,27.278,9.233,27.827,9.233,28.505L9.233,28.505z"/>
<polygon class="hi-shape-exclamation-mark" points="8.438,26 7.562,26 7,21.812 8.984,21.797 "/>
</svg>