<?xml version="1.0" encoding="utf-8"?>
<!--
  Copyright 2014-2015 Hippo B.V. (http://www.onehippo.com)

  Licensed under the Apache License, Version 2.0 (the "License");
  you may not use this file except in compliance with the License.
  You may obtain a copy of the License at

       http://www.apache.org/licenses/LICENSE-2.0

  Unless required by applicable law or agreed to in writing, software
  distributed under the License is distributed on an "AS IS" BASIS,
  WITHOUT WARRANTIES OR CONDITIONS OF ANY KIND, either express or implied.
  See the License for the specific language governing permissions and
  limitations under the License.
-->
<!-- Generator: Adobe Illustrator 16.0.0, SVG Export Plug-In . SVG Version: 6.00 Build 0)  -->
<!DOCTYPE svg PUBLIC "-//W3C//DTD SVG 1.1//EN" "http://www.w3.org/Graphics/SVG/1.1/DTD/svg11.dtd">
<svg version="1.1" id="Layer_1" xmlns="http://www.w3.org/2000/svg" xmlns:xlink="http://www.w3.org/1999/xlink" x="0px" y="0px"
	 width="32px" height="32px" viewBox="0 0 32 32" enable-background="new 0 0 32 32" xml:space="preserve">
<g>
	<path class="hi-shape-circle" d="M7.538,14.922c-4.118,0-7.461-3.343-7.461-7.461C0.077,3.342,3.42,0,7.538,0C11.658,0,15,3.342,15,7.461
		C15,11.58,11.658,14.922,7.538,14.922z"/>
</g>
<polygon class="hi-shape-checkmark" points="11.369,4.083 10.498,3.592 6.736,10.265 4.365,6.925 3.55,7.504 6.812,12.125 "/>
<g>
	<path class="hi-shape-triangle" d="M1.818,31.533c-0.575,0-1.021-0.204-1.222-0.562c-0.266-0.47-0.125-1.203,0.396-2.064l4.021-7.644
		c0.692-1.384,1.398-2.797,2.609-2.797c1.077,0,1.708,1.289,2.318,2.535l0.195,0.395l3.909,7.36
		c0.428,0.863,0.488,1.705,0.156,2.239c-0.218,0.352-0.582,0.537-1.053,0.537H1.818z"/>
	<path class="hi-shape-triangle-border" d="M7.622,18.934c0.729,0,1.247,0.942,1.899,2.273l0.207,0.418l3.893,7.327
		c0.425,0.858,0.374,1.492,0.184,1.798c-0.13,0.21-0.351,0.316-0.656,0.316H1.818c-0.396,0-0.701-0.121-0.815-0.323
		c-0.135-0.238-0.103-0.781,0.389-1.595l0.015-0.023l0.013-0.024l4.02-7.645C6.177,19.979,6.766,18.934,7.622,18.934 M7.622,18
		C6.12,18,5.317,19.611,4.6,21.047l-4.007,7.619C-0.704,30.812,0.316,32,1.818,32h11.33c1.502,0,2.267-1.529,1.309-3.462
		l-3.904-7.351C9.835,19.752,9.124,18,7.622,18L7.622,18z"/>
</g>
<rect x="7" y="23" class="hi-shape-exclamation-mark" width="1" height="5"/>
<rect x="7" y="29" class="hi-shape-exclamation-mark" width="1" height="1"/>
</svg>