<svg xmlns="http://www.w3.org/2000/svg" width="76" height="76" viewBox="0 0 76 76"><title>ss-icon_</title><path d="M56.71,35.35,21.28,48.58C13.45,51.5,9.1,59.22,11.56,65.81h0C14,72.4,23.45,76,31.45,75.81a54.61,54.61,0,0,0,18.79-3.73,54.61,54.61,0,0,0,16.64-9.51c6.18-5.07,10.92-14,8.46-20.58h0C72.88,35.4,64.53,32.42,56.71,35.35Z" fill="#00acfb"/><path d="M62.83,36.11c5,0,9.25,2.57,10.74,6.54,2.15,5.74-2.33,13.9-7.89,18.46l0,0,0,0a53.44,53.44,0,0,1-16,9.13,54.11,54.11,0,0,1-17.85,3.61h-1c-6.85,0-15.28-3.08-17.41-8.78s1.77-12.24,8.6-14.79L57.37,37.12a15.56,15.56,0,0,1,5.46-1m0-1.89a17.51,17.51,0,0,0-6.12,1.12L21.28,48.58C13.45,51.5,9.1,59.22,11.56,65.81h0c2.39,6.4,11.35,10,19.19,10h1a55.94,55.94,0,0,0,18.51-3.73,54.62,54.62,0,0,0,16.64-9.51c6.18-5.07,10.92-14,8.46-20.58-1.82-4.87-6.85-7.77-12.51-7.77Z" fill="#0c3d6d"/><path d="M13.68,67.07,12.2,65.89c.38-.47,9.47-11.52,29.91-14.53C57.59,49.08,66.89,34.91,67,34.76l1.59,1c-.4.61-9.88,15-26.19,17.44a53.7,53.7,0,0,0-21.81,8A32.78,32.78,0,0,0,13.68,67.07Z" fill="#0c3d6d"/><path d="M13.92,1l25.56,9.55c5.65,2.11,8.78,7.67,7,12.43h0c-1.78,4.75-8.58,7.37-14.34,7.21a39.4,39.4,0,0,1-13.56-2.69,39.4,39.4,0,0,1-12-6.86C2.12,17-1.3,10.54.48,5.79h0C2.25,1,8.27-1.11,13.92,1Z" fill="#00acfb"/><path d="M9.5.18V2.08a10.7,10.7,0,0,1,3.75.69l25.56,9.55c4.66,1.74,7.31,6.22,5.9,10s-7.24,6-12.07,6h-.71a38.47,38.47,0,0,1-12.69-2.57A38.08,38.08,0,0,1,7.86,19.24l0,0,0,0a18,18,0,0,1-4.86-6.32,8.65,8.65,0,0,1-.67-6.4c1-2.66,3.84-4.37,7.25-4.37V.18m0,0c-4.08,0-7.71,2.09-9,5.6C-1.3,10.54,2.12,17,6.58,20.63a39.4,39.4,0,0,0,12,6.86,40.35,40.35,0,0,0,13.35,2.69h.71c5.65,0,12.12-2.6,13.84-7.22h0c1.78-4.75-1.36-10.32-7-12.43L13.92,1A12.63,12.63,0,0,0,9.5.18Z" fill="#0c3d6d"/><path d="M44.75,24c-.06-.08-6.48-7.82-20.55-9.89C12.32,12.41,5.42,1.9,5.13,1.46l1.59-1c.07.1,6.74,10.24,17.76,11.86C39.33,14.47,46,22.52,46.23,22.86Z" fill="#0c3d6d"/></svg>