<?xml version="1.0" encoding="utf-8"?>
<svg version="1.1" id="icons" xmlns="http://www.w3.org/2000/svg" xmlns:xlink="http://www.w3.org/1999/xlink" x="0px" y="0px"
	 viewBox="0 0 50 50" style="enable-background:new 0 0 50 50;" xml:space="preserve">
<g>
	<path d="M25,4.5c11.3,0,20.5,9.2,20.5,20.5S36.3,45.5,25,45.5S4.5,36.3,4.5,25S13.7,4.5,25,4.5 M25,0
		C11.2,0,0,11.2,0,25s11.2,25,25,25s25-11.2,25-25S38.8,0,25,0L25,0z"/>
	<g>
		<path d="M23.4,29.9c0-1.2,0.2-2.2,0.4-2.9c0.3-0.7,0.8-1.5,1.6-2.3l2-2.1c0.9-1,1.3-2,1.3-3.1c0-1.1-0.3-1.9-0.8-2.5
			c-0.6-0.6-1.4-0.9-2.4-0.9c-1,0-1.9,0.3-2.5,0.8c-0.6,0.6-0.9,1.3-0.9,2.2h-2.8c0-1.7,0.6-3,1.8-4c1.2-1,2.7-1.5,4.5-1.5
			c1.9,0,3.4,0.5,4.5,1.5c1.1,1,1.6,2.4,1.6,4.2c0,1.8-0.8,3.5-2.5,5.3l-1.7,1.6c-0.7,0.8-1.1,2-1.1,3.6H23.4z M23.3,34.8
			c0-0.5,0.1-0.9,0.4-1.2c0.3-0.3,0.7-0.5,1.2-0.5c0.6,0,1,0.2,1.3,0.5c0.3,0.3,0.4,0.7,0.4,1.2c0,0.5-0.1,0.8-0.4,1.2
			c-0.3,0.3-0.7,0.5-1.3,0.5c-0.6,0-1-0.2-1.2-0.5C23.4,35.6,23.3,35.2,23.3,34.8z"/>
	</g>
</g>
</svg>
