<?xml version="1.0" encoding="utf-8"?>
<!-- Generator: Adobe Illustrator 21.1.0, SVG Export Plug-In . SVG Version: 6.00 Build 0)  -->
<svg version="1.1" id="icons" xmlns="http://www.w3.org/2000/svg" xmlns:xlink="http://www.w3.org/1999/xlink" x="0px" y="0px"
	 viewBox="0 0 50 50" style="enable-background:new 0 0 50 50;" xml:space="preserve">
<style type="text/css">
	.st0{fill:url(#SVGID_1_);}
	.st1{fill:#FFFFFF;}
	.st2{fill:url(#SVGID_2_);}
	.st3{fill:url(#SVGID_3_);}
	.st4{fill:url(#SVGID_4_);}
	.st5{fill:url(#SVGID_5_);}
	.st6{fill:url(#SVGID_6_);}
	.st7{fill:url(#SVGID_7_);}
	.st8{fill:url(#SVGID_8_);}
	.st9{fill:url(#SVGID_9_);}
	.st10{fill:url(#SVGID_10_);}
	.st11{fill:url(#SVGID_11_);}
	.st12{fill:url(#SVGID_12_);}
</style>
<g>
	<linearGradient id="SVGID_1_" gradientUnits="userSpaceOnUse" x1="44.7415" y1="5.9022" x2="7.7334" y2="42.9104">
		<stop  offset="0" style="stop-color:#00ACFB"/>
		<stop  offset="0.3" style="stop-color:#00B5E2"/>
		<stop  offset="1" style="stop-color:#F674F7"/>
	</linearGradient>
	<path class="st0" d="M25,5.1c4.9,5.3,12.5,15.3,12.5,23.5c0,6.9-5.6,12.5-12.5,12.5s-12.5-5.6-12.5-12.5
		C12.5,20.4,20.1,10.4,25,5.1 M25,0C25,0,8.9,15.2,8.9,28.6c0,8.9,7.2,16.1,16.1,16.1s16.1-7.2,16.1-16.1C41.1,15.2,25,0,25,0L25,0z
		"/>
	<rect x="24.1" y="3.6" class="st1" width="1.8" height="46.4"/>
	
		<rect x="23.5" y="13.4" transform="matrix(0.7071 -0.7071 0.7071 0.7071 -1.7331 24.3872)" class="st1" width="10.1" height="1.8"/>
	
		<rect x="22.4" y="26.8" transform="matrix(0.7071 -0.7071 0.7071 0.7071 -10.4188 30.204)" class="st1" width="17.7" height="1.8"/>
	<rect x="20.5" y="9.2" transform="matrix(0.7071 -0.7071 0.7071 0.7071 -3.8252 19.3365)" class="st1" width="1.8" height="10.1"/>
	<rect x="17.9" y="18.8" transform="matrix(0.7071 -0.7071 0.7071 0.7071 -14.08 21.3651)" class="st1" width="1.8" height="17.7"/>
</g>
</svg>
