<?xml version="1.0" encoding="utf-8"?>

<!--
  ~ Copyright 2014 Hippo B.V. (http://www.onehippo.com)
  ~
  ~ Licensed under the Apache License, Version 2.0 (the "License");
  ~ you may not use this file except in compliance with the License.
  ~ You may obtain a copy of the License at
  ~
  ~ http://www.apache.org/licenses/LICENSE-2.0
  ~
  ~ Unless required by applicable law or agreed to in writing, software
  ~ distributed under the License is distributed on an "AS IS" BASIS,
  ~ WITHOUT WARRANTIES OR CONDITIONS OF ANY KIND, either express or implied.
  ~ See the License for the specific language governing permissions and
  ~ limitations under the License.
  -->

<!-- Generator: Adobe Illustrator 16.0.0, SVG Export Plug-In . SVG Version: 6.00 Build 0)  -->
<!DOCTYPE svg PUBLIC "-//W3C//DTD SVG 1.1//EN" "http://www.w3.org/Graphics/SVG/1.1/DTD/svg11.dtd">
<svg version="1.1" id="Layer_1" xmlns="http://www.w3.org/2000/svg" xmlns:xlink="http://www.w3.org/1999/xlink" x="0px" y="0px"
	 width="16px" height="16px" viewBox="0 0 16 16" enable-background="new 0 0 16 16" xml:space="preserve">
<g>
	<path fill="#0086f8" d="M13,11.75c0,1.242-1.008,2.25-2.25,2.25h-6.5C3.008,14,2,12.992,2,11.75v-6.5C2,4.008,3.008,3,4.25,3h6.5
		c0.312,0,0.625,0.062,0.914,0.195c0.07,0.031,0.125,0.102,0.141,0.18c0.016,0.086-0.008,0.164-0.07,0.227l-0.383,0.383
		c-0.07,0.07-0.164,0.094-0.25,0.062C10.984,4.016,10.867,4,10.75,4h-6.5C3.562,4,3,4.562,3,5.25v6.5C3,12.438,3.562,13,4.25,13h6.5
		c0.688,0,1.25-0.562,1.25-1.25v-0.984c0-0.062,0.023-0.125,0.07-0.172l0.5-0.5c0.078-0.078,0.18-0.094,0.273-0.055
		S13,10.164,13,10.266V11.75z M14.5,6.75L9.25,12H7V9.75l5.25-5.25L14.5,6.75z M9.844,10.344L8.656,9.156L7.75,10.062V10.5H8.5v0.75
		h0.438L9.844,10.344z M12.117,5.633L9.383,8.367c-0.07,0.07-0.078,0.188-0.008,0.258s0.188,0.062,0.258-0.008l2.734-2.734
		c0.07-0.07,0.078-0.188,0.008-0.258S12.188,5.562,12.117,5.633z M15,6.25L12.75,4l0.719-0.719c0.289-0.289,0.773-0.289,1.062,0
		l1.188,1.188c0.289,0.289,0.289,0.773,0,1.062L15,6.25z"/>
</g>
</svg>
