<?xml version="1.0" encoding="utf-8"?>
<!--
  ~ Copyright 2015 Hippo B.V. (http://www.onehippo.com)
  ~
  ~ Licensed under the Apache License, Version 2.0 (the "License");
  ~ you may not use this file except in compliance with the License.
  ~ You may obtain a copy of the License at
  ~
  ~ http://www.apache.org/licenses/LICENSE-2.0
  ~
  ~ Unless required by applicable law or agreed to in writing, software
  ~ distributed under the License is distributed on an "AS IS" BASIS,
  ~ WITHOUT WARRANTIES OR CONDITIONS OF ANY KIND, either express or implied.
  ~ See the License for the specific language governing permissions and
  ~ limitations under the License.
  -->

<!-- Generator: Adobe Illustrator 16.0.0, SVG Export Plug-In . SVG Version: 6.00 Build 0)  -->
<!DOCTYPE svg PUBLIC "-//W3C//DTD SVG 1.1//EN" "http://www.w3.org/Graphics/SVG/1.1/DTD/svg11.dtd">
<svg version="1.1" id="Layer_1" xmlns="http://www.w3.org/2000/svg" xmlns:xlink="http://www.w3.org/1999/xlink" x="0px" y="0px"
	 width="16px" height="16px" viewBox="0 0 16 16" enable-background="new 0 0 16 16" xml:space="preserve">
<path fill="none" stroke="#4C4C4C" stroke-width="1.5676" stroke-linejoin="round" stroke-miterlimit="10" d="M9.241,7.223
	L8.439,6.446C7.904,5.926,7.049,5.938,6.527,6.473L3.365,9.722c-0.52,0.535-0.509,1.391,0.027,1.91l1.238,1.213
	c0.535,0.521,1.391,0.509,1.911-0.026l0.811-0.849"/>
<path fill="none" stroke="#4C4C4C" stroke-width="1.5676" stroke-linejoin="round" stroke-miterlimit="10" d="M6.926,9.292
	l0.593,0.595c0.528,0.527,1.384,0.528,1.912,0l3.347-3.347c0.527-0.527,0.527-1.383,0-1.91l-1.227-1.227
	c-0.527-0.528-1.384-0.528-1.911,0L8.994,4.049"/>
</svg>
