<?xml version="1.0" encoding="utf-8"?>
<!--
  ~ Copyright 2014 Hippo B.V. (http://www.onehippo.com)
  ~
  ~ Licensed under the Apache License, Version 2.0 (the "License");
  ~ you may not use this file except in compliance with the License.
  ~ You may obtain a copy of the License at
  ~
  ~ http://www.apache.org/licenses/LICENSE-2.0
  ~
  ~ Unless required by applicable law or agreed to in writing, software
  ~ distributed under the License is distributed on an "AS IS" BASIS,
  ~ WITHOUT WARRANTIES OR CONDITIONS OF ANY KIND, either express or implied.
  ~ See the License for the specific language governing permissions and
  ~ limitations under the License.
  -->

<!-- Generator: Adobe Illustrator 16.0.0, SVG Export Plug-In . SVG Version: 6.00 Build 0)  -->
<!DOCTYPE svg PUBLIC "-//W3C//DTD SVG 1.1//EN" "http://www.w3.org/Graphics/SVG/1.1/DTD/svg11.dtd">
<svg version="1.1" id="Layer_1" xmlns="http://www.w3.org/2000/svg" xmlns:xlink="http://www.w3.org/1999/xlink" x="0px" y="0px"
	 width="16px" height="16px" viewBox="0 0 16 16" enable-background="new 0 0 16 16" xml:space="preserve">
<g>
	<path fill="#4C4C4C" d="M12,13c0,0.416-0.584,1-1,1H0.754C0.338,14,0,13.662,0,13.246V2.753C0,2.337,0.338,2,0.754,2h7.279
		c0.416,0,0.988,0.235,1.286,0.533l2.196,2.196C11.813,5.028,12,5.584,12,6V13z M11,13V6c0-0.149-0.089-0.455-0.19-0.556L8.605,3.24
		C8.496,3.13,8.156,3,8,3v3c0,0.416-0.584,1-1,1H3C2.584,7,2,6.416,2,6V3H1v10h1v-3c0-1,1-1,1.049-1h6C9.465,9,10,9.584,10,10v3H11z
		 M9,13v-3H3v3H9z M7.016,3H5v3.016h2L7.016,3z M2,13v-3c0-1,1-1,1.049-1 M9,9c0.416,0,1,0.584,1,1v3"/>
</g>
<circle fill="#4C4C4C" cx="11" cy="11" r="5"/>
<rect x="8.22" y="10.593" transform="matrix(0.7071 -0.7071 0.7071 0.7071 -4.5363 11.0297)" fill="#FFFFFF" width="5.653" height="0.795"/>
<rect x="8.193" y="10.567" transform="matrix(-0.7071 -0.7071 0.7071 -0.7071 11.0569 26.5086)" fill="#FFFFFF" width="5.652" height="0.794"/>
</svg>
