<?xml version="1.0" encoding="utf-8"?>
<!--
  ~ Copyright 2015 Hippo B.V. (http://www.onehippo.com)
  ~
  ~ Licensed under the Apache License, Version 2.0 (the "License");
  ~ you may not use this file except in compliance with the License.
  ~ You may obtain a copy of the License at
  ~
  ~ http://www.apache.org/licenses/LICENSE-2.0
  ~
  ~ Unless required by applicable law or agreed to in writing, software
  ~ distributed under the License is distributed on an "AS IS" BASIS,
  ~ WITHOUT WARRANTIES OR CONDITIONS OF ANY KIND, either express or implied.
  ~ See the License for the specific language governing permissions and
  ~ limitations under the License.
  -->

<!-- Generator: Adobe Illustrator 16.0.0, SVG Export Plug-In . SVG Version: 6.00 Build 0)  -->
<!DOCTYPE svg PUBLIC "-//W3C//DTD SVG 1.1//EN" "http://www.w3.org/Graphics/SVG/1.1/DTD/svg11.dtd">
<svg version="1.1" id="Layer_1" xmlns="http://www.w3.org/2000/svg" xmlns:xlink="http://www.w3.org/1999/xlink" x="0px" y="0px"
	 width="16px" height="16px" viewBox="0 0 16 16" enable-background="new 0 0 16 16" xml:space="preserve">
<path fill="#4C4C4C" d="M8,16c-4.417,0-8-3.582-8-8c0-4.416,3.583-8,8-8s8,3.584,8,8C16,12.418,12.417,16,8,16z"/>
<path fill="#FFFFFF" d="M11.818,10.447L9.373,8l2.434-2.435c0.092-0.091,0.146-0.214,0.146-0.345c0-0.131-0.055-0.261-0.146-0.353
	l-0.689-0.69c-0.093-0.092-0.223-0.146-0.353-0.146c-0.131,0-0.253,0.054-0.345,0.146L7.984,6.612L5.545,4.174
	C5.452,4.082,5.331,4.028,5.199,4.028c-0.129,0-0.259,0.054-0.352,0.146l-0.689,0.69C4.065,4.956,4.012,5.086,4.012,5.217
	c0,0.13,0.054,0.253,0.146,0.345L6.596,8l-2.449,2.451C4.054,10.543,4,10.663,4,10.796c0,0.131,0.054,0.26,0.146,0.352l0.689,0.69
	c0.093,0.092,0.223,0.146,0.352,0.146c0.132,0,0.253-0.054,0.346-0.146l2.451-2.449l2.447,2.445
	c0.092,0.092,0.214,0.146,0.345,0.146c0.13,0,0.26-0.054,0.353-0.146l0.689-0.69c0.092-0.092,0.146-0.221,0.146-0.352
	C11.965,10.659,11.91,10.539,11.818,10.447z"/>
</svg>
