<?xml version="1.0" encoding="utf-8"?>

<!--
  ~ Copyright 2014 Hippo B.V. (http://www.onehippo.com)
  ~
  ~ Licensed under the Apache License, Version 2.0 (the "License");
  ~ you may not use this file except in compliance with the License.
  ~ You may obtain a copy of the License at
  ~
  ~ http://www.apache.org/licenses/LICENSE-2.0
  ~
  ~ Unless required by applicable law or agreed to in writing, software
  ~ distributed under the License is distributed on an "AS IS" BASIS,
  ~ WITHOUT WARRANTIES OR CONDITIONS OF ANY KIND, either express or implied.
  ~ See the License for the specific language governing permissions and
  ~ limitations under the License.
  -->

<!-- Generator: Adobe Illustrator 16.0.0, SVG Export Plug-In . SVG Version: 6.00 Build 0)  -->
<!DOCTYPE svg PUBLIC "-//W3C//DTD SVG 1.1//EN" "http://www.w3.org/Graphics/SVG/1.1/DTD/svg11.dtd">
<svg version="1.1" id="Layer_1" xmlns="http://www.w3.org/2000/svg" xmlns:xlink="http://www.w3.org/1999/xlink" x="0px" y="0px"
	 width="16px" height="16px" viewBox="0 0 16 16" enable-background="new 0 0 16 16" xml:space="preserve">
<g>
	<path fill="#4C4C4C" d="M14,8.883C14,9,13.906,9.141,13.781,9.164l-1.445,0.219c-0.086,0.25-0.18,0.484-0.305,0.711
		c0.266,0.383,0.547,0.727,0.836,1.078c0.047,0.055,0.078,0.125,0.078,0.195s-0.023,0.125-0.07,0.18
		c-0.188,0.25-1.242,1.398-1.508,1.398c-0.07,0-0.141-0.031-0.203-0.07l-1.078-0.844c-0.227,0.117-0.469,0.219-0.711,0.297
		c-0.055,0.477-0.102,0.984-0.227,1.453C9.117,13.906,9.008,14,8.867,14H7.133c-0.141,0-0.266-0.102-0.281-0.234l-0.219-1.438
		c-0.242-0.078-0.477-0.172-0.703-0.289l-1.102,0.836c-0.055,0.047-0.125,0.07-0.195,0.07s-0.141-0.031-0.195-0.086
		C4.023,12.484,3.477,12,3.148,11.547c-0.039-0.055-0.055-0.117-0.055-0.18c0-0.07,0.023-0.125,0.062-0.18
		c0.266-0.359,0.555-0.703,0.82-1.07c-0.133-0.25-0.242-0.508-0.32-0.773l-1.43-0.211C2.094,9.109,2,8.984,2,8.852V7.117
		C2,7,2.094,6.859,2.211,6.836l1.453-0.219c0.078-0.25,0.18-0.484,0.305-0.719C3.703,5.523,3.422,5.172,3.133,4.82
		C3.086,4.766,3.055,4.703,3.055,4.633s0.031-0.125,0.07-0.18c0.188-0.258,1.242-1.398,1.508-1.398c0.07,0,0.141,0.031,0.203,0.078
		l1.078,0.836C6.141,3.852,6.383,3.75,6.625,3.672C6.68,3.195,6.727,2.688,6.852,2.219C6.883,2.094,6.992,2,7.133,2h1.734
		c0.141,0,0.266,0.102,0.281,0.234l0.219,1.438C9.609,3.75,9.844,3.844,10.07,3.961l1.109-0.836c0.047-0.047,0.117-0.07,0.188-0.07
		s0.141,0.031,0.195,0.078C11.977,3.516,12.523,4,12.852,4.461c0.039,0.047,0.055,0.109,0.055,0.172c0,0.07-0.023,0.125-0.062,0.18
		c-0.266,0.359-0.555,0.703-0.82,1.07c0.133,0.25,0.242,0.508,0.32,0.766l1.43,0.219C13.906,6.891,14,7.016,14,7.148V8.883z M8,6
		C6.898,6,6,6.898,6,8s0.898,2,2,2s2-0.898,2-2S9.102,6,8,6z"/>
</g>
</svg>
