<?xml version="1.0" encoding="utf-8"?>

<!--
  ~ Copyright 2015 Hippo B.V. (http://www.onehippo.com)
  ~
  ~ Licensed under the Apache License, Version 2.0 (the "License");
  ~ you may not use this file except in compliance with the License.
  ~ You may obtain a copy of the License at
  ~
  ~ http://www.apache.org/licenses/LICENSE-2.0
  ~
  ~ Unless required by applicable law or agreed to in writing, software
  ~ distributed under the License is distributed on an "AS IS" BASIS,
  ~ WITHOUT WARRANTIES OR CONDITIONS OF ANY KIND, either express or implied.
  ~ See the License for the specific language governing permissions and
  ~ limitations under the License.
  -->

<!DOCTYPE svg PUBLIC "-//W3C//DTD SVG 1.1//EN" "http://www.w3.org/Graphics/SVG/1.1/DTD/svg11.dtd">
<svg version="1.1" id="Layer_1" xmlns="http://www.w3.org/2000/svg" xmlns:xlink="http://www.w3.org/1999/xlink" x="0px" y="0px"
	 width="16px" height="16px" viewBox="0 0 16 16" enable-background="new 0 0 16 16" xml:space="preserve">
<g>
	<g>
		<path d="M8.002,2.05L8.19,3.284l0.093,0.615l0.593,0.188c0.269,0.085,0.502,0.18,0.715,0.292l0.56,0.292l0.505-0.38l0.974-0.733
			c0.269,0.25,0.552,0.521,0.787,0.782c-0.054,0.069-0.108,0.138-0.162,0.207c-0.195,0.248-0.391,0.497-0.576,0.754l-0.362,0.502
			l0.287,0.548c0.142,0.269,0.252,0.532,0.327,0.781l0.184,0.603l0.623,0.095l1.215,0.185v1.06l-1.223,0.184L12.131,9.35
			l-0.197,0.57c-0.108,0.311-0.204,0.535-0.311,0.729l-0.3,0.543l0.353,0.51c0.25,0.361,0.512,0.696,0.761,1.005
			c-0.239,0.261-0.549,0.577-0.792,0.8l-0.953-0.747l-0.507-0.396l-0.571,0.296c-0.234,0.122-0.487,0.229-0.732,0.308l-0.61,0.198
			l-0.074,0.637l-0.027,0.235C8.133,14.357,8.096,14.685,8.041,15H6.948L6.76,13.767l-0.093-0.61l-0.588-0.189
			c-0.271-0.088-0.506-0.185-0.72-0.297l-0.562-0.294l-0.505,0.385l-0.964,0.732c-0.276-0.253-0.563-0.523-0.797-0.779
			c0.056-0.07,0.111-0.142,0.167-0.212c0.194-0.247,0.389-0.495,0.574-0.752l0.363-0.504l-0.29-0.549
			c-0.139-0.263-0.247-0.526-0.323-0.783L2.84,9.303L2.209,9.21L1,9.033V7.976l1.223-0.185l0.621-0.094l0.186-0.601
			C3.1,6.869,3.2,6.633,3.336,6.377l0.29-0.545L3.269,5.329C3.023,4.983,2.77,4.654,2.516,4.338C2.748,4.084,3.057,3.769,3.3,3.546
			l0.965,0.747l0.506,0.392l0.567-0.294c0.235-0.123,0.486-0.228,0.727-0.304l0.614-0.196l0.075-0.64l0.029-0.255
			C6.819,2.682,6.855,2.36,6.91,2.05H8.002 M8.555,1.05H6.396c-0.177,0-0.312,0.117-0.351,0.273
			C5.889,1.907,5.831,2.539,5.761,3.134c-0.3,0.096-0.602,0.223-0.884,0.369L3.533,2.462C3.454,2.403,3.367,2.364,3.28,2.364
			c-0.331,0-1.645,1.42-1.879,1.741C1.353,4.175,1.314,4.243,1.314,4.33c0,0.088,0.038,0.166,0.097,0.234
			C1.771,5.002,2.122,5.44,2.453,5.907c-0.155,0.292-0.284,0.585-0.38,0.896L0.262,7.076C0.117,7.104,0,7.28,0,7.426v2.16
			c0,0.166,0.117,0.32,0.282,0.352l1.781,0.262c0.099,0.332,0.234,0.654,0.398,0.965c-0.33,0.457-0.691,0.885-1.021,1.332
			c-0.048,0.068-0.076,0.137-0.076,0.225c0,0.076,0.018,0.154,0.065,0.225c0.41,0.564,1.091,1.166,1.607,1.633
			c0.067,0.07,0.155,0.107,0.243,0.107c0.087,0,0.174-0.029,0.243-0.086l1.373-1.043c0.28,0.146,0.573,0.264,0.875,0.361
			l0.273,1.791C6.064,15.875,6.219,16,6.396,16h2.159c0.177,0,0.313-0.117,0.352-0.271c0.155-0.584,0.214-1.217,0.283-1.811
			c0.301-0.098,0.603-0.225,0.885-0.371l1.344,1.053c0.079,0.049,0.166,0.086,0.253,0.086c0.331,0,1.644-1.432,1.879-1.74
			c0.059-0.07,0.087-0.137,0.087-0.225s-0.039-0.174-0.097-0.244c-0.36-0.438-0.711-0.865-1.042-1.344
			c0.154-0.279,0.271-0.572,0.38-0.885l1.801-0.271c0.155-0.029,0.272-0.205,0.272-0.35V7.464c0-0.165-0.117-0.322-0.282-0.351
			l-1.782-0.271c-0.098-0.321-0.234-0.643-0.398-0.955c0.33-0.457,0.691-0.885,1.022-1.333c0.047-0.068,0.076-0.136,0.076-0.224
			c0-0.078-0.019-0.155-0.066-0.214c-0.41-0.573-1.091-1.18-1.606-1.654c-0.068-0.059-0.155-0.098-0.243-0.098
			c-0.087,0-0.174,0.028-0.234,0.087l-1.383,1.041C9.773,3.346,9.48,3.229,9.179,3.134L8.906,1.342
			C8.886,1.177,8.731,1.05,8.555,1.05L8.555,1.05z"/>
	</g>
</g>
<g>
	<circle cx="7.5" cy="8.5" r="1.5"/>
	<path d="M7.512,7.387c0.636,0,1.154,0.51,1.154,1.136c0,0.627-0.519,1.137-1.154,1.137S6.358,9.15,6.358,8.523
		C6.358,7.897,6.876,7.387,7.512,7.387 M7.512,6.625c-1.055,0-1.915,0.848-1.915,1.898c0,1.05,0.86,1.898,1.915,1.898
		c1.056,0,1.916-0.849,1.916-1.898C9.428,7.473,8.567,6.625,7.512,6.625L7.512,6.625z"/>
</g>
</svg>
