<?xml version="1.0" encoding="utf-8"?>
<!--
Copyright 2017 Hippo B.V. (http://www.onehippo.com)

Licensed under the Apache License, Version 2.0 (the "License");
you may not use this file except in compliance with the License.
You may obtain a copy of the License at

http://www.apache.org/licenses/LICENSE-2.0

Unless required by applicable law or agreed to in writing, software
distributed under the License is distributed on an "AS IS" BASIS,
WITHOUT WARRANTIES OR CONDITIONS OF ANY KIND, either express or implied.
See the License for the specific language governing permissions and
limitations under the License.
-->
<svg version="1.1" id="Layer_1" xmlns="http://www.w3.org/2000/svg" xmlns:xlink="http://www.w3.org/1999/xlink" x="0px" y="0px"
	 viewBox="0 0 305 84" style="enable-background:new 0 0 305 84;" xml:space="preserve">
<style type="text/css">
	.st0{fill:#00A5E3;}
	.st1{fill:none;}
	.st2{enable-background:new;}
	.st3{fill:#EE3E42;}
	.st4{fill:none;stroke:#143393;stroke-miterlimit:10;}
</style>
<g>
	<path class="st0" d="M89.8,28.2c-0.2-0.6-0.5-1.1-0.8-1.6s-0.8-1-1.2-1.4l0,0c-0.9-0.9-2.2-1.2-3.4-1.4c-0.4-0.1-0.8-0.1-1.2-0.1
		c-0.3,0-0.8,0-1-0.3c-1.6-2.2-2.8-2.8-3-2.9l0,0h-0.1l0,0c-2.4-1.4-4.8-0.7-6.1-0.1c-0.4-0.5-0.9-0.9-1.4-1.3
		c-0.4-0.3-0.9-0.6-1.4-0.6c-1-0.1-2.1,0.2-2.9,0.9c0,0-0.3,0.3-0.3,0.4c-0.7-0.3-1.4-0.5-2.2-0.5c-1.4-0.2-2.9-0.2-4.4-0.2
		c-1.2,0-2.4-0.1-3.6-0.4c-1.1-0.3-2.1-0.9-3.1-1.6c-1.3-0.9-2.4-2-3.6-3.1c-1.1-1-2.2-2-3.4-2.8c-2.3-1.6-4.8-2.6-7.5-3.2
		c-1.5-0.3-3-0.5-4.5-0.5c-1.4-0.1-2.9,0-4.3,0.1c-2.6,0.3-5.1,1-7.5,2.2s-4.5,2.8-6.1,4.9c-0.8,1.1-1.5,2.2-1.9,3.5
		c-0.3,0.8-0.5,1.6-0.8,2.3c-0.3,0.7-0.6,1.4-0.9,2.1c-0.5,0.9-1,1.8-1.7,2.5c-0.3,0.4-0.7,0.7-1.1,0.9c-0.1,0-0.1,0.1-0.2,0.1
		l-0.5,0.1l0.2,0.4l0.1,0.2l0.1,0.4l0.4-0.1c0.2-0.1,1-0.5,1.7-1.4c0.5,8.3,5.9,14.4,6.4,14.9l0,0v0.1l0,0c1.9,2.7,2.8,7.5,3,8.1
		l0,0l0,0l0.1,0.3c0.2,0.5,0.3,1.1,0.8,1.5s1,0.6,1.7,0.6c0.2,0,6.9,0,10.1,0h1.8c1,0,2-0.7,2-2.1v-0.2c0-1.9,0-3.2,0-3.8
		c4.6,0.3,7.6-1.5,8.9-2.5c1.3,1.1,3,2.1,3.2,2.2l0,0l0,0l0,0c0.9,0.7,1,1.8,1,2.9V49c0,0.7,0.3,1.3,0.8,1.8
		c0.3,0.3,0.8,0.5,1.3,0.5c0.4,0,0.7,0,1.1,0c1.8,0,3.5,0,5.3,0s3.6,0,5.3,0c0.4,0,0.8,0,1.2,0c0.6,0,1.3-0.4,1.7-0.9
		c0.5-0.6,0.4-1.4,0.4-2.2c0-0.9,0-1.9,0-2.8c0-0.6,0-1.2,0-1.8l0,0l0,0c-0.2-1.1,0.6-2.1,1.4-2.8c1.2-1,2.1-2.2,2.4-3.7
		c2.4,1.3,4.9,2.3,7.6,3c0.5,0.1,0.9,0.2,1.4,0.3c2.2,0.6,3.1-0.5,3.3-0.8c0.4-0.4,0.3-1.1,0.5-1.6H85h0.1h0.1
		c1.2-0.1,2-0.8,2.3-1.3l0,0v-0.1l0,0c1.6-2.3,2-4.7,2.1-4.9C90.1,30.6,90.1,29.4,89.8,28.2 M89,31.6c0,0.3-0.4,2.4-1.9,4.6l0,0l0,0
		c-0.1,0.1-0.6,0.7-1.5,0.8l-1.8-0.7l-0.4-0.1l-0.2,0.3l-0.1,0.2l-0.2,0.4l0.4,0.2l1,0.5L84.2,38c-0.1,0.3-0.2,0.7-0.3,0.8l0,0
		c-0.3,0.4-0.8,0.6-1.3,0.6c-0.7,0-1.4-0.2-2-0.4c-1.6-0.4-4.3-1-8.4-3.3l-0.6-0.3l-0.1,0.7c-0.1,1.4-0.8,2.5-1.9,3.5
		c-0.3,0.3-0.6,0.5-0.9,0.8S68.2,41,68,41.3c-0.4,0.7-0.6,1.4-0.5,2.2l0,0v0.1c0,0,0,0,0-0.1c0,0.7,0,1.4,0,2.2c0,0.4,0,0.8,0,1.2
		c0,0.5,0,0.9,0,1.4c0,0.4,0.1,0.9-0.1,1.3c-0.1,0.3-0.5,0.6-0.8,0.7c-0.4,0.1-0.9,0.1-1.3,0.1c-1,0-2,0-3,0c-2,0-4,0-6,0
		c-0.5,0-1,0-1.5,0s-1,0-1.5,0c-0.3,0-0.6-0.2-0.8-0.4c-0.2-0.3-0.3-0.6-0.3-1c-0.1-0.9,0-1.9-0.2-2.9c-0.2-0.8-0.6-1.5-1.2-2l0,0
		l0,0c0,0-2-1.2-3.4-2.4l-0.3-0.2l-0.3,0.2c-0.8,0.7-4,3-9,2.5l-0.5-0.1v0.5c0,0.2,0,1.1,0,4.3v0.2c0,0.9-0.6,1.3-1.2,1.3h-1.8
		c-2,0-4,0-6,0c-1.2,0-2.3,0-3.5,0c-0.2,0-0.4,0-0.6,0c-0.4,0-0.7-0.1-1-0.4c-0.3-0.3-0.4-0.7-0.5-1l-0.1-0.3
		c-0.1-0.5-1.1-5.5-3.1-8.4l0,0l0,0c-0.5-0.6-1-1.2-1.5-1.9c-1.3-1.9-2.4-3.9-3.2-6c-0.5-1.4-0.9-2.8-1.2-4.2
		c-0.1-0.8-0.2-1.5-0.3-2.3c0-0.4,0-0.8,0-1.2c0-0.2,0.2-0.4,0.3-0.6s0.2-0.4,0.3-0.6c0.4-0.8,0.8-1.6,1.1-2.5s0.6-1.8,0.9-2.7
		c0.6-1.6,1.6-3,2.8-4.2c2.4-2.4,5.6-4,8.9-4.9c1.8-0.5,3.7-0.7,5.6-0.7c1.9,0,3.9,0.1,5.8,0.5c1.7,0.3,3.4,0.9,4.9,1.7
		c1.6,0.8,3,1.8,4.3,2.9c2.6,2.3,5,5.1,8.4,6.1c1.9,0.5,3.8,0.4,5.7,0.4c1,0,1.9,0.1,2.9,0.3c0.2,0,0.5,0.1,0.7,0.2
		c0.1,0,0.2,0.1,0.3,0.1c0.1,0,0.1,0,0.2,0.1c0.1,0,0.1,0,0.1,0.1c0,0.2-0.1,0.4-0.1,0.7c0,0.2,0,0.4,0,0.6l0,0c0,0,0,0,0,0.1l0,0
		c0,0.8,0.5,1.5,1.1,2c0.7,0.6,1.6,0.8,2.5,0.8c0.2,0,0.4,0,0.7,0c0.1,0,0.2,0,0.3-0.1c0.2-0.1,0.2-0.4,0.1-0.6
		c-0.2-0.3-0.5-0.2-0.8-0.2c-0.4,0-0.9-0.1-1.3-0.2c-0.7-0.2-1.4-0.8-1.6-1.5s0-1.5,0.5-2.1c0.2-0.3,0.7-0.5,1-0.6
		c0.4-0.1,0.9-0.2,1.3-0.1c0.5,0.1,0.9,0.5,1.3,0.8s0.7,0.6,0.9,1l0.2,0.3l0.4-0.2c0.9-0.5,3.3-1.4,5.6-0.1l0,0
		c0.1,0,0.2,0.1,0.3,0.2c0.8,0.5,1.4,1.2,1.9,1.9c0.3,0.3,0.5,0.7,0.8,0.9c0.3,0.2,0.7,0.3,1,0.3c0.8,0.1,1.5,0.1,2.2,0.3
		c0.8,0.2,1.5,0.5,2.1,1l0,0c0.7,0.7,1.3,1.5,1.7,2.5C89.2,29.4,89.3,30.5,89,31.6"/>
	<path class="st0" d="M86.9,29.7L86.9,29.7c-0.2-0.2-0.3-0.4-0.3-0.7c0-0.4,0.3-0.7,0.7-0.9c0.5-0.3,0.1-1-0.4-0.8
		c-0.6,0.3-1.1,0.8-1.2,1.5c0,0.6,0.2,1.1,0.6,1.5S87.3,30.1,86.9,29.7"/>
	<path class="st0" d="M79.3,24.7c0,0.6-0.5,1.1-1.1,1.1s-1-0.5-1-1.1s0.5-1.1,1-1.1C78.8,23.7,79.3,24.2,79.3,24.7"/>
</g>
<rect x="21.4" y="57" class="st1" width="274" height="52"/>
<g class="st2">
	<path class="st3" d="M114.8,57v4.5h5.5V57h2v10.6h-2v-4.5h-5.5v4.5h-2V57H114.8z"/>
	<path class="st3" d="M125.4,57.2c0.3,0,0.5,0.1,0.7,0.3c0.2,0.2,0.3,0.5,0.3,0.7c0,0.3-0.1,0.5-0.3,0.7s-0.5,0.3-0.7,0.3
		c-0.3,0-0.5-0.1-0.7-0.3c-0.2-0.2-0.3-0.5-0.3-0.7c0-0.3,0.1-0.5,0.3-0.7C124.9,57.3,125.2,57.2,125.4,57.2z M126.4,60.5v7.1h-1.9
		v-7.1H126.4z"/>
	<path class="st3" d="M131.9,60.3c1,0,1.8,0.3,2.4,1c0.6,0.7,0.9,1.6,0.9,2.6c0,0.7-0.1,1.4-0.4,1.9c-0.3,0.6-0.7,1-1.2,1.3
		c-0.5,0.3-1.1,0.5-1.8,0.5c-0.6,0-1.1-0.1-1.7-0.4v3.9h-1.9V60.5h1.9v0.5C130.7,60.5,131.3,60.3,131.9,60.3z M130.2,65.9
		c0.5,0.3,0.9,0.4,1.3,0.4c0.6,0,1.1-0.2,1.4-0.6c0.4-0.4,0.5-1,0.5-1.6c0-0.7-0.2-1.3-0.5-1.7s-0.8-0.6-1.3-0.6
		c-0.2,0-0.4,0-0.6,0.1s-0.5,0.2-0.8,0.5V65.9z"/>
	<path class="st3" d="M140.5,60.3c1,0,1.8,0.3,2.4,1c0.6,0.7,0.9,1.6,0.9,2.6c0,0.7-0.1,1.4-0.4,1.9c-0.3,0.6-0.7,1-1.2,1.3
		c-0.5,0.3-1.1,0.5-1.8,0.5c-0.6,0-1.1-0.1-1.7-0.4v3.9h-1.9V60.5h1.9v0.5C139.2,60.5,139.8,60.3,140.5,60.3z M138.7,65.9
		c0.5,0.3,0.9,0.4,1.3,0.4c0.6,0,1.1-0.2,1.4-0.6c0.4-0.4,0.5-1,0.5-1.6c0-0.7-0.2-1.3-0.5-1.7s-0.8-0.6-1.3-0.6
		c-0.2,0-0.4,0-0.6,0.1s-0.5,0.2-0.8,0.5V65.9z"/>
	<path class="st3" d="M148.8,60.3c0.7,0,1.4,0.2,2,0.5c0.6,0.3,1.1,0.7,1.4,1.3c0.3,0.6,0.5,1.2,0.5,1.9c0,0.7-0.2,1.4-0.5,1.9
		c-0.3,0.6-0.8,1-1.4,1.3c-0.6,0.3-1.3,0.5-2,0.5c-0.7,0-1.4-0.2-2-0.5c-0.6-0.3-1.1-0.8-1.4-1.3c-0.3-0.6-0.5-1.2-0.5-1.9
		c0-0.7,0.2-1.3,0.5-1.9c0.3-0.6,0.8-1,1.4-1.3C147.4,60.5,148.1,60.3,148.8,60.3z M146.9,64c0,0.7,0.2,1.3,0.5,1.7
		c0.3,0.4,0.8,0.6,1.4,0.6c0.6,0,1.1-0.2,1.4-0.6c0.3-0.4,0.5-1,0.5-1.7c0-0.7-0.2-1.3-0.5-1.7c-0.4-0.4-0.8-0.6-1.4-0.6
		c-0.6,0-1,0.2-1.4,0.6C147.1,62.8,146.9,63.3,146.9,64z"/>
	<path class="st3" d="M163.2,57c1.1,0,2.1,0.2,2.9,0.7c0.9,0.5,1.5,1.1,2,1.9c0.5,0.8,0.7,1.7,0.7,2.7c0,1-0.2,2-0.7,2.8
		c-0.5,0.8-1.2,1.4-2,1.9c-0.9,0.4-1.9,0.7-3,0.7h-4.3V57H163.2z M163,66c1.1,0,2-0.3,2.7-1c0.7-0.7,1-1.6,1-2.7c0-1.1-0.3-2-1-2.7
		c-0.7-0.7-1.6-1-2.8-1h-2.1V66H163z"/>
	<path class="st3" d="M173.7,60.3c1,0,1.9,0.3,2.5,1s0.9,1.6,0.9,2.8v0.3h-5c0.1,0.6,0.3,1.1,0.7,1.5c0.4,0.3,0.9,0.5,1.6,0.5
		c0.4,0,0.9-0.1,1.3-0.2s0.8-0.4,1.3-0.7v1.4c-0.8,0.6-1.8,0.9-3,0.9c-1.1,0-2-0.3-2.7-1c-0.7-0.7-1.1-1.6-1.1-2.7
		c0-1.1,0.3-2,1-2.6C171.8,60.7,172.7,60.3,173.7,60.3z M175.4,63.3c-0.1-0.5-0.2-0.9-0.5-1.2s-0.6-0.4-1.1-0.4
		c-0.5,0-0.8,0.1-1.1,0.4c-0.3,0.3-0.5,0.7-0.5,1.2H175.4z"/>
	<path class="st3" d="M179.7,60.5l1.7,4.1l1.7-4.1h2l-3.2,7.2h-0.9l-3.2-7.2H179.7z"/>
	<path class="st3" d="M189.2,60.3c1,0,1.9,0.3,2.5,1s0.9,1.6,0.9,2.8v0.3h-5c0.1,0.6,0.3,1.1,0.7,1.5c0.4,0.3,0.9,0.5,1.6,0.5
		c0.4,0,0.9-0.1,1.3-0.2s0.8-0.4,1.3-0.7v1.4c-0.8,0.6-1.8,0.9-3,0.9c-1.1,0-2-0.3-2.7-1c-0.7-0.7-1.1-1.6-1.1-2.7
		c0-1.1,0.3-2,1-2.6C187.3,60.7,188.1,60.3,189.2,60.3z M190.8,63.3c-0.1-0.5-0.2-0.9-0.5-1.2s-0.6-0.4-1.1-0.4
		c-0.5,0-0.8,0.1-1.1,0.4c-0.3,0.3-0.5,0.7-0.5,1.2H190.8z"/>
	<path class="st3" d="M196,57v10.6h-1.9V57H196z"/>
	<path class="st3" d="M201.4,60.3c0.7,0,1.4,0.2,2,0.5c0.6,0.3,1.1,0.7,1.4,1.3c0.3,0.6,0.5,1.2,0.5,1.9c0,0.7-0.2,1.4-0.5,1.9
		c-0.3,0.6-0.8,1-1.4,1.3c-0.6,0.3-1.3,0.5-2,0.5c-0.7,0-1.4-0.2-2-0.5c-0.6-0.3-1.1-0.8-1.4-1.3c-0.3-0.6-0.5-1.2-0.5-1.9
		c0-0.7,0.2-1.3,0.5-1.9c0.3-0.6,0.8-1,1.4-1.3C200,60.5,200.7,60.3,201.4,60.3z M199.5,64c0,0.7,0.2,1.3,0.5,1.7
		c0.3,0.4,0.8,0.6,1.4,0.6c0.6,0,1.1-0.2,1.4-0.6c0.3-0.4,0.5-1,0.5-1.7c0-0.7-0.2-1.3-0.5-1.7c-0.4-0.4-0.8-0.6-1.4-0.6
		c-0.6,0-1,0.2-1.4,0.6C199.7,62.8,199.5,63.3,199.5,64z"/>
	<path class="st3" d="M210.4,60.3c1,0,1.8,0.3,2.4,1c0.6,0.7,0.9,1.6,0.9,2.6c0,0.7-0.1,1.4-0.4,1.9c-0.3,0.6-0.7,1-1.2,1.3
		c-0.5,0.3-1.1,0.5-1.8,0.5c-0.6,0-1.1-0.1-1.7-0.4v3.9h-1.9V60.5h1.9v0.5C209.2,60.5,209.8,60.3,210.4,60.3z M208.7,65.9
		c0.5,0.3,0.9,0.4,1.3,0.4c0.6,0,1.1-0.2,1.4-0.6c0.4-0.4,0.5-1,0.5-1.6c0-0.7-0.2-1.3-0.5-1.7s-0.8-0.6-1.3-0.6
		c-0.2,0-0.4,0-0.6,0.1s-0.5,0.2-0.8,0.5V65.9z"/>
	<path class="st3" d="M218.5,60.3c1,0,1.9,0.3,2.5,1s0.9,1.6,0.9,2.8v0.3h-5c0.1,0.6,0.3,1.1,0.7,1.5c0.4,0.3,0.9,0.5,1.6,0.5
		c0.4,0,0.9-0.1,1.3-0.2s0.8-0.4,1.3-0.7v1.4c-0.8,0.6-1.8,0.9-3,0.9c-1.1,0-2-0.3-2.7-1c-0.7-0.7-1.1-1.6-1.1-2.7
		c0-1.1,0.3-2,1-2.6C216.6,60.7,217.4,60.3,218.5,60.3z M220.1,63.3c-0.1-0.5-0.2-0.9-0.5-1.2s-0.6-0.4-1.1-0.4
		c-0.5,0-0.8,0.1-1.1,0.4c-0.3,0.3-0.5,0.7-0.5,1.2H220.1z"/>
	<path class="st3" d="M227.4,60.3c0.2,0,0.5,0.1,0.7,0.2c0.2,0.1,0.5,0.3,0.8,0.6l-0.7,1.6c-0.5-0.4-1-0.6-1.3-0.6
		c-0.3,0-0.6,0.1-0.9,0.3c-0.3,0.2-0.5,0.5-0.7,0.9c-0.2,0.4-0.3,0.7-0.3,1.1v3.2h-1.9v-7.1h1.9v1.8h0c0.3-0.7,0.7-1.2,1-1.5
		C226.6,60.5,227,60.3,227.4,60.3z"/>
	<path class="st3" d="M241.2,57v1.6h-4.8v2.8h4.6v1.6h-4.6v3h4.9v1.6h-7V57H241.2z"/>
	<path class="st3" d="M247.8,60.6V57h1.9v10.6h-3.3c-1.1,0-2-0.3-2.7-1c-0.7-0.7-1-1.5-1-2.7c0-0.7,0.2-1.3,0.5-1.8s0.8-1,1.3-1.3
		c0.6-0.3,1.2-0.5,1.8-0.5C246.7,60.3,247.3,60.4,247.8,60.6z M246.8,66.1h1V62c-0.4-0.2-0.8-0.3-1.2-0.3c-0.6,0-1.1,0.2-1.5,0.6
		s-0.6,0.9-0.6,1.5C244.6,65.4,245.3,66.1,246.8,66.1z"/>
	<path class="st3" d="M252.5,57.2c0.3,0,0.5,0.1,0.7,0.3c0.2,0.2,0.3,0.5,0.3,0.7c0,0.3-0.1,0.5-0.3,0.7s-0.5,0.3-0.7,0.3
		c-0.3,0-0.5-0.1-0.7-0.3s-0.3-0.5-0.3-0.7c0-0.3,0.1-0.5,0.3-0.7C252,57.3,252.3,57.2,252.5,57.2z M253.5,60.5v7.1h-1.9v-7.1H253.5
		z"/>
	<path class="st3" d="M257.3,58.6h0.2v1.9h2.4v1.4h-2.4v3.3c0,0.3,0.1,0.6,0.3,0.8c0.2,0.2,0.5,0.3,0.8,0.3c0.4,0,0.9-0.2,1.5-0.5
		v1.5c-0.7,0.3-1.3,0.4-1.9,0.4c-0.8,0-1.4-0.2-1.9-0.7c-0.4-0.4-0.7-1-0.7-1.8v-3.4h-1.1v-0.3L257.3,58.6z"/>
	<path class="st3" d="M262.1,57.2c0.3,0,0.5,0.1,0.7,0.3c0.2,0.2,0.3,0.5,0.3,0.7c0,0.3-0.1,0.5-0.3,0.7s-0.5,0.3-0.7,0.3
		c-0.3,0-0.5-0.1-0.7-0.3s-0.3-0.5-0.3-0.7c0-0.3,0.1-0.5,0.3-0.7C261.6,57.3,261.9,57.2,262.1,57.2z M263.1,60.5v7.1h-1.9v-7.1
		H263.1z"/>
	<path class="st3" d="M268.5,60.3c0.7,0,1.4,0.2,2,0.5c0.6,0.3,1.1,0.7,1.4,1.3c0.3,0.6,0.5,1.2,0.5,1.9c0,0.7-0.2,1.4-0.5,1.9
		c-0.3,0.6-0.8,1-1.4,1.3c-0.6,0.3-1.3,0.5-2,0.5c-0.7,0-1.4-0.2-2-0.5c-0.6-0.3-1.1-0.8-1.4-1.3c-0.3-0.6-0.5-1.2-0.5-1.9
		c0-0.7,0.2-1.3,0.5-1.9c0.3-0.6,0.8-1,1.4-1.3C267.1,60.5,267.8,60.3,268.5,60.3z M266.6,64c0,0.7,0.2,1.3,0.5,1.7
		c0.3,0.4,0.8,0.6,1.4,0.6c0.6,0,1.1-0.2,1.4-0.6c0.3-0.4,0.5-1,0.5-1.7c0-0.7-0.2-1.3-0.5-1.7c-0.4-0.4-0.8-0.6-1.4-0.6
		c-0.6,0-1,0.2-1.4,0.6C266.8,62.8,266.6,63.3,266.6,64z"/>
	<path class="st3" d="M278,60.3c0.8,0,1.4,0.2,1.8,0.7c0.5,0.5,0.7,1.2,0.7,2v4.5h-1.9v-4.3c0-0.5-0.1-0.8-0.3-1.1
		c-0.2-0.3-0.5-0.4-0.9-0.4c-0.3,0-0.6,0.1-0.8,0.3c-0.3,0.2-0.5,0.5-0.8,0.8v4.7h-1.9v-7.1h1.9v1c0.3-0.4,0.7-0.7,1.1-0.9
		C277.2,60.4,277.6,60.3,278,60.3z"/>
</g>
<line class="st4" x1="9.6" y1="76.3" x2="295.4" y2="76.3"/>
</svg>
