<?xml version="1.0" encoding="utf-8"?>
<!--
Copyright 2015 Hippo B.V. (http://www.onehippo.com)

Licensed under the Apache License, Version 2.0 (the "License");
you may not use this file except in compliance with the License.
You may obtain a copy of the License at

http://www.apache.org/licenses/LICENSE-2.0

Unless required by applicable law or agreed to in writing, software
distributed under the License is distributed on an "AS IS" BASIS,
WITHOUT WARRANTIES OR CONDITIONS OF ANY KIND, either express or implied.
See the License for the specific language governing permissions and
limitations under the License.
-->
<!DOCTYPE svg PUBLIC "-//W3C//DTD SVG 1.1//EN" "http://www.w3.org/Graphics/SVG/1.1/DTD/svg11.dtd">
<svg version="1.1" id="Layer_1" xmlns="http://www.w3.org/2000/svg" xmlns:xlink="http://www.w3.org/1999/xlink" x="0px" y="0px"
	 width="305px" height="100px" viewBox="0 0 305 100" enable-background="new 0 0 305 100" xml:space="preserve">
<g>
	<path fill="#0086F8" d="M102.955,48.821c-0.195-0.596-0.475-1.161-0.825-1.682c-0.361-0.537-0.804-1.004-1.254-1.453l-0.002-0.002
		c-0.968-0.896-2.328-1.287-3.606-1.468c-0.408-0.058-0.819-0.095-1.231-0.105c-0.356-0.009-0.802-0.033-1.053-0.329
		c-1.695-2.342-2.909-2.961-3.188-3.08c0.012,0.008,0.025,0.014,0.036,0.021l-0.06-0.03c0.007,0.002,0.015,0.005,0.023,0.009
		c-2.53-1.456-5.091-0.693-6.365-0.125c-0.405-0.53-0.902-0.996-1.448-1.376c-0.436-0.302-0.95-0.603-1.489-0.646
		c-1.093-0.092-2.242,0.187-3.029,0.99c0,0-0.276,0.359-0.29,0.454c-0.726-0.305-1.494-0.473-2.273-0.577
		c-1.515-0.202-3.054-0.196-4.582-0.169c-1.257,0.021-2.528-0.064-3.739-0.419c-1.176-0.345-2.252-0.94-3.244-1.649
		c-1.349-0.966-2.57-2.105-3.771-3.25c-1.123-1.069-2.273-2.092-3.554-2.974c-2.379-1.639-5.064-2.751-7.894-3.323
		c-1.549-0.314-3.127-0.476-4.704-0.531c-1.504-0.053-3.016-0.033-4.508,0.139c-2.716,0.316-5.395,1.079-7.848,2.286
		c-2.475,1.216-4.744,2.913-6.424,5.114c-0.849,1.111-1.537,2.344-2.023,3.655c-0.299,0.804-0.521,1.634-0.818,2.438
		c-0.273,0.735-0.58,1.459-0.934,2.158c-0.477,0.937-1.037,1.847-1.75,2.624c-0.338,0.369-0.715,0.723-1.15,0.975
		c-0.061,0.035-0.123,0.07-0.188,0.096l-0.499,0.122c0.039-0.011,0.212,0.472,0.212,0.472l0.093,0.26l0.144,0.402l0.413-0.109
		c0.207-0.057,1.021-0.576,1.772-1.424c0.499,8.746,6.235,15.138,6.701,15.644c-0.005-0.008-0.01-0.016-0.016-0.023l0.046,0.057
		c-0.002-0.004-0.012-0.014-0.03-0.033c1.95,2.84,2.988,7.908,3.1,8.479l0.004,0.018c0.003,0.012,0.008,0.031,0.008,0.031
		l0.091,0.318c0.162,0.578,0.34,1.113,0.799,1.525c0.504,0.457,1.104,0.641,1.771,0.666c0.245-0.004,7.276,0.002,10.656,0.004
		L46.881,73c1.066,0,2.144-0.775,2.144-2.258v-0.199c0.003-1.99,0.003-3.336,0.002-4.033c4.804,0.336,7.975-1.559,9.368-2.639
		c1.4,1.135,3.125,2.176,3.387,2.33c-0.004-0.002-0.007-0.006-0.012-0.008l0.045,0.029c-0.001,0-0.014-0.008-0.033-0.021
		c0.938,0.705,1.008,1.934,1.047,3.004l0.045,1.383c0.021,0.703,0.27,1.402,0.82,1.865c0.365,0.303,0.856,0.502,1.335,0.504
		c0.386,0.004,0.771,0.002,1.157,0.002c1.859,0,3.722,0,5.581,0c1.872-0.002,3.747-0.002,5.621-0.004c0.405,0,0.811,0,1.215,0
		c0.681-0.021,1.349-0.379,1.752-0.926c0.497-0.674,0.388-1.488,0.393-2.277c0.004-0.982,0.001-1.957,0.004-2.936
		c0.003-0.635,0.005-1.27,0.008-1.906v-0.035c0-0.002-0.005-0.037-0.005-0.037c-0.174-1.16,0.583-2.215,1.433-2.916
		c1.215-1.006,2.199-2.318,2.537-3.881c2.521,1.357,5.167,2.434,7.952,3.107c0.485,0.117,0.969,0.236,1.453,0.357
		c2.285,0.635,3.255-0.475,3.509-0.848c0.369-0.465,0.367-1.107,0.565-1.646l0.123,0.049l0.105,0.041l0.112-0.012
		c1.257-0.127,2.089-0.865,2.364-1.354c-0.004,0.006-0.007,0.012-0.012,0.016l0.033-0.053c-0.007,0.012-0.015,0.025-0.021,0.037
		c1.689-2.426,2.133-4.887,2.177-5.16C103.352,51.334,103.347,50.036,102.955,48.821z M102.175,52.402
		c-0.046,0.275-0.457,2.555-2.039,4.818l-0.017,0.025l-0.013,0.027c-0.077,0.148-0.587,0.744-1.554,0.881l-1.871-0.732l-0.372-0.146
		l-0.199,0.348l-0.119,0.211l-0.241,0.424l0.436,0.219l1.055,0.529l-0.062,0.252c-0.066,0.281-0.166,0.707-0.271,0.832l-0.021,0.02
		c-0.287,0.453-0.838,0.633-1.35,0.656c-0.724,0.033-1.422-0.221-2.115-0.393c-1.698-0.4-4.53-1.064-8.823-3.459l-0.613-0.342
		l-0.075,0.697c-0.15,1.428-0.891,2.68-1.947,3.631c-0.304,0.271-0.643,0.5-0.925,0.799c-0.27,0.287-0.505,0.611-0.701,0.953
		c-0.396,0.684-0.61,1.484-0.503,2.273v-0.02l0.006,0.072c-0.003-0.018-0.004-0.035-0.006-0.053
		c-0.004,0.762-0.007,1.521-0.01,2.283c-0.002,0.412,0.019,0.826,0.015,1.24c-0.005,0.482-0.018,0.969-0.02,1.451
		c-0.003,0.422,0.09,0.922-0.067,1.328c-0.142,0.355-0.476,0.631-0.839,0.74c-0.442,0.133-0.956,0.061-1.411,0.061
		c-1.044,0.002-2.089,0.002-3.135,0.002c-2.087,0.002-4.175-0.002-6.262,0.008c-0.521,0.004-1.043,0.006-1.562,0.004
		c-0.512,0-1.037,0.027-1.546-0.014c-0.343-0.027-0.657-0.197-0.871-0.469c-0.242-0.309-0.307-0.678-0.335-1.059
		c-0.072-0.998,0.03-2.016-0.203-2.996c-0.19-0.795-0.6-1.566-1.267-2.059L62.3,65.432l-0.023-0.014
		c-0.021-0.014-2.09-1.234-3.577-2.498L58.4,62.666L58.1,62.918c-0.892,0.752-4.215,3.156-9.494,2.627l-0.522-0.055l0.013,0.525
		c0.004,0.176,0.008,1.104,0.001,4.525l-0.001,0.201c0,0.92-0.609,1.33-1.215,1.33l-1.848-0.002c-2.117,0-4.233-0.002-6.351-0.006
		c-1.231,0-2.464,0-3.695,0c-0.218,0-0.438,0.012-0.653,0c-0.4-0.02-0.789-0.141-1.093-0.408c-0.326-0.289-0.429-0.699-0.542-1.104
		l-0.094-0.328c-0.107-0.559-1.186-5.828-3.254-8.818l-0.021-0.031l-0.026-0.025c-0.57-0.6-1.072-1.281-1.553-1.953
		c-1.395-1.951-2.555-4.078-3.411-6.318c-0.544-1.426-0.963-2.9-1.226-4.404c-0.141-0.808-0.237-1.623-0.285-2.441
		c-0.023-0.423-0.035-0.848-0.033-1.271c0-0.212,0.23-0.447,0.343-0.628c0.12-0.196,0.235-0.396,0.345-0.598
		c0.461-0.841,0.836-1.726,1.164-2.626c0.338-0.924,0.584-1.885,0.95-2.799c0.665-1.668,1.688-3.176,2.942-4.459
		c2.52-2.573,5.887-4.24,9.354-5.115c1.931-0.487,3.905-0.711,5.895-0.726c2.038-0.017,4.088,0.124,6.088,0.528
		c1.795,0.361,3.543,0.951,5.184,1.765c1.65,0.819,3.146,1.872,4.529,3.083c2.713,2.375,5.251,5.409,8.864,6.391
		c1.962,0.533,3.99,0.37,5.996,0.406c1.006,0.018,2.02,0.072,3.006,0.269c0.245,0.05,0.488,0.108,0.727,0.179
		c0.11,0.033,0.22,0.068,0.329,0.107c0.054,0.021,0.107,0.04,0.161,0.062c0.068,0.026,0.112,0.015,0.101,0.097
		c-0.037,0.234-0.122,0.457-0.143,0.695c-0.017,0.221-0.01,0.444,0.03,0.662c-0.001-0.01-0.002-0.021-0.002-0.032
		c0.002,0.022,0.006,0.044,0.008,0.066c-0.002-0.011-0.003-0.022-0.006-0.034c0.05,0.82,0.518,1.561,1.149,2.064
		c0.729,0.58,1.662,0.836,2.58,0.883c0.231,0.012,0.465,0.012,0.696,0c0.126-0.006,0.246-0.03,0.341-0.123
		c0.158-0.153,0.174-0.419,0.062-0.604c-0.176-0.291-0.555-0.188-0.838-0.191c-0.453-0.006-0.912-0.063-1.342-0.206
		c-0.749-0.247-1.496-0.801-1.686-1.605c-0.185-0.782-0.019-1.614,0.482-2.249c0.233-0.328,0.701-0.532,1.073-0.639
		c0.439-0.125,0.972-0.199,1.417-0.069c0.494,0.144,0.935,0.477,1.319,0.806c0.37,0.316,0.707,0.679,0.971,1.092l0.225,0.352
		l0.375-0.188c0.96-0.486,3.459-1.467,5.877-0.055l0.031,0.019c0.126,0.052,0.249,0.113,0.363,0.187
		c0.798,0.514,1.46,1.285,2.04,2.023c0.267,0.337,0.485,0.727,0.859,0.957c0.322,0.197,0.699,0.271,1.071,0.309
		c0.79,0.078,1.569,0.104,2.347,0.289c0.788,0.188,1.567,0.503,2.169,1.059l0.002,0.002c0.781,0.704,1.412,1.598,1.765,2.593
		C102.403,50.061,102.418,51.266,102.175,52.402z"/>
	<path fill="#0086F8" d="M99.949,50.408L99.949,50.408c-0.185-0.211-0.343-0.47-0.363-0.758c-0.035-0.46,0.353-0.771,0.724-0.958
		c0.535-0.269,0.118-1.098-0.417-0.827c-0.633,0.319-1.174,0.864-1.232,1.604c-0.042,0.583,0.226,1.192,0.641,1.6
		C99.727,51.488,100.378,50.826,99.949,50.408L99.949,50.408"/>
	<path fill="#0086F8" d="M91.961,45.18c0,0.602-0.501,1.104-1.104,1.104c-0.602,0-1.104-0.502-1.104-1.104
		c0-0.6,0.504-1.104,1.104-1.104C91.459,44.077,91.961,44.581,91.961,45.18"/>
</g>
<g>
	<path fill="#22272F" d="M176.213,73.121c-1.955,0-3.234-1.688-3.234-3.918c0-2.262,1.337-3.938,3.269-3.938
		c1.097,0,1.92,0.391,2.548,1.219l-0.708,0.51c-0.515-0.662-0.994-0.957-1.863-0.957c-1.371,0-2.354,1.295-2.354,3.145
		c0,1.861,1.018,3.166,2.366,3.166c0.868,0,1.463-0.369,1.978-1l0.617,0.51C178.247,72.609,177.378,73.121,176.213,73.121z"/>
	<path fill="#22272F" d="M182.54,73.121c-1.463,0-2.583-1.035-2.583-2.971c0-1.938,1.165-2.98,2.628-2.98s2.583,1,2.583,2.938
		C185.168,72.043,184.003,73.121,182.54,73.121z M182.562,67.877c-1.04,0-1.737,0.75-1.737,2.252c0,1.5,0.697,2.283,1.737,2.283
		s1.749-0.783,1.749-2.283C184.312,68.627,183.603,67.877,182.562,67.877z"/>
	<path fill="#22272F" d="M193.794,73v-3.34c0-1.305-0.423-1.783-1.291-1.783c-0.812,0-1.337,0.521-1.337,1.783V73h-0.857v-3.34
		c0-1.305-0.457-1.783-1.292-1.783c-0.822,0-1.337,0.521-1.337,1.783V73h-0.857v-5.711h0.857v0.695
		c0.309-0.488,0.812-0.814,1.521-0.814c0.846,0,1.359,0.434,1.646,0.979c0.354-0.545,0.846-0.979,1.817-0.979
		c1.223,0,1.988,0.684,1.988,2.35V73H193.794z"/>
	<path fill="#22272F" d="M203.561,73v-3.34c0-1.305-0.423-1.783-1.291-1.783c-0.812,0-1.337,0.521-1.337,1.783V73h-0.857v-3.34
		c0-1.305-0.457-1.783-1.292-1.783c-0.822,0-1.337,0.521-1.337,1.783V73h-0.857v-5.711h0.857v0.695
		c0.309-0.488,0.812-0.814,1.521-0.814c0.846,0,1.359,0.434,1.646,0.979c0.354-0.545,0.846-0.979,1.817-0.979
		c1.223,0,1.988,0.684,1.988,2.35V73H203.561z"/>
	<path fill="#22272F" d="M210.082,73v-0.695c-0.344,0.479-0.903,0.816-1.657,0.816c-1.269,0-2.104-0.709-2.104-2.352v-3.48h0.857
		v3.34c0,1.229,0.457,1.783,1.417,1.783c0.834,0,1.486-0.531,1.486-1.783v-3.34h0.856V73H210.082z"/>
	<path fill="#22272F" d="M216.674,73v-3.34c0-1.229-0.457-1.783-1.418-1.783c-0.834,0-1.485,0.533-1.485,1.783V73h-0.857v-5.711
		h0.857v0.695c0.343-0.479,0.903-0.814,1.657-0.814c1.269,0,2.103,0.707,2.103,2.35V73H216.674z"/>
	<path fill="#22272F" d="M219.973,66.266c-0.354,0-0.628-0.26-0.628-0.576c0-0.326,0.274-0.588,0.628-0.588
		c0.32,0,0.595,0.262,0.595,0.588C220.567,66.006,220.293,66.266,219.973,66.266z M219.527,73v-5.711h0.857V73H219.527z"/>
	<path fill="#22272F" d="M223.515,67.975v3.721c0,0.512,0.148,0.686,0.605,0.686c0.343,0,0.571-0.055,0.846-0.164l-0.057,0.707
		c-0.332,0.131-0.651,0.197-1.109,0.197c-0.742,0-1.143-0.35-1.143-1.295v-3.852h-0.743v-0.686h0.743v-1.764l0.857-0.457v2.221H225
		v0.686H223.515z"/>
	<path fill="#22272F" d="M228.198,75.014h-0.857l0.823-2.078l-2.138-5.646h0.903l1.463,4.145l0.205,0.588l0.206-0.576l1.475-4.156
		h0.902L228.198,75.014z"/>
	<path fill="#22272F" d="M235.816,73v-7.615h4.834v0.773h-3.942v2.393h2.285v0.771h-2.285v2.906h4.114V73H235.816z"/>
	<path fill="#22272F" d="M245.938,73v-0.695c-0.423,0.436-0.994,0.816-1.806,0.816c-1.2,0-2.148-0.871-2.148-2.885
		c0-2.023,1.006-3.066,2.263-3.066c0.754,0,1.269,0.305,1.691,0.76v-2.404l0.857-0.457V73H245.938z M245.938,68.736
		c-0.331-0.479-0.914-0.859-1.623-0.859c-0.994,0-1.485,0.814-1.485,2.35c0,1.436,0.571,2.186,1.52,2.186
		c0.641,0,1.166-0.326,1.589-0.826V68.736z"/>
	<path fill="#22272F" d="M249.271,66.266c-0.354,0-0.628-0.26-0.628-0.576c0-0.326,0.274-0.588,0.628-0.588
		c0.32,0,0.595,0.262,0.595,0.588C249.866,66.006,249.592,66.266,249.271,66.266z M248.826,73v-5.711h0.857V73H248.826z"/>
	<path fill="#22272F" d="M252.813,67.975v3.721c0,0.512,0.148,0.686,0.605,0.686c0.343,0,0.571-0.055,0.846-0.164l-0.057,0.707
		c-0.332,0.131-0.651,0.197-1.109,0.197c-0.742,0-1.143-0.35-1.143-1.295v-3.852h-0.743v-0.686h0.743v-1.764l0.857-0.457v2.221
		h1.485v0.686H252.813z"/>
	<path fill="#22272F" d="M256.549,66.266c-0.354,0-0.628-0.26-0.628-0.576c0-0.326,0.274-0.588,0.628-0.588
		c0.32,0,0.595,0.262,0.595,0.588C257.144,66.006,256.869,66.266,256.549,66.266z M256.104,73v-5.711h0.857V73H256.104z"/>
	<path fill="#22272F" d="M261.257,73.121c-1.463,0-2.583-1.035-2.583-2.971c0-1.938,1.165-2.98,2.628-2.98s2.583,1,2.583,2.938
		C263.885,72.043,262.72,73.121,261.257,73.121z M261.279,67.877c-1.04,0-1.737,0.75-1.737,2.252c0,1.5,0.697,2.283,1.737,2.283
		s1.749-0.783,1.749-2.283C263.028,68.627,262.319,67.877,261.279,67.877z"/>
	<path fill="#22272F" d="M269.299,73v-3.34c0-1.229-0.457-1.783-1.418-1.783c-0.834,0-1.485,0.533-1.485,1.783V73h-0.857v-5.711
		h0.857v0.695c0.343-0.479,0.903-0.814,1.657-0.814c1.269,0,2.103,0.707,2.103,2.35V73H269.299z"/>
</g>
<g>
	<path fill="#FF4040" d="M180.014,57.912v-4.926h-5.051v4.926H172.5V46.184h2.463v4.49h5.051v-4.49h2.461v11.729H180.014z"/>
	<path fill="#FF4040" d="M185.936,57.912V46.184h2.463v11.729H185.936z"/>
	<path fill="#FF4040" d="M197.035,53.758h-2.71v4.154h-2.463V46.184h5.384c2.322,0,4.24,1.224,4.24,3.721
		C201.486,52.617,199.586,53.758,197.035,53.758z M197.158,48.463h-2.833v3.016h2.868c1.144,0,1.76-0.503,1.76-1.524
		C198.953,48.932,198.248,48.463,197.158,48.463z"/>
	<path fill="#FF4040" d="M209.117,53.758h-2.709v4.154h-2.465V46.184h5.385c2.322,0,4.238,1.224,4.238,3.721
		C213.566,52.617,211.668,53.758,209.117,53.758z M209.24,48.463h-2.832v3.016h2.866c1.145,0,1.76-0.503,1.76-1.524
		C211.034,48.932,210.33,48.463,209.24,48.463z"/>
	<path fill="#FF4040" d="M220.723,58.098c-3.359,0-5.348-2.48-5.348-6.049c0-3.569,1.988-6.049,5.348-6.049
		c3.361,0,5.35,2.479,5.35,6.049C226.072,55.617,224.084,58.098,220.723,58.098z M220.723,48.328c-1.988,0-2.812,1.626-2.812,3.721
		c0,2.094,0.824,3.719,2.812,3.719c1.99,0,2.816-1.625,2.816-3.719C223.539,49.954,222.713,48.328,220.723,48.328z"/>
	<path fill="#FF4040" d="M240.965,49.602c-0.439-0.804-1.144-1.273-2.25-1.273c-1.848,0-2.904,1.541-2.904,3.721
		c0,2.111,1.072,3.719,2.921,3.719c1.108,0,1.76-0.451,2.41-1.49l2.076,1.172c-0.845,1.658-2.323,2.648-4.558,2.648
		c-3.218,0-5.383-2.346-5.383-6.049c0-3.569,2.252-6.049,5.471-6.049c2.324,0,3.73,1.072,4.506,2.596L240.965,49.602z"/>
	<path fill="#FF4040" d="M254.895,57.912v-4.305c0-0.639,0.035-2.129,0.035-2.581c-0.176,0.435-0.545,1.274-0.861,1.942
		l-2.498,5.213l-2.499-5.213c-0.316-0.668-0.687-1.508-0.86-1.942c0,0.452,0.032,1.942,0.032,2.581v4.305h-2.408V46.184h2.376
		l2.568,5.312c0.316,0.652,0.686,1.541,0.844,1.959c0.158-0.434,0.51-1.289,0.826-1.959l2.48-5.312h2.428v11.729H254.895z"/>
	<path fill="#FF4040" d="M264.83,58.098c-2.059,0-3.854-0.82-4.785-2.129l1.776-1.508c0.862,0.955,1.971,1.342,3.151,1.342
		c1.458,0,2.145-0.387,2.145-1.275c0-0.754-0.422-1.088-2.746-1.592c-2.269-0.502-3.851-1.189-3.851-3.502
		c0-2.128,1.97-3.434,4.397-3.434c1.918,0,3.325,0.687,4.486,1.842l-1.776,1.643c-0.792-0.771-1.671-1.206-2.798-1.206
		c-1.318,0-1.76,0.536-1.76,1.056c0,0.736,0.528,0.973,2.481,1.408c1.954,0.436,4.116,1.072,4.116,3.619
		C269.668,56.59,268.19,58.098,264.83,58.098z"/>
</g>
</svg>
