<?xml version="1.0" encoding="utf-8"?>
<!--
Copyright 2015 Hippo B.V. (http://www.onehippo.com)

Licensed under the Apache License, Version 2.0 (the "License");
you may not use this file except in compliance with the License.
You may obtain a copy of the License at

http://www.apache.org/licenses/LICENSE-2.0

Unless required by applicable law or agreed to in writing, software
distributed under the License is distributed on an "AS IS" BASIS,
WITHOUT WARRANTIES OR CONDITIONS OF ANY KIND, either express or implied.
See the License for the specific language governing permissions and
limitations under the License.
-->
<!DOCTYPE svg PUBLIC "-//W3C//DTD SVG 1.1//EN" "http://www.w3.org/Graphics/SVG/1.1/DTD/svg11.dtd">
<svg version="1.1" id="Layer_1" xmlns="http://www.w3.org/2000/svg" xmlns:xlink="http://www.w3.org/1999/xlink" x="0px" y="0px" width="1200px" height="920px" viewBox="0 0 1200 920" enable-background="new 0 0 1200 920" xml:space="preserve">
<g>
  <path fill="none" stroke="#4C4C4C" stroke-miterlimit="10" d="M301.991,529.307"/>
</g>
<g opacity="0.1">
  <path fill="#FFFFFF" d="M1126.527,2.13l-104.354,14.941c-6.785,0.971-11.76,7.187-10.738,14.324l29.901,208.841 c1.02,7.135,7.401,11.727,14.193,10.754l104.552-14.967c6.786-0.972,11.759-7.174,10.735-14.325l-29.9-208.841 C1139.896,5.729,1133.32,1.157,1126.527,2.13z M1121.451,233.278l-29.38,4.082l-1.213-8.477l29.22-4.309L1121.451,233.278z M1161.109,210.301l-113.792,16.334l-28.149-196.613c-0.213-3.808,1.829-4.259,3.747-4.532l105.315-15.078 c1.83-0.262,4.44,1.246,4.774,3.579L1161.109,210.301z"/>
</g>
<g opacity="0.05">
  <path fill="#FFFFFF" d="M1161.119,210.302l-28.147-196.613c-0.864-3.715-2.951-3.574-4.87-3.299l-105.357,15.084 c-1.831,0.262-3.915,2.441-3.581,4.774L1161.119,210.302z"/>
</g>
<g opacity="0.1">
  <g>
    <path fill="none" stroke="#FFFFFF" stroke-width="7" d="M1107.889,242.859c0,0,3.959,31.514,24.109,68.202 c20.151,36.688,37.424,55.964,31.666,99.517c-5.758,43.559-45.846,89.5-45.846,89.5"/>
  </g>
  <polygon opacity="0.8" fill="#FFFFFF" points="1144.686,338.586 1116.898,324.811 1126.456,353.426 	"/>
  <polygon opacity="0.8" fill="#FFFFFF" points="1171.143,345.43 1141.021,337.576 1167.802,322.535 	"/>
  <polygon opacity="0.8" fill="#FFFFFF" points="1121.596,294.461 1093.812,280.682 1103.369,309.301 	"/>
  <polygon opacity="0.8" fill="#FFFFFF" points="1148.056,301.305 1117.936,293.452 1144.717,278.406 	"/>
  <polygon opacity="0.8" fill="#FFFFFF" points="1164.541,378.693 1136.758,364.914 1146.313,393.533 	"/>
  <polygon opacity="0.8" fill="#FFFFFF" points="1160.881,377.684 1191,385.537 1187.662,362.639 	"/>
  <polygon opacity="0.8" fill="#FFFFFF" points="1160.936,424.105 1136.36,405.432 1140.131,435.291 	"/>
  <polygon opacity="0.8" fill="#FFFFFF" points="1185.562,435.74 1157.536,422.445 1186.775,412.645 	"/>
</g>
<path fill="none" stroke="#B5D8E5" stroke-width="0.9667" stroke-miterlimit="10" d="M1049.744,317.742 c0,27.229-22.075,49.87-49.305,49.87s-49.305-22.64-49.305-49.87c0-27.23,22.075-49.304,49.305-49.304 S1049.744,287.845,1049.744,317.742z"/>
<path fill="none" stroke="#B5D8E5" stroke-width="0.9667" stroke-miterlimit="10" d="M924.066,317.742 c0,27.229-22.075,49.87-49.305,49.87c-27.229,0-49.304-22.64-49.304-49.87c0-27.23,22.075-49.304,49.304-49.304 C901.991,268.438,924.066,290.511,924.066,317.742z"/>
<path fill="none" stroke="#B5D8E5" stroke-width="0.9667" stroke-miterlimit="10" d="M672.712,317.742 c0,27.229-22.075,49.87-49.305,49.87s-49.304-22.64-49.304-49.87c0-27.23,22.074-49.304,49.304-49.304 S672.712,290.511,672.712,317.742z"/>
<path fill="none" stroke="#B5D8E5" stroke-width="0.9667" stroke-miterlimit="10" d="M547.034,318.739 c0,27.229-22.075,48.823-49.304,48.823c-27.23,0-49.305-21.593-49.305-48.823c0-27.23,22.074-50.07,49.305-50.07 C524.959,268.668,547.034,291.508,547.034,318.739z"/>
<g>
  <path fill="#FFFFFF" d="M374.334,237.302c-0.24-0.004-0.488-0.022-0.744-0.054C373.846,237.28,374.094,237.298,374.334,237.302z"/>
  <path opacity="0.08" fill="#FFFFFF" d="M533.191,232.958c-10.829,2.656-21.646,5.364-32.532,8.073 c4.46,8.401,9.455,21.691,12.281,30.316c20.498,5.979,33.925,26.574,33.925,49.003c0,21.889-15.621,38.795-35.361,45.233 c-11.32,39.38-35.488,69.184-70.079,90.34c-64.918,39.705-150.664,28.842-202.461-25.004 c-56.289-58.523-59.647-144.689-18.557-205.344c43.676-64.474,130.785-93.672,211.226-53.617c2.995-12.174,5.771-24.12,8.967-35.96 c0.238-0.884,0.367-1.643,0.374-2.305c0.02-1.818-0.875-2.908-2.91-3.871c-0.185-0.088-0.379-0.174-0.583-0.26 c-1.148-0.483-2.298-0.957-3.449-1.42c-35.685-14.365-72.65-19.007-110.749-12.783c-47.135,7.709-86.883,29.426-119.011,64.947 c-1.949,2.154-3.843,4.332-5.681,6.533c-1.839,2.202-3.623,4.427-5.351,6.676c-1.729,2.249-3.403,4.521-5.023,6.817 c-21.055,29.846-32.888,63.65-35.961,101.101c-0.534,6.492-0.76,12.941-0.679,19.343c0.352,27.748,6.469,54.61,18.25,80.221 c30.778,66.896,92.798,111.289,164.017,118.748c4.189,0.439,8.411,0.75,12.659,0.93c14.162,0.602,28.627-0.252,43.23-2.664 c45.021-7.436,83.027-28.201,114.371-61.139c1.011-1.062,2.016-2.137,3.013-3.225c52.681-57.471,67.621-142.346,37.184-215.004 C541.112,231.039,541.16,230.993,533.191,232.958z"/>
  <path opacity="0.09" fill="#FFFFFF" d="M470.22,359.481c-14.099-8.677-22.078-22.797-22.078-40.566 c0-16.979,10.451-33.853,23.514-42.721c-1.055-2.645-3.785-8.832-5.032-11.35c-0.489,0.368-0.996,0.672-1.398,1.069 c-9.548,9.536-19.137,19.024-28.55,28.689c-0.116,0.118-0.223,0.255-0.322,0.405c-0.692,1.053-0.966,2.804-0.731,4.012 c1.442,7.499,2.107,14.998,1.624,22.595c-0.069,1.085-0.162,2.172-0.279,3.262c-0.245,2.286-0.581,4.538-1.003,6.754 c-6.685,35.083-35.071,61.002-69.206,65.526c-3.234,0.429-6.518,0.672-9.841,0.707c-6.647,0.068-13.446-0.674-20.289-2.31 c-27.299-6.531-48.736-26.556-57.784-51.789c-2.534-7.065-4.096-14.539-4.544-22.239c-3.146-54.137,45.349-95.995,98.491-84.967 c0.276,0.057,0.542,0.102,0.799,0.134c0.256,0.032,0.504,0.05,0.744,0.054c1.441,0.023,2.613-0.475,3.862-1.755 c8.936-9.127,18.019-18.101,27.04-27.139c0.738-0.743,1.395-1.562,2.142-2.404c-4.817-2.356-9.881-4.371-15.133-6.025 c-1.5-0.473-3.016-0.916-4.546-1.329c-1.53-0.413-3.073-0.796-4.629-1.149c-0.778-0.176-1.56-0.345-2.344-0.507 c-7.841-1.612-15.978-2.461-24.234-2.489c-34.676-0.116-71.469,14.246-97.415,47.266c-27.843,35.43-34.038,86.1-13.33,128.715 c1.656,3.409,3.485,6.767,5.489,10.062c5.009,8.235,11.111,16.074,18.348,23.33c42.754,42.883,112.581,47.445,161.037,9.863 c0.793-0.615,1.576-1.236,2.348-1.864C452.345,395.572,463.323,380.061,470.22,359.481z"/>
  <path opacity="0.1" fill="#FFFFFF" d="M525.851,146.712V83.899c-1.634,1.556-2.592,2.422-3.506,3.334 c-16.953,16.942-33.942,33.861-50.79,50.908c-1.657,1.679-2.961,4.083-3.553,6.383c-3.843,14.899-7.398,29.882-11.173,44.806 c-0.415,1.638-1.381,3.358-2.579,4.563c-27.456,27.566-54.993,55.05-82.464,82.604c-1.438,1.438-2.669,1.557-4.682,1.31 c-5.92-0.713-12.067-1.919-17.843-1.059c-20.93,3.129-35.508,21.757-34.352,42.853c1.094,20,17.739,36.434,38.349,37.861 c27.911,1.941,49.386-24.39,41.804-51.369c-0.677-2.411-0.274-3.855,1.482-5.605c27.312-27.197,54.533-54.493,81.852-81.68 c1.441-1.428,3.508-2.568,5.479-3.072c14.911-3.802,29.887-7.359,44.8-11.161c1.972-0.503,4.037-1.638,5.475-3.066 c17.376-17.21,34.636-34.533,51.915-51.833c0.728-0.719,1.374-1.515,2.68-2.966H525.851z"/>
</g>
<g>
  <g>
    <path fill="#B5D8E5" d="M637.523,286.836c1.882,0,3.488,1.495,3.488,3.47l0.004,57.106c0,1.979-1.626,3.438-3.506,3.438h-27.135 c-1.881,0-3.375-1.494-3.375-3.469l-0.027-56.677c0-1.978,1.592-3.867,3.471-3.867H637.523 M620,347.85h9v-1h-9V347.85 M637.523,285.87h-27.08c-2.364,0-4.438,2.259-4.438,4.834l0.027,56.678c0,2.487,1.907,4.435,4.342,4.435h27.135 c2.466,0,4.473-1.976,4.473-4.404l-0.004-57.106C641.979,287.86,639.979,285.87,637.523,285.87L637.523,285.87z"/>
  </g>
</g>
<line fill="none" stroke="#B5D8E5" stroke-width="0.9667" stroke-miterlimit="10" x1="606.248" y1="343.331" x2="641.051" y2="343.331"/>
<path fill="none" stroke="#B5D8E5" stroke-width="0.9667" stroke-miterlimit="10" d="M477.027,334.215 c-5.444-0.64-10.351-1.968-10.351-5.012c0-4.6,5.249-8.608,13.102-10.047c0.181-0.627,0.277-1.318,0.277-2.023 c0-0.527-0.056-1.057-0.167-1.576c-2.445-2.231-3.899-5.723-3.899-9.384c0-6.356,4.387-11.335,9.985-11.335 c3.182,0,5.522,1.102,7.312,3.601"/>
<path fill="none" stroke="#B5D8E5" stroke-width="0.9667" stroke-miterlimit="10" d="M503.754,298.771 c1.777-2.613,4.346-3.932,7.608-3.932c5.618,0,10.019,4.949,10.019,11.268c0,3.515-1.293,6.809-3.554,9.067 c-0.156,0.584-0.238,1.235-0.238,1.894c0,0.725,0.104,1.438,0.3,2.084c7.675,1.486,12.805,5.473,12.805,9.986 c0,1.93-4.205,4.07-10.76,5.031"/>
<g>
  <path fill="none" stroke="#B5D8E5" stroke-width="0.9667" stroke-miterlimit="10" d="M499.667,342.514 c-10.942,0-23.42-0.871-23.42-5.569c0-5.248,6.671-9.981,15.709-11.62c0.298-0.811,0.426-1.506,0.426-2.344 c0-0.625-0.044-1.494-0.214-2.26c-2.942-2.43-6.029-5.797-6.053-9.932c-0.044-7.886,5.242-13.768,12.242-13.85 c6.273-0.072,11.376,6.065,11.376,13.521c0,4.028-1.488,7.8-4.088,10.378c-0.188,0.699-0.265,1.4-0.265,2.184 c0,0.868,0.102,1.536,0.341,2.303c8.835,1.685,14.747,6.463,14.747,11.62C520.469,339.508,511.561,342.514,499.667,342.514z"/>
</g>
<path fill="none" stroke="#B5D8E5" stroke-width="0.9667" stroke-miterlimit="10" d="M1018.825,309.82 c-0.444,0.004-0.876,0.041-1.309,0.088c0.017-0.235,0.021-0.475,0.021-0.716c-0.061-6.895-5.688-12.421-12.569-12.358 c-6.548,0.053-11.871,5.146-12.322,11.564c-1.59-1.688-3.847-2.739-6.345-2.719c-4.752,0.041-8.57,3.92-8.528,8.676 c0.003,0.545,0.069,1.07,0.171,1.584c-1.101,0.176-1.944,0.285-2.444,0.29c-4.511,0.036-8.135,3.721-8.097,8.227 c0.039,4.507,3.892,7.934,8.402,7.894h41.725c6.177-0.053,12.623-5.27,12.576-11.445 C1030.047,314.734,1025.003,309.768,1018.825,309.82z"/>
<g>
  <path fill="#B5D8E5" d="M618,303.85c0,0-1.969-6.538-1.969-6.047L616,303.85h-1v-8v-1h0.707l2.807,8l2.486-8h1v9h-1l0.004-6.107 L619,303.85H618z"/>
  <g>
    <path fill="#B5D8E5" d="M628.013,295.867c0.391,0,0.847,0.1,1.275,0.838c0.431,0.746,0.649,1.826,0.649,3.211 c0,0.962-0.067,1.067-0.352,1.508c-0.09,0.141-0.19,0.297-0.303,0.49c-0.435,0.751-0.913,0.847-1.28,0.847 c-0.365,0-0.841-0.096-1.275-0.847c-0.11-0.191-0.21-0.347-0.3-0.486c-0.286-0.447-0.354-0.553-0.354-1.526 c0-1.382,0.222-2.458,0.657-3.196C627.169,295.962,627.646,295.867,628.013,295.867 M628.013,294.804 c-0.929,0-1.662,0.453-2.198,1.363c-0.536,0.908-0.804,2.154-0.804,3.735c0,1.587,0.266,1.628,0.797,2.545 c0.532,0.918,1.265,1.377,2.195,1.377c0.935,0,1.668-0.459,2.2-1.377c0.532-0.917,0.797-0.953,0.797-2.531 c0-1.582-0.264-2.829-0.792-3.743C629.679,295.26,628.947,294.804,628.013,294.804L628.013,294.804z"/>
  </g>
  <path fill="#B5D8E5" d="M618,310.85c0.886,0,2.174,0.483,2.188,1.5c0.016,1.172-1.313,1.5-2.188,1.5h-2v-3H618 M618,309.85h-2h-1v1 v3v1h1h2c0.498,0,1.744-0.088,2.55-0.904c0.426-0.431,0.646-0.987,0.638-1.609C621.166,310.78,619.551,309.85,618,309.85 L618,309.85z"/>
  <path fill="#B5D8E5" d="M618.328,314.85c0.886,0,2.174,0.468,2.188,1.484c0.016,1.172-1.313,1.516-2.188,1.516H616v-3H618.328 M618.328,313.85H616h-1v1v3v1h1h2.328c0.386,0,1.711-0.066,2.545-0.911c0.429-0.435,0.65-0.994,0.643-1.618 C621.495,314.774,619.879,313.85,618.328,313.85L618.328,313.85z"/>
  <path fill="#B5D8E5" d="M626,318.85v-9h1v9H626z"/>
  <path fill="#B5D8E5" d="M615,332.85v-9h1v8h4v1H615z"/>
  <path fill="#B5D8E5" d="M629,332.85h-5v-9h5v1h-4v3h4v1h-4v3h4V332.85z"/>
</g>
<path fill="none" stroke="#B5D8E5" stroke-width="0.9667" stroke-miterlimit="10" d="M798.389,317.742 c0,27.229-22.074,49.87-49.304,49.87s-49.305-22.64-49.305-49.87c0-27.23,22.075-49.304,49.305-49.304 S798.389,290.511,798.389,317.742z"/>
<g>
    <path fill="#B5D8E5" d="M772.236,330.949c1.561,0,2.83,1.254,2.83,2.796s-1.27,2.796-2.83,2.796c-1.56,0-2.829-1.254-2.829-2.796 S770.677,330.949,772.236,330.949 M772.236,329.982c-2.091,0-3.796,1.681-3.796,3.763c0,2.08,1.705,3.763,3.796,3.763 c2.092,0,3.797-1.683,3.797-3.763C776.033,331.663,774.328,329.982,772.236,329.982L772.236,329.982z"/>
</g>
<g>
    <path fill="#B5D8E5" d="M740.843,292.637c0.132,0,0.23,0.088,0.241,0.172l0.927,6.1l0.091,0.595l0.573,0.182 c1.056,0.335,1.979,0.713,2.822,1.155l0.542,0.284l0.488-0.368l4.708-3.544l0.044-0.033l0.044-0.042 c0.013-0.008,0.06-0.026,0.129-0.026c0.033,0,0.113,0.026,0.173,0.077l0.43,0.395c1.64,1.503,3.681,3.375,4.937,5.124 c0.005,0.01,0.017,0.053,0.017,0.129c0,0.041,0,0.083-0.069,0.187c-0.507,0.686-1.049,1.375-1.573,2.042 c-0.636,0.809-1.293,1.645-1.915,2.507l-0.35,0.485l0.278,0.53c0.55,1.048,0.983,2.084,1.288,3.082l0.178,0.582l0.602,0.091 l6.047,0.922c0.071,0.012,0.159,0.126,0.159,0.241v7.363c-0.004,0.071-0.089,0.208-0.149,0.244l-6.087,0.916l-0.579,0.087 l-0.191,0.553c-0.412,1.192-0.789,2.075-1.224,2.859l-0.291,0.525l0.342,0.493c1.188,1.719,2.467,3.271,3.594,4.64 c0.087,0.106,0.11,0.19,0.11,0.219c0,0.043,0,0.058-0.099,0.177c-0.93,1.221-4.657,5.129-5.677,5.536 c-0.049-0.012-0.133-0.041-0.258-0.115l-4.531-3.548l-0.489-0.383l-0.552,0.287c-0.915,0.475-1.905,0.89-2.864,1.201l-0.59,0.191 l-0.072,0.616l-0.094,0.817c-0.199,1.75-0.405,3.559-0.85,5.229c-0.011,0.044-0.062,0.188-0.259,0.188h-7.35 c-0.131,0-0.228-0.083-0.238-0.17l-0.931-6.098l-0.091-0.59l-0.568-0.184c-1.056-0.341-1.98-0.723-2.826-1.167l-0.544-0.286 l-0.49,0.372l-4.707,3.575c-0.056,0.045-0.132,0.072-0.211,0.072c-0.041,0-0.09-0.025-0.132-0.069l-0.023-0.024l-0.024-0.022 l-0.32-0.289c-1.677-1.513-3.765-3.395-4.999-5.094c-0.014-0.021-0.057-0.084-0.057-0.223c0-0.049,0-0.092,0.069-0.192 c0.51-0.689,1.055-1.383,1.582-2.054c0.632-0.803,1.284-1.633,1.902-2.489l0.353-0.487l-0.281-0.532 c-0.546-1.031-0.979-2.077-1.284-3.107l-0.176-0.592l-0.61-0.09l-6.024-0.884c-0.093-0.018-0.175-0.133-0.175-0.248v-7.354 c0.002-0.067,0.076-0.198,0.136-0.245l6.1-0.92l0.601-0.091l0.179-0.581c0.286-0.928,0.687-1.87,1.224-2.878l0.28-0.526 l-0.345-0.487c-1.186-1.671-2.426-3.211-3.601-4.638c-0.072-0.086-0.099-0.147-0.099-0.173c0-0.004,0.003-0.042,0.11-0.195 c0.941-1.288,4.648-5.115,5.661-5.521c0.05,0.015,0.128,0.05,0.224,0.121l4.574,3.545l0.489,0.379l0.549-0.286 c0.917-0.477,1.905-0.89,2.856-1.194l0.593-0.189l0.073-0.617l0.104-0.894c0.198-1.723,0.402-3.504,0.844-5.155 c0.014-0.058,0.067-0.192,0.255-0.192H740.843 M740.843,291.67h-7.35c-0.604,0-1.064,0.398-1.194,0.93 c-0.531,1.988-0.727,4.139-0.968,6.164c-1.021,0.326-2.048,0.758-3.009,1.258l-4.574-3.545c-0.27-0.2-0.565-0.332-0.861-0.332 c-1.127,0-5.598,4.834-6.396,5.926c-0.167,0.237-0.297,0.469-0.297,0.766c0,0.299,0.13,0.564,0.329,0.799 c1.225,1.488,2.421,2.981,3.548,4.571c-0.529,0.994-0.968,1.99-1.294,3.048l-6.168,0.931c-0.491,0.097-0.89,0.694-0.89,1.189 v7.354c0,0.566,0.398,1.09,0.96,1.197l6.065,0.891c0.335,1.129,0.797,2.229,1.356,3.285c-1.125,1.557-2.354,3.012-3.479,4.534 c-0.163,0.233-0.259,0.466-0.259,0.767c0,0.257,0.061,0.523,0.222,0.763c1.396,1.923,3.715,3.972,5.473,5.56 c0.23,0.239,0.528,0.365,0.828,0.365c0.296,0,0.592-0.1,0.826-0.293l4.677-3.551c0.953,0.5,1.951,0.898,2.979,1.23l0.931,6.098 c0.066,0.564,0.591,0.991,1.194,0.991h7.35c0.602,0,1.067-0.398,1.197-0.923c0.528-1.988,0.728-4.145,0.965-6.166 c1.023-0.332,2.05-0.764,3.012-1.263l4.575,3.583c0.268,0.167,0.563,0.293,0.86,0.293c1.128,0,5.595-4.873,6.396-5.925 c0.2-0.239,0.296-0.464,0.296-0.763c0-0.301-0.134-0.593-0.33-0.832c-1.226-1.488-2.419-2.946-3.546-4.576 c0.525-0.949,0.924-1.946,1.292-3.012l6.133-0.923c0.528-0.101,0.927-0.7,0.927-1.191v-7.364c0-0.561-0.398-1.096-0.961-1.193 l-6.066-0.925c-0.334-1.093-0.799-2.186-1.357-3.249c1.123-1.557,2.354-3.014,3.481-4.539c0.158-0.232,0.259-0.463,0.259-0.762 c0-0.266-0.062-0.528-0.227-0.728c-1.396-1.95-3.713-4.017-5.469-5.632c-0.232-0.2-0.528-0.332-0.827-0.332 c-0.297,0-0.593,0.097-0.798,0.296l-4.708,3.544c-0.953-0.5-1.951-0.895-2.979-1.221l-0.927-6.1 C741.97,292.102,741.444,291.67,740.843,291.67L740.843,291.67z"/>
</g>
<g>
<polygon fill="none" stroke="#B5D8E5" stroke-width="0.9667" stroke-miterlimit="10" points="774.719,320.672 775.595,324.981 778.386,326.592 782.557,325.196 784.854,329.176 781.56,332.09 781.56,335.313 784.854,338.227 782.557,342.208 778.386,340.811 775.595,342.422 774.719,346.732 770.123,346.732 769.247,342.422 766.456,340.811 762.285,342.208 759.987,338.227 763.282,335.313 763.282,332.09 759.987,329.176 762.285,325.196 766.456,326.592 769.247,324.981 770.123,320.672 "/>
  <g>
    <path fill="#B5D8E5" d="M737.293,311.616c3.062,0,5.555,2.466,5.555,5.498c0,3.031-2.492,5.496-5.555,5.496 c-3.062,0-5.553-2.465-5.553-5.496C731.74,314.082,734.231,311.616,737.293,311.616 M737.293,310.649 c-3.592,0-6.52,2.887-6.52,6.465c0,3.572,2.928,6.463,6.52,6.463c3.594,0,6.521-2.891,6.521-6.463 C743.814,313.536,740.887,310.649,737.293,310.649L737.293,310.649z"/>
  </g>
</g>
<g>
  <g>

      <line fill="none" stroke="#B5D8E5" stroke-width="0.9667" stroke-miterlimit="10" x1="876.063" y1="318.064" x2="882.124" y2="299.674"/>
  </g>
</g>
<g>
  <path fill="none" stroke="#B5D8E5" stroke-width="0.9667" stroke-miterlimit="10" d="M874.917,324.991 c-1.993,0-3.614-1.621-3.614-3.615c0-1.992,1.621-3.614,3.614-3.614c1.994,0,3.616,1.622,3.616,3.614 C878.533,323.37,876.911,324.991,874.917,324.991z"/>
</g>
<g>
  <g>
    <path fill="#B5D8E5" d="M874.992,291.665c14.457,0,26.219,12.522,26.219,27.913c0,5.391-0.85,7.644-3.566,12.092 c-0.311,0.482-2.173,1.136-2.766,1.213h-39.885c-0.564-0.078-2.337-0.725-2.633-1.185c-2.573-4.186-3.701-6.597-3.701-12.12 C848.66,304.187,860.473,291.665,874.992,291.665 M874.992,290.698c-15.349,0-27.299,13.199-27.299,28.88 c0,5.771,1.197,8.321,3.845,12.626c0.612,0.954,3.083,1.646,3.42,1.646h39.955c0.337,0,2.923-0.691,3.544-1.656 c2.717-4.447,3.721-6.866,3.721-12.616C902.178,303.897,890.338,290.698,874.992,290.698L874.992,290.698z"/>
  </g>
</g>
<path opacity="0.04" fill="#FFFFFF" d="M1088.641,846.82c-14.071-24.551-34.102-44.889-49.807-50.693 c-2.928,16.484,4.49,44.045,18.563,68.598c14.071,24.557,32.632,42.318,48.332,48.125 C1108.656,896.363,1102.713,871.377,1088.641,846.82z"/>
<path opacity="0.1" fill="#FFFFFF" d="M986.723,566.164c-0.113-0.016-0.226-0.029-0.344-0.049 c-4.599-12.289-10.063-24.75-16.562-37.066c-18.235-34.564-38.455-63.379-60.365-84.68c-29.285-28.465-67.662-55.33-96.272-40.883 c-28.149,19.332-23.149,64.078-13.395,103.732c7.302,29.674,21.944,61.688,42.548,94.891c7.075,11.408,14.756,22.051,22.714,31.922 c-0.33,0.797-0.663,1.609-0.997,2.439c-36.546,90.822,61.595,179.33,61.595,179.33c-44.588-113.928-14.601-125.953-6.284-127.172 c25.226,20.848,45.619,32.695,49.486,34.879c0.436,0.246,0.673,0.375,0.673,0.375l41.07-23.537c0,0,0.008-0.273,0.015-0.771 c0.072-4.473,0.159-28.381-5.196-61.055c7.96-7.229,35.126-17.041,104.906,71.445 C1110.313,709.965,1083.562,580.545,986.723,566.164z M872.705,720.73c-2.526-4.41-1-10.033,3.407-12.561 c4.411-2.525,10.033-0.998,12.562,3.41c2.525,4.408,0.998,10.031-3.41,12.559C880.854,726.666,875.232,725.143,872.705,720.73z M891.873,746.557c-3.372,1.93-7.672,0.768-9.605-2.609c-1.932-3.369-0.766-7.67,2.607-9.602c3.371-1.932,7.671-0.766,9.604,2.605 C896.411,740.324,895.248,744.625,891.873,746.557z M884.156,696.076c-5.447,3.121-12.396,1.234-15.517-4.213 c-3.121-5.445-1.236-12.395,4.209-15.516c5.448-3.121,12.396-1.236,15.517,4.211C891.488,686.004,889.602,692.953,884.156,696.076z M906.204,566.754c-19.194,11-43.675,4.357-54.674-14.836c-11.003-19.195-4.358-43.676,14.835-54.674 c19.195-11,43.674-4.357,54.674,14.836C932.041,531.275,925.396,555.754,906.204,566.754z M1027.987,613.645 c-5.446,3.119-12.394,1.234-15.517-4.211c-3.119-5.445-1.235-12.393,4.213-15.514c5.446-3.125,12.393-1.238,15.514,4.207 C1035.32,603.574,1033.435,610.523,1027.987,613.645z M1051.641,628.787c-4.409,2.529-10.032,1.002-12.559-3.408 c-2.529-4.408-1.002-10.031,3.407-12.559c4.411-2.529,10.034-0.998,12.561,3.408 C1057.576,620.637,1056.051,626.262,1051.641,628.787z M1067.643,645.824c-3.371,1.932-7.674,0.762-9.604-2.609 c-1.932-3.369-0.766-7.672,2.606-9.605c3.37-1.93,7.672-0.764,9.604,2.607C1072.18,639.588,1071.015,643.891,1067.643,645.824z"/>
<g opacity="0.5">
  <path opacity="0.1" fill="#FFFFFF" d="M1113.806,872.262c0,0-6.094-38.936-32.335-82.547 c-18.479-30.715-50.154-65.006-76.422-85.639l-30.173,17.289c4.526,33.098,18.101,77.762,35.259,109.232 c24.363,44.691,54.875,69.625,54.875,69.625c-50.221-77.633-50.303-116.504-46.123-137.031 C1038.713,769.961,1072.209,789.682,1113.806,872.262z"/>
</g>
<polygon opacity="0.1" fill="#FFFFFF" points="751.827,589.443 756.631,578.852 762.118,589.107 773.678,590.398 765.619,598.791 767.961,610.18 757.491,605.109 747.381,610.857 748.969,599.336 740.379,591.496 "/>
<polygon opacity="0.1" fill="#FFFFFF" points="792.203,579.576 795.219,572.93 798.661,579.367 805.917,580.178 800.859,585.443 802.33,592.594 795.759,589.41 789.416,593.018 790.411,585.785 785.016,580.865 "/>
<polygon opacity="0.08" fill="#FFFFFF" points="798.892,625.936 805.111,612.211 812.221,625.496 827.195,627.17 816.756,638.039 819.788,652.797 806.229,646.227 793.131,653.672 795.188,638.748 784.059,628.59 "/>
<polygon opacity="0.1" fill="#FFFFFF" points="1091.698,575.092 1097.92,561.367 1105.027,574.656 1120.002,576.33 1109.564,587.197 1112.596,601.955 1099.036,595.387 1085.938,602.834 1087.996,587.906 1076.864,577.748 "/>
<polygon opacity="0.08" fill="#FFFFFF" points="1045.104,538.373 1050.467,526.541 1056.594,537.992 1069.501,539.438 1060.503,548.803 1063.119,561.525 1051.429,555.863 1040.141,562.281 1041.913,549.414 1032.319,540.66 "/>
<polygon opacity="0.1" fill="#FFFFFF" points="1085.924,529.41 1088.688,523.316 1091.845,529.217 1098.499,529.959 1093.861,534.787 1095.206,541.342 1089.186,538.426 1083.368,541.732 1084.281,535.102 1079.336,530.592 "/>
<g opacity="0.3">
  <ellipse fill="#FFFFFF" cx="356.477" cy="317.518" rx="4.822" ry="4.701"/>
  <ellipse fill="#FFFFFF" cx="380.7" cy="317.432" rx="4.737" ry="4.617"/>
  <ellipse fill="#FFFFFF" cx="404.925" cy="317.348" rx="4.65" ry="4.533"/>
  <ellipse fill="#FFFFFF" cx="429.149" cy="317.262" rx="4.564" ry="4.449"/>
  <ellipse fill="#FFFFFF" cx="561.871" cy="316.838" rx="4.131" ry="4.027"/>
  <ellipse fill="#FFFFFF" cx="686.391" cy="316.329" rx="3.611" ry="3.519"/>
  <ellipse fill="#FFFFFF" cx="812.179" cy="315.905" rx="3.178" ry="3.097"/>
  <ellipse fill="#FFFFFF" cx="937.869" cy="315.479" rx="2.744" ry="2.675"/>
  <ellipse fill="#FFFFFF" cx="1066.312" cy="315.055" rx="2.311" ry="2.252"/>
  <ellipse fill="#FFFFFF" cx="1090.538" cy="314.971" rx="2.225" ry="2.168"/>
  <ellipse fill="#FFFFFF" cx="1114.763" cy="314.886" rx="2.137" ry="2.083"/>
</g>
<g opacity="0.3">
  <ellipse fill="#FFFFFF" cx="330.442" cy="317.443" rx="4.552" ry="4.663"/>
  <path fill="#FFFFFF" d="M311.214,317.626c-0.082,2.392-2.04,4.262-4.376,4.178s-4.16-2.091-4.078-4.482 c0.082-2.392,2.039-4.262,4.375-4.178S311.296,315.234,311.214,317.626z"/>
  <path fill="#FFFFFF" d="M287.435,317.809c-0.164,2.207-2.043,3.86-4.199,3.692c-2.156-0.168-3.769-2.094-3.604-4.301 c0.164-2.208,2.043-3.861,4.199-3.693S287.599,315.6,287.435,317.809z"/>
  <path fill="#FFFFFF" d="M263.655,317.991c-0.246,2.023-2.046,3.459-4.022,3.207c-1.977-0.252-3.377-2.097-3.131-4.121 c0.247-2.024,2.046-3.46,4.022-3.208C262.501,314.122,263.902,315.967,263.655,317.991z"/>
  <path fill="#FFFFFF" d="M239.876,318.174c-0.328,1.84-2.049,3.059-3.846,2.722s-2.985-2.101-2.657-3.94 c0.329-1.84,2.049-3.059,3.846-2.723S240.205,316.334,239.876,318.174z"/>
  <path fill="#FFFFFF" d="M216.096,318.356c-0.41,1.655-2.052,2.657-3.669,2.236c-1.617-0.42-2.593-2.104-2.183-3.759 c0.411-1.656,2.052-2.657,3.669-2.237C215.529,315.017,216.507,316.7,216.096,318.356z"/>
  <path fill="#FFFFFF" d="M192.316,318.539c-0.492,1.471-2.056,2.255-3.493,1.751c-1.438-0.505-2.202-2.107-1.709-3.578 c0.493-1.473,2.056-2.257,3.493-1.752C192.044,315.464,192.81,317.067,192.316,318.539z"/>
  <path fill="#FFFFFF" d="M168.537,318.722c-0.574,1.288-2.059,1.854-3.316,1.266s-1.81-2.11-1.236-3.397 c0.575-1.288,2.059-1.854,3.316-1.266S169.112,317.434,168.537,318.722z"/>
  <path fill="#FFFFFF" d="M144.758,318.904c-0.656,1.104-2.062,1.453-3.14,0.78s-1.419-2.113-0.763-3.217 c0.657-1.104,2.062-1.453,3.14-0.78C145.073,316.359,145.415,317.8,144.758,318.904z"/>
  <path fill="#FFFFFF" d="M120.978,319.087c-0.738,0.919-2.064,1.052-2.963,0.295s-1.026-2.116-0.288-3.036 c0.739-0.92,2.064-1.052,2.963-0.295C121.588,316.807,121.718,318.167,120.978,319.087z"/>
  <path fill="#FFFFFF" d="M97.198,319.27c-0.82,0.735-2.067,0.65-2.786-0.19s-0.636-2.119,0.185-2.855 c0.822-0.736,2.069-0.651,2.788,0.19S98.02,318.533,97.198,319.27z"/>
  <path fill="#FFFFFF" d="M73.419,319.452c-0.902,0.552-2.071,0.249-2.61-0.676s-0.243-2.123,0.659-2.674 c0.904-0.552,2.071-0.249,2.61,0.675C74.617,317.702,74.323,318.9,73.419,319.452z"/>
  <path fill="#FFFFFF" d="M49.64,319.635c-0.984,0.368-2.074-0.152-2.434-1.161c-0.359-1.008,0.148-2.125,1.133-2.493 c0.986-0.368,2.074,0.152,2.434,1.161C51.132,318.15,50.625,319.267,49.64,319.635z"/>
  <path fill="#FFFFFF" d="M25.86,319.817c-1.066,0.184-2.077-0.554-2.257-1.646s0.54-2.129,1.606-2.312 c1.068-0.184,2.078,0.553,2.257,1.646S26.928,319.633,25.86,319.817z"/>
  <ellipse fill="#FFFFFF" cx="2.081" cy="317.868" rx="2.081" ry="2.132"/>
</g>
</svg>
