<?xml version="1.0" encoding="utf-8"?>
<!--
Copyright 2015 Hippo B.V. (http://www.onehippo.com)

Licensed under the Apache License, Version 2.0 (the "License");
you may not use this file except in compliance with the License.
You may obtain a copy of the License at

http://www.apache.org/licenses/LICENSE-2.0

Unless required by applicable law or agreed to in writing, software
distributed under the License is distributed on an "AS IS" BASIS,
WITHOUT WARRANTIES OR CONDITIONS OF ANY KIND, either express or implied.
See the License for the specific language governing permissions and
limitations under the License.
-->
<svg version="1.1" id="Layer_1" xmlns="http://www.w3.org/2000/svg" xmlns:xlink="http://www.w3.org/1999/xlink" x="0px" y="0px"
	 viewBox="0 0 305 84" style="enable-background:new 0 0 305 84;" xml:space="preserve">
<style type="text/css">
	.st0{fill:#00A5E3;}
	.st1{fill:none;}
	.st2{fill:#EE3E42;}
	.st3{font-family:'GillSans-SemiBold';}
	.st4{font-size:15.545px;}
	.st5{fill:none;stroke:#143393;stroke-miterlimit:10;}
</style>
<g>
	<path class="st0" d="M89.8,28.2c-0.2-0.6-0.5-1.1-0.8-1.6c-0.3-0.5-0.8-1-1.2-1.4l0,0c-0.9-0.9-2.2-1.2-3.4-1.4
		c-0.4-0.1-0.8-0.1-1.2-0.1c-0.3,0-0.8,0-1-0.3c-1.6-2.2-2.8-2.8-3-2.9c0,0,0,0,0,0l-0.1,0c0,0,0,0,0,0c-2.4-1.4-4.8-0.7-6.1-0.1
		c-0.4-0.5-0.9-0.9-1.4-1.3c-0.4-0.3-0.9-0.6-1.4-0.6c-1-0.1-2.1,0.2-2.9,0.9c0,0-0.3,0.3-0.3,0.4c-0.7-0.3-1.4-0.5-2.2-0.5
		c-1.4-0.2-2.9-0.2-4.4-0.2c-1.2,0-2.4-0.1-3.6-0.4c-1.1-0.3-2.1-0.9-3.1-1.6c-1.3-0.9-2.4-2-3.6-3.1c-1.1-1-2.2-2-3.4-2.8
		c-2.3-1.6-4.8-2.6-7.5-3.2c-1.5-0.3-3-0.5-4.5-0.5c-1.4-0.1-2.9,0-4.3,0.1c-2.6,0.3-5.1,1-7.5,2.2c-2.4,1.2-4.5,2.8-6.1,4.9
		c-0.8,1.1-1.5,2.2-1.9,3.5c-0.3,0.8-0.5,1.6-0.8,2.3c-0.3,0.7-0.6,1.4-0.9,2.1c-0.5,0.9-1,1.8-1.7,2.5c-0.3,0.4-0.7,0.7-1.1,0.9
		c-0.1,0-0.1,0.1-0.2,0.1l-0.5,0.1c0,0,0.2,0.4,0.2,0.4l0.1,0.2l0.1,0.4l0.4-0.1c0.2-0.1,1-0.5,1.7-1.4c0.5,8.3,5.9,14.4,6.4,14.9
		c0,0,0,0,0,0l0,0.1c0,0,0,0,0,0c1.9,2.7,2.8,7.5,3,8.1l0,0c0,0,0,0,0,0l0.1,0.3c0.2,0.5,0.3,1.1,0.8,1.5c0.5,0.4,1,0.6,1.7,0.6
		c0.2,0,6.9,0,10.1,0l1.8,0c1,0,2-0.7,2-2.1v-0.2c0-1.9,0-3.2,0-3.8c4.6,0.3,7.6-1.5,8.9-2.5c1.3,1.1,3,2.1,3.2,2.2c0,0,0,0,0,0l0,0
		c0,0,0,0,0,0c0.9,0.7,1,1.8,1,2.9l0,1.3c0,0.7,0.3,1.3,0.8,1.8c0.3,0.3,0.8,0.5,1.3,0.5c0.4,0,0.7,0,1.1,0c1.8,0,3.5,0,5.3,0
		c1.8,0,3.6,0,5.3,0c0.4,0,0.8,0,1.2,0c0.6,0,1.3-0.4,1.7-0.9c0.5-0.6,0.4-1.4,0.4-2.2c0-0.9,0-1.9,0-2.8c0-0.6,0-1.2,0-1.8v0l0,0
		c-0.2-1.1,0.6-2.1,1.4-2.8c1.2-1,2.1-2.2,2.4-3.7c2.4,1.3,4.9,2.3,7.6,3c0.5,0.1,0.9,0.2,1.4,0.3c2.2,0.6,3.1-0.5,3.3-0.8
		c0.4-0.4,0.3-1.1,0.5-1.6l0.1,0l0.1,0l0.1,0c1.2-0.1,2-0.8,2.3-1.3c0,0,0,0,0,0l0-0.1c0,0,0,0,0,0c1.6-2.3,2-4.7,2.1-4.9
		C90.1,30.6,90.1,29.4,89.8,28.2 M89,31.6c0,0.3-0.4,2.4-1.9,4.6l0,0l0,0c-0.1,0.1-0.6,0.7-1.5,0.8l-1.8-0.7l-0.4-0.1l-0.2,0.3
		l-0.1,0.2l-0.2,0.4l0.4,0.2l1,0.5l-0.1,0.2c-0.1,0.3-0.2,0.7-0.3,0.8l0,0c-0.3,0.4-0.8,0.6-1.3,0.6c-0.7,0-1.4-0.2-2-0.4
		c-1.6-0.4-4.3-1-8.4-3.3l-0.6-0.3l-0.1,0.7c-0.1,1.4-0.8,2.5-1.9,3.5c-0.3,0.3-0.6,0.5-0.9,0.8c-0.3,0.3-0.5,0.6-0.7,0.9
		c-0.4,0.7-0.6,1.4-0.5,2.2v0l0,0.1c0,0,0,0,0-0.1c0,0.7,0,1.4,0,2.2c0,0.4,0,0.8,0,1.2c0,0.5,0,0.9,0,1.4c0,0.4,0.1,0.9-0.1,1.3
		c-0.1,0.3-0.5,0.6-0.8,0.7c-0.4,0.1-0.9,0.1-1.3,0.1c-1,0-2,0-3,0c-2,0-4,0-6,0c-0.5,0-1,0-1.5,0c-0.5,0-1,0-1.5,0
		c-0.3,0-0.6-0.2-0.8-0.4c-0.2-0.3-0.3-0.6-0.3-1c-0.1-0.9,0-1.9-0.2-2.9c-0.2-0.8-0.6-1.5-1.2-2l0,0l0,0c0,0-2-1.2-3.4-2.4
		l-0.3-0.2l-0.3,0.2c-0.8,0.7-4,3-9,2.5l-0.5-0.1l0,0.5c0,0.2,0,1.1,0,4.3l0,0.2c0,0.9-0.6,1.3-1.2,1.3l-1.8,0c-2,0-4,0-6,0
		c-1.2,0-2.3,0-3.5,0c-0.2,0-0.4,0-0.6,0c-0.4,0-0.7-0.1-1-0.4c-0.3-0.3-0.4-0.7-0.5-1l-0.1-0.3c-0.1-0.5-1.1-5.5-3.1-8.4l0,0l0,0
		c-0.5-0.6-1-1.2-1.5-1.9c-1.3-1.9-2.4-3.9-3.2-6c-0.5-1.4-0.9-2.8-1.2-4.2c-0.1-0.8-0.2-1.5-0.3-2.3c0-0.4,0-0.8,0-1.2
		c0-0.2,0.2-0.4,0.3-0.6c0.1-0.2,0.2-0.4,0.3-0.6c0.4-0.8,0.8-1.6,1.1-2.5c0.3-0.9,0.6-1.8,0.9-2.7c0.6-1.6,1.6-3,2.8-4.2
		c2.4-2.4,5.6-4,8.9-4.9c1.8-0.5,3.7-0.7,5.6-0.7c1.9,0,3.9,0.1,5.8,0.5c1.7,0.3,3.4,0.9,4.9,1.7c1.6,0.8,3,1.8,4.3,2.9
		c2.6,2.3,5,5.1,8.4,6.1c1.9,0.5,3.8,0.4,5.7,0.4c1,0,1.9,0.1,2.9,0.3c0.2,0,0.5,0.1,0.7,0.2c0.1,0,0.2,0.1,0.3,0.1
		c0.1,0,0.1,0,0.2,0.1c0.1,0,0.1,0,0.1,0.1c0,0.2-0.1,0.4-0.1,0.7c0,0.2,0,0.4,0,0.6c0,0,0,0,0,0c0,0,0,0,0,0.1c0,0,0,0,0,0
		c0,0.8,0.5,1.5,1.1,2c0.7,0.6,1.6,0.8,2.5,0.8c0.2,0,0.4,0,0.7,0c0.1,0,0.2,0,0.3-0.1c0.2-0.1,0.2-0.4,0.1-0.6
		c-0.2-0.3-0.5-0.2-0.8-0.2c-0.4,0-0.9-0.1-1.3-0.2c-0.7-0.2-1.4-0.8-1.6-1.5c-0.2-0.7,0-1.5,0.5-2.1c0.2-0.3,0.7-0.5,1-0.6
		c0.4-0.1,0.9-0.2,1.3-0.1c0.5,0.1,0.9,0.5,1.3,0.8c0.4,0.3,0.7,0.6,0.9,1l0.2,0.3l0.4-0.2c0.9-0.5,3.3-1.4,5.6-0.1l0,0
		c0.1,0,0.2,0.1,0.3,0.2c0.8,0.5,1.4,1.2,1.9,1.9c0.3,0.3,0.5,0.7,0.8,0.9c0.3,0.2,0.7,0.3,1,0.3c0.8,0.1,1.5,0.1,2.2,0.3
		c0.8,0.2,1.5,0.5,2.1,1l0,0c0.7,0.7,1.3,1.5,1.7,2.5C89.2,29.4,89.3,30.5,89,31.6"/>
	<path class="st0" d="M86.9,29.7L86.9,29.7c-0.2-0.2-0.3-0.4-0.3-0.7c0-0.4,0.3-0.7,0.7-0.9c0.5-0.3,0.1-1-0.4-0.8
		c-0.6,0.3-1.1,0.8-1.2,1.5c0,0.6,0.2,1.1,0.6,1.5C86.7,30.7,87.3,30.1,86.9,29.7"/>
	<path class="st0" d="M79.3,24.7c0,0.6-0.5,1.1-1.1,1.1c-0.6,0-1-0.5-1-1.1c0-0.6,0.5-1.1,1-1.1C78.8,23.7,79.3,24.2,79.3,24.7"/>
</g>
<rect x="21.4" y="57" class="st1" width="274" height="52"/>
<text transform="matrix(1 0 0 1 111.5618 67.5603)" class="st2 st3 st4">Hippo Developer Edition</text>
<line class="st5" x1="9.6" y1="76.3" x2="295.4" y2="76.3"/>
</svg>
