<?xml version="1.0" encoding="utf-8"?>
<!--
  Copyright 2014 Hippo B.V. (http://www.onehippo.com)

  Licensed under the Apache License, Version 2.0 (the "License");
  you may not use this file except in compliance with the License.
  You may obtain a copy of the License at

       http://www.apache.org/licenses/LICENSE-2.0

  Unless required by applicable law or agreed to in writing, software
  distributed under the License is distributed on an "AS IS" BASIS,
  WITHOUT WARRANTIES OR CONDITIONS OF ANY KIND, either express or implied.
  See the License for the specific language governing permissions and
  limitations under the License.
-->

<!-- Generator: Adobe Illustrator 16.0.0, SVG Export Plug-In . SVG Version: 6.00 Build 0)  -->
<!DOCTYPE svg PUBLIC "-//W3C//DTD SVG 1.1//EN" "http://www.w3.org/Graphics/SVG/1.1/DTD/svg11.dtd">
<svg version="1.1" id="Layer_1" xmlns="http://www.w3.org/2000/svg" xmlns:xlink="http://www.w3.org/1999/xlink" x="0px" y="0px"
	 width="15px" height="15px" viewBox="0 0 15 15" enable-background="new 0 0 15 15" xml:space="preserve">
<g>
	<path fill="#02A8E7" d="M7.5,15C3.36,15,0,11.641,0,7.5C0,3.36,3.36,0,7.5,0C11.642,0,15,3.36,15,7.5C15,11.641,11.642,15,7.5,15z
		 M10.826,9.203L9.264,7.54l1.766-1.765c0.109-0.109-0.026-0.156-0.026-0.312c0-0.156-0.065-0.313-0.177-0.422L10,4.213
		C9.89,4.102,9.734,4.038,9.578,4.038S9.376,3.9,9.264,4.011L7.5,5.774L5.735,4.011C5.625,3.9,5.58,4.038,5.422,4.038
		C5.267,4.038,5.111,4.102,5,4.213L4.173,5.041c-0.11,0.109-0.175,0.266-0.175,0.422c0,0.156-0.138,0.202-0.027,0.312L5.735,7.54
		L3.971,9.305C3.86,9.414,3.998,9.459,3.998,9.617c0,0.156,0.065,0.311,0.175,0.422L5,10.867c0.111,0.109,0.266,0.174,0.421,0.174
		c0.158,0,0.203,0.137,0.313,0.027L7.5,9.305l1.665,1.562c0.109,0.109,0.257,0.174,0.413,0.174S9.89,10.977,10,10.867l0.826-0.828
		c0.111-0.111,0.177-0.266,0.177-0.422C11.003,9.459,10.938,9.314,10.826,9.203z"/>
</g>
</svg>
