<svg xmlns="http://www.w3.org/2000/svg" width="76" height="76" viewBox="0 0 76 76"><title>ss-icon_</title><path d="M8,16H8a13.56,13.56,0,0,1,27.12,0,14.76,14.76,0,0,1-4,9.64L21.51,36.32,12,25.59A14.74,14.74,0,0,1,8,16" fill="#fff"/><path d="M68,24.3l-49.3,49.3H13V64.79L59.23,18.59H68ZM68,72,45.87,49.86,68,27.68ZM54.66,73.6,38.39,57.34l5.79-5.79L66.24,73.6Zm-32.53,0L36.7,59,51.27,73.6ZM8,16a13.56,13.56,0,0,1,27.12,0,14.76,14.76,0,0,1-4,9.64L21.51,36.32,12,25.59A14.74,14.74,0,0,1,8,16Zm47.89,2.64L13,61.41v-31l8.49,9.55L32.84,27.18a17.76,17.76,0,0,0,4.38-8.59Zm2.39-2.39H37.46c0-.08,0-.16,0-.24a16,16,0,0,0-31.9,0,16.91,16.91,0,0,0,4.62,11.23l.45.5V76H70.44V16.19Z" fill="#0c3d6d"/><path d="M23.7,18.49a3.95,3.95,0,1,1,1.16-2.79,3.92,3.92,0,0,1-1.16,2.79Zm3.56-2.79A6.35,6.35,0,1,0,20.91,22a6.36,6.36,0,0,0,6.35-6.35Z" fill="#0c3d6d"/><path d="M23.7,18.49a3.95,3.95,0,1,1,1.16-2.79,3.92,3.92,0,0,1-1.16,2.79h0" fill="#00acfb"/><polygon points="54.66 73.61 38.39 57.34 44.18 51.55 66.23 73.6 54.66 73.61" fill="#fff"/><polygon points="68.04 24.3 18.74 73.61 13.02 73.61 13.02 64.79 59.23 18.59 68.04 18.59 68.04 24.3" fill="#fff"/><path d="M55.85,18.59,13,61.41v-31l8.49,9.55L32.84,27.18a17.76,17.76,0,0,0,4.38-8.59Z" fill="#00acfb"/><polygon points="68.04 72.03 45.87 49.86 68.04 27.68 68.04 72.03" fill="#00acfb"/><polygon points="22.12 73.61 36.7 59.03 51.27 73.61 22.12 73.61" fill="#00acfb"/></svg>