<svg xmlns="http://www.w3.org/2000/svg" width="76" height="76" viewBox="0 0 76 76"><title>ss-icon_</title><polyline points="22.8 6.81 8.55 6.81 8.55 75.05 67.45 75.05 67.45 6.81 52.73 6.81" fill="#00acfb"/><polygon points="68.4 76 7.6 76 7.6 5.86 22.8 5.86 22.8 7.76 9.5 7.76 9.5 74.1 66.5 74.1 66.5 7.76 52.73 7.76 52.73 5.86 68.4 5.86 68.4 76" fill="#0c3d6d"/><polyline points="52.73 6.81 59.85 6.81 59.85 65.55 16.15 65.55 16.15 6.81 22.8 6.81" fill="#fff"/><polygon points="60.8 66.5 15.2 66.5 15.2 5.86 22.8 5.86 22.8 7.76 17.1 7.76 17.1 64.6 58.9 64.6 58.9 7.76 52.73 7.76 52.73 5.86 60.8 5.86 60.8 66.5" fill="#0c3d6d"/><rect x="22.8" width="30.4" height="13.3" rx="4" ry="4" fill="#fff"/><path d="M51.3,1.9v9.5H24.7V1.9H51.3m0-1.9H24.7a1.9,1.9,0,0,0-1.9,1.9v9.5a1.9,1.9,0,0,0,1.9,1.9H51.3a1.9,1.9,0,0,0,1.9-1.9V1.9A1.9,1.9,0,0,0,51.3,0Z" fill="#0c3d6d"/><rect x="20.9" y="51.3" width="18.85" height="1.9" fill="#0c3d6d"/><rect x="43.82" y="51.3" width="11.28" height="1.9" fill="#0c3d6d"/><rect x="20.9" y="32.3" width="9.47" height="1.9" fill="#0c3d6d"/><rect x="34.45" y="32.3" width="20.65" height="1.9" fill="#0c3d6d"/><rect x="20.9" y="22.8" width="13.45" height="1.9" fill="#0c3d6d"/><rect x="37.95" y="22.8" width="17.15" height="1.9" fill="#0c3d6d"/><rect x="20.9" y="41.8" width="34.2" height="1.9" fill="#0c3d6d"/></svg>