<svg xmlns="http://www.w3.org/2000/svg" width="76" height="76" viewBox="0 0 76 76"><title>ss-icon_</title><polygon points="50.85 0.95 8.49 0.95 8.49 75.05 67.51 75.05 67.51 17.45 50.85 0.95" fill="#00acfb"/><path d="M68.46,76H7.54V0H51.24L68.46,17.05Zm-59-1.9H66.56V17.85L50.46,1.9h-41Z" fill="#0c3d6d"/><polygon points="66.56 18.88 49.42 18.88 49.42 1.27 51.33 1.27 51.33 16.98 66.56 16.98 66.56 18.88" fill="#0c3d6d"/><rect x="21.82" y="33.16" width="32.37" height="30.46" rx="8.2" ry="8.2" fill="#fff"/><path d="M46.57,64.58H29.43A8.58,8.58,0,0,1,20.86,56V40.78a8.58,8.58,0,0,1,8.57-8.57H46.57a8.58,8.58,0,0,1,8.57,8.57V56A8.58,8.58,0,0,1,46.57,64.58ZM29.43,34.11a6.67,6.67,0,0,0-6.66,6.66V56a6.67,6.67,0,0,0,6.66,6.66H46.57A6.67,6.67,0,0,0,53.23,56V40.78a6.67,6.67,0,0,0-6.66-6.66Z" fill="#0c3d6d"/><path d="M21.82,43.39h0a0,0,0,0,1,0,0v10a0,0,0,0,1,0,0h0A3.81,3.81,0,0,1,18,49.58V47.2A3.81,3.81,0,0,1,21.82,43.39Z" fill="#fff"/><path d="M22.77,54.34h-1a4.77,4.77,0,0,1-4.76-4.76V47.2a4.77,4.77,0,0,1,4.76-4.76h1Zm-1.9-9.83A2.86,2.86,0,0,0,19,47.2v2.38a2.86,2.86,0,0,0,1.9,2.69Z" fill="#0c3d6d"/><path d="M36.1,29.35H39.9a3.81,3.81,0,0,1,3.81,3.81v0a0,0,0,0,1,0,0H32.29a0,0,0,0,1,0,0v0A3.81,3.81,0,0,1,36.1,29.35Z" fill="#fff"/><path d="M44.66,34.11H31.34v-1A4.77,4.77,0,0,1,36.1,28.4H39.9a4.77,4.77,0,0,1,4.76,4.76ZM33.4,32.21H42.6a2.86,2.86,0,0,0-2.69-1.9H36.1A2.86,2.86,0,0,0,33.4,32.21Z" fill="#0c3d6d"/><rect x="37.05" y="24.83" width="1.9" height="4.76" fill="#0c3d6d"/><circle cx="38" cy="22.21" r="2.86" fill="#fff"/><path d="M38,26a3.81,3.81,0,1,1,3.81-3.81A3.81,3.81,0,0,1,38,26Zm0-5.71a1.9,1.9,0,1,0,1.9,1.9A1.91,1.91,0,0,0,38,20.31Z" fill="#0c3d6d"/><circle cx="31.31" cy="42.68" r="3.81" fill="#fff"/><path d="M31.31,47.44a4.76,4.76,0,1,1,4.76-4.76A4.77,4.77,0,0,1,31.31,47.44Zm0-7.62a2.86,2.86,0,1,0,2.86,2.86A2.86,2.86,0,0,0,31.31,39.82Z" fill="#0c3d6d"/><circle cx="31.31" cy="42.68" r="1.01" fill="#0c3d6d"/><rect x="29.43" y="51.25" width="17.14" height="5.71" rx="2.86" ry="2.86" fill="#fff"/><path d="M44.66,57.91H31.34a2.86,2.86,0,0,1-2.86-2.86v-1.9a2.86,2.86,0,0,1,2.86-2.86H44.66a2.86,2.86,0,0,1,2.86,2.86v1.9A2.86,2.86,0,0,1,44.66,57.91ZM31.34,52.2a1,1,0,0,0-1,1v1.9a1,1,0,0,0,1,1H44.66a1,1,0,0,0,1-1v-1.9a1,1,0,0,0-1-1Z" fill="#0c3d6d"/><path d="M58,43.39h0a0,0,0,0,1,0,0v10a0,0,0,0,1,0,0h0a3.81,3.81,0,0,1-3.81-3.81V47.2A3.81,3.81,0,0,1,58,43.39Z" transform="translate(112.12 96.79) rotate(180)" fill="#fff"/><path d="M54.15,54.34h-1V42.44h1a4.77,4.77,0,0,1,4.76,4.76v2.38A4.77,4.77,0,0,1,54.15,54.34Zm1-9.83v7.77A2.86,2.86,0,0,0,57,49.58V47.2A2.86,2.86,0,0,0,55.11,44.51Z" fill="#0c3d6d"/><circle cx="44.66" cy="42.68" r="3.81" fill="#fff"/><path d="M44.66,47.44a4.76,4.76,0,1,1,4.76-4.76A4.77,4.77,0,0,1,44.66,47.44Zm0-7.62a2.86,2.86,0,1,0,2.86,2.86A2.86,2.86,0,0,0,44.66,39.82Z" fill="#0c3d6d"/><circle cx="44.66" cy="42.68" r="1.01" fill="#0c3d6d"/><rect x="32.76" y="51.25" width="1.9" height="5.71" fill="#0c3d6d"/><rect x="41.33" y="51.25" width="1.9" height="5.71" fill="#0c3d6d"/><rect x="37.05" y="51.25" width="1.9" height="5.71" fill="#0c3d6d"/></svg>