<svg xmlns="http://www.w3.org/2000/svg" width="76" height="76" viewBox="0 0 76 76"><title>ss-icon_</title><path d="M31.35,16.23h43.7V65.47a7.6,7.6,0,0,1-7.6,7.6H31.35Z" fill="#fff"/><path d="M67.45,74H30.4V15.28H76V65.47A8.56,8.56,0,0,1,67.45,74ZM32.3,72.12H67.45a6.66,6.66,0,0,0,6.65-6.65V17.18H32.3Z" fill="#0c3d6d"/><path d="M65.55,2.93H1V65.47a7.6,7.6,0,0,0,7.6,7.6h57Z" fill="#00acfb"/><path d="M66.5,74H8.55A8.56,8.56,0,0,1,0,65.47V2H66.5ZM1.9,3.88V65.47a6.66,6.66,0,0,0,6.65,6.65H64.6V3.88Z" fill="#0c3d6d"/><rect x="11.4" y="15.12" width="43.7" height="1.9" fill="#fff"/><rect x="36.1" y="22.72" width="19" height="1.9" fill="#fff"/><rect x="36.1" y="30.32" width="19" height="1.9" fill="#fff"/><rect x="36.1" y="37.92" width="19" height="1.9" fill="#fff"/><rect x="11.4" y="45.52" width="43.7" height="1.9" fill="#fff"/><rect x="11.4" y="53.12" width="43.7" height="1.9" fill="#fff"/><rect x="11.4" y="60.72" width="43.7" height="1.9" fill="#fff"/><rect x="11.4" y="22.72" width="20.9" height="17.1" fill="#fff"/></svg>