<svg xmlns="http://www.w3.org/2000/svg" width="76" height="76" viewBox="0 0 76 76"><title>ss-icon_</title><path d="M19.15,47.26a4.22,4.22,0,0,1-2.78.77,4.14,4.14,0,0,1-2.76-.87,4.51,4.51,0,0,1-1.35-2.74l-3.71.36a7.18,7.18,0,0,0,2.29,4.82,8.14,8.14,0,0,0,5.49,1.66,10.7,10.7,0,0,0,4.11-.69A5.39,5.39,0,0,0,23,48.48a6,6,0,0,0,.15-6A5.29,5.29,0,0,0,21,40.52a17.81,17.81,0,0,0-4.11-1.35,10.2,10.2,0,0,1-3.5-1.26,1.47,1.47,0,0,1-.57-1.15,1.39,1.39,0,0,1,.61-1.18,4.33,4.33,0,0,1,2.6-.68,3.83,3.83,0,0,1,2.42.64,3.24,3.24,0,0,1,1.05,2.09l3.82-.17a5.52,5.52,0,0,0-1.88-4.16,8,8,0,0,0-5.35-1.56,9.68,9.68,0,0,0-3.72.65,5.15,5.15,0,0,0-2.35,1.91,5,5,0,0,0,.93,6.5,10.5,10.5,0,0,0,4.3,1.87c1.59.4,2.6.66,3.06.83a3.13,3.13,0,0,1,1.37.82,1.71,1.71,0,0,1,.39,1.13,2.41,2.41,0,0,1-1,1.82Z" fill="#0c3d6d"/><polygon points="43.14 35.25 43.14 32.06 29.14 32.06 29.14 50.93 43.49 50.93 43.49 47.75 32.96 47.75 32.96 42.61 42.43 42.61 42.43 39.43 32.96 39.43 32.96 35.25 43.14 35.25" fill="#0c3d6d"/><rect y="0.95" width="76" height="11.4" fill="#00acfb"/><path d="M74.1,2.85v7.6H1.9V2.85H74.1M76,1H0v11.4H76V1Z" fill="#0c3d6d"/><path d="M74.1,12.35v60.8H1.9V12.35H74.1m1.9-1.9H0v64.6H76V10.45Z" fill="#0c3d6d"/><rect x="7.6" y="18.05" width="60.8" height="1.9" fill="#00acfb"/><rect x="7.6" y="65.55" width="60.8" height="1.9" fill="#00acfb"/><line x1="46.16" y1="54.11" x2="52.78" y2="47.49" fill="#fff"/><circle cx="58.16" cy="41.58" r="9.77" fill="#fff"/><path d="M58.16,31.82A9.77,9.77,0,0,0,50,46.93L44.22,52.7l2.4,2.4,5.69-5.69a9.77,9.77,0,1,0,5.85-17.59Zm0,16.14a6.37,6.37,0,1,1,6.37-6.37A6.38,6.38,0,0,1,58.16,48Z" fill="#00acfb"/></svg>