<?xml version="1.0" encoding="UTF-8"?>
<!--
  Copyright 2019-2021 BloomReach. All rights reserved. (https://www.bloomreach.com/)

  Licensed under the Apache License, Version 2.0 (the "License");
  you may not use this file except in compliance with the License.
  You may obtain a copy of the License at

   http://www.apache.org/licenses/LICENSE-2.0

  Unless required by applicable law or agreed to in writing, software
  distributed under the License is distributed on an "AS IS" BASIS,
  WITHOUT WARRANTIES OR CONDITIONS OF ANY KIND, either express or implied.
  See the License for the specific language governing permissions and
  limitations under the License.
  -->
<svg width="28px" height="28px" viewBox="0 0 28 28" version="1.1"
  xmlns="http://www.w3.org/2000/svg"
  xmlns:xlink="http://www.w3.org/1999/xlink">
  <title>logo</title>
  <g id="logo" stroke="none" stroke-width="1" fill="none" fill-rule="evenodd">
    <circle id="Oval" fill="#FFD500" fill-rule="nonzero" cx="14" cy="14" r="14"></circle>
    <path id="Path" fill="#002840" fill-rule="nonzero" d="M16.9363368,11.2224064 L16.242042,12.9724775 C16.9930774,13.4509726 17.4401201,14.2740357 17.4254991,15.1513741 C17.4254991,16.5126346 16.2986809,17.6161542 14.9086802,17.6161542 C13.5186796,17.6161542 12.3918614,16.5126346 12.3918614,15.1513741 C12.3619709,14.496338 12.6006638,13.856774 13.0548257,13.3749987 C13.5089877,12.8932234 14.1409396,12.6092067 14.8100588,12.5861484 L15.4609603,10.8090342 C14.2023973,10.6080828 12.9172847,10.9594377 11.9470069,11.7697628 C10.9767291,12.5800879 10.4195119,13.7673503 10.4233577,15.0161589 L10.4233577,15.0161589 L10.4233577,19.4782609 L12.3958062,19.4782609 L12.3958062,18.7674152 C13.1478968,19.2347016 14.021984,19.4788937 14.9126251,19.4705343 C16.9905273,19.4985133 18.8105189,18.1118772 19.2938096,16.1325471 C19.7771002,14.1532171 18.7945029,12.1102816 16.9284471,11.2146798 L16.9363368,11.2224064 Z"></path>
    <path id="Path" fill="#002840" fill-rule="nonzero" d="M10.4233577,10.7536232 C11.0064842,10.1996182 11.7009686,9.75811003 12.4671533,9.4543104 L12.4671533,6.69565217 L10.4233577,6.69565217 L10.4233577,10.7536232 Z"></path>
  </g>
</svg>
