<?xml version="1.0" encoding="utf-8"?>
<svg version="1.1" id="icons" xmlns="http://www.w3.org/2000/svg" xmlns:xlink="http://www.w3.org/1999/xlink" x="0px" y="0px"
	 viewBox="0 0 50 50" style="enable-background:new 0 0 50 50;" xml:space="preserve">
<g>
	<polygon points="27.3,22.7 27.3,10.2 22.7,10.2 22.7,22.7 3.4,22.7 3.4,39.8 8,39.8 8,27.3 22.7,27.3 22.7,39.8
		27.3,39.8 27.3,27.3 42,27.3 42,39.8 46.6,39.8 46.6,22.7 	"/>
	<path d="M25,0c-3.1,0-5.7,2.5-5.7,5.7s2.5,5.7,5.7,5.7s5.7-2.5,5.7-5.7S28.1,0,25,0L25,0z"/>
	<path d="M5.7,40.9c1.9,0,3.4,1.5,3.4,3.4c0,1.9-1.5,3.4-3.4,3.4s-3.4-1.5-3.4-3.4C2.3,42.4,3.8,40.9,5.7,40.9
		 M5.7,38.6c-3.1,0-5.7,2.5-5.7,5.7C0,47.5,2.5,50,5.7,50s5.7-2.5,5.7-5.7C11.4,41.2,8.8,38.6,5.7,38.6L5.7,38.6z"/>
	<path d="M25,40.9c1.9,0,3.4,1.5,3.4,3.4c0,1.9-1.5,3.4-3.4,3.4s-3.4-1.5-3.4-3.4C21.6,42.4,23.1,40.9,25,40.9 M25,38.6
		c-3.1,0-5.7,2.5-5.7,5.7c0,3.1,2.5,5.7,5.7,5.7s5.7-2.5,5.7-5.7C30.7,41.2,28.1,38.6,25,38.6L25,38.6z"/>
	<path d="M44.3,40.9c1.9,0,3.4,1.5,3.4,3.4c0,1.9-1.5,3.4-3.4,3.4s-3.4-1.5-3.4-3.4C40.9,42.4,42.4,40.9,44.3,40.9
		 M44.3,38.6c-3.1,0-5.7,2.5-5.7,5.7c0,3.1,2.5,5.7,5.7,5.7c3.1,0,5.7-2.5,5.7-5.7C50,41.2,47.5,38.6,44.3,38.6L44.3,38.6z"/>
</g>
</svg>
