<?xml version="1.0" encoding="utf-8"?>
<svg version="1.1" xmlns="http://www.w3.org/2000/svg" xmlns:xlink="http://www.w3.org/1999/xlink" x="0px" y="0px"
	 viewBox="0 0 50 50" style="enable-background:new 0 0 50 50;" xml:space="preserve">
<g>
	<path d="M31.3,46.9c-0.6,0-1-0.4-1-1v-9.5c0-2.9-2.4-5.3-5.3-5.3s-5.3,2.4-5.3,5.3v9.5c0,0.6-0.4,1-1,1s-1-0.4-1-1
		v-9.5c0-4.1,3.3-7.3,7.3-7.3s7.3,3.3,7.3,7.3v9.5C32.3,46.5,31.9,46.9,31.3,46.9z"/>
	<path d="M25,24.8c-2.7,0-5-2.2-5-5s2.2-5,5-5c2.7,0,5,2.2,5,5S27.8,24.8,25,24.8z M25,16.8c-1.6,0-3,1.3-3,3
		s1.3,3,3,3s3-1.3,3-3S26.7,16.8,25,16.8z"/>
	<path class="menu-icon-boundary" d="M48.6,24.5l-20-20c-1-1-2.3-1.5-3.7-1.5c-1.4,0-2.7,0.5-3.7,1.5l-20,20l2.8,2.8l2.9-2.9V47h35.7V24.4
		l2.9,2.9L48.6,24.5z M38.9,43H11.1V20.4l13-13C24.4,7.2,24.7,7,25,7c0,0,0,0,0,0c0.3,0,0.6,0.1,0.8,0.4l13,13V43z"/>
</g>

</svg>
