<?xml version="1.0" encoding="utf-8"?>
<svg version="1.1" xmlns="http://www.w3.org/2000/svg" xmlns:xlink="http://www.w3.org/1999/xlink" x="0px" y="0px"
     viewBox="0 0 50 50" style="enable-background:new 0 0 50 50;" xml:space="preserve">
<g>
	<rect x="11" y="21.1" width="13" height="2"/>
   <rect x="11" y="28.4" width="8" height="2"/>
   <rect x="11" y="35.7" width="5.9" height="2"/>
   <path d="M20.6,8.2c0.8,0,1.4,0.6,1.4,1.4c0,0.8-0.6,1.4-1.4,1.4c-0.8,0-1.4-0.6-1.4-1.4C19.2,8.8,19.8,8.2,20.6,8.2
		C20.6,8.2,20.6,8.2,20.6,8.2"/>
   <path class="menu-icon-boundary"  d="M35.3,49c-7.6,0-13.7-6.2-13.7-13.7s6.2-13.7,13.7-13.7S49,27.7,49,35.3S42.8,49,35.3,49z M35.3,25.5
		c-5.4,0-9.7,4.4-9.7,9.7s4.4,9.7,9.7,9.7s9.7-4.4,9.7-9.7S40.6,25.5,35.3,25.5z"/>
   <path d="M33.6,41c-0.5,0-1-0.2-1.5-0.5c-0.1-0.1-0.2-0.1-0.3-0.2L29,37.4l1.4-1.4l2.9,2.9c0.2,0.1,0.3,0.1,0.4,0.1
		c0.1,0,0.2,0,0.3-0.2l5.7-7.6l1.6,1.2L35.6,40c-0.4,0.5-1,0.9-1.6,1C33.9,41,33.8,41,33.6,41z"/>
   <path class="menu-icon-boundary" d="M22.5,45H5V12.3h10.3v-2c0-2.9,2.4-5.3,5.3-5.3s5.3,2.4,5.3,5.3v2h10.3v7.2c1.4,0.1,2.7,0.3,4,0.8v-12H29.7
		C28.8,4.1,25.1,1,20.6,1s-8.2,3.1-9.1,7.3H1V49h26C25.2,47.6,23.8,46.6,22.5,45z"/>
</g>
</svg>
