<?xml version="1.0" encoding="utf-8"?>
<svg version="1.1" id="icons" xmlns="http://www.w3.org/2000/svg" xmlns:xlink="http://www.w3.org/1999/xlink" x="0px" y="0px"
	 viewBox="0 0 50 50" style="enable-background:new 0 0 50 50;" xml:space="preserve">
<g>
	<path d="M25,5.1c4.9,5.3,12.5,15.3,12.5,23.5c0,6.9-5.6,12.5-12.5,12.5s-12.5-5.6-12.5-12.5
		C12.5,20.4,20.1,10.4,25,5.1 M25,0C25,0,8.9,15.2,8.9,28.6c0,8.9,7.2,16.1,16.1,16.1s16.1-7.2,16.1-16.1C41.1,15.2,25,0,25,0L25,0z
		"/>
	<rect x="24.1" y="3.6" width="1.8" height="46.4"/>

		<rect x="23.5" y="13.4" transform="matrix(0.7071 -0.7071 0.7071 0.7071 -1.7331 24.3872)" width="10.1" height="1.8"/>

		<rect x="22.4" y="26.8" transform="matrix(0.7071 -0.7071 0.7071 0.7071 -10.4188 30.204)" width="17.7" height="1.8"/>
	<rect x="20.5" y="9.2" transform="matrix(0.7071 -0.7071 0.7071 0.7071 -3.8252 19.3365)" width="1.8" height="10.1"/>
	<rect x="17.9" y="18.8" transform="matrix(0.7071 -0.7071 0.7071 0.7071 -14.08 21.3651)" width="1.8" height="17.7"/>
</g>
</svg>
