<?xml version="1.0" encoding="utf-8"?>
<svg version="1.1" id="icons" xmlns="http://www.w3.org/2000/svg" xmlns:xlink="http://www.w3.org/1999/xlink" x="0px" y="0px"
	 viewBox="0 0 50 50" style="enable-background:new 0 0 50 50;" xml:space="preserve">
<g>
	<path d="M0.1,50c-0.3-2.8-0.1-5.6,0.7-8.2c0.5-1.7,1.8-2.7,3.4-3.2c2.3-0.7,4.6-1.3,7-1.9c1.4-0.4,2.8-0.9,4-1.5
		c2.9-1.4,3.4-3.5,2-6.5c-1.5-3.3-2.9-6.7-4-10.1c-1-3.2-1.1-6.4-0.2-9.7c1.2-4.7,4.7-7.9,9.5-8.6c3.5-0.5,6.8-0.1,9.8,2
		c4.4,3.2,5.3,7.9,4.7,12.9c-0.5,4.7-2.2,9-4.3,13.1c-1.9,3.5-1.2,5.8,2.5,7.2c2.4,0.9,5,1.5,7.4,2.2c1,0.3,2.1,0.5,3,1
		c1.9,0.8,3.3,2.2,3.5,4.4c0.2,2.3,0.4,4.6,0.7,7L0.1,50z"/>
</g>
</svg>
