<svg xmlns="http://www.w3.org/2000/svg" width="76" height="76" viewBox="0 0 76 76"><title>ss-icon_</title><rect y="5.7" width="60.8" height="9.5" fill="#00acfb"/><path d="M58.9,7.6v5.7H1.9V7.6h57m1.9-1.9H0v9.5H60.8V5.7Z" fill="#0c3d6d"/><rect y="13.3" width="60.8" height="47.5" fill="#fff"/><path d="M58.9,15.2V58.9H1.9V15.2h57m1.9-1.9H0V60.8H60.8V13.3Z" fill="#0c3d6d"/><rect x="13.25" width="9.55" height="11.4" rx="4" ry="4" fill="#fff"/><path d="M20.9,1.9V9.5H15.15V1.9H20.9m0-1.9H15.15a1.9,1.9,0,0,0-1.9,1.9V9.5a1.9,1.9,0,0,0,1.9,1.9H20.9a1.9,1.9,0,0,0,1.9-1.9V1.9A1.9,1.9,0,0,0,20.9,0Z" fill="#0c3d6d"/><rect x="38" width="9.55" height="11.4" rx="4" ry="4" fill="#fff"/><path d="M45.65,1.9V9.5H39.9V1.9h5.75m0-1.9H39.9A1.9,1.9,0,0,0,38,1.9V9.5a1.9,1.9,0,0,0,1.9,1.9h5.75a1.9,1.9,0,0,0,1.9-1.9V1.9A1.9,1.9,0,0,0,45.65,0Z" fill="#0c3d6d"/><path d="M37.05,34.2H23.75V22.8h13.3Zm-11.4-1.9h9.5V24.7h-9.5Z" fill="#0c3d6d"/><path d="M55.1,34.2H41.8V22.8H55.1ZM43.7,32.3h9.5V24.7H43.7Z" fill="#0c3d6d"/><path d="M19,34.2H5.7V22.8H19ZM7.6,32.3h9.5V24.7H7.6Z" fill="#0c3d6d"/><path d="M37.05,51.3H23.75V39.9h13.3Zm-11.4-1.9h9.5V41.8h-9.5Z" fill="#0c3d6d"/><path d="M19,51.3H5.7V39.9H19ZM7.6,49.4h9.5V41.8H7.6Z" fill="#0c3d6d"/><circle cx="58.9" cy="58.9" r="17.1" fill="#00acfb"/><path d="M58.9,43.7A15.2,15.2,0,1,1,43.7,58.9,15.22,15.22,0,0,1,58.9,43.7m0-1.9A17.1,17.1,0,1,0,76,58.9,17.1,17.1,0,0,0,58.9,41.8Z" fill="#0c3d6d"/><polygon points="70.78 60.8 57 60.8 57 47.5 58.9 47.5 58.9 58.9 70.78 58.9 70.78 60.8" fill="#fff"/></svg>