<?xml version="1.0" encoding="utf-8"?>
<svg viewBox="0 0 76 76" width="76px" height="76px" xmlns="http://www.w3.org/2000/svg">
  <g id="AG-DETAILS" transform="matrix(1, 0, 0, 1, -0.874451, 0.160385)">
    <g id="POLYLINE_1242_">
      <path fill="none" stroke-linecap="round" stroke-linejoin="round" stroke-miterlimit="10" d="M 41.787 30.839 C 41.78 31.621 41.544 32.385 41.092 33.025 C 40.644 33.66 39.999 34.149 39.267 34.408 C 38.535 34.668 37.729 34.697 36.981 34.487 C 36.236 34.279 35.564 33.841 35.073 33.243 C 34.582 32.645 34.283 31.9 34.224 31.129 C 34.163 30.352 34.35 29.563 34.751 28.894 C 35.151 28.225 35.759 27.688 36.472 27.374 C 37.18 27.063 37.978 26.974 38.737 27.125 C 39.496 27.275 40.199 27.661 40.734 28.22 C 41.272 28.78 41.627 29.504 41.744 30.272 C 41.773 30.46 41.785 30.649 41.787 30.839 Z" style="stroke: rgb(0, 172, 251); stroke-width: 2px;"/>
    </g>
  </g>
  <path fill="none" stroke-linecap="round" stroke-linejoin="round" stroke-miterlimit="10" d="M 6.936 59.956 C 6.937 60.754 7.236 61.534 7.769 62.127 C 8.302 62.718 9.046 63.097 9.835 63.181 C 10.045 63.203 10.254 63.199 10.464 63.199 C 10.8 63.199 11.137 63.199 11.473 63.199 C 12.026 63.199 12.58 63.199 13.133 63.199 C 13.881 63.199 14.628 63.199 15.375 63.199 C 16.283 63.199 17.192 63.199 18.1 63.199 C 19.15 63.199 20.2 63.199 21.25 63.199 C 22.406 63.199 23.564 63.199 24.72 63.199 C 25.96 63.199 27.201 63.199 28.441 63.199 C 29.744 63.199 31.047 63.199 32.349 63.199 C 33.684 63.199 35.017 63.199 36.351 63.199 C 37.683 63.199 39.016 63.199 40.348 63.199 C 41.658 63.199 42.968 63.199 44.278 63.199 C 45.542 63.199 46.808 63.199 48.073 63.199 C 49.257 63.199 50.441 63.199 51.625 63.199 C 52.711 63.199 53.796 63.199 54.882 63.199 C 55.834 63.199 56.785 63.199 57.737 63.199 C 58.533 63.199 59.329 63.199 60.124 63.199 C 60.739 63.199 61.354 63.199 61.969 63.199 C 62.373 63.199 62.776 63.199 63.18 63.199 C 63.347 63.199 63.514 63.2 63.682 63.199 C 64.361 63.196 65.025 62.989 65.579 62.593 C 66.223 62.131 66.683 61.437 66.855 60.664 C 66.925 60.353 66.934 60.041 66.934 59.725 C 66.934 59.367 66.934 59.009 66.934 58.651 C 66.934 58.04 66.934 57.428 66.934 56.817 C 66.934 55.988 66.934 55.161 66.934 54.333 C 66.934 53.323 66.934 52.314 66.934 51.304 C 66.934 50.159 66.934 49.014 66.934 47.868 C 66.934 46.617 66.934 45.365 66.934 44.114 C 66.934 42.804 66.934 41.495 66.934 40.187 C 66.934 38.853 66.934 37.52 66.934 36.186 C 66.934 34.862 66.934 33.538 66.934 32.214 C 66.934 30.947 66.934 29.681 66.934 28.415 C 66.934 27.235 66.934 26.055 66.934 24.876 C 66.934 23.83 66.934 22.785 66.934 21.74 C 66.934 20.862 66.934 19.985 66.934 19.107 C 66.934 18.434 66.934 17.76 66.934 17.086 C 66.934 16.66 66.934 16.233 66.934 15.805 C 66.934 15.631 66.938 15.456 66.932 15.282 C 66.908 14.49 66.588 13.72 66.042 13.147 C 65.494 12.569 64.737 12.209 63.942 12.146 C 63.756 12.132 63.568 12.137 63.381 12.137 C 63.035 12.137 62.689 12.137 62.342 12.137 C 61.781 12.137 61.219 12.137 60.658 12.137 C 59.907 12.137 59.157 12.137 58.406 12.137 C 57.488 12.137 56.57 12.137 55.653 12.137 C 54.602 12.137 53.551 12.137 52.501 12.137 C 51.336 12.137 50.172 12.137 49.007 12.137 C 47.764 12.137 46.52 12.137 45.278 12.137 C 43.978 12.137 42.679 12.137 41.379 12.137 C 40.045 12.137 38.71 12.137 37.376 12.137 C 36.039 12.137 34.701 12.137 33.364 12.137 C 32.056 12.137 30.748 12.137 29.44 12.137 C 28.182 12.137 26.923 12.137 25.666 12.137 C 24.48 12.137 23.295 12.137 22.109 12.137 C 21.032 12.137 19.956 12.137 18.879 12.137 C 17.929 12.137 16.979 12.137 16.029 12.137 C 15.239 12.137 14.451 12.137 13.661 12.137 C 13.056 12.137 12.45 12.137 11.845 12.137 C 11.448 12.137 11.052 12.137 10.656 12.137 C 10.498 12.137 10.341 12.135 10.183 12.137 C 9.472 12.142 8.778 12.369 8.212 12.801 C 7.582 13.281 7.143 13.99 6.993 14.767 C 6.938 15.055 6.935 15.343 6.935 15.634 C 6.935 16.002 6.935 16.369 6.935 16.737 C 6.935 17.36 6.935 17.983 6.935 18.606 C 6.935 19.441 6.935 20.276 6.935 21.111 C 6.935 22.124 6.935 23.135 6.935 24.147 C 6.935 25.301 6.935 26.455 6.935 27.61 C 6.935 28.859 6.935 30.109 6.935 31.359 C 6.935 32.674 6.935 33.99 6.935 35.306 C 6.935 36.639 6.935 37.973 6.935 39.306 C 6.935 40.624 6.935 41.942 6.935 43.26 C 6.935 44.528 6.935 45.796 6.935 47.065 C 6.935 48.236 6.935 49.407 6.935 50.578 C 6.935 51.622 6.935 52.666 6.935 53.71 C 6.935 54.58 6.935 55.45 6.935 56.32 C 6.935 56.982 6.935 57.646 6.935 58.308 C 6.935 58.726 6.935 59.143 6.935 59.561 C 6.936 59.693 6.936 59.824 6.936 59.956 Z" style="stroke: rgb(12, 61, 109); stroke-width: 2px;"/>
  <path fill="none" stroke-linecap="round" stroke-linejoin="round" stroke-miterlimit="10" d="M 12.047 56.398 C 12.047 57.063 12.297 57.713 12.741 58.207 C 13.185 58.699 13.805 59.015 14.462 59.085 C 14.637 59.103 14.812 59.1 14.987 59.1 C 15.267 59.1 15.547 59.1 15.827 59.1 C 16.288 59.1 16.75 59.1 17.211 59.1 C 17.834 59.1 18.457 59.1 19.079 59.1 C 19.836 59.1 20.593 59.1 21.35 59.1 C 22.225 59.1 23.1 59.1 23.975 59.1 C 24.938 59.1 25.903 59.1 26.866 59.1 C 27.9 59.1 28.934 59.1 29.967 59.1 C 31.053 59.1 32.139 59.1 33.224 59.1 C 34.336 59.1 35.447 59.1 36.559 59.1 C 37.669 59.1 38.78 59.1 39.89 59.1 C 40.981 59.1 42.073 59.1 43.165 59.1 C 44.218 59.1 45.273 59.1 46.327 59.1 C 47.314 59.1 48.301 59.1 49.287 59.1 C 50.192 59.1 51.096 59.1 52.001 59.1 C 52.795 59.1 53.587 59.1 54.381 59.1 C 55.044 59.1 55.707 59.1 56.37 59.1 C 56.882 59.1 57.395 59.1 57.907 59.1 C 58.244 59.1 58.58 59.1 58.916 59.1 C 59.055 59.1 59.195 59.101 59.335 59.1 C 59.9 59.098 60.454 58.925 60.915 58.595 C 61.452 58.21 61.835 57.632 61.979 56.988 C 62.037 56.728 62.045 56.468 62.045 56.205 C 62.045 55.907 62.045 55.608 62.045 55.31 C 62.045 54.801 62.045 54.291 62.045 53.782 C 62.045 53.091 62.045 52.402 62.045 51.712 C 62.045 50.87 62.045 50.029 62.045 49.188 C 62.045 48.233 62.045 47.279 62.045 46.324 C 62.045 45.282 62.045 44.238 62.045 43.196 C 62.045 42.104 62.045 41.013 62.045 39.923 C 62.045 38.812 62.045 37.701 62.045 36.589 C 62.045 35.486 62.045 34.383 62.045 33.279 C 62.045 32.224 62.045 31.169 62.045 30.114 C 62.045 29.13 62.045 28.147 62.045 27.164 C 62.045 26.293 62.045 25.422 62.045 24.551 C 62.045 23.819 62.045 23.089 62.045 22.357 C 62.045 21.796 62.045 21.234 62.045 20.673 C 62.045 20.318 62.045 19.962 62.045 19.605 C 62.045 19.46 62.048 19.314 62.043 19.169 C 62.023 18.509 61.756 17.868 61.301 17.39 C 60.845 16.909 60.214 16.609 59.551 16.556 C 59.396 16.544 59.24 16.549 59.084 16.549 C 58.795 16.549 58.507 16.549 58.218 16.549 C 57.75 16.549 57.282 16.549 56.815 16.549 C 56.189 16.549 55.564 16.549 54.938 16.549 C 54.173 16.549 53.408 16.549 52.644 16.549 C 51.768 16.549 50.892 16.549 50.017 16.549 C 49.046 16.549 48.076 16.549 47.106 16.549 C 46.07 16.549 45.033 16.549 43.998 16.549 C 42.915 16.549 41.832 16.549 40.749 16.549 C 39.637 16.549 38.525 16.549 37.413 16.549 C 36.299 16.549 35.184 16.549 34.07 16.549 C 32.98 16.549 31.89 16.549 30.8 16.549 C 29.751 16.549 28.702 16.549 27.655 16.549 C 26.666 16.549 25.679 16.549 24.691 16.549 C 23.793 16.549 22.896 16.549 21.999 16.549 C 21.207 16.549 20.416 16.549 19.624 16.549 C 18.966 16.549 18.309 16.549 17.651 16.549 C 17.147 16.549 16.642 16.549 16.137 16.549 C 15.807 16.549 15.477 16.549 15.147 16.549 C 15.015 16.549 14.884 16.547 14.752 16.549 C 14.16 16.553 13.582 16.742 13.11 17.102 C 12.585 17.502 12.219 18.093 12.094 18.74 C 12.048 18.98 12.046 19.22 12.046 19.463 C 12.046 19.769 12.046 20.075 12.046 20.382 C 12.046 20.901 12.046 21.42 12.046 21.939 C 12.046 22.635 12.046 23.331 12.046 24.027 C 12.046 24.871 12.046 25.714 12.046 26.557 C 12.046 27.519 12.046 28.48 12.046 29.443 C 12.046 30.484 12.046 31.525 12.046 32.567 C 12.046 33.663 12.046 34.759 12.046 35.856 C 12.046 36.967 12.046 38.078 12.046 39.189 C 12.046 40.288 12.046 41.386 12.046 42.484 C 12.046 43.541 12.046 44.598 12.046 45.655 C 12.046 46.631 12.046 47.607 12.046 48.583 C 12.046 49.453 12.046 50.323 12.046 51.193 C 12.046 51.918 12.046 52.643 12.046 53.368 C 12.046 53.919 12.046 54.473 12.046 55.024 C 12.046 55.373 12.046 55.72 12.046 56.068 C 12.047 56.178 12.047 56.288 12.047 56.398 Z" style="stroke: rgb(12, 61, 109); stroke-width: 2px;"/>
</svg>