<svg xmlns="http://www.w3.org/2000/svg" width="76" height="76" viewBox="0 0 76 76"><title>ss-icon_</title><polygon points="7.22 49.88 0.79 49.88 0.79 26.13 27.71 26.13 32.72 26.13 38 26.13 75.21 26.13 75.21 49.88 18.41 49.88 7.22 49.88" fill="#00acfb"/><path d="M76,50.67H0V25.33H76ZM1.58,49.08H74.42V26.92H1.58Z" fill="#0c3d6d"/><rect x="65.31" y="40.18" width="1.58" height="6.72" transform="translate(-11.43 59.5) rotate(-45)" fill="#fff"/><path d="M59.38,42.75A7.11,7.11,0,0,1,57,42.34l.53-1.49a5.56,5.56,0,1,0-3.37-3.37L52.66,38a7.12,7.12,0,1,1,6.71,4.75Z" fill="#fff"/><path d="M58.71,39.92a5.29,5.29,0,0,1-3.23-3.23L57,36.15a3.72,3.72,0,0,0,2.27,2.27Z" fill="#fff"/></svg>