<svg xmlns="http://www.w3.org/2000/svg" width="76" height="76" viewBox="0 0 76 76"><title>ss-icon_</title><rect x="0.95" y="8.55" width="74.1" height="58.9" fill="#fff"/><path d="M76,68.4H73.15V66.5h.95v-1H76Zm-4.75,0h-3.8V66.5h3.8Zm-5.7,0h-3.8V66.5h3.8Zm-5.7,0h-3.8V66.5h3.8Zm-5.7,0h-3.8V66.5h3.8Zm-5.7,0h-3.8V66.5h3.8Zm-5.7,0H39V66.5h3.8Zm-5.7,0h-3.8V66.5h3.8Zm-5.7,0h-3.8V66.5h3.8Zm-5.7,0h-3.8V66.5h3.8Zm-5.7,0h-3.8V66.5H20Zm-5.7,0h-3.8V66.5h3.8Zm-5.7,0H4.75V66.5h3.8Zm-5.7,0H0V65.55H1.9v1h1ZM76,63.65H74.1v-3.8H76Zm-74.1,0H0v-3.8H1.9ZM76,58H74.1v-3.8H76ZM1.9,58H0v-3.8H1.9ZM76,52.25H74.1v-3.8H76Zm-74.1,0H0v-3.8H1.9ZM76,46.55H74.1v-3.8H76Zm-74.1,0H0v-3.8H1.9ZM76,40.85H74.1v-3.8H76Zm-74.1,0H0v-3.8H1.9ZM76,35.15H74.1v-3.8H76Zm-74.1,0H0v-3.8H1.9ZM76,29.45H74.1v-3.8H76Zm-74.1,0H0v-3.8H1.9ZM76,23.75H74.1V20H76Zm-74.1,0H0V20H1.9ZM76,18.05H74.1v-3.8H76Zm-74.1,0H0v-3.8H1.9ZM76,12.35H74.1V8.55H76Zm-74.1,0H0V7.6H4.75V9.5H1.9ZM73.15,9.5h-3.8V7.6h3.8Zm-5.7,0h-3.8V7.6h3.8Zm-5.7,0H58V7.6h3.8Zm-5.7,0h-3.8V7.6h3.8Zm-5.7,0h-3.8V7.6h3.8Zm-5.7,0h-3.8V7.6h3.8ZM39,9.5h-3.8V7.6H39Zm-5.7,0h-3.8V7.6h3.8Zm-5.7,0h-3.8V7.6h3.8Zm-5.7,0h-3.8V7.6h3.8Zm-5.7,0h-3.8V7.6h3.8Zm-5.7,0H6.65V7.6h3.8Z" fill="#0c3d6d"/><rect x="7.6" y="19" width="36.1" height="38" fill="#00acfb"/><path d="M41.8,20.9V55.1H9.5V20.9H41.8M43.7,19H7.6V57H43.7V19Z" fill="#0c3d6d"/><rect x="49.4" y="21.85" width="11.4" height="1.9" fill="#0c3d6d"/><rect x="49.4" y="29.45" width="19" height="1.9" fill="#0c3d6d"/><rect x="49.4" y="37.05" width="19" height="1.9" fill="#0c3d6d"/><rect x="49.4" y="44.65" width="19" height="1.9" fill="#0c3d6d"/><circle cx="31.1" cy="31.84" r="3.34" fill="#fff"/><polygon points="11.4 46.31 22.8 34.91 27.55 39.66 30.4 36.81 39.9 46.31 11.4 46.31" fill="#fff"/><rect y="7.6" width="3.8" height="3.8" fill="#0c3d6d"/><rect x="72.2" y="7.6" width="3.8" height="3.8" fill="#0c3d6d"/><rect y="64.6" width="3.8" height="3.8" fill="#0c3d6d"/><rect x="72.2" y="64.6" width="3.8" height="3.8" fill="#0c3d6d"/><rect x="49.4" y="52.25" width="19" height="1.9" fill="#0c3d6d"/></svg>