<svg xmlns="http://www.w3.org/2000/svg" width="76" height="76" viewBox="0 0 76 76"><title>ss-icon_</title><rect x="51.75" y="37.93" width="11.38" height="6.64" fill="#00acfb"/><path d="M38,54.67a17.26,17.26,0,0,0-.09-1.76l3.89-2.67A21.16,21.16,0,0,0,40.41,46l-4.72.13a17.11,17.11,0,0,0-2.07-2.85l1.58-4.44a21.39,21.39,0,0,0-3.62-2.63l-3.74,2.88A16.92,16.92,0,0,0,24.5,38l-1.33-4.52a21.39,21.39,0,0,0-4.47,0L17.36,38A16.92,16.92,0,0,0,14,39.08L10.27,36.2a21.39,21.39,0,0,0-3.62,2.63l1.58,4.44a17.11,17.11,0,0,0-2.07,2.85L1.45,46A21.16,21.16,0,0,0,.07,50.24L4,52.91a17.22,17.22,0,0,0,0,3.53L.07,59.1a21.16,21.16,0,0,0,1.38,4.25l4.72-.13a17.11,17.11,0,0,0,2.07,2.85L6.66,70.52a21.39,21.39,0,0,0,3.62,2.63L14,70.27a16.92,16.92,0,0,0,3.35,1.09l1.33,4.52a21.39,21.39,0,0,0,4.47,0l1.33-4.52a16.92,16.92,0,0,0,3.35-1.09l3.74,2.88a21.39,21.39,0,0,0,3.62-2.63l-1.58-4.44a17.11,17.11,0,0,0,2.07-2.85l4.72.13a21.16,21.16,0,0,0,1.38-4.25L37.9,56.44A17.26,17.26,0,0,0,38,54.67Z" fill="#00acfb"/><path d="M20.93,35.24l.79,0,1,3.26L23,39.61l1.11.24a15.08,15.08,0,0,1,3,1l1,.46.9-.69,2.7-2.07q.66.44,1.27.92l-1.14,3.21-.38,1.06.75.84a15.25,15.25,0,0,1,1.84,2.54l.57,1,1.13,0,3.41-.09q.27.74.49,1.49l-2.81,1.92L35.9,52,36,53.1a15.32,15.32,0,0,1,0,3.14l-.12,1.12.93.64,2.81,1.92q-.21.75-.49,1.49l-3.41-.09-1.13,0-.57,1a15.25,15.25,0,0,1-1.84,2.54l-.75.84.38,1.06L33,69.92q-.62.49-1.27.92L29,68.76l-.9-.69-1,.46a15.06,15.06,0,0,1-3,1L23,69.74l-.32,1.08-1,3.26-.79,0-.79,0-1-3.26-.32-1.08-1.11-.24a15.06,15.06,0,0,1-3-1l-1-.46-.9.69-2.7,2.07q-.66-.44-1.27-.92L10,66.71l.38-1.06-.75-.84a15.25,15.25,0,0,1-1.84-2.54l-.57-1-1.13,0-3.41.09q-.27-.74-.49-1.49L5,58,6,57.37l-.12-1.12a15.32,15.32,0,0,1,0-3.14L6,52,5,51.35,2.22,49.42q.21-.75.49-1.49L6.12,48l1.13,0,.57-1a15.25,15.25,0,0,1,1.84-2.54l.75-.84L10,42.64,8.89,39.43q.62-.49,1.27-.92l2.7,2.07.9.69,1-.46a15.08,15.08,0,0,1,3-1l1.11-.24.32-1.08,1-3.26.79,0m0-1.9a21.53,21.53,0,0,0-2.23.12L17.36,38A16.92,16.92,0,0,0,14,39.08L10.27,36.2a21.38,21.38,0,0,0-3.62,2.63l1.58,4.44a17.11,17.11,0,0,0-2.07,2.85L1.45,46A21.15,21.15,0,0,0,.07,50.24L4,52.91a17.22,17.22,0,0,0,0,3.53L.07,59.1a21.15,21.15,0,0,0,1.38,4.25l4.72-.13a17.12,17.12,0,0,0,2.07,2.85L6.66,70.52a21.38,21.38,0,0,0,3.62,2.63L14,70.27a16.92,16.92,0,0,0,3.35,1.09l1.33,4.52a21.39,21.39,0,0,0,4.47,0l1.33-4.52a16.92,16.92,0,0,0,3.35-1.09l3.74,2.88a21.39,21.39,0,0,0,3.62-2.63l-1.58-4.44a17.12,17.12,0,0,0,2.07-2.85l4.72.13a21.15,21.15,0,0,0,1.38-4.25L37.9,56.44a17.22,17.22,0,0,0,0-3.53l3.89-2.67A21.15,21.15,0,0,0,40.41,46l-4.72.13a17.11,17.11,0,0,0-2.07-2.85l1.58-4.44a21.39,21.39,0,0,0-3.62-2.63l-3.74,2.88A16.92,16.92,0,0,0,24.5,38l-1.33-4.52a21.53,21.53,0,0,0-2.23-.12Z" fill="#0c3d6d"/><circle cx="20.93" cy="54.67" r="11.23" fill="#fff"/><path d="M20.93,45.34a9.34,9.34,0,1,1-9.34,9.34,9.35,9.35,0,0,1,9.34-9.34m0-1.9A11.23,11.23,0,1,0,32.16,54.67,11.23,11.23,0,0,0,20.93,43.44Z" fill="#0c3d6d"/><path d="M54,44.22h6.92a0,0,0,0,1,0,0v1.63a3.46,3.46,0,0,1-3.46,3.46h0A3.46,3.46,0,0,1,54,45.85V44.22A0,0,0,0,1,54,44.22Z" fill="#fff"/><path d="M58.89,46.12c-.27.7-.86,1.29-1.42,1.29s-1.15-.59-1.42-1.29h2.84m2-1.9H54v1.15c0,1.91,1.55,3.93,3.46,3.93s3.46-2,3.46-3.93V44.22Z" fill="#0c3d6d"/><path d="M57.48,1.9A16.58,16.58,0,0,1,74,18.46c0,5.23-2.78,9.79-9,14.78A6,6,0,0,0,62.48,39c0,.18,0,.36,0,.49v4.06a.41.41,0,0,1-.41.41H52.86a.41.41,0,0,1-.41-.41V39.48c0-.13,0-.31,0-.5a5.8,5.8,0,0,0-2.66-5.83c-8-5.4-9-11.82-8.9-15.16A16.61,16.61,0,0,1,56.68,1.92l.79,0m0-1.9-.88,0A18.52,18.52,0,0,0,39,17.94c-.2,7.25,4.15,13,9.73,16.78,2.38,1.62,1.8,3.5,1.8,4.77v4.06a2.31,2.31,0,0,0,2.31,2.31h9.23a2.31,2.31,0,0,0,2.31-2.31V39.48c0-1.27-.58-2.86,1.8-4.77,5.13-4.11,9.73-9.23,9.73-16.26A18.46,18.46,0,0,0,57.48,0Z" fill="#0c3d6d"/><rect x="51.13" y="37.12" width="12.69" height="1.9" fill="#0c3d6d"/><path d="M57.68,28h0a3.08,3.08,0,0,1,3.08,3.08v7.82a0,0,0,0,1,0,0H54.6a0,0,0,0,1,0,0V31.06A3.08,3.08,0,0,1,57.68,28Z" fill="#00acfb"/><path d="M57.68,29.87a1.19,1.19,0,0,1,1.19,1.19V37H56.49V31.06a1.19,1.19,0,0,1,1.19-1.19m0-1.9a3.08,3.08,0,0,0-3.08,3.08v7.82h6.16V31.06A3.08,3.08,0,0,0,57.68,28Z" fill="#0c3d6d"/><rect x="47.01" y="14.22" width="21.34" height="1.9" fill="#0c3d6d"/><rect x="56.49" y="15.17" width="1.9" height="13.75" fill="#0c3d6d"/><rect x="53.41" y="14.47" width="1.9" height="14.21" transform="translate(-3.98 25.72) rotate(-25.71)" fill="#0c3d6d"/><rect x="53.42" y="21.1" width="14.21" height="1.9" transform="translate(14.41 67.02) rotate(-64.3)" fill="#0c3d6d"/><rect x="70.91" y="33.86" width="1.9" height="1.9" transform="translate(-3.57 61.01) rotate(-45)" fill="#0c3d6d"/><path d="M71.19,75.86H67.45V74h3.83l.06,1.9Zm-5.67,0H61.66V74h3.86Zm-5.79,0H55.87V74h3.86Zm-5.79,0H50.07V74h3.86Zm-5.79,0H44.28V74h3.86Zm-5.79,0H38.48V74h3.86Zm31.29-.68-1-1.62A2.83,2.83,0,0,0,74,71.15l1.9,0A4.71,4.71,0,0,1,73.64,75.18Zm2.29-6H74V65.37h1.9Zm0-5.79H74V59.57h1.9Zm0-5.79H74V53.78h1.9Zm0-5.79H74V48h1.9Zm0-5.79H74V42.19h1.9Zm0-5.79H74V38.32l-.81-.81,1.34-1.34,1.36,1.36Z" fill="#0c3d6d"/><rect x="35.35" y="72.27" width="1.9" height="1.9" transform="translate(-41.14 47.11) rotate(-45)" fill="#0c3d6d"/><rect x="3.67" y="40.58" width="1.9" height="1.9" transform="translate(-28.01 15.43) rotate(-45)" fill="#0c3d6d"/><path d="M2,40.21.07,38.32V36.48H2v1.06l1.33,1.33Zm0-5.6H.07V30.88H2ZM2,29H.07V25.29H2Zm0-5.59H.07V19.7H2Zm0-5.59H.07V14.1H2Zm0-5.59H.07V8.51H2ZM2,6.65H.07V4.74A4.76,4.76,0,0,1,.61,2.55l1.68.88A2.81,2.81,0,0,0,2,4.74ZM3.21,2.39,2.14.83A4.72,4.72,0,0,1,4.81,0H6.27V1.9H4.81A2.83,2.83,0,0,0,3.21,2.39Zm31-.49H30.5V0h3.73Zm-5.59,0H24.91V0h3.73ZM23,1.9H19.32V0H23Zm-5.59,0H13.72V0h3.73Zm-5.59,0H8.13V0h3.73Z" fill="#0c3d6d"/><polygon points="38.67 2.96 37.61 1.9 36.1 1.9 36.1 0 38.39 0 40.01 1.62 38.67 2.96" fill="#0c3d6d"/><rect x="40.17" y="3.12" width="1.9" height="1.9" transform="translate(9.17 30.28) rotate(-45.01)" fill="#0c3d6d"/><path d="M20,61.28a1.17,1.17,0,1,1,1.06.32A1.17,1.17,0,0,1,20,61.28Zm-.11-4.52a3.37,3.37,0,0,1,.23-1.33,1.73,1.73,0,0,1,.58-.75q.35-.23.75-.47l.75-.41h0a1.43,1.43,0,0,0,.6-.62,2.17,2.17,0,0,0,.21-1,1.9,1.9,0,0,0-.65-1.51,2.34,2.34,0,0,0-1.62-.58,2.19,2.19,0,0,0-1.64.66,2.12,2.12,0,0,0-.6,1.63H16.79a3.61,3.61,0,0,1,1.08-2.82,3.91,3.91,0,0,1,2.89-1.14,4,4,0,0,1,2.81,1.08,3.52,3.52,0,0,1,1.15,2.69,3.61,3.61,0,0,1-.32,1.6,2.46,2.46,0,0,1-.75,1,8.56,8.56,0,0,1-.9.54,3,3,0,0,0-.75.56,1.15,1.15,0,0,0-.32.83v1.11H19.9Z" fill="#0c3d6d"/></svg>