<svg xmlns="http://www.w3.org/2000/svg" width="76" height="76" viewBox="0 0 76 76"><title>ss-icon_</title><rect y="5.7" width="76" height="45.6" fill="#00acfb"/><path d="M74.1,7.6V49.4H1.9V7.6H74.1M76,5.7H0V51.3H76V5.7Z" fill="#0c3d6d"/><rect x="5.7" y="13.3" width="64.6" height="32.3" fill="#fff"/><path d="M68.4,15.2V43.7H7.6V15.2H68.4m1.9-1.9H5.7V45.6H70.3V13.3Z" fill="#0c3d6d"/><rect x="13.3" width="15.2" height="11.4" rx="4" ry="4" fill="#fff"/><path d="M26.6,1.9V9.5H15.2V1.9H26.6m0-1.9H15.2a1.9,1.9,0,0,0-1.9,1.9V9.5a1.9,1.9,0,0,0,1.9,1.9H26.6a1.9,1.9,0,0,0,1.9-1.9V1.9A1.9,1.9,0,0,0,26.6,0Z" fill="#0c3d6d"/><rect x="47.5" width="15.2" height="11.4" rx="4" ry="4" fill="#fff"/><path d="M60.8,1.9V9.5H49.4V1.9H60.8m0-1.9H49.4a1.9,1.9,0,0,0-1.9,1.9V9.5a1.9,1.9,0,0,0,1.9,1.9H60.8a1.9,1.9,0,0,0,1.9-1.9V1.9A1.9,1.9,0,0,0,60.8,0Z" fill="#0c3d6d"/><rect x="46.55" y="24.7" width="9.28" height="1.9" fill="#0c3d6d"/><rect x="46.55" y="30.4" width="17.1" height="1.9" fill="#0c3d6d"/><rect x="46.55" y="36.1" width="17.1" height="1.9" fill="#0c3d6d"/><rect x="9.5" y="74.1" width="9.5" height="1.9" fill="#0c3d6d"/><rect x="13.3" y="50.83" width="1.9" height="24.22" fill="#0c3d6d"/><rect x="57" y="74.1" width="9.5" height="1.9" fill="#0c3d6d"/><rect x="60.8" y="50.83" width="1.9" height="24.22" fill="#0c3d6d"/><rect x="15.2" y="60.8" width="46.07" height="1.9" fill="#0c3d6d"/><circle cx="30.52" cy="24.46" r="3.56" fill="#0c3d6d"/><path d="M21.66,30.43l3.72,3.72,1.34,1.34,1.34-1.34,1.7-1.7L35.31,38H14.09l7.57-7.57m0-2.69L9.5,39.9H39.9L29.77,29.77l-3,3-5.07-5.07Z" fill="#0c3d6d"/></svg>