<svg xmlns="http://www.w3.org/2000/svg" width="76" height="76" viewBox="0 0 76 76"><title>ss-icon_</title><rect x="14.25" y="12.67" width="47.5" height="44.33" fill="#00acfb"/><path d="M60.17,14.25V55.42H15.83V14.25H60.17m1.58-1.58H14.25V57h47.5V12.67Z" fill="#0c3d6d"/><polyline points="12.67 49.87 7.13 49.87 7.13 19.79 12.67 19.79" fill="#fff" fill-rule="evenodd"/><polygon points="12.67 50.67 6.33 50.67 6.33 19 12.67 19 12.67 20.58 7.92 20.58 7.92 49.08 12.67 49.08 12.67 50.67" fill="#0c3d6d"/><circle cx="38" cy="61.75" r="1.58" fill="#0c3d6d"/><circle cx="42.75" cy="61.75" r="1.58" fill="#0c3d6d"/><circle cx="33.25" cy="61.75" r="1.58" fill="#0c3d6d"/><polyline points="3.17 31.67 0 34.83 3.17 38" fill="#0c3d6d" fill-rule="evenodd"/><polyline points="63.33 49.87 68.88 49.87 68.88 19.79 63.33 19.79" fill="#fff" fill-rule="evenodd"/><polygon points="69.67 50.67 63.33 50.67 63.33 49.08 68.08 49.08 68.08 20.58 63.33 20.58 63.33 19 69.67 19 69.67 50.67" fill="#0c3d6d"/><polyline points="72.83 31.67 76 34.83 72.83 38" fill="#0c3d6d" fill-rule="evenodd"/><circle cx="45.67" cy="26.62" r="4.45" fill="#fff"/><polygon points="19 47.5 34.2 32.3 40.53 38.63 44.33 34.83 57 47.5 19 47.5" fill="#fff"/></svg>