<svg xmlns="http://www.w3.org/2000/svg" width="76" height="76" viewBox="0 0 76 76"><title>ss-icon_</title><polyline points="70.66 17.23 70.66 58.53 38.01 74.93 5.36 58.53 5.34 17.35" fill="#fff"/><polygon points="38.01 76 4.41 59.12 4.38 17.35 6.29 17.35 6.31 57.95 38.01 73.87 69.71 57.95 69.71 17.23 71.61 17.23 71.61 59.12 38.01 76" fill="#0c3d6d"/><rect x="37.06" y="33.75" width="1.91" height="41.18" fill="#0c3d6d"/><polygon points="38.01 33.75 5.36 17.35 38.01 0.95 70.66 17.35 38.01 33.75" fill="#fff"/><path d="M38,34.71a1,1,0,0,1-.43-.1L4.93,18.21a1,1,0,0,1,0-1.7L37.58.1a1,1,0,0,1,.86,0L71.09,16.5a1,1,0,0,1,0,1.7L38.44,34.61A1,1,0,0,1,38,34.71ZM7.48,17.35,38,32.69,68.54,17.35,38,2Z" fill="#0c3d6d"/><polyline points="26.28 28.2 26.28 40.39 17.31 36.27 17.31 23.67" fill="#00acfb"/><polygon points="27.23 41.87 16.35 36.89 16.35 23.67 18.26 23.67 18.26 35.66 25.32 38.9 25.32 28.2 27.23 28.2 27.23 41.87" fill="#0c3d6d"/><polygon points="49.53 6.74 17.31 23.14 26.81 28.39 58.98 11.51 49.53 6.74" fill="#00acfb"/><path d="M26.8,29.47,15.27,23.1,49.53,5.67,61.06,11.5Zm-7.46-6.3,7.48,4.14L56.9,11.53,49.54,7.8Z" fill="#0c3d6d"/></svg>