<?xml version="1.0" encoding="UTF-8" standalone="no"?>
<!--
Copyright 2016 Hippo B.V. (http://www.onehippo.com)

Licensed under the Apache License, Version 2.0 (the "License");
you may not use this file except in compliance with the License.
You may obtain a copy of the License at

http://www.apache.org/licenses/LICENSE-2.0

Unless required by applicable law or agreed to in writing, software
distributed under the License is distributed on an "AS IS" BASIS,
WITHOUT WARRANTIES OR CONDITIONS OF ANY KIND, either express or implied.
See the License for the specific language governing permissions and
limitations under the License.
-->
<svg id="Hippo-Logo" xmlns="http://www.w3.org/2000/svg" viewBox="0 0 100 80">
  <defs>
    <style>.cls-1{fill:#ef3e42}.cls-2{fill:#00aee7}</style>
  </defs>
  <title>hippo-logo</title>
  <g id="Text">
    <path class="cls-1" d="M27.7 73.9v-4.4h-4.3v4.4h-2.1V63.4h2.1v4h4.3v-4h2.1v10.5h-2.1zM33.4 73.9V63.4h2.1v10.5h-2.1zM43.6 70.2h-2.3v3.7h-2.1V63.4h4.6c2 0 3.6 1.1 3.6 3.3s-1.6 3.5-3.8 3.5zm.1-4.8h-2.4v2.7h2.5a1.3 1.3 0 0 0 1.5-1.4 1.3 1.3 0 0 0-1.6-1.3zM54.6 70.2h-2.3v3.7h-2.1V63.4h4.6c2 0 3.6 1.1 3.6 3.3s-1.6 3.5-3.8 3.5zm.1-4.8h-2.4v2.7h2.5a1.3 1.3 0 0 0 1.5-1.4 1.3 1.3 0 0 0-1.6-1.3zM65.2 74.1c-2.9 0-4.6-2.2-4.6-5.4s1.7-5.4 4.6-5.4 4.6 2.2 4.6 5.4-1.8 5.4-4.6 5.4zm0-8.8c-1.7 0-2.4 1.5-2.4 3.3s.7 3.4 2.4 3.4 2.4-1.5 2.4-3.3-.7-3.4-2.4-3.4z"/>
  </g>
  <g id="Mark">
    <path class="cls-2" d="M91.7 27.6a6.8 6.8 0 0 0-.8-1.7 9.9 9.9 0 0 0-1.3-1.5A6.6 6.6 0 0 0 86 23h-1.2a1.4 1.4 0 0 1-1.1-.3c-1.7-2.3-2.9-3-3.2-3.1a7 7 0 0 0-6.4-.1 6.5 6.5 0 0 0-1.4-1.5 3.2 3.2 0 0 0-1.5-.6 3.8 3.8 0 0 0-3 1l-.3.5a8.9 8.9 0 0 0-2.3-.6 30.6 30.6 0 0 0-4.6-.2 12.5 12.5 0 0 1-3.7-.4 10.9 10.9 0 0 1-3.2-1.7 35.6 35.6 0 0 1-3.8-3.2 29.2 29.2 0 0 0-3.6-3 21.3 21.3 0 0 0-7.9-3.3 28.7 28.7 0 0 0-4.7-.5 30.1 30.1 0 0 0-4.5.1 24.1 24.1 0 0 0-7.8 2.3 18 18 0 0 0-6.4 5.1 14.2 14.2 0 0 0-2 3.7l-.8 2.4a20.9 20.9 0 0 1-.9 2.2 11.7 11.7 0 0 1-1.7 2.6 5 5 0 0 1-1.2 1H8l.2.6v.7h.7a5.7 5.7 0 0 0 1.8-1.4c.5 8.7 6.2 15.1 6.7 15.6 2 2.8 3 7.9 3.1 8.5v.3a3 3 0 0 0 .8 1.5 2.7 2.7 0 0 0 1.8.7h12.5a2.1 2.1 0 0 0 2.1-2.3v-.2-4a13.6 13.6 0 0 0 9.4-2.6 32.3 32.3 0 0 0 3.4 2.2c.9.7 1 1.9 1 3v1.4a2.5 2.5 0 0 0 .8 1.9 2.2 2.2 0 0 0 1.3.5h13.7a2.3 2.3 0 0 0 1.8-.9 3.6 3.6 0 0 0 .4-2.3v-4.9a3.4 3.4 0 0 1 1.4-2.9 7.1 7.1 0 0 0 2.5-3.9 33.3 33.3 0 0 0 8 3.1l1.5.4c2.3.6 3.3-.5 3.5-.8A5.5 5.5 0 0 0 87 38h.3a3.1 3.1 0 0 0 2.4-1.4 13.7 13.7 0 0 0 2.2-5.2 7.3 7.3 0 0 0-.2-3.8zm-.8 3.6a12.7 12.7 0 0 1-2 4.8 2.2 2.2 0 0 1-1.6.9l-1.9-.7H85l-.2.3v.2l-.2.4.4.2 1 .5v.3a3 3 0 0 1-.3.8 1.6 1.6 0 0 1-1.3.7 7.5 7.5 0 0 1-2.1-.4 31.1 31.1 0 0 1-8.8-3.5l-.6-.3v.7a5.7 5.7 0 0 1-1.9 3.6l-.9.8-.7 1a3.6 3.6 0 0 0-.5 2.3v5a3.8 3.8 0 0 1-.1 1.3 1.3 1.3 0 0 1-.8.7 5 5 0 0 1-1.4.1H53.7a1.2 1.2 0 0 1-.9-.5 1.9 1.9 0 0 1-.3-1.1 18.6 18.6 0 0 0-.2-3 3.6 3.6 0 0 0-1.3-2.1 30.4 30.4 0 0 1-3.6-2.5l-.3-.3-.3.3a12.8 12.8 0 0 1-9.5 2.6h-.5v5.2a1.2 1.2 0 0 1-1.2 1.3H23.1a1.8 1.8 0 0 1-1.1-.4 2.1 2.1 0 0 1-.5-1.1V49c-.1-.6-1.2-5.8-3.3-8.8a18 18 0 0 1-1.6-2 28.3 28.3 0 0 1-3.4-6.3 24 24 0 0 1-1.2-4.4 21.6 21.6 0 0 1-.3-2.4v-1.3a1.5 1.5 0 0 1 .3-.6l.3-.6a19 19 0 0 0 1.2-2.6c.3-.9.6-1.9.9-2.8a13.6 13.6 0 0 1 2.9-4.5 19.8 19.8 0 0 1 9.4-5.1 24.8 24.8 0 0 1 5.9-.7 29.6 29.6 0 0 1 6.1.5 20.4 20.4 0 0 1 9.7 4.8c2.7 2.4 5.3 5.4 8.9 6.4a24.3 24.3 0 0 0 6 .4 16.9 16.9 0 0 1 3 .3l.7.2h.6c0 .2-.1.5-.1.7a2.6 2.6 0 0 0 0 .7 2.9 2.9 0 0 0 1.1 2.1 4.5 4.5 0 0 0 2.6.9h1a.5.5 0 0 0 .1-.6.9.9 0 0 0-.8-.2l-1.5-.2a2.4 2.4 0 0 1-1.7-1.6 2.6 2.6 0 0 1 .5-2.2 2 2 0 0 1 1.1-.6 2.7 2.7 0 0 1 1.4-.1 3.7 3.7 0 0 1 1.3.8 5 5 0 0 1 1 1.1l.2.4.4-.2a6.2 6.2 0 0 1 5.9-.1l.4.2a8.9 8.9 0 0 1 2 2 3.7 3.7 0 0 0 .9 1 2.5 2.5 0 0 0 1.1.3l2.3.3a4.8 4.8 0 0 1 2.2 1 6.4 6.4 0 0 1 1.8 2.6 6.3 6.3 0 0 1 .1 3.4z"/>
    <path class="cls-2" d="M88.7 29.2a1.3 1.3 0 0 1-.4-.8 1.1 1.1 0 0 1 .7-1 .5.5 0 0 0-.4-.8 2.1 2.1 0 0 0-1.2 1.6 2.1 2.1 0 0 0 .6 1.6.5.5 0 0 0 .6-.7M80.7 24a1.1 1.1 0 1 1-1.1-1.1 1.1 1.1 0 0 1 1.1 1.1"/>
  </g>
</svg>
