<?xml version="1.0" encoding="utf-8"?>
<!--
  Copyright 2015 Hippo B.V. (http://www.onehippo.com)

  Licensed under the Apache License, Version 2.0 (the "License");
  you may not use this file except in compliance with the License.
  You may obtain a copy of the License at

       http://www.apache.org/licenses/LICENSE-2.0

  Unless required by applicable law or agreed to in writing, software
  distributed under the License is distributed on an "AS IS" BASIS,
  WITHOUT WARRANTIES OR CONDITIONS OF ANY KIND, either express or implied.
  See the License for the specific language governing permissions and
  limitations under the License.
-->
<!-- Generator: Adobe Illustrator 16.0.0, SVG Export Plug-In . SVG Version: 6.00 Build 0)  -->
<!DOCTYPE svg PUBLIC "-//W3C//DTD SVG 1.1//EN" "http://www.w3.org/Graphics/SVG/1.1/DTD/svg11.dtd">
<svg version="1.1" xmlns="http://www.w3.org/2000/svg" xmlns:xlink="http://www.w3.org/1999/xlink" x="0px" y="0px" width="36px"
	 height="28px" viewBox="0 0 36 28" enable-background="new 0 0 36 28" xml:space="preserve">
<g id="Vector_lines" display="none">
	<g display="inline">
		<path d="M30.163,4.033c0.206,0,0.5,0.283,0.5,0.547v17.876c0,0.313-0.24,0.577-0.391,0.577H5.078
			c-0.415,0-0.415-0.177-0.415-0.234V4.486c0-0.255,0.252-0.453,0.469-0.453H30.163 M30.163,3.033H5.132
			c-0.768,0-1.469,0.646-1.469,1.453v18.312c0,0.807,0.646,1.234,1.415,1.234h25.194c0.768,0,1.391-0.769,1.391-1.577V4.58
			C31.663,3.773,30.932,3.033,30.163,3.033L30.163,3.033z"/>
	</g>
	<g display="inline">
		<path stroke-miterlimit="10" d="M7.663,19.802l6.154-5.846l5,4l9-9"/>
	</g>
	<polygon display="inline" points="28.663,12.648 28.663,8.033 24.048,8.033 	"/>
</g>
<g id="Outlines">
	<path d="M30.016,23.016L6.465,23.01C6.05,23.01,6,22.729,6,22.672V4.859c0,0,0.031-0.844-0.453-0.844s-0.484,0.75-0.484,0.75
		L5.047,22.578c0,0.807,0.606,1.391,1.375,1.391H30c0,0,1-0.016,1-0.5S30.016,23.016,30.016,23.016z"/>
	<polygon points="29.987,12.648 29.987,8.033 25.372,8.033 	"/>
	<g>
		<polygon points="8.61,20.652 8.163,20.182 14.522,14.141 19.517,18.136 28.312,9.341 28.771,9.801 19.565,19.007 14.56,15.002 		
			"/>
	</g>
</g>
</svg>
