<svg xmlns="http://www.w3.org/2000/svg" width="76" height="76" viewBox="0 0 76 76"><title>ss-icon_</title><rect y="12.67" width="76" height="50.67" fill="#fff"/><path d="M74.42,14.25v47.5H1.58V14.25H74.42M76,12.67H0V63.33H76V12.67Z" fill="#0c3d6d"/><circle cx="47.5" cy="25.33" r="6.33" fill="#00acfb"/><path d="M47.5,20.58a4.75,4.75,0,1,1-4.75,4.75,4.76,4.76,0,0,1,4.75-4.75m0-1.58a6.33,6.33,0,1,0,6.33,6.33A6.33,6.33,0,0,0,47.5,19Z" fill="#0c3d6d"/><polygon points="6.33 57.08 31.67 31.75 42.22 42.3 48.56 35.97 69.67 57.08 6.33 57.08" fill="#00acfb"/><path d="M31.67,34l9.44,9.44,1.12,1.12,1.12-1.12,5.21-5.21L65.84,55.5H10.16L31.67,34m0-2.24L6.33,57.08H69.67L48.56,36,42.22,42.3,31.67,31.75Z" fill="#0c3d6d"/></svg>