<svg version="1.1" xmlns="http://www.w3.org/2000/svg" x="0px" y="0px"
	 width="24px" height="24px" viewBox="0 0 24 24" enable-background="new 0 0 24 24" xml:space="preserve">
  <title>add-content</title>
  <g>
    <path id="doc" d="m14.950661,7.041294l0,10c0,0.472 -0.561,1 -1.031,1l-10.115,0c-0.471,0 -0.854,-0.383 -0.854,-0.854l0,-14.233c0,-0.472 0.383,-0.854 0.854,-0.854l5.97,0c0.473,0 1.131,0.275 1.461,0.605l3.111,2.877c0.329,0.33 0.604,0.987 0.604,1.459zm-1,1l-4,0c-0.471,0 -1,-0.529 -1,-1l0,-4l-5,0l-0.002,14.049l10.002,-0.049l0,-9zm-4,-1l4,0c-0.053,-0.151 -0.135,-0.302 -0.197,-0.365l-3.438,-3.439c-0.062,-0.062 -0.213,-0.142 -0.365,-0.196l0,4z"/>
    <rect id="box" height="8.034061" width="6.907791" y="10.002651" x="9.107098" stroke-linecap="null" stroke-linejoin="null" stroke-dasharray="null" stroke-width="null"/>
    <path id="plus" d="m10.567873,13.174633l1.290366,0l0,-1.265552l1.323671,0l0,1.265552l1.290367,0l0,1.298216l-1.290367,0l0,1.265552l-1.323671,0l0,-1.265552l-1.290366,0l0,-1.298216z" stroke-linecap="null" stroke-linejoin="null" stroke-dasharray="null" stroke-width="null" fill="#e06717"/>
  </g>
</svg>
