<!--
  Copyright 2016-2017 Hippo B.V. (http://www.onehippo.com)

  Licensed under the Apache License, Version 2.0 (the "License");
  you may not use this file except in compliance with the License.
  You may obtain a copy of the License at

   http://www.apache.org/licenses/LICENSE-2.0

  Unless required by applicable law or agreed to in writing, software
  distributed under the License is distributed on an "AS IS" BASIS,
  WITHOUT WARRANTIES OR CONDITIONS OF ANY KIND, either express or implied.
  See the License for the specific language governing permissions and
  limitations under the License.
-->
<svg width="24px" height="24px" viewBox="0 0 24 24" version="1.1" xmlns="http://www.w3.org/2000/svg" xmlns:xlink="http://www.w3.org/1999/xlink">
  <path d="M12,0 C6.4771525,0 2,4.4771525 2,10 C2,12.6900207 3.06807505,15.1900543 4.94547066,17.0587475 C5.45191094,17.5628403 6.24108337,18.2460866 7.25958513,19.0755175 L7.92932281,19.615635 C8.49937165,20.0712335 9.0992731,20.5412534 9.70656959,21.0101078 L11.4012088,22.3009052 L11.9986589,22.7475846 L12.8973442,22.0772184 C13.1347244,21.8986961 13.3990867,21.6986203 13.6837253,21.4816141 C14.2939283,21.0164002 14.9042263,20.5444875 15.4921644,20.0813205 L16.4822464,19.2920304 L17.2904826,18.6300249 C18.0471519,18.0003939 18.6459781,17.4697819 19.0586767,17.0552445 C20.9227472,15.1828691 22,12.666959 22,10 C22,4.4771525 17.5228475,0 12,0 Z M12,2 C16.418278,2 20,5.581722 20,10 C20,12.128453 19.1386085,14.1402218 17.6413233,15.6441778 L17.3924976,15.8856947 C16.9828185,16.2720826 16.4115589,16.7651768 15.7111429,17.3406689 L15.0268552,17.8962005 L14.823779,18.0588229 C14.2630068,18.5066457 13.6714735,18.9692332 13.0721787,19.430666 L12.001,20.247 L11.5305317,19.8893817 C10.72803,19.2755981 9.92568967,18.6509012 9.17797651,18.0533085 L8.30796952,17.3493075 C7.44174793,16.638485 6.77106534,16.0540006 6.35639512,15.6412525 C4.85116109,14.1429957 4,12.1506907 4,10 C4,5.581722 7.581722,2 12,2 Z M13,5 L11,5 L11,9 L7,9 L7,11 L11,11 L11,15 L13,15 L13,11 L17,11 L17,9 L13,9 L13,5 Z" id="path-1"></path>
</svg>