<!--
  Copyright 2016-2017 Hippo B.V. (http://www.onehippo.com)

  Licensed under the Apache License, Version 2.0 (the "License");
  you may not use this file except in compliance with the License.
  You may obtain a copy of the License at

   http://www.apache.org/licenses/LICENSE-2.0

  Unless required by applicable law or agreed to in writing, software
  distributed under the License is distributed on an "AS IS" BASIS,
  WITHOUT WARRANTIES OR CONDITIONS OF ANY KIND, either express or implied.
  See the License for the specific language governing permissions and
  limitations under the License.
-->
<svg version="1.1" xmlns="http://www.w3.org/2000/svg" x="0px" y="0px"
	 width="24px" height="24px" viewBox="0 0 24 24" enable-background="new 0 0 24 24" xml:space="preserve">
<g>
	<path d="M14,17c0,0.472-0.561,1-1.031,1 M13,15V8H9C8.529,8,8,7.471,8,7V3H3L2.998,17.049L11,17.01L10.002,18H2.854
		C2.383,18,2,17.617,2,17.146V2.913c0-0.472,0.383-0.854,0.854-0.854h5.97c0.473,0,1.131,0.275,1.461,0.605l3.111,2.877
		C13.725,5.871,14,6.528,14,7v7L13,15z M13,17 M5.284,10h5.431C10.875,10,11,10.125,11,10.285v0.431C11,10.875,10.875,11,10.715,11
		H5.284C5.125,11,5,10.875,5,10.715v-0.431C5,10.125,5.125,10,5.284,10z M5.284,12h5.431C10.875,12,11,12.124,11,12.284v0.431
		C11,12.875,10.875,13,10.715,13H5.284C5.125,13,5,12.875,5,12.715v-0.431C5,12.124,5.125,12,5.284,12z M5.284,14h5.431
		C10.875,14,11,14.124,11,14.284v0.431C11,14.875,10.875,15,10.715,15H5.284C5.125,15,5,14.875,5,14.715v-0.431
		C5,14.124,5.125,14,5.284,14z M9,7h4c-0.053-0.151-0.135-0.302-0.197-0.365L9.365,3.196C9.303,3.134,9.152,3.054,9,3V7z"/>
</g>
<g>
	<rect x="19.793" y="11.086" transform="matrix(-0.7071 0.7071 -0.7071 -0.7071 43.8345 6.8431)" width="1.414" height="2.828"/>
	<polygon points="18,13 11,20 11,22 13,22 20,15 	"/>
</g>
</svg>
