<!--
  Copyright 2016-2017 Hippo B.V. (http://www.onehippo.com)

  Licensed under the Apache License, Version 2.0 (the "License");
  you may not use this file except in compliance with the License.
  You may obtain a copy of the License at

   http://www.apache.org/licenses/LICENSE-2.0

  Unless required by applicable law or agreed to in writing, software
  distributed under the License is distributed on an "AS IS" BASIS,
  WITHOUT WARRANTIES OR CONDITIONS OF ANY KIND, either express or implied.
  See the License for the specific language governing permissions and
  limitations under the License.
-->
<svg version="1.1" xmlns="http://www.w3.org/2000/svg" x="0px" y="0px"
	 width="24px" height="24px" viewBox="0 0 24 24" enable-background="new 0 0 24 24" xml:space="preserve">
<g>
	<path d="M13,5v4c0,0.188,0.054,0.374,0.154,0.533c2.483,3.942,5.234,8.42,5.706,9.371c-0.074,0.925-0.759,1.086-1.165,1.096H6.544
		c-0.345,0-1.435-0.082-1.536-1.077c0.493-1.019,3.646-6.003,5.832-9.379C10.944,9.382,11,9.193,11,9V5H13 M15,4H9v1h1v4
		c0,0-6,9.265-6,9.769C4,20.966,6.397,21,6.544,21c0.005,0,0.007,0,0.007,0h11.145c0,0,2.172,0,2.172-2.267C19.867,18.315,14,9,14,9
		V5h1V4L15,4z"/>
</g>
<rect x="6.267" y="15" width="11.333" height="1"/>
</svg>
