<svg xmlns="http://www.w3.org/2000/svg" width="76" height="76" viewBox="0 0 76 76"><title>ss-icon_</title><polygon points="0 41.8 34.2 76 74.1 36.1 76 0 39.9 1.9 0 41.8" fill="#00acfb" fill-rule="evenodd"/><path d="M74,2,72.24,35.27l-38,38L2.69,41.8l38-38L74,2m2-2L39.9,1.9,0,41.8,34.2,76,74.1,36.1,76,0Z" fill="#0c3d6d"/><circle cx="59.85" cy="16.15" r="5.7" fill="#fff"/><path d="M59.85,12.35a3.8,3.8,0,1,1-3.8,3.8,3.8,3.8,0,0,1,3.8-3.8m0-1.9a5.7,5.7,0,1,0,5.7,5.7,5.7,5.7,0,0,0-5.7-5.7Z" fill="#0c3d6d"/><path d="M43,39.88l-4,4-5.68-7.75,4-4ZM40.84,23.22l-3.09,3.09-2.1-2.86a1.9,1.9,0,0,0-3.06,2.25L35,29l-4,4-2.1-2.86a1.9,1.9,0,0,0-3.06,2.25l2.45,3.33-3.6,3.6A1.9,1.9,0,0,0,27.4,42l3.19-3.19,5.68,7.75-3.5,3.5a1.9,1.9,0,0,0,2.69,2.69l3.09-3.09,2.1,2.86a1.9,1.9,0,0,0,2.66.41l.22-.19a1.9,1.9,0,0,0,.19-2.47L41.26,47l4-4,2.1,2.86a1.9,1.9,0,0,0,2.66.41l.22-.19a1.9,1.9,0,0,0,.19-2.47L48,40.26l3.6-3.6A1.9,1.9,0,0,0,48.9,34l-3.19,3.19L40,29.41l3.5-3.5a1.9,1.9,0,0,0-2.69-2.69Z" fill="#fff"/></svg>