<?xml version="1.0" encoding="utf-8"?>
<!-- Generator: Adobe Illustrator 16.0.0, SVG Export Plug-In . SVG Version: 6.00 Build 0)  -->
<!DOCTYPE svg PUBLIC "-//W3C//DTD SVG 1.1//EN" "http://www.w3.org/Graphics/SVG/1.1/DTD/svg11.dtd">
<svg version="1.1" id="Layer_1" xmlns="http://www.w3.org/2000/svg" xmlns:xlink="http://www.w3.org/1999/xlink" x="0px" y="0px"
	 width="32px" height="32px" viewBox="0 0 32 32" enable-background="new 0 0 32 32" xml:space="preserve">
<g>
	<path fill="currentColor" d="M31,21.469c0-0.734,0-16.922,0-16.922C31,3.74,30.269,3,29.5,3H1.469C0.701,3,0,3.645,0,4.453v17.312
		C0,22.572,0.646,23,1.415,23H15v6h1v-6c0,0,12.75,0,13.469,0S31,22.203,31,21.469z M1.415,22C1,22,1,21.822,1,21.766V4.453
		C1,4.197,1.252,4,1.469,4H29.5C29.707,4,30,4.283,30,4.547c0,0,0,16.797,0,17.016S29.922,22,29.562,22C28.688,22,1.415,22,1.415,22
		z"/>
	<path fill="currentColor" d="M20,29l-9,0.004c-0.553,0-1.016-0.084-1.016,0.469s0.447,0.527,1,0.527H20c0.553,0,1,0,1-0.434C21,29.566,21,29,20,29z"/>
</g>
</svg>
