<?xml version="1.0" encoding="utf-8"?>
<!--
  Copyright 2016-2018 Hippo B.V. (http://www.onehippo.com)

  Licensed under the Apache License, Version 2.0 (the "License");
  you may not use this file except in compliance with the License.
  You may obtain a copy of the License at

   http://www.apache.org/licenses/LICENSE-2.0

  Unless required by applicable law or agreed to in writing, software
  distributed under the License is distributed on an "AS IS" BASIS,
  WITHOUT WARRANTIES OR CONDITIONS OF ANY KIND, either express or implied.
  See the License for the specific language governing permissions and
  limitations under the License.
-->
<!DOCTYPE svg PUBLIC "-//W3C//DTD SVG 1.1//EN" "http://www.w3.org/Graphics/SVG/1.1/DTD/svg11.dtd">
<svg version="1.1" id="Layer_1" xmlns="http://www.w3.org/2000/svg" x="0px" y="0px"
     viewBox="0 0 24 24" enable-background="new 0 0 24 24" xml:space="preserve">
  <path fill="currentcolor" clip-rule="evenodd" d="M 17.864 22.81 L 5.626 22.81 C 4.587 22.81 3.745 21.965 3.745 20.924 L 3.745 3
  C 3.745 1.958 4.587 1.114 5.626 1.114 L 14.555 1.114 C 14.556 1.114 14.558 1.114 14.558 1.114 L 14.569 1.114 L 14.569 1.114
  C 14.719 1.114 14.848 1.19 14.934 1.3 L 19.56 5.937 C 19.671 6.023 19.745 6.151 19.745 6.303 L 19.745 6.303 L 19.745 6.313
  C 19.745 6.314 19.745 6.315 19.745 6.315 L 19.745 20.924 C 19.745 21.965 18.903 22.81 17.864 22.81 Z M 15.038 2.708 L 15.038 5.831
  L 18.153 5.831 L 15.038 2.708 Z M 18.804 6.773 L 14.569 6.773 C 14.308 6.773 14.098 6.562 14.098 6.303 L 14.098 2.058
  L 5.626 2.058 C 5.108 2.058 4.686 2.481 4.686 3 L 4.686 20.924 C 4.686 21.443 5.108 21.866 5.626 21.866 L 17.864 21.866
  C 18.382 21.866 18.804 21.443 18.804 20.924 L 18.804 6.773 Z M 15.98 19.038 L 7.511 19.038 C 7.249 19.038 7.039 18.827 7.039 18.565
  C 7.039 18.305 7.249 18.093 7.511 18.093 L 15.98 18.093 C 16.241 18.093 16.451 18.305 16.451 18.565 C 16.451 18.827 16.241
  19.038 15.98 19.038 Z M 15.98 15.264 L 7.511 15.264 C 7.249 15.264 7.039 15.053 7.039 14.792 C 7.039 14.532 7.249 14.321 7.511 14.321
  L 15.98 14.321 C 16.241 14.321 16.451 14.532 16.451 14.792 C 16.451 15.053 16.241 15.264 15.98 15.264 Z M 15.98 11.49
  L 7.511 11.49 C 7.249 11.49 7.039 11.28 7.039 11.019 C 7.039 10.758 7.249 10.547 7.511 10.547 L 15.98 10.547 C 16.241 10.547
  16.451 10.758 16.451 11.019 C 16.451 11.28 16.241 11.49 15.98 11.49 Z"/>
</svg>
