<?xml version="1.0" encoding="utf-8"?>
<!--
  Copyright 2016-2018 Hippo B.V. (http://www.onehippo.com)

  Licensed under the Apache License, Version 2.0 (the "License");
  you may not use this file except in compliance with the License.
  You may obtain a copy of the License at

   http://www.apache.org/licenses/LICENSE-2.0

  Unless required by applicable law or agreed to in writing, software
  distributed under the License is distributed on an "AS IS" BASIS,
  WITHOUT WARRANTIES OR CONDITIONS OF ANY KIND, either express or implied.
  See the License for the specific language governing permissions and
  limitations under the License.
-->
<!DOCTYPE svg PUBLIC "-//W3C//DTD SVG 1.1//EN" "http://www.w3.org/Graphics/SVG/1.1/DTD/svg11.dtd">
<svg version="1.1" id="Layer_1" xmlns="http://www.w3.org/2000/svg" x="0px" y="0px"
     viewBox="0 0 24 24" enable-background="new 0 0 24 24" xml:space="preserve">
  <path fill="currentcolor" clip-rule="evenodd" d="M 17.864 22.81 L 5.626 22.81 C 4.587 22.81 3.745 21.965 3.745 20.924 L 3.745 3 C 3.745 1.958 4.587 1.114 5.626 1.114 C 5.627 1.114 14.558 1.114 14.558 1.114 L 14.569 1.114 C 14.719 1.114 14.848 1.19 14.934 1.3 L 19.56 5.937 C 19.671 6.023 19.745 6.151 19.745 6.303 C 19.745 6.304 19.745 6.315 19.745 6.315 L 19.745 20.924 C 19.745 21.965 18.903 22.81 17.864 22.81 Z M 18.804 6.773 L 14.569 6.773 C 14.308 6.773 14.098 6.562 14.098 6.303 L 14.098 2.058 L 5.626 2.058 C 5.108 2.058 4.686 2.481 4.686 3 L 4.686 20.924 C 4.686 21.443 5.108 21.866 5.626 21.866 L 17.864 21.866 C 18.382 21.866 18.804 21.443 18.804 20.924 Z M 15.038 2.708 L 15.038 5.831 L 18.153 5.831 Z"/>
  <path fill="currentcolor" d="M 7.679 10 C 7.317 10 7 10.234 7 10.5 C 7 10.767 7.317 11 7.679 11 L 15.821 11 C 16.183 11 16.5 10.767 16.5 10.5 C 16.5 10.234 16.183 10 15.821 10 L 7.679 10 Z"/>
  <path fill="currentcolor" d="M 7.679 14 C 7.317 14 7 14.234 7 14.5 C 7 14.767 7.317 15 7.679 15 L 15.821 15 C 16.183 15 16.5 14.767 16.5 14.5 C 16.5 14.234 16.183 14 15.821 14 L 7.679 14 Z"/>
  <path fill="currentcolor" d="M 7.679 18 C 7.317 18 7 18.234 7 18.5 C 7 18.767 7.317 19 7.679 19 L 15.821 19 C 16.183 19 16.5 18.767 16.5 18.5 C 16.5 18.234 16.183 18 15.821 18 L 7.679 18 Z"/>
</svg>
