<?xml version="1.0" encoding="utf-8"?>
<!--
  Copyright 2016-2018 Hippo B.V. (http://www.onehippo.com)

  Licensed under the Apache License, Version 2.0 (the "License");
  you may not use this file except in compliance with the License.
  You may obtain a copy of the License at

   http://www.apache.org/licenses/LICENSE-2.0

  Unless required by applicable law or agreed to in writing, software
  distributed under the License is distributed on an "AS IS" BASIS,
  WITHOUT WARRANTIES OR CONDITIONS OF ANY KIND, either express or implied.
  See the License for the specific language governing permissions and
  limitations under the License.
-->
<!DOCTYPE svg PUBLIC "-//W3C//DTD SVG 1.1//EN" "http://www.w3.org/Graphics/SVG/1.1/DTD/svg11.dtd">
<svg version="1.1" id="Layer_1" xmlns="http://www.w3.org/2000/svg" xmlns:xlink="http://www.w3.org/1999/xlink" x="0px" y="0px"
     viewBox="0 0 48 48" enable-background="new 0 0 48 48" xml:space="preserve">
  <path fill="currentcolor" clip-rule="evenodd" d="M 35.713 45.15 L 12.34 45.15 C 10.355 45.15 8.745 43.513 8.745 41.495 L 8.745 6.769
    C 8.745 4.75 10.355 3.114 12.34 3.114 L 29.395 3.114 C 29.397 3.114 29.4 3.114 29.402 3.114 L 29.421 3.114 L 29.421 3.114 C 29.708
    3.114 29.954 3.262 30.117 3.475 L 38.953 12.458 C 39.164 12.625 39.308 12.874 39.308 13.167 L 39.308 13.167 L 39.308 13.187 C 39.308
    13.189 39.308 13.19 39.308 13.191 L 39.308 41.495 C 39.308 43.513 37.698 45.15 35.713 45.15 Z M 30.317 6.204 L 30.317 12.253 L 36.269
    12.253 L 30.317 6.204 Z M 37.511 14.079 L 29.421 14.079 C 28.923 14.079 28.521 13.671 28.521 13.167 L 28.521 4.943 L 12.34 4.943 C 11.348
    4.943 10.542 5.761 10.542 6.769 L 10.542 41.495 C 10.542 42.503 11.348 43.321 12.34 43.321 L 35.713 43.321 C 36.705 43.321 37.511 42.503
    37.511 41.495 L 37.511 14.079 Z M 32.118 37.841 L 15.936 37.841 C 15.438 37.841 15.038 37.432 15.038 36.926 C 15.038 36.421 15.438 36.011
    15.936 36.011 L 32.118 36.011 C 32.615 36.011 33.015 36.421 33.015 36.926 C 33.015 37.432 32.615 37.841 32.118 37.841 Z M 32.118 30.528
    L 15.936 30.528 C 15.438 30.528 15.038 30.121 15.038 29.616 C 15.038 29.112 15.438 28.701 15.936 28.701 L 32.118 28.701 C 32.615 28.701
    33.015 29.112 33.015 29.616 C 33.015 30.121 32.615 30.528 32.118 30.528 Z M 32.118 23.219 L 15.936 23.219 C 15.438 23.219 15.038 22.809
    15.038 22.305 C 15.038 21.8 15.438 21.391 15.936 21.391 L 32.118 21.391 C 32.615 21.391 33.015 21.8 33.015 22.305 C 33.015 22.809 32.615
    23.219 32.118 23.219 Z"/>
</svg>
