<?xml version="1.0" encoding="utf-8"?>
<!--
  Copyright 2016 Hippo B.V. (http://www.onehippo.com)

  Licensed under the Apache License, Version 2.0 (the "License");
  you may not use this file except in compliance with the License.
  You may obtain a copy of the License at

   http://www.apache.org/licenses/LICENSE-2.0

  Unless required by applicable law or agreed to in writing, software
  distributed under the License is distributed on an "AS IS" BASIS,
  WITHOUT WARRANTIES OR CONDITIONS OF ANY KIND, either express or implied.
  See the License for the specific language governing permissions and
  limitations under the License.
-->
<!DOCTYPE svg PUBLIC "-//W3C//DTD SVG 1.1//EN" "http://www.w3.org/Graphics/SVG/1.1/DTD/svg11.dtd">
<svg version="1.1" id="Layer_1" xmlns="http://www.w3.org/2000/svg" xmlns:xlink="http://www.w3.org/1999/xlink" x="0px" y="0px"
	 width="16px" height="16px" viewBox="0 0 16 16" enable-background="new 0 0 16 16" xml:space="preserve">
<g>
	<path fill="currentColor" d="M14,5v10c0,0.472-0.561,1-1.031,1H2.854C2.383,16,2,15.617,2,15.146V0.913c0-0.472,0.383-0.854,0.854-0.854h5.97
		c0.473,0,1.131,0.275,1.461,0.605l3.111,2.877C13.725,3.871,14,4.528,14,5z M13,6H9C8.529,6,8,5.471,8,5V1H3L2.998,15.049L13,15V6z
		 M5.284,8h5.431C10.875,8,11,8.125,11,8.285v0.431C11,8.875,10.875,9,10.715,9H5.284C5.125,9,5,8.875,5,8.715V8.285
		C5,8.125,5.125,8,5.284,8z M5.284,10h5.431C10.875,10,11,10.124,11,10.284v0.431C11,10.875,10.875,11,10.715,11H5.284
		C5.125,11,5,10.875,5,10.715v-0.431C5,10.124,5.125,10,5.284,10z M5.284,12h5.431C10.875,12,11,12.124,11,12.284v0.431
		C11,12.875,10.875,13,10.715,13H5.284C5.125,13,5,12.875,5,12.715v-0.431C5,12.124,5.125,12,5.284,12z M9,5h4
		c-0.053-0.151-0.135-0.302-0.197-0.365L9.365,1.196C9.303,1.134,9.152,1.054,9,1V5z"/>
</g>
</svg>
