<?xml version="1.0" encoding="utf-8"?>
<!--
  Copyright 2016-2018 Hippo B.V. (http://www.onehippo.com)

  Licensed under the Apache License, Version 2.0 (the "License");
  you may not use this file except in compliance with the License.
  You may obtain a copy of the License at

   http://www.apache.org/licenses/LICENSE-2.0

  Unless required by applicable law or agreed to in writing, software
  distributed under the License is distributed on an "AS IS" BASIS,
  WITHOUT WARRANTIES OR CONDITIONS OF ANY KIND, either express or implied.
  See the License for the specific language governing permissions and
  limitations under the License.
-->
<svg version="1.1" xmlns="http://www.w3.org/2000/svg" x="0px" y="0px"
     viewBox="0 0 24 24" xml:space="preserve" fill="currentcolor">
  <path clip-rule="evenodd" d="M 18.119 23 L 5.881 23 C 4.842 23 4 22.143 4 21.088 L 4 14.895 L 4 2.912 C 4 1.856 4.842 1 5.881 1 C 5.882 1 14.813 1 14.813 1 L 14.824 1 C 14.974 1 15.103 1.077 15.189 1.189 L 19.815 5.891 C 19.926 5.978 20 6.108 20 6.262 C 20 6.263 20 6.274 20 6.274 L 20 21.088 C 20 22.143 19.158 23 18.119 23 Z M 19.059 6.738 L 14.824 6.738 C 14.563 6.738 14.353 6.524 14.353 6.262 L 14.35 2 L 5.88 2 C 5.36 2 5 2.39 5 2.91 L 5 21.09 C 5 21.61 5.363 22.043 5.88 22 L 18.12 22 C 18.637 22.043 19.059 21.614 19 21.09 L 19 6.74 L 19.059 6.738 Z M 15.293 2.616 L 15.293 5.783 L 18.408 5.783 L 15.293 2.616 Z"/>
  <path d="M 7.679 10 C 7.317 10 7 10.234 7 10.5 C 7 10.767 7.317 11 7.679 11 L 15.821 11 C 16.183 11 16.5 10.767 16.5 10.5 C 16.5 10.234 16.183 10 15.821 10 L 7.679 10 Z"/>
  <path d="M 7.679 14 C 7.317 14 7 14.234 7 14.5 C 7 14.767 7.317 15 7.679 15 L 15.821 15 C 16.183 15 16.5 14.767 16.5 14.5 C 16.5 14.234 16.183 14 15.821 14 L 7.679 14 Z"/>
  <path d="M 7.679 18 C 7.317 18 7 18.234 7 18.5 C 7 18.767 7.317 19 7.679 19 L 15.821 19 C 16.183 19 16.5 18.767 16.5 18.5 C 16.5 18.234 16.183 18 15.821 18 L 7.679 18 Z"/>
</svg>
