<?xml version="1.0" encoding="utf-8"?>
<!-- Generator: Adobe Illustrator 16.0.0, SVG Export Plug-In . SVG Version: 6.00 Build 0)  -->
<!DOCTYPE svg PUBLIC "-//W3C//DTD SVG 1.1//EN" "http://www.w3.org/Graphics/SVG/1.1/DTD/svg11.dtd">
<svg version="1.1" id="Layer_1" xmlns="http://www.w3.org/2000/svg" xmlns:xlink="http://www.w3.org/1999/xlink" x="0px" y="0px"
	 width="32px" height="32px" viewBox="0 0 32 32" enable-background="new 0 0 32 32" xml:space="preserve">
<g>
	<path fill="currentColor" d="M23.975,28.437c0-0.734-0.043-24.882-0.043-24.882c0-0.807-0.673-1.521-1.441-1.521H7.5C6.732,2.034,6,2.772,6,3.581
		l0.037,25.147c0,0.807,0.646,1.234,1.415,1.234c0,0,14.272,0.006,14.991,0.006S23.975,29.171,23.975,28.437z M7.482,29.023
		c-0.415,0-0.5-0.184-0.5-0.24L6.99,3.496c0-0.256,0.293-0.511,0.51-0.511h14.969C22.676,2.985,23,3.27,23,3.534
		c0,0,0,24.737,0,24.956s-0.094,0.542-0.453,0.542C21.672,29.031,7.482,29.023,7.482,29.023z"/>
</g>
<rect fill="currentColor" x="6.567" y="25.047" width="16.667" height="0.916"/>
<polygon fill="currentColor" points="16.938,27.947 13.042,27.906 13.062,27.031 16.938,27.031 "/>
</svg>
