<?xml version="1.0" encoding="utf-8"?>
<!-- Generator: Adobe Illustrator 21.1.0, SVG Export Plug-In . SVG Version: 6.00 Build 0)  -->
<svg version="1.1" id="Layer_1" xmlns="http://www.w3.org/2000/svg" xmlns:xlink="http://www.w3.org/1999/xlink" x="0px" y="0px"
	 viewBox="0 0 72 68.1" style="enable-background:new 0 0 72 68.1;" xml:space="preserve">
<g fill="currentColor">
	<path class="st0" d="M42.5,34.7L21,15.2V25H6v19.3H21v9.8L42.5,34.7z M9,41.3V28H24v-6l14,12.7L24,47.3v-6H9z"/>
	<path class="st0" d="M32.5,52.5c-0.8,0-1.5,0.7-1.5,1.5s0.7,1.5,1.5,1.5h18c0.8,0,1.5-0.7,1.5-1.5s-0.7-1.5-1.5-1.5H32.5z"/>
	<path class="st0" d="M34.3,45.5h20.3c0.8,0,1.5-0.7,1.5-1.5s-0.7-1.5-1.5-1.5H37.6L34.3,45.5z"/>
	<path class="st0" d="M54.5,35.5c0.8,0,1.5-0.7,1.5-1.5s-0.7-1.5-1.5-1.5H43.9l2.4,2.2l-0.9,0.8H54.5z"/>
	<path class="st0" d="M42,24c0-0.8-0.7-1.5-1.5-1.5h-7.7l3.3,3h4.4C41.4,25.5,42,24.9,42,24z"/>
	<path class="st0" d="M65.6,19C65.6,19,65.6,19,65.6,19l-16-16c0,0,0,0,0,0l-0.4-0.4H21v9.3l3,2.7V5.5h23v16h16v41H24v-7.8l-3,2.7
		v8.1h45V19.4L65.6,19z M50,18.5V7.6l10.9,10.9H50z"/>
</g>
</svg>
