<?xml version="1.0" encoding="utf-8"?>
<!--
  Copyright 2016-2020 Hippo B.V. (http://www.onehippo.com)

  Licensed under the Apache License, Version 2.0 (the "License");
  you may not use this file except in compliance with the License.
  You may obtain a copy of the License at

   http://www.apache.org/licenses/LICENSE-2.0

  Unless required by applicable law or agreed to in writing, software
  distributed under the License is distributed on an "AS IS" BASIS,
  WITHOUT WARRANTIES OR CONDITIONS OF ANY KIND, either express or implied.
  See the License for the specific language governing permissions and
  limitations under the License.
-->
<svg width="24px" height="24px" viewBox="0 0 24 24" version="1.1"
  xmlns="http://www.w3.org/2000/svg"
  xmlns:xlink="http://www.w3.org/1999/xlink">
  <g stroke="none" stroke-width="1" fill="none" fill-rule="evenodd">
    <g fill="currentColor" fill-rule="nonzero">
      <path d="M16,2 L22,8 L22,20 C22,21.0543618 21.1841222,21.9181651 20.1492623,21.9945143 L20,22 L8,22 C6.9456382,22 6.08183488,21.1841222 6.00548574,20.1492623 L6,20 L6,16 L8,14 L8,20 L20,20 L20,9 L15,9 L15,4 L8,4 L8,10 L6,8 L6,4 C6,2.9456382 6.81587779,2.08183488 7.85073766,2.00548574 L8,2 L16,2 Z M17,17 L17,18 L10,18 L10,17 L17,17 Z M4,8 L8,12 L4,16 L4,13 L2,13 L2,11 L4,11 L4,8 Z M18,14 L18,15 L10,15 L10,14 L18,14 Z M18,11 L18,12 L10,12 L10,11 L18,11 Z" />
    </g>
  </g>
</svg>