<?xml version="1.0" encoding="utf-8"?>
<!--
  Copyright 2016-2020 Hippo B.V. (http://www.onehippo.com)

  Licensed under the Apache License, Version 2.0 (the "License");
  you may not use this file except in compliance with the License.
  You may obtain a copy of the License at

   http://www.apache.org/licenses/LICENSE-2.0

  Unless required by applicable law or agreed to in writing, software
  distributed under the License is distributed on an "AS IS" BASIS,
  WITHOUT WARRANTIES OR CONDITIONS OF ANY KIND, either express or implied.
  See the License for the specific language governing permissions and
  limitations under the License.
-->
<svg width="24px" height="24px" viewBox="0 0 24 24" version="1.1"
	xmlns="http://www.w3.org/2000/svg"
	xmlns:xlink="http://www.w3.org/1999/xlink">
	<g stroke="none" stroke-width="1" fill="none" fill-rule="evenodd">
		<g transform="translate(0.000000, 0.000000)" fill="currentColor" fill-rule="nonzero">
			<path d="M22,1 C22.6136497,1 23,1.38635028 23,2 L23,15 L21,14.999 L21,9 L8,9 L8,21 L10,20.999 L10,23 L22.0216481,22.9998386 C22.014464,22.9999461 22.0072478,23 22,23 L2,23 C1.38635028,23 1,22.6136497 1,22 L1,2 C1,1.38635028 1.38635028,1 2,1 L22,1 Z M16.5,16 C19,16 21.135,17.4513333 22,19.5 C21.135,21.5486667 19,23 16.5,23 C14,23 11.865,21.5486667 11,19.5 C11.865,17.4513333 14,16 16.5,16 Z M16.5,17 C15.12,17 14,18.12 14,19.5 C14,20.88 15.12,22 16.5,22 C17.88,22 19,20.88 19,19.5 C19,18.12 17.88,17 16.5,17 Z M16.5,18 C17.33,18 18,18.67 18,19.5 C18,20.33 17.33,21 16.5,21 C15.67,21 15,20.33 15,19.5 C15,18.67 15.67,18 16.5,18 Z M7,3 L3,3 L3,21 L7,21 L7,3 Z M21,3 L8,3 L8,8 L21,8 L21,3 Z"></path>
		</g>
	</g>
</svg>