<?xml version="1.0" encoding="utf-8"?>
<!--
  Copyright 2016-2017 Hippo B.V. (http://www.onehippo.com)

  Licensed under the Apache License, Version 2.0 (the "License");
  you may not use this file except in compliance with the License.
  You may obtain a copy of the License at

   http://www.apache.org/licenses/LICENSE-2.0

  Unless required by applicable law or agreed to in writing, software
  distributed under the License is distributed on an "AS IS" BASIS,
  WITHOUT WARRANTIES OR CONDITIONS OF ANY KIND, either express or implied.
  See the License for the specific language governing permissions and
  limitations under the License.
-->
<!-- Generator: Adobe Illustrator 21.1.0, SVG Export Plug-In . SVG Version: 6.00 Build 0)  -->
<svg version="1.1" xmlns="http://www.w3.org/2000/svg" xmlns:xlink="http://www.w3.org/1999/xlink" x="0px" y="0px"
	 viewBox="0 0 24 24" style="enable-background:new 0 0 24 24;" xml:space="preserve" fill="currentColor">
<g id="Layer_1">
	<g>
		<path class="st0" d="M6.4,2H0.6C0.3,2,0,2.7,0,3v18.3C0,21.6,0.3,22,0.6,22h5.8C6.7,22,7,21.6,7,21.3V3C7,2.7,6.7,2,6.4,2z M6,21
			L1,21V3H6V21z"/>
		<path class="st0" d="M23.4,2H8.6C8.3,2,8,2.7,8,3v9.2c0,0.3,0.3,0.6,0.6,0.6h14.8c0.3,0,0.6-0.3,0.6-0.6V3C24,2.7,23.7,2,23.4,2z
			 M23,12H9V3h14V12z"/>
		<path class="st0" d="M14.4,14.1l-5.8,0c-0.3,0-0.6,0.3-0.6,0.6v6.7C8,21.6,8.3,22,8.6,22h5.8c0.3,0,0.6-0.4,0.6-0.7v-6.7
			C14.9,14.3,14.7,14.1,14.4,14.1z M14,21l-5,0v-6l5,0V21z"/>
		<path class="st0" d="M23.4,14.1h-5.8c-0.3,0-0.6,0.3-0.6,0.6v6.7c0,0.3,0.3,0.7,0.6,0.7h5.8c0.3,0,0.6-0.4,0.6-0.7v-6.7
			C24,14.3,23.7,14.1,23.4,14.1z M23,21.1h-5V15h5V21.1z"/>
	</g>
</g>
<g id="Layer_2" class="st1">
	<g class="st2">
		<path class="st0" d="M-0.1-12.5H-17c-0.8,0-1.5,0.7-1.5,1.5v48c0,0.8,0.7,1.5,1.5,1.5h16.9c0.8,0,1.5-0.7,1.5-1.5v-48
			C1.4-11.8,0.7-12.5-0.1-12.5z M-1.6,35.5h-13.9v-45h13.9V35.5z"/>
		<path class="st0" d="M43-12.5H4.8c-0.8,0-1.5,0.7-1.5,1.5v23.5c0,0.8,0.7,1.5,1.5,1.5H43c0.8,0,1.5-0.7,1.5-1.5V-11
			C44.5-11.8,43.8-12.5,43-12.5z M41.5,11H6.3V-9.5h35.3V11z"/>
		<path class="st0" d="M21.2,15.8H4.8c-0.8,0-1.5,0.7-1.5,1.5V37c0,0.8,0.7,1.5,1.5,1.5h16.4c0.8,0,1.5-0.7,1.5-1.5V17.3
			C22.7,16.5,22,15.8,21.2,15.8z M19.7,35.5H6.3V18.8h13.4V35.5z"/>
		<path class="st0" d="M43,15.8H26.6c-0.8,0-1.5,0.7-1.5,1.5V37c0,0.8,0.7,1.5,1.5,1.5H43c0.8,0,1.5-0.7,1.5-1.5V17.3
			C44.5,16.5,43.8,15.8,43,15.8z M41.5,35.5H28.1V18.8h13.4V35.5z"/>
	</g>
</g>
<g id="Layer_3" class="st1">
	<g class="st2">
		<path class="st0" d="M43-12.5h-60c-0.8,0-1.5,0.7-1.5,1.5v48c0,0.8,0.7,1.5,1.5,1.5h60c0.8,0,1.5-0.7,1.5-1.5v-48
			C44.5-11.8,43.8-12.5,43-12.5z M41.5,35.5h-57v-45h57V35.5z"/>
		<path class="st0" d="M-11.6,3.8c0.8,0,1.5-0.7,1.5-1.5v-6.6h6.6C-2.6-4.3-2-5-2-5.8s-0.7-1.5-1.5-1.5h-8.1c-0.8,0-1.5,0.7-1.5,1.5
			v8.1C-13.1,3.1-12.4,3.8-11.6,3.8z"/>
		<path class="st0" d="M-11.6,33.2h8.1c0.8,0,1.5-0.7,1.5-1.5s-0.7-1.5-1.5-1.5h-6.6v-6.6c0-0.8-0.7-1.5-1.5-1.5s-1.5,0.7-1.5,1.5
			v8.1C-13.1,32.5-12.4,33.2-11.6,33.2z"/>
		<path class="st0" d="M29.3-4.3h6.6v6.6c0,0.8,0.7,1.5,1.5,1.5s1.5-0.7,1.5-1.5v-8.1c0-0.8-0.7-1.5-1.5-1.5h-8.1
			c-0.8,0-1.5,0.7-1.5,1.5S28.4-4.3,29.3-4.3z"/>
		<path class="st0" d="M29.3,33.2h8.1c0.8,0,1.5-0.7,1.5-1.5v-8.1c0-0.8-0.7-1.5-1.5-1.5s-1.5,0.7-1.5,1.5v6.6h-6.6
			c-0.8,0-1.5,0.7-1.5,1.5S28.4,33.2,29.3,33.2z"/>
	</g>
</g>
<g id="Layer_4" class="st1">
	<g class="st2">
		<path class="st3" d="M43-12.5h-60c-0.8,0-1.5,0.7-1.5,1.5v48c0,0.8,0.7,1.5,1.5,1.5h60c0.8,0,1.5-0.7,1.5-1.5v-48
			C44.5-11.8,43.8-12.5,43-12.5z M41.5,35.5h-57v-45h57V35.5z"/>
		<path class="st3" d="M13.7,3.8c0.8,0,1.5-0.7,1.5-1.5v-6.6h6.6c0.8,0,1.5-0.7,1.5-1.5s-0.7-1.5-1.5-1.5h-8.1
			c-0.8,0-1.5,0.7-1.5,1.5v8.1C12.2,3.1,12.9,3.8,13.7,3.8z"/>
		<path class="st3" d="M13.7,33.2h8.1c0.8,0,1.5-0.7,1.5-1.5s-0.7-1.5-1.5-1.5h-6.6v-6.6c0-0.8-0.7-1.5-1.5-1.5s-1.5,0.7-1.5,1.5
			v8.1C12.2,32.5,12.9,33.2,13.7,33.2z"/>
		<path class="st3" d="M29.3-4.3h6.6v6.6c0,0.8,0.7,1.5,1.5,1.5s1.5-0.7,1.5-1.5v-8.1c0-0.8-0.7-1.5-1.5-1.5h-8.1
			c-0.8,0-1.5,0.7-1.5,1.5S28.4-4.3,29.3-4.3z"/>
		<path class="st3" d="M29.3,33.2h8.1c0.8,0,1.5-0.7,1.5-1.5v-8.1c0-0.8-0.7-1.5-1.5-1.5s-1.5,0.7-1.5,1.5v6.6h-6.6
			c-0.8,0-1.5,0.7-1.5,1.5S28.4,33.2,29.3,33.2z"/>
	</g>
</g>
</svg>
