<?xml version="1.0" encoding="UTF-8" standalone="no"?>
<!-- Generator: Adobe Illustrator 16.0.0, SVG Export Plug-In . SVG Version: 6.00 Build 0)  -->
<svg id="Layer_1" xmlns:rdf="http://www.w3.org/1999/02/22-rdf-syntax-ns#" xmlns="http://www.w3.org/2000/svg" enable-background="new 0 0 16 16" xml:space="preserve" height="16px" viewBox="0 0 16 16" width="16px" version="1.1" y="0px" x="0px" xmlns:cc="http://creativecommons.org/ns#" xmlns:dc="http://purl.org/dc/elements/1.1/"><metadata id="metadata21"><rdf:RDF><cc:Work rdf:about=""><dc:format>image/svg+xml</dc:format><dc:type rdf:resource="http://purl.org/dc/dcmitype/StillImage"/><dc:title/></cc:Work></rdf:RDF></metadata><g id="g3" transform="matrix(0,-1,1,0,-0.029,16.091)"><g id="g5"><g id="g7"><path id="path9" fill="#383838" d="m8.031,2.125c3.292,0,5.969,2.663,5.969,5.935s-2.677,5.935-5.969,5.935c-3.289,0-5.969-2.662-5.969-5.935,0-3.272,2.68-5.935,5.969-5.935m0-0.709c-3.683,0-6.678,2.98-6.678,6.644,0,3.663,2.995,6.644,6.678,6.644s6.678-2.98,6.678-6.644-2.995-6.644-6.678-6.644z"/></g></g></g><g id="g11" transform="matrix(0,-1,1,0,-0.2966102,16.025424)"><g id="g13"><polygon id="polygon15" points="4,6,12,6,8,11" fill="#383838"/></g></g></svg>
