<?xml version="1.0" encoding="utf-8"?>
<svg version="1.1" id="icons" xmlns="http://www.w3.org/2000/svg" xmlns:xlink="http://www.w3.org/1999/xlink" x="0px" y="0px"
	 viewBox="0 0 50 50" style="enable-background:new 0 0 50 50;" xml:space="preserve">
<g>
	<polygon points="38.4,50 0.3,50 0.3,4.3 22.1,4.3 22.1,8.7 4.7,8.7 4.7,45.7 34,45.7 34,25 38.4,25 	"/>
	<rect x="10.1" y="22.8" width="6.5" height="2.2"/>
	<rect x="10.1" y="30.4" width="18.5" height="2.2"/>
	<rect x="10.1" y="38" width="18.5" height="2.2"/>
	<path d="M49.7,28.9L43,22.2c1.7-2.3,2.7-5.1,2.7-8.2c0-7.7-6.3-14-14-14s-14,6.3-14,14s6.3,14,14,14
		c3.1,0,5.9-1,8.2-2.7l6.7,6.7L49.7,28.9z M31.7,23.6c-5.3,0-9.6-4.3-9.6-9.6c0-5.3,4.3-9.6,9.6-9.6c5.3,0,9.6,4.3,9.6,9.6
		C41.3,19.3,37,23.6,31.7,23.6z"/>
</g>
</svg>
