<svg xmlns="http://www.w3.org/2000/svg" width="76" height="76" viewBox="0 0 76 76"><title>ss-icon_</title><rect x="24.61" y="3.73" width="51.3" height="1.9" fill="#0c3d6d"/><path d="M9.59,1.9A7.6,7.6,0,1,1,2,9.5a7.61,7.61,0,0,1,7.6-7.6m0-1.9a9.5,9.5,0,1,0,9.5,9.5A9.5,9.5,0,0,0,9.59,0Z" fill="#0c3d6d"/><rect x="24.61" y="13.23" width="36.1" height="1.9" fill="#0c3d6d"/><rect x="24.61" y="60.73" width="51.3" height="1.9" fill="#0c3d6d"/><path d="M9.59,58.9A7.6,7.6,0,1,1,2,66.5a7.61,7.61,0,0,1,7.6-7.6m0-1.9a9.5,9.5,0,1,0,9.5,9.5A9.5,9.5,0,0,0,9.59,57Z" fill="#0c3d6d"/><rect x="24.61" y="70.23" width="36.1" height="1.9" fill="#0c3d6d"/><rect x="24.61" y="32.23" width="51.3" height="1.9" fill="#0c3d6d"/><path d="M9.59,30.4A7.6,7.6,0,1,1,2,38a7.61,7.61,0,0,1,7.6-7.6m0-1.9a9.5,9.5,0,1,0,9.5,9.5,9.5,9.5,0,0,0-9.5-9.5Z" fill="#0c3d6d"/><rect x="24.61" y="41.73" width="36.1" height="1.9" fill="#0c3d6d"/></svg>