<svg xmlns="http://www.w3.org/2000/svg" width="76" height="76" viewBox="0 0 76 76"><title>ss-icon_</title><polygon points="50.85 0.95 8.49 0.95 8.49 75.05 67.51 75.05 67.51 17.45 50.85 0.95" fill="#00acfb"/><path d="M68.46,76H7.54V0H51.24L68.46,17.05Zm-59-1.9H66.56V17.85L50.46,1.9h-41Z" fill="#0c3d6d"/><rect x="20.86" y="60.77" width="20.94" height="1.9" fill="#fff"/><rect x="45.62" y="60.77" width="11.42" height="1.9" fill="#fff"/><rect x="20.86" y="41.73" width="9.52" height="1.9" fill="#fff"/><rect x="34.19" y="41.73" width="22.85" height="1.9" fill="#fff"/><rect x="20.86" y="32.21" width="15.23" height="1.9" fill="#fff"/><rect x="39.9" y="32.21" width="17.14" height="1.9" fill="#fff"/><rect x="20.86" y="51.25" width="36.18" height="1.9" fill="#fff"/><polygon points="66.56 18.88 49.42 18.88 49.42 1.27 51.33 1.27 51.33 16.98 66.56 16.98 66.56 18.88" fill="#0c3d6d"/></svg>