<svg xmlns="http://www.w3.org/2000/svg" width="76" height="76" viewBox="0 0 76 76"><title>ss-icon_</title><path d="M53.2,47.5V3.8h0l-16,12.44A1.9,1.9,0,0,1,35,16.3L18.07,4.48a1.9,1.9,0,0,0-2-.1L0,13.3H0V57H0l16.06-8.92a1.9,1.9,0,0,1,2,.1L35,60a1.9,1.9,0,0,0,2.26-.06l16-12.44Z" fill="#00acfb"/><path d="M37.21,16.24A1.9,1.9,0,0,1,35,16.3L18.07,4.48a1.9,1.9,0,0,0-2-.1v43.7a1.9,1.9,0,0,1,2,.1L35,60a1.9,1.9,0,0,0,2.26-.06Z" fill="#fff"/><path d="M17,6.1,33.83,17.9a3.85,3.85,0,0,0,4.57-.12l12.84-10V46.54L36,58.37,19.19,46.58a3.85,3.85,0,0,0-4.08-.21L2,53.68V14.45L17,6.1M53.2,3.8l-16,12.44A1.9,1.9,0,0,1,35,16.3L18.07,4.48a1.9,1.9,0,0,0-2-.1L0,13.3V57l16.06-8.92a1.9,1.9,0,0,1,2,.1L35,60a1.9,1.9,0,0,0,2.26-.06l16-12.44V3.8Z" fill="#0c3d6d"/><rect x="15.89" y="5.46" width="1.95" height="40.97" fill="#0c3d6d"/><rect x="35.36" y="17.93" width="1.95" height="40.97" fill="#0c3d6d"/><path d="M76,46.55a16.15,16.15,0,0,0-32.3,0C43.7,58.9,59.85,72.2,59.85,72.2S76,58.9,76,46.55Z" fill="#00acfb"/><path d="M59.85,32.35A14.21,14.21,0,0,1,74,46.55c0,4.58-2.62,10.16-7.58,16.16a68.52,68.52,0,0,1-6.61,6.9,68.54,68.54,0,0,1-6.61-6.9c-5-6-7.58-11.58-7.58-16.16a14.21,14.21,0,0,1,14.2-14.2m0-2A16.15,16.15,0,0,0,43.7,46.55C43.7,58.9,59.85,72.2,59.85,72.2S76,58.9,76,46.55A16.15,16.15,0,0,0,59.85,30.4Z" fill="#0c3d6d"/><circle cx="59.85" cy="46.55" r="5.7" fill="#fff"/><path d="M59.85,42.8a3.75,3.75,0,1,1-3.75,3.75,3.75,3.75,0,0,1,3.75-3.75m0-2a5.7,5.7,0,1,0,5.7,5.7,5.7,5.7,0,0,0-5.7-5.7Z" fill="#0c3d6d"/></svg>