<svg xmlns="http://www.w3.org/2000/svg" width="76" height="76" viewBox="0 0 76 76"><title>ss-icon_</title><path d="M30.51,60.8a19.2,19.2,0,0,1,.65-7.51,4.54,4.54,0,0,1,3.14-2.94c2.09-.66,4.24-1.14,6.34-1.77a23.29,23.29,0,0,0,3.68-1.36C47,45.89,47.4,44,46.17,41.27A91.78,91.78,0,0,1,42.51,32a15.5,15.5,0,0,1-.2-8.85A10.14,10.14,0,0,1,51,15.37,11.79,11.79,0,0,1,60,17.23c4,2.94,4.8,7.16,4.33,11.74a33,33,0,0,1-3.95,12c-1.69,3.22-1.05,5.26,2.31,6.59,2.19.86,4.52,1.38,6.78,2a23.14,23.14,0,0,1,2.78.87,4.79,4.79,0,0,1,3.19,4c.22,2.1.4,4.2.61,6.4Z" fill="#fff"/><path d="M53.38,17.1a9,9,0,0,1,5.46,1.67c2.95,2.14,4,5.23,3.55,10A30.8,30.8,0,0,1,58.66,40c-1.14,2.18-1.41,4-.82,5.62s1.93,2.76,4.11,3.62a46,46,0,0,0,4.83,1.51c.7.19,1.42.39,2.1.59l.85.24a12.3,12.3,0,0,1,1.7.55c1.67.74,2,1.64,2.07,2.43.15,1.42.28,2.82.41,4.3H32.31a15.94,15.94,0,0,1,.66-5,2.71,2.71,0,0,1,1.9-1.7c1.1-.35,2.2-.64,3.37-.95,1-.26,2-.52,3-.82a25.15,25.15,0,0,0,4-1.48c2.44-1.21,4.89-3.66,2.73-8.42a89.59,89.59,0,0,1-3.58-9,13.59,13.59,0,0,1-.17-7.78,8.27,8.27,0,0,1,7.13-6.41,15.62,15.62,0,0,1,2.11-.15m0-1.9a17.42,17.42,0,0,0-2.37.17,10.14,10.14,0,0,0-8.71,7.81,15.5,15.5,0,0,0,.2,8.85,91.8,91.8,0,0,0,3.65,9.24c1.23,2.72.79,4.62-1.85,5.94a23.29,23.29,0,0,1-3.68,1.36c-2.1.63-4.25,1.12-6.34,1.77a4.54,4.54,0,0,0-3.14,2.94,19.2,19.2,0,0,0-.65,7.51H76c-.21-2.2-.38-4.3-.61-6.4a4.79,4.79,0,0,0-3.19-4,23.14,23.14,0,0,0-2.78-.87c-2.27-.67-4.59-1.18-6.78-2-3.36-1.33-4-3.37-2.31-6.59a33,33,0,0,0,3.95-12c.47-4.57-.28-8.8-4.33-11.74a10.82,10.82,0,0,0-6.58-2Z" fill="#0c3d6d"/><path d="M.1,60.8a19.2,19.2,0,0,1,.65-7.51A4.54,4.54,0,0,1,3.9,50.35c2.09-.66,4.24-1.14,6.34-1.77a23.29,23.29,0,0,0,3.68-1.36C16.56,45.89,17,44,15.76,41.27A91.78,91.78,0,0,1,12.11,32a15.5,15.5,0,0,1-.2-8.85,10.14,10.14,0,0,1,8.71-7.81,11.79,11.79,0,0,1,8.95,1.86c4,2.94,4.8,7.16,4.33,11.74a33,33,0,0,1-3.95,12c-1.69,3.22-1.05,5.26,2.31,6.59,2.19.86,4.52,1.38,6.78,2a23.14,23.14,0,0,1,2.78.87,4.79,4.79,0,0,1,3.19,4c.22,2.1.4,4.2.61,6.4Z" fill="#00acfb"/><path d="M23,17.1a9,9,0,0,1,5.46,1.67c2.95,2.14,4,5.23,3.55,10A30.8,30.8,0,0,1,28.26,40c-1.14,2.18-1.41,4-.82,5.62s1.93,2.76,4.11,3.62a46,46,0,0,0,4.83,1.51c.7.19,1.42.39,2.1.59l.85.24a12.3,12.3,0,0,1,1.7.55c1.67.74,2,1.64,2.07,2.43.15,1.42.28,2.82.41,4.3H1.9a15.94,15.94,0,0,1,.66-5,2.71,2.71,0,0,1,1.9-1.7c1.1-.35,2.2-.64,3.37-.95,1-.26,2-.52,3-.82a25.15,25.15,0,0,0,4-1.48c2.44-1.21,4.89-3.66,2.73-8.42a89.59,89.59,0,0,1-3.58-9,13.59,13.59,0,0,1-.17-7.78,8.27,8.27,0,0,1,7.13-6.41A15.62,15.62,0,0,1,23,17.1m0-1.9a17.42,17.42,0,0,0-2.37.17,10.14,10.14,0,0,0-8.71,7.81,15.5,15.5,0,0,0,.2,8.85,91.8,91.8,0,0,0,3.65,9.24c1.23,2.72.79,4.62-1.85,5.94a23.29,23.29,0,0,1-3.68,1.36C8.14,49.2,6,49.69,3.9,50.35A4.54,4.54,0,0,0,.75,53.29,19.2,19.2,0,0,0,.1,60.8H45.6c-.21-2.2-.38-4.3-.61-6.4a4.79,4.79,0,0,0-3.19-4A23.14,23.14,0,0,0,39,49.56c-2.27-.67-4.59-1.18-6.78-2-3.36-1.33-4-3.37-2.31-6.59a33,33,0,0,0,3.95-12c.47-4.57-.28-8.8-4.33-11.74a10.82,10.82,0,0,0-6.58-2Z" fill="#0c3d6d"/></svg>