<svg xmlns="http://www.w3.org/2000/svg" width="76" height="76" viewBox="0 0 76 76"><title>ss-icon_</title><rect x="6.17" width="55.1" height="76" fill="#00acfb"/><path d="M59.38,1.9V74.1H8.07V1.9h51.3M61.28,0H6.18V76h55.1V0Z" fill="#0c3d6d"/><rect x="21.38" y="1.42" width="1.9" height="73.63" fill="#0c3d6d"/><rect x="0.48" y="7.6" width="9.5" height="5.7" fill="#e9faff"/><path d="M8.07,9.5v1.9H2.38V9.5h5.7M10,7.6H.48v5.7H10V7.6Z" fill="#0c3d6d"/><rect x="0.48" y="62.7" width="9.5" height="5.7" fill="#e9faff"/><path d="M8.07,64.6v1.9H2.38V64.6h5.7M10,62.7H.48v5.7H10V62.7Z" fill="#0c3d6d"/><rect x="0.48" y="43.7" width="9.5" height="5.7" fill="#e9faff"/><path d="M8.07,45.6v1.9H2.38V45.6h5.7M10,43.7H.48v5.7H10V43.7Z" fill="#0c3d6d"/><rect x="0.48" y="26.6" width="9.5" height="5.7" fill="#e9faff"/><path d="M8.07,28.5v1.9H2.38V28.5h5.7M10,26.6H.48v5.7H10V26.6Z" fill="#0c3d6d"/><polygon points="50.35 54.15 75.53 28.98 64.13 17.57 38.95 42.75 38.95 54.63 50.35 54.15" fill="#fff"/><path d="M64.13,20.26,72.84,29,49.53,52.28l-8.68.36V43.54L64.13,20.26m0-2.69L39,42.75V54.63l11.4-.48L75.53,29l-11.4-11.4Z" fill="#0c3d6d"/><rect x="43.7" y="41.73" width="1.9" height="13.44" transform="translate(-21.18 45.76) rotate(-45)" fill="#0c3d6d"/><rect x="47.12" y="36.1" width="18.81" height="1.9" transform="translate(-9.64 50.82) rotate(-45)" fill="#0c3d6d"/></svg>