<svg xmlns="http://www.w3.org/2000/svg" width="76" height="76" viewBox="0 0 76 76"><title>ss-icon_</title><rect x="19" y="20.52" width="19" height="1.58" fill="#0c3d6d"/><rect x="19" y="23.75" width="14.25" height="1.58" fill="#0c3d6d"/><rect x="19" y="34.77" width="19" height="1.58" fill="#0c3d6d"/><rect x="19" y="38" width="14.25" height="1.58" fill="#0c3d6d"/><path d="M74.42,14.25v47.5H1.58V14.25H74.42M76,12.67H0V63.33H76V12.67Z" fill="#0c3d6d"/><path d="M36.49,57A14,14,0,0,1,37,51.53a3.31,3.31,0,0,1,2.29-2.15c1.53-.48,3.09-.83,4.62-1.29a17,17,0,0,0,2.68-1c1.93-1,2.25-2.35,1.35-4.33A66.92,66.92,0,0,1,45.25,36a11.3,11.3,0,0,1-.15-6.45,7.39,7.39,0,0,1,6.35-5.7A8.6,8.6,0,0,1,58,25.23c2.95,2.14,3.5,5.22,3.15,8.56a24.08,24.08,0,0,1-2.88,8.72c-1.23,2.35-.77,3.84,1.68,4.81,1.6.63,3.29,1,4.95,1.49a16.87,16.87,0,0,1,2,.64,3.49,3.49,0,0,1,2.32,2.89c.16,1.53.29,3.07.44,4.67Z" fill="#00acfb"/><path d="M53.17,25.33h0A6.34,6.34,0,0,1,57,26.51c2.09,1.52,2.86,3.71,2.51,7.12a22.27,22.27,0,0,1-2.7,8.14A5.14,5.14,0,0,0,56.24,46a4.94,4.94,0,0,0,3.11,2.76,33.73,33.73,0,0,0,3.54,1.11l1.53.43.62.18a8.84,8.84,0,0,1,1.21.39c1.13.5,1.34,1.09,1.39,1.61.1,1,.19,1.92.28,2.92H38A11.29,11.29,0,0,1,38.48,52a1.79,1.79,0,0,1,1.26-1.11c.8-.25,1.6-.46,2.45-.69s1.43-.38,2.16-.6a18.5,18.5,0,0,0,2.93-1.09c3.54-1.76,2.82-4.77,2.08-6.4a65.11,65.11,0,0,1-2.6-6.58A9.71,9.71,0,0,1,46.63,30a5.84,5.84,0,0,1,5-4.53,11.19,11.19,0,0,1,1.51-.11m0-1.58a12.7,12.7,0,0,0-1.73.13,7.39,7.39,0,0,0-6.35,5.7A11.3,11.3,0,0,0,45.25,36a66.91,66.91,0,0,0,2.66,6.74c.9,2,.58,3.37-1.35,4.33a17,17,0,0,1-2.68,1c-1.53.46-3.1.81-4.62,1.29A3.31,3.31,0,0,0,37,51.53,14,14,0,0,0,36.49,57H69.66c-.15-1.6-.28-3.14-.44-4.67a3.49,3.49,0,0,0-2.32-2.89,16.87,16.87,0,0,0-2-.64c-1.65-.49-3.35-.86-4.95-1.49-2.45-1-2.91-2.46-1.68-4.81a24.08,24.08,0,0,0,2.88-8.72c.34-3.34-.21-6.42-3.15-8.56a7.89,7.89,0,0,0-4.8-1.48Z" fill="#0c3d6d"/><path d="M11.16,20.58a3.09,3.09,0,1,1-3.09,3.09,3.1,3.1,0,0,1,3.09-3.09m0-1.58a4.68,4.68,0,1,0,4.68,4.68A4.68,4.68,0,0,0,11.16,19Z" fill="#0c3d6d"/><path d="M11.16,34.83a3.09,3.09,0,1,1-3.09,3.09,3.1,3.1,0,0,1,3.09-3.09m0-1.58a4.68,4.68,0,1,0,4.68,4.68,4.68,4.68,0,0,0-4.68-4.68Z" fill="#0c3d6d"/></svg>